<svg xmlns="http://www.w3.org/2000/svg" viewBox="0 0 53 17">
  <path d="M27.93 4.27c0 0.61-0.48 1.1-1.07 1.1-0.6 0-1.08-0.49-1.08-1.1 0-0.61 0.46-1.1 1.08-1.1 0.6 0.01 1.07 0.5 1.07 1.1ZM23.5 6.5v0.27S22.98 6.1 21.89 6.1c-1.8 0-3.21 1.41-3.21 3.37 0 1.94 1.39 3.37 3.2 3.37 1.12 0 1.62-0.7 1.62-0.7v0.3c0 0.13 0.1 0.23 0.23 0.23h1.34v-6.4h-1.34c-0.14 0-0.23 0.12-0.23 0.24Zm0 4.1c-0.25 0.38-0.75 0.7-1.35 0.7-1.06 0-1.87-0.68-1.87-1.84 0-1.16 0.81-1.84 1.87-1.84 0.58 0 1.11 0.34 1.35 0.7v2.28Zm2.56-4.34h1.6v6.4h-1.6v-6.4ZM49.8 6.1c-1.09 0-1.6 0.68-1.6 0.68V3.18h-1.6v9.48h1.35c0.13 0 0.23-0.12 0.23-0.24v-0.29s0.52 0.7 1.6 0.7c1.81 0 3.22-1.43 3.22-3.37 0-1.94-1.4-3.37-3.2-3.37Zm-0.26 5.2c-0.61 0-1.1-0.33-1.34-0.7V8.3c0.25-0.34 0.78-0.7 1.34-0.7 1.06 0 1.87 0.69 1.87 1.84 0 1.16-0.81 1.84-1.87 1.84Zm-3.76-2.42v3.8H44.2V9.06c0-1.05-0.33-1.48-1.22-1.48-0.48 0-0.98 0.26-1.3 0.63v4.46H40.1v-6.4h1.25c0.14 0 0.24 0.12 0.24 0.24v0.27c0.46-0.49 1.07-0.68 1.68-0.68 0.7 0 1.28 0.2 1.74 0.62 0.57 0.47 0.78 1.08 0.78 2.16Zm-9.55-2.78c-1.1 0-1.6 0.68-1.6 0.68V3.18h-1.6v9.48h1.34c0.14 0 0.24-0.12 0.24-0.24v-0.29s0.5 0.7 1.6 0.7c1.8 0 3.21-1.43 3.21-3.37 0.02-1.94-1.39-3.37-3.2-3.37Zm-0.27 5.2c-0.61 0-1.09-0.33-1.34-0.7V8.3c0.25-0.34 0.78-0.7 1.34-0.7 1.06 0 1.87 0.69 1.87 1.84 0 1.16-0.8 1.84-1.87 1.84Zm-4.3-5.2c0.48 0 0.73 0.09 0.73 0.09v1.51s-1.33-0.46-2.16 0.51v4.48h-1.59V6.26H30c0.13 0 0.23 0.12 0.23 0.24v0.27c0.3-0.35 0.94-0.68 1.44-0.68Zm-16.5 6c-0.1-0.21-0.17-0.43-0.26-0.62l-0.38-0.87-0.01-0.02c-1.15-2.55-2.37-5.13-3.66-7.69L10.8 2.8 10.4 2c-0.17-0.3-0.33-0.63-0.6-0.93C9.27 0.37 8.51 0 7.7 0 6.87 0 6.13 0.37 5.58 1.02c-0.25 0.3-0.43 0.63-0.6 0.94-0.12 0.27-0.26 0.53-0.4 0.8l-0.04 0.1C3.26 5.4 2.02 8 0.88 10.55l-0.02 0.03c-0.11 0.28-0.25 0.57-0.38 0.87l-0.25 0.61c-0.21 0.63-0.28 1.23-0.2 1.84 0.19 1.28 1.01 2.35 2.16 2.83C2.62 16.9 3.06 17 3.53 17l0.43-0.03c0.55-0.07 1.1-0.26 1.65-0.58 0.68-0.4 1.33-0.96 2.06-1.77 0.73 0.81 1.39 1.38 2.05 1.77 0.55 0.32 1.11 0.5 1.66 0.58L11.8 17c0.46 0 0.92-0.09 1.34-0.27 1.16-0.48 1.97-1.57 2.15-2.83 0.13-0.6 0.07-1.19-0.15-1.82Zm-7.48 0.88c-0.9-1.16-1.47-2.25-1.67-3.17-0.08-0.39-0.1-0.73-0.05-1.04C6 8.5 6.1 8.26 6.23 8.05 6.54 7.59 7.07 7.3 7.68 7.3c0.62 0 1.16 0.27 1.46 0.75 0.13 0.2 0.23 0.44 0.27 0.71 0.05 0.31 0.03 0.67-0.05 1.04-0.2 0.9-0.78 2-1.68 3.17Zm6.61 0.8c-0.12 0.88-0.7 1.65-1.5 1.99-0.4 0.17-0.83 0.22-1.27 0.17-0.4-0.05-0.82-0.19-1.25-0.44-0.6-0.35-1.2-0.87-1.9-1.66 1.1-1.37 1.76-2.63 2.01-3.76 0.12-0.52 0.13-1 0.09-1.44-0.07-0.43-0.22-0.82-0.45-1.16-0.52-0.77-1.38-1.2-2.34-1.2s-1.82 0.45-2.33 1.2C5.12 7.81 4.97 8.2 4.9 8.63c-0.06 0.44-0.05 0.93 0.08 1.44 0.25 1.13 0.93 2.4 2 3.78-0.67 0.78-1.28 1.31-1.88 1.65-0.43 0.26-0.84 0.4-1.26 0.45C3.4 16 2.96 15.93 2.58 15.78c-0.8-0.35-1.39-1.11-1.5-2-0.05-0.42-0.02-0.85 0.15-1.32 0.05-0.17 0.13-0.34 0.21-0.55l0.38-0.85 0.02-0.03C2.98 8.49 4.2 5.9 5.48 3.39l0.05-0.1 0.4-0.79C6.06 2.23 6.2 1.97 6.39 1.75c0.35-0.4 0.81-0.63 1.33-0.63 0.51 0 0.97 0.22 1.32 0.63C9.22 1.97 9.37 2.23 9.5 2.5l0.4 0.78 0.05 0.1c1.26 2.54 2.47 5.09 3.63 7.66v0.02l0.38 0.85c0.08 0.2 0.16 0.38 0.21 0.55 0.14 0.44 0.19 0.86 0.12 1.3Z" fill="#FF5A5F"/>
</svg>
