<svg xmlns="http://www.w3.org/2000/svg" viewBox="0 0 53 53">
  <path d="M8.88919 35.5806C8.37034 34.9836 8.96789 34.7139 9.31985 34.9322C15.0072 38.4002 23.8917 44.1102 38.2075 37.2857C38.8134 37.0324 39.2367 37.4555 38.6372 38.2222C38.0336 38.9955 33.2088 43.4282 25.0982 43.4283C16.9931 43.4283 10.7839 37.8819 8.88919 35.5806ZM38.6616 34.6187C39.8908 34.4675 41.8435 34.5607 42.2281 35.062C42.5203 35.4439 42.2182 37.16 41.7232 38.3902C41.2247 39.6136 40.4821 40.4782 40.0718 40.812C39.6559 41.1459 39.3504 41.0166 39.5718 40.5152C39.8013 40.013 41.0554 36.9041 40.5581 36.2515C40.0626 35.6037 37.6873 35.9041 36.8394 35.9888C35.9938 36.065 35.8251 36.1407 35.7427 35.9712C35.5827 35.5187 37.4307 34.7656 38.6616 34.6187Z" fill="#FF9900"/>
  <path d="M26.0903 8.68555C28.3011 8.68555 31.1827 9.2687 32.9497 10.9238L33.0024 10.9736C34.9899 12.8319 35.0399 15.2442 35.0269 17.8896L35.0239 18.3369L35.0229 18.5176V26.043C35.0229 27.8513 35.6508 28.8067 36.3491 29.7559L36.3989 29.8232L36.4497 29.8916L36.5503 30.0273C36.5587 30.0387 36.5673 30.0501 36.5757 30.0615L36.6255 30.1299C36.6675 30.1871 36.7105 30.2446 36.7524 30.3027C37.0493 30.7164 37.1131 31.2153 36.7388 31.5254L36.6821 31.5723L36.6235 31.6221L36.563 31.6729L36.4702 31.752L36.4058 31.8057L36.3071 31.8896L36.2397 31.9463L36.1372 32.0342L36.0669 32.0947L35.9595 32.1865L35.8511 32.2793L35.7026 32.4072L35.5522 32.5371L35.437 32.6357L35.2837 32.7695L35.1284 32.9033L34.9731 33.0381L34.7788 33.207L34.5864 33.376L34.396 33.542L34.2827 33.6406L34.063 33.834L33.8843 33.9902L33.7466 34.1123L33.647 34.2002L33.4868 34.3418L33.3647 34.4492L33.2495 34.5518C33.2403 34.5599 33.2312 34.5681 33.2222 34.5762L33.2095 34.5635L33.1997 34.5713C32.8967 34.835 32.4631 34.8521 32.1245 34.6729C30.9978 33.7356 30.5562 33.1698 30.063 32.4492L30.0229 32.3906C30.0162 32.3808 30.0092 32.3703 30.0024 32.3604L29.9624 32.3008L29.9214 32.2402L29.772 32.0195L29.728 31.9541L29.6606 31.8545L29.6138 31.7861C29.5745 31.7287 29.5336 31.6697 29.4917 31.6094C26.9749 34.1821 25.1935 34.9511 21.9282 34.9512C18.0688 34.9512 15.061 32.5654 15.061 27.7881C15.0612 24.0583 17.0811 21.5175 19.9526 20.2764C21.8958 19.4191 24.44 19.1125 26.7271 18.875L26.9028 18.8574L27.5073 18.7949L27.6772 18.7773C27.987 18.7453 28.2892 18.7131 28.5815 18.6797V17.9863L28.5825 17.9199V17.8525L28.5845 17.6504V17.5479L28.5854 17.4785C28.5888 16.5382 28.5506 15.5297 28.0269 14.7559C27.4653 13.909 26.394 13.5596 25.4517 13.5596C23.7028 13.5596 22.141 14.4585 21.7603 16.3203C21.6827 16.7341 21.3793 17.1418 20.9663 17.1611L16.5132 16.6826C16.1389 16.5984 15.7263 16.2942 15.8296 15.7188C16.8559 10.3148 21.7277 8.68556 26.0903 8.68555ZM28.5815 22.3643C25.2643 22.3643 21.7603 23.0758 21.7603 26.9932C21.7603 28.9777 22.7864 30.3223 24.5483 30.3223C25.839 30.3222 26.9939 29.5273 27.7231 28.2344C28.5273 26.8191 28.5807 25.4801 28.5825 23.9404V23.8369L28.5815 23.4141V22.3643Z" fill="#131921"/>
</svg>
