<svg xmlns="http://www.w3.org/2000/svg" viewBox="0 0 53 20">
  <path d="M7.12 11.07c0.07-0.3 0.3-0.74 1.17-1.03 0.52-0.22 1.76-0.37 3.23 0 1.46 0.3 2.93 0.88 3.66 1.03 1.4 0.22 2.13 0.22 3.74-0.15 0.51-0.15 1.98-0.51 2.93-1.4h-1.24c-0.6 0.23-1.1 0.3-1.69 0.52-1.17 0.3-2.05 0.22-3.74-0.22-0.07 0-0.36-0.15-0.8-0.3H7.05L6.9 9.68c-0.3 0.3-0.59 0.81-0.66 1.18l0.88 0.22Z" fill="#0C0E0F"/>
  <path d="M53 9.53V9.38C53 4.18 43.4 0 28.15 0 18.04 0 5 3.66 0.96 9.53H2c3.96-4.84 17-7.92 26.68-7.92 14.5 0 23.6 3.45 23.6 7.77v0.15H53Z" fill="#0C0E0F"/>
  <path d="M0.96 9.53c-0.14 0.3-0.29 0.51-0.44 0.73-0.29 0.59-0.58 1.69-0.5 2.2l0.58-0.07s0.14-0.52 0.14-0.59c0.15-0.44 0.3-0.73 0.3-0.8 0.29-0.52 0.51-0.89 0.95-1.47H0.96Zm51.3 0c-0.36 4.25-12.01 7.84-25.06 7.84l-0.66 1.76c13.85 0 26.24-4.4 26.46-9.6h-0.73Zm-35.32 3.22l-0.22 0.74h6.74l0.15-0.74h-6.67Zm11.5 0l-0.21 0.66h4.84l0.21-0.66h-4.83Zm4.63-7.1L32.92 6.3h3.81l0.15-0.66h-3.81Zm-8.58 0L24.27 6.3h3.66l0.22-0.66H24.5Z" fill="#0C0E0F"/>
  <path d="M25.88 6.16v6.96h0.66l7.48-7.26-0.95-0.22-4.92 4.77V5.64l-2.27 0.52Z" fill="#0C0E0F"/>
  <path d="M31.82 12.97l3.96-6.81-2.35-0.08-4.1 6.97 2.49-0.08Zm-9.46 0.08l4.04-6.9-0.66-0.14-4.26 7.1 0.88-0.06Zm-1.97-7.4h-2.06v7.4h2.06v-7.4Zm-6.01 3.88c-0.96-0.3-2.42-0.8-3-0.88-0.82-0.08-3.09-0.15-4.33 0.88h7.33Zm7.47 0l0.22-0.22-0.37-0.37s-0.58 0.44-1.1 0.59h1.25Zm21.1 1.76c-0.36 0.51-1.53 1.68-3.22 2.12-0.29 0.08-0.66 0.15-1.17 0.08-0.51 0-1.1-0.08-1.61-0.37-0.88-0.51-1.4-1.1-1.54-2.42-0.07-1.1 0.51-2.5 1.4-3.44 0.65-0.81 1.9-1.47 2.78-1.76 1.02-0.3 2.05-0.22 2.64-0.08 0.66 0.15 1.17 0.44 1.6 0.66 0.45 0.3 0.89-0.22 0.89-0.22l-0.08 0.3-0.5 1.76-1.1 1.1s0.21-0.6 0.29-0.88c0.07-0.3 0.07-0.66 0.07-0.88-0.15-0.81-0.8-1.1-0.8-1.1s-1.18-0.52-2.2 0.36c-2.42 1.84-2.72 4.25-2.57 4.99 0.15 0.73 0.58 1.02 0.8 1.1 0.37 0.22 1.1 0.22 1.76-0.08 0.08 0 0.22-0.07 0.3-0.14 0.51-0.22 1.1-0.74 1.46-1.1h0.8Z" fill="#0C0E0F"/>
  <path d="M6.24 10.85c0.07-0.37 0.37-0.88 0.66-1.18l0.15-0.14h7.33c0.44 0.14 0.73 0.3 0.8 0.3 1.69 0.43 2.64 0.5 3.74 0.21 0.59-0.22 1.17-0.3 1.69-0.51h1.24c-0.95 0.88-2.42 1.24-2.93 1.4-1.61 0.36-2.35 0.36-3.74 0.14-0.73-0.15-2.2-0.74-3.66-1.03-1.47-0.37-2.71-0.22-3.23 0-0.88 0.3-1.1 0.73-1.17 1.03 0 0-0.07 0.36-0.07 0.5l-0.81-0.72Z" fill="#0C0E0F"/>
  <path d="M7.12 11.07c-0.07 0.29 0 0.5 0 0.66 0.07 0.29 0.15 0.58 0.37 0.88 1.39 2.34 8.2 4.76 19.71 4.76l-0.66 1.76c-12.75 0-21.18-4.84-20.3-8.28l0.88 0.22Zm8.2-1.4c0.37-0.29 0.89-0.8 0.96-0.88 1.47-1.46 1.83-1.83 2.2-2.27 0.22-0.3-0.07-0.88-0.07-0.88l-0.3 0.3c-1.39 1.39-1.83 1.83-3.22 3.15-0.07 0.07-0.44 0.36-0.51 0.51l0.95 0.07Z" fill="#0C0E0F"/>
  <path d="M0.01 12.46c0 0.73 0.15 1.46 0.88 2.2 0.73 0.8 2.2 1.02 2.93 1.02 1.54-0.07 2.5-0.22 4.33-0.95 2.12-0.95 2.56-1.4 3.95-2.42 1.1-0.8 2.28-1.83 3.23-2.64L14.38 9.6c-0.59 0.44-2.57 1.9-3.6 2.5-1.46 0.8-2.56 1.6-4.1 2.05-0.8 0.22-3.08 1.02-4.76 0.22-0.59-0.22-1.54-0.96-1.18-2.5l-0.73 0.59Zm23.45 0.95h0.08c0-0.07 0-0.07-0.08-0.07 0 0-0.07 0-0.07 0.07h0.07Zm0.15-0.51c0.07 0 0.07 0 0.07-0.07h-0.07v0.07Z" fill="#0C0E0F"/>
  <path d="M23.54 13.41l0.14-0.58h-0.07l-0.15 0.58h0.08Z" fill="#0C0E0F"/>
  <path d="M23.46 13.49c0.15-0.08 0.3-0.22 0.3-0.37 0.07-0.22-0.08-0.37-0.15-0.3 0 0 0 0.15-0.07 0.3-0.08 0.15-0.08 0.37-0.08 0.37Zm9.6-0.08c0.08 0 0.08 0 0.08-0.07 0 0 0-0.07-0.07-0.07v0.14Zm0.23-0.51v-0.07-0.08c-0.08 0-0.08 0-0.08 0.08 0 0 0 0.07 0.08 0.07Z" fill="#0C0E0F"/>
  <path d="M33.14 13.34l0.14-0.51h-0.07l-0.15 0.5h0.08Z" fill="#0C0E0F"/>
  <path d="M33.06 13.41c0.15 0 0.3-0.22 0.37-0.3 0-0.36-0.22-0.36-0.22-0.36v0.3c-0.07 0.22-0.15 0.36-0.15 0.36Zm3.67-7.1V6.22 6.16c-0.07 0-0.07 0-0.07 0.07 0 0 0 0.07 0.07 0.07Zm0.15-0.6c0.07 0 0.07 0 0.07-0.07H36.8c0 0.08 0.08 0.08 0.08 0.08Z" fill="#0C0E0F"/>
  <path d="M36.8 6.23l0.15-0.51-0.15-0.08-0.14 0.59h0.14Z" fill="#0C0E0F"/>
  <path d="M36.73 6.3c0.15-0.07 0.3-0.22 0.3-0.36 0.07-0.3-0.15-0.37-0.15-0.3 0 0-0.08 0.15-0.08 0.3-0.07 0.14-0.07 0.36-0.07 0.36Zm-8.5 7.11v-0.07s0.07-0.07 0.07 0v0.07h-0.07Zm0.15-0.51v-0.07c0-0.08 0.07-0.08 0.07-0.08v0.08c0 0.07-0.07 0.07-0.07 0.07Z" fill="#0C0E0F"/>
  <path d="M28.23 13.34l0.15-0.51h0.07l-0.15 0.5h-0.07Z" fill="#0C0E0F"/>
  <path d="M28.23 13.41c-0.15 0-0.15-0.3-0.08-0.44 0.08-0.22 0.3-0.22 0.3-0.22-0.08 0-0.08 0.15-0.08 0.37-0.07 0.15-0.07 0.3-0.14 0.3Zm-3.96-7.1V6.15h0.07v0.07c0 0.07-0.07 0.07-0.07 0.07Zm0.15-0.6V5.65h0.07v0.08h-0.07Z" fill="#0C0E0F"/>
  <path d="M24.27 6.16l0.15-0.52 0.07 0.08-0.15 0.51-0.07-0.07Z" fill="#0C0E0F"/>
  <path d="M24.27 6.3c-0.15-0.07-0.15-0.36-0.07-0.51 0.07-0.15 0.29-0.22 0.29-0.15-0.07 0-0.07 0.15-0.07 0.3-0.08 0.14-0.15 0.36-0.15 0.36Zm-2.2 3V9.24H22v0.08h0.07Zm-0.22-0.29c0-0.07 0-0.07-0.07-0.07 0-0.07-0.07 0-0.07 0s0 0.07 0.07 0.07h0.07Z" fill="#0C0E0F"/>
  <path d="M22.07 9.23l-0.3-0.29-0.06 0.07 0.29 0.3 0.07-0.08Z" fill="#0C0E0F"/>
  <path d="M22.07 9.3c0.07-0.07 0.07-0.21 0-0.36-0.15-0.15-0.37-0.07-0.37 0 0.08 0 0.08 0.07 0.22 0.22l0.15 0.15Zm-5.35 4.11v-0.07h0.07v0.07s-0.07 0.08-0.07 0Zm0.15-0.51v-0.07s0.07-0.08 0.07 0v0.07h-0.07Z" fill="#0C0E0F"/>
  <path d="M16.72 13.34l0.15-0.51 0.07 0.07-0.15 0.51-0.07-0.07Z" fill="#0C0E0F"/>
  <path d="M16.72 13.49c-0.15 0-0.15-0.3-0.07-0.52 0.14-0.22 0.36-0.22 0.3-0.14 0 0-0.08 0.14-0.08 0.29-0.08 0.15-0.08 0.37-0.15 0.37Zm26.24-2.2c0.07 0 0-0.15-0.07-0.15-0.08 0-0.15-0.07-0.22-0.07-0.08 0-0.15 0.07-0.22 0.07-0.08 0-0.22 0-0.3 0.15h0.8Zm2.27-5.35L43.7 9c-0.07 0.08-0.15 0.15-0.22 0.15h-0.3l-0.14-0.15 0.08-0.07 1.53-3h0.6Zm0 0c0-0.08 0.07-0.15-0.07-0.15h-0.37c-0.07 0.07-0.15 0.07-0.15 0.15h0.6Z" fill="#0C0E0F"/>
</svg>
