<svg xmlns="http://www.w3.org/2000/svg" viewBox="0 0 53 53">
  <path d="M31.948 16.1846C32.8557 16.1848 36.1152 16.2647 38.2605 19.2598C38.0747 19.4005 34.8152 21.1904 34.8152 25.1709C34.8153 29.7746 38.9619 31.4033 39.0857 31.4434C39.0645 31.5457 38.4249 33.6756 36.8992 35.8457C35.5378 37.7557 34.1139 39.666 31.948 39.666C29.7823 39.6659 29.2252 38.4395 26.7292 38.4395C24.2951 38.4395 23.4283 39.7061 21.448 39.7061C19.4679 39.7058 18.0859 37.9366 16.4978 35.7656C14.6619 33.2123 13.1765 29.2516 13.1765 25.4922C13.1766 19.4611 17.1995 16.2646 21.1599 16.2646C23.2639 16.2648 25.0175 17.6113 26.3376 17.6113C27.596 17.611 29.5555 16.1846 31.948 16.1846ZM32.4431 8.68555C32.4844 8.86651 32.5056 9.08755 32.5056 9.30859C32.5056 10.8966 31.8041 12.4849 30.8142 13.6309C29.7621 14.8974 27.9467 15.8424 26.5027 15.8428C26.3377 15.8428 26.1722 15.8228 26.0691 15.8027C26.0485 15.7223 26.0076 15.4804 26.0076 15.2393C26.0077 13.6311 26.8531 12.0432 27.7605 11.0381C28.9157 9.73142 30.8341 8.74598 32.4431 8.68555Z" fill="#000000"/>
</svg>
