<svg xmlns="http://www.w3.org/2000/svg" viewBox="0 0 53 47">
  <path d="M34.14 4.91c0.08-0.2-0.09-0.4-0.09-0.4s-1.3-2.2-5.88-2.69c-2.45-0.26-5.8 0.24-8.14 1.5-4.24 2.29-4.88 6.06-4.88 6.06-0.02 0.09-0.06 0.37 0.04 0.49s0.23 0.12 0.4 0.06c1.5-0.5 5.97-1.99 8.79-2.73 4-1.07 7.3-1.71 9.42-2.07 0.15-0.03 0.28-0.08 0.34-0.22Z" fill="#F79F19"/>
  <path d="M38.71 22.67c-2.4 5.39-7 9.14-13.03 9.22-4.4 0.07-8.27-1.44-11.08-4.07l-1.69 0.73v-2.62C11.07 23.43 10 20.29 10 16.7c0-9.16 7.02-16.38 16.8-16.38 1.6 0 3.04 0.25 4.13 0.5C29.25 0.29 27.59 0 25.73 0 15.23 0 8.16 8.52 8.16 17.3c0 9.57 7.5 17.58 17.36 17.58 9.42 0 14.5-6.63 16.12-10.62l-2.93-1.6Z" fill="#01538A"/>
  <path d="M36.28 20.77c1.38-0.15 2.34-0.7 2.86-1.22 0.48-0.47 0.59-1.12 0.59-1.6 0.02-0.7 0-2.93 0-2.93l-3.65 0.79v0.85c0 0.57 0.27 0.88 0.86 0.77 0.19-0.03 0.48-0.12 0.48-0.12V18c0-0.03 0.05 0.38-0.87 0.56-1.2 0.2-1.75-0.55-1.76-1.86 0.02-1.4 0.81-2.21 1.78-2.43 1.08-0.25 1.7 0 2.06 0.06 1.2 0.18 1.55-1.63 0.45-2.06-0.82-0.33-1.87-0.39-2.88-0.19-1.34 0.27-3.99 1.4-4 5.05 0.01 2.9 2.16 3.86 4.08 3.63ZM24.4 23.9l1.22-0.42c0.9-0.31 1.23-0.85 1.22-1.77l-0.01-2.98 2.6 3c0.43 0.45 0.96 0.48 1.45 0.34 0.5-0.15 0.92-0.6 0.93-1.25v-7.47s-0.67 0.14-1.23 0.3c-0.65 0.19-1.14 0.6-1.14 1.68v2.58s-1.47-1.84-2.43-2.8c-0.51-0.5-1.36-0.2-1.36-0.2l-1.25 0.38v8.6Zm-0.79-8.42s-0.79 0.23-1.42 0.46c-0.83 0.3-1.31 0.78-1.31 2.04v7.15s0.72-0.24 1.4-0.5c0.96-0.36 1.33-0.86 1.33-1.87v-7.28Zm-3.9 1.7c-0.72-0.33-1.34 0.04-1.6 0.44l-2.21 3.77v-3.04l-2.62 1.09v8.59l1.83-0.78s0.36-0.1 0.58-0.44c0.2-0.32 0.2-0.84 0.2-0.84v-2.73l2.05 2.18c0.45 0.47 1.28 0.71 2.01 0.12 0.67-0.53 0.56-1.44 0.2-1.85l-1.88-1.89 1.92-3.03c0.36-0.58 0.18-1.29-0.48-1.59Z" fill="#B20637"/>
  <path d="M18.69 27.27c-0.1 0.22 0.12 0.45 0.12 0.45 0.95 1.19 5.17 2.7 9.76 1.6 7-1.7 8.47-6.65 8.64-7.35 0.03-0.14 0.06-0.37-0.07-0.5-0.11-0.12-0.27-0.12-0.5-0.07C31.8 22.54 23.7 25 19.05 27c-0.2 0.1-0.29 0.12-0.35 0.27Z" fill="#F79F19"/>
  <path d="M14.54 16.01c0-0.47-0.37-0.73-1.01-0.41v1.52l0.36-0.16c0.37-0.17 0.66-0.48 0.65-0.95Zm-1.02-1.37l0.29-0.13c0.34-0.17 0.59-0.48 0.6-0.88 0-0.46-0.38-0.58-0.9-0.32v1.33Zm2.69 1.15c0.02 1.2-0.84 1.84-1.97 2.31l-2.31 0.98v-6.25s1.45-0.6 1.92-0.77c1.35-0.49 2.15 0.1 2.15 1 0 0.6-0.26 1.12-0.82 1.56 0.55 0.1 1.02 0.55 1.03 1.17Zm4.38-5.28c0-0.52-0.36-0.66-0.8-0.54-0.35 0.1-0.76 0.27-0.76 0.27v3.89c-0.01 0.38-0.07 0.87-0.55 0.99-0.37 0.09-0.54-0.15-0.54-0.54V11.4c0-0.53-0.37-0.7-0.8-0.55l-0.8 0.28V15c0 1.3 0.89 1.94 2.24 1.53 1.2-0.35 2-1.02 2.02-2.74v-3.27Zm12.84 1.61c0.34-0.07 0.56-0.32 0.56-0.74v-0.67l-1.88 0.41v-1.1l1.18-0.25c0.32-0.07 0.49-0.24 0.49-0.61V8.52l-1.66 0.36V8l1.33-0.28c0.36-0.07 0.48-0.32 0.48-0.66V6.4c-0.83 0.14-2.4 0.46-3.38 0.68l-0.02 5.7s1.87-0.44 2.9-0.66ZM22.6 11.9s0.93-0.48 0.92-1.24c-0.01-0.64-0.6-0.5-0.92-0.39v1.63Zm0 0.88v1.53c0 0.42-0.28 0.72-0.64 0.85l-0.94 0.32V9.6s1.32-0.46 2.09-0.64c1.2-0.27 2.05 0.27 2.03 1.24 0 0.92-0.52 1.48-0.98 1.86l1.01 0.97c0.31 0.3 0.34 0.85-0.01 1.18-0.21 0.2-0.77 0.4-1.2-0.04l-1.35-1.4Zm13.26-4.04s0.92-0.34 0.9-1.08c0-0.61-0.61-0.5-0.9-0.44v1.52m-1.53 3.22V6.32s1.65-0.3 2.07-0.35c1.18-0.15 1.97 0.5 1.96 1.44-0.01 0.81-0.52 1.3-0.96 1.6l1.02 1.14c0.28 0.32 0.27 0.88-0.15 1.15-0.42 0.26-0.84 0.12-1.08-0.15L35.86 9.6v1.37c0 0.42-0.24 0.72-0.67 0.81l-0.86 0.17Z" fill="#B20637"/>
  <path d="M30.16 9.59l-2.33 0.53v0.65c0 0.3 0.21 0.5 0.52 0.43l0.34-0.08v0.65c0.01 0.26-0.38 0.43-0.77 0.42-0.56-0.02-0.87-0.45-0.88-1.28 0.02-1.09 0.53-1.73 1.22-1.9 0.35-0.1 0.67-0.05 0.91-0.02 0.6 0.1 0.95-0.2 0.96-0.69 0.02-0.53-0.45-0.86-1.47-0.82-2.2 0.07-3.32 1.65-3.32 3.53 0 1.93 1.26 2.78 2.8 2.5 0.87-0.17 1.3-0.45 1.6-0.71 0.3-0.27 0.42-0.66 0.42-1V9.6Z" fill="#B20637"/>
  <path d="M20.98 3.28c-2.58 1.14-4.31 3.84-4.4 4.98-0.05 0.46 0.56 0.52 0.61 0.04 0.55-2.09 2.2-4.05 3.79-5.02Zm8.52 1.94c1.39-0.34 2.15-0.4 2.16-1.01 0.03-1.04-2.93-2.24-5.65-2.03 2.77 0.19 4.42 1.25 4.43 2 0 0.46-0.4 0.88-0.94 1.04m0.86 22.94c2.08-0.82 4.08-2.39 5.19-4.73 0.32-0.68-0.6-1.02-0.87-0.23-0.65 1.67-1.98 3.62-4.32 4.96" fill="#FFFFFF"/>
  <path d="M40.78 21.45h0.24c0.13 0 0.3 0.03 0.3 0.18 0 0.17-0.13 0.2-0.29 0.2h-0.25v-0.38Zm-0.28 1.2h0.28v-0.6h0.18l0.34 0.6h0.3l-0.38-0.62c0.21-0.02 0.37-0.12 0.37-0.38 0-0.3-0.2-0.42-0.55-0.42H40.5v1.42Zm-0.8-0.7c0 0.76 0.62 1.26 1.3 1.26 0.7 0 1.3-0.5 1.3-1.27s-0.6-1.26-1.3-1.26c-0.68 0-1.3 0.5-1.3 1.26Zm0.35 0c0-0.58 0.42-1 0.96-1 0.52 0 0.95 0.42 0.95 1 0 0.57-0.43 1-0.95 1-0.54 0-0.96-0.43-0.96-1Z" fill="#B20637"/>
  <path d="M1.65 46.72v-0.67H1.31v-0.6h1.22v0.6H2.18v0.67h1.66v-0.67H3.5v-1.91h0.34v-0.67H2.18v0.66h0.35v0.6H1.3v-0.6h0.34v-0.66H0v0.66h0.34v1.92H0v0.67h1.65Zm4.14 0v-0.67H5.43l0.14-0.41h0.97l0.14 0.41H6.32v0.67h1.63v-0.67H7.72l-0.64-1.91h0.29v-0.67H4.83v0.66h0.29l-0.67 1.92H4.23v0.67h1.56ZM5.76 45.1l0.3-0.94 0.3 0.94h-0.6Zm2.26-0.97H8.2l0.96 2.59h0.87l0.97-2.59h0.19v-0.66H9.8v0.66h0.22L9.6 45.46l-0.4-1.33H9.4v-0.66h-1.4v0.66Zm6.6 2.59v-1.29h-0.66l-0.14 0.62h-0.98v-0.6h0.62v-0.72h-0.62v-0.6h0.98l0.14 0.58h0.66v-1.24h-3.06v0.66h0.3v1.92h-0.3v0.67h3.06Zm3.6-0.67h-0.35v-1.91h0.34v-0.67h-1.66v0.66h0.34v1.92h-0.34v0.67h1.66v-0.67Zm1.1-1.35l0.12-0.57h0.38v1.92h-0.38v0.67h1.73v-0.67h-0.38v-1.91h0.37l0.13 0.56h0.6v-1.23h-3.18v1.23h0.6Zm7.84-0.57v-0.66h-1.5v0.66h0.26l-0.44 0.77-0.44-0.77h0.26v-0.66h-1.57v0.66h0.26l1 1.38v0.54h-0.34v0.67h1.67v-0.67h-0.35v-0.52l0.93-1.4h0.26Zm1.86 0.2c0.43 0 0.71 0.36 0.71 0.76s-0.28 0.76-0.71 0.76c-0.44 0-0.71-0.36-0.71-0.76s0.27-0.76 0.7-0.76Zm0 2.46c0.95 0 1.7-0.76 1.7-1.7s-0.75-1.7-1.7-1.7-1.71 0.76-1.71 1.7 0.76 1.7 1.7 1.7Zm1.93-2.66h0.34v1.32c0 0.98 0.45 1.34 1.47 1.34s1.47-0.36 1.47-1.4v-1.26h0.34v-0.66h-1.63v0.66h0.32v1.24c0 0.38-0.08 0.61-0.5 0.61s-0.5-0.23-0.5-0.6v-1.25h0.31v-0.66h-1.62v0.66Zm3.96 0h0.33v1.92H34.9v0.67h1.62v-0.67h-0.32v-0.63h0.54c0.3 0 0.34 0.22 0.34 0.46v0.84h1.24v-0.67h-0.27v-0.6c0-0.3-0.32-0.31-0.54-0.37 0.43-0.08 0.63-0.32 0.63-0.77 0-0.62-0.33-0.84-1.1-0.84h-2.14v0.66Zm1.3 0h0.57c0.22 0 0.38 0.1 0.38 0.32 0 0.18-0.16 0.3-0.38 0.3h-0.57v-0.62Zm3.87 0h0.18l0.86 2.59h0.82l0.32-1.31 0.33 1.3h0.81l0.85-2.58h0.17v-0.66h-1.28v0.66h0.2l-0.36 1.2h-0.03l-0.3-1.2h0.2v-0.66h-1.17v0.66h0.2l-0.31 1.16h-0.03l-0.36-1.16h0.2v-0.66h-1.3v0.66Zm5.76 2.59v-0.67h-0.36l0.14-0.41h0.97l0.14 0.41h-0.36v0.67H48v-0.67h-0.23l-0.64-1.91h0.29v-0.67h-2.54v0.66h0.29l-0.67 1.92h-0.22v0.67h1.56ZM45.8 45.1l0.3-0.94 0.3 0.94h-0.6Zm5.66-0.97v-0.66h-1.5v0.66h0.26l-0.44 0.77-0.44-0.77h0.26v-0.66h-1.57v0.66h0.26l1 1.38v0.54h-0.34v0.67h1.67v-0.67h-0.35v-0.52l0.93-1.4h0.26Zm0.85 0.77c0.4 0 0.68-0.3 0.68-0.72 0-0.4-0.28-0.72-0.68-0.72s-0.67 0.31-0.67 0.72c0 0.42 0.28 0.72 0.67 0.72Zm0-0.13c-0.3 0-0.5-0.26-0.5-0.59 0-0.33 0.2-0.59 0.5-0.59s0.5 0.26 0.5 0.6c0 0.32-0.2 0.58-0.5 0.58ZM52 43.82c0.08 0 0.08 0.02 0.08 0.08v0.53c0 0.06 0 0.08-0.08 0.08v0.04h0.35v-0.04c-0.08 0-0.08-0.02-0.08-0.08v-0.22h0.04l0.12 0.27c0 0.02 0.04 0.07 0.06 0.07h0.2v-0.03l-0.11-0.16-0.11-0.17c0.1-0.03 0.14-0.12 0.14-0.2 0-0.15-0.09-0.21-0.2-0.21H52v0.04Zm0.27 0.01h0.05c0.08 0 0.09 0.1 0.09 0.16 0 0.07-0.01 0.17-0.1 0.17h-0.04v-0.33Z" fill="#B20637"/>
</svg>
