<svg xmlns="http://www.w3.org/2000/svg" viewBox="0 0 53 7">
  <path d="M20.74 5.29l-0.02-0.06L20.7 5.2l-0.03-0.04-0.05-0.03-0.05-0.03h-0.05l-0.08-0.02H20.2h-0.04l-0.03-0.04-0.01-0.04V4.94l0.35-1.26 0.22-0.8 0.02-0.1 0.02-0.08V2.6 2.5 2.39L20.7 2.28l-0.04-0.1-0.05-0.1-0.06-0.1-0.07-0.07-0.09-0.07-0.1-0.06-0.1-0.06-0.14-0.04-0.14-0.03-0.17-0.03-0.16-0.02-0.18-0.02-0.15-0.01h-0.16l-0.16 0.01-0.18 0.02-0.18 0.02-0.2 0.03-0.05 0.01-0.1 0.03-0.13 0.03-0.12 0.05-0.1 0.05-0.1 0.03-0.1 0.06-0.1 0.07-0.11 0.1-0.07 0.07-0.07 0.09-0.06 0.08-0.04 0.08-0.04 0.12-0.03 0.07v0.07l-0.01 0.09v0.07l0.03 0.06 0.03 0.07 0.06 0.07 0.05 0.05 0.08 0.06 0.07 0.04 0.08 0.03 0.12 0.02h0.09 0.12l0.09-0.02 0.12-0.05 0.07-0.02 0.06-0.04 0.08-0.06 0.03-0.02 0.04-0.04 0.05-0.06 0.05-0.06 0.04-0.07 0.14-0.3 0.02-0.03 0.02-0.03h0.03l0.03-0.02 0.08-0.02h0.08H19h0.08l0.08 0.01 0.06 0.02 0.06 0.03 0.04 0.04 0.04 0.04 0.03 0.05 0.02 0.05 0.01 0.06v0.06 0.06l-0.03 0.07-0.02 0.06L19.32 3l-0.05 0.07-0.06 0.06-0.08 0.08-0.1 0.05-0.1 0.05-0.1 0.04-0.1 0.03L18.6 3.4l-0.3 0.05-0.9 0.18-0.13 0.04-0.11 0.03-0.12 0.05-0.11 0.06-0.1 0.05-0.09 0.07-0.09 0.09-0.08 0.1-0.06 0.06-0.03 0.04-0.1 0.14-0.05 0.12-0.05 0.13-0.04 0.14-0.03 0.13-0.02 0.15v0.12L16.2 5.3l0.02 0.1 0.03 0.1 0.04 0.09 0.06 0.1 0.08 0.08 0.08 0.07 0.1 0.08 0.1 0.07 0.12 0.04 0.11 0.04 0.12 0.02 0.13 0.02h0.14 0.27l0.15-0.02 0.17-0.02 0.14-0.04 0.14-0.04 0.1-0.04 0.03-0.01 0.12-0.06 0.14-0.07 0.3-0.18h0.02l0.01-0.02h0.02l0.01 0.01h0.01l0.01 0.01 0.01 0.01 0.09 0.14 0.07 0.1 0.08 0.07L19.32 6l0.08 0.05 0.1 0.04 0.12 0.03 0.1 0.01h0.1 0.1l0.1-0.02 0.1-0.02 0.09-0.03 0.08-0.05 0.08-0.04 0.07-0.05 0.08-0.06 0.06-0.07 0.05-0.06 0.04-0.06 0.03-0.06 0.02-0.05 0.02-0.05V5.47l0.02-0.06-0.01-0.06V5.29ZM19 4.28l-0.05 0.15-0.05 0.1-0.06 0.09-0.07 0.08-0.08 0.1-0.08 0.06-0.08 0.06-0.1 0.05L18.33 5h-0.01l-0.07 0.03-0.1 0.01-0.1 0.02h-0.09l-0.1-0.02-0.07-0.02-0.06-0.04-0.04-0.04-0.03-0.05-0.02-0.05V4.8 4.75l0.02-0.05V4.65l0.04-0.04 0.02-0.03 0.04-0.04 0.04-0.03 0.05-0.03 0.04-0.03 0.06-0.02 0.08-0.02 0.08-0.02 0.09-0.02 0.12-0.02 0.08-0.02 0.22-0.05 0.07-0.02 0.06-0.02 0.12-0.05 0.08-0.02h0.02 0.02V4.2L19 4.21l-0.01 0.07Zm23.78-1.62l-0.02-0.12-0.03-0.12-0.04-0.1-0.05-0.1-0.06-0.1-0.07-0.1-0.09-0.09-0.08-0.07-0.1-0.08-0.13-0.06-0.13-0.05-0.14-0.04-0.15-0.04-0.14-0.03-0.15-0.01h-0.16-0.17-0.16l-0.16 0.02-0.16 0.03-0.07 0.01-0.08 0.02-0.15 0.03-0.15 0.05L40 1.76l-0.12 0.06-0.13 0.06-0.11 0.07-0.12 0.08-0.12 0.09-0.12 0.1-0.13 0.13-0.11 0.11-0.1 0.12-0.02 0.03-0.07 0.1-0.1 0.15L38.68 3l-0.08 0.17-0.08 0.16-0.07 0.18-0.06 0.19-0.04 0.16L38.3 4l-0.02 0.14-0.02 0.15-0.01 0.14v0.14 0.14l0.01 0.14 0.02 0.13 0.02 0.11 0.02 0.09 0.02 0.08 0.03 0.09 0.06 0.1 0.06 0.1 0.07 0.08 0.09 0.1 0.1 0.08 0.12 0.07 0.03 0.01L39 5.94 39.11 6l0.13 0.04 0.15 0.03 0.15 0.02h0.16l0.14 0.02H40l0.15-0.01 0.15-0.01 0.15-0.02 0.06-0.02 0.07-0.02 0.16-0.04 0.16-0.05 0.14-0.05 0.13-0.06 0.14-0.08 0.13-0.08 0.13-0.1 0.13-0.1 0.12-0.13 0.13-0.13 0.11-0.14 0.1-0.12 0.08-0.14 0.08-0.14 0.07-0.13 0.08-0.15 0.03-0.07 0.03-0.08 0.06-0.15 0.05-0.16 0.04-0.17 0.04-0.17 0.03-0.17 0.02-0.17 0.01-0.15 0.01-0.15V2.8l-0.02-0.14ZM41.4 3.23v0.12l-0.02 0.1-0.02 0.12-0.02 0.12-0.03 0.13-0.02 0.1-0.04 0.1-0.03 0.09-0.06 0.14-0.07 0.14-0.06 0.14-0.07 0.11-0.04 0.08-0.05 0.06-0.05 0.05-0.07 0.05-0.07 0.06-0.07 0.04L40.53 5h-0.02l-0.05 0.03-0.08 0.01-0.09 0.02h-0.18l-0.08-0.02-0.1-0.03-0.09-0.04-0.06-0.04-0.06-0.05-0.04-0.06-0.02-0.07-0.03-0.08-0.01-0.1-0.02-0.1 0.01-0.12V4.23l0.03-0.15 0.04-0.16 0.04-0.18 0.06-0.17 0.06-0.16 0.07-0.15 0.06-0.12 0.08-0.12 0.09-0.1 0.09-0.1 0.08-0.06 0.08-0.05 0.09-0.05h0.02l0.06-0.02 0.09-0.02 0.1-0.02h0.1 0.1l0.08 0.02 0.1 0.04 0.08 0.04 0.06 0.05 0.04 0.06 0.03 0.07 0.03 0.07 0.02 0.1v0.08 0.1ZM26 2.95l0.05-0.08 0.01-0.02 0.05-0.1 0.03-0.12 0.03-0.11v-0.1V2.3 2.2l-0.02-0.1-0.03-0.09-0.05-0.1-0.02-0.02-0.03-0.04-0.07-0.07-0.09-0.06-0.08-0.05-0.1-0.03-0.1-0.02-0.13-0.02h-0.13-0.12l-0.14 0.03-0.15 0.03-0.13 0.05-0.13 0.05-0.12 0.06-0.12 0.07L24.28 2l-0.13 0.1-0.1 0.1-0.18 0.17h-0.02-0.02-0.01L23.8 2.35V2.33l0.1-0.42V1.89 1.86 1.84l-0.02-0.02-0.01-0.02-0.02-0.02-0.02-0.02-0.02-0.01H23.8h-0.06l-0.18 0.02-0.16 0.02-0.16 0.02h-0.16-0.16-0.14-0.22L22.5 1.82l-0.07 0.02-0.06 0.03L22.3 1.9l-0.05 0.04L22.2 2l-0.05 0.05-0.04 0.06-0.03 0.08-0.03 0.06V2.3v0.06 0.05 0.06l0.03 0.05 0.03 0.05 0.03 0.04 0.04 0.04 0.04 0.03 0.05 0.01 0.05 0.02h0.05 0.06l0.3-0.02h0.03l0.04 0.02 0.01 0.04V2.8l-0.53 2.03-0.03 0.15L22.23 5l-0.02 0.03-0.02 0.01-0.03 0.02-0.03 0.01h-0.04L22 5.07h-0.1-0.07l-0.08 0.01-0.06 0.03-0.07 0.03-0.07 0.05-0.06 0.05-0.06 0.07-0.05 0.08-0.04 0.07-0.04 0.08-0.02 0.06v0.08 0.08 0.07l0.04 0.07 0.03 0.06L21.39 6l0.04 0.03 0.03 0.02 0.05 0.02h0.06 0.13 0.25l0.27-0.02h0.28 0.55 0.29 0.24l0.13 0.01h0.08l0.07-0.02 0.07-0.02L24 5.98l0.06-0.04 0.07-0.06 0.05-0.05 0.05-0.06 0.04-0.07 0.03-0.09 0.03-0.1 0.01-0.06V5.38 5.31l-0.02-0.05-0.03-0.05-0.04-0.05-0.04-0.04-0.06-0.03-0.05-0.02h-0.06-0.1-0.16L23.6 5.1h-0.03L23.53 5.1l-0.02-0.02-0.02-0.03V5.02 4.98l0.35-1.36 0.06-0.16 0.06-0.13 0.06-0.12 0.06-0.09 0.06-0.09 0.07-0.08 0.08-0.07 0.1-0.06 0.1-0.07 0.1-0.05 0.1-0.04 0.06-0.03h0.04 0.02l0.02 0.01v0.01 0.01 0.02 0.01L24.8 2.75l-0.04 0.07-0.02 0.06-0.03 0.05L24.7 3l-0.02 0.06v0.07l0.01 0.06 0.02 0.06 0.03 0.06 0.04 0.05 0.06 0.05 0.05 0.03 0.06 0.04 0.08 0.01 0.1 0.01h0.08l0.1-0.02 0.1-0.03 0.1-0.04 0.1-0.06 0.1-0.06 0.07-0.06 0.08-0.08 0.08-0.1 0.07-0.1ZM10.19 3.3l-0.01-0.02-2.1-2.72V0.55L8.03 0.54 8.02 0.53H7.98L7.96 0.54 7.94 0.56v0.02L7.93 0.6v0.02 0.05l0.02 0.1 0.01 0.08 0.02 0.1v0.08L8 1.11v0.36L7.98 1.62 7.96 1.77 7.93 1.9 7.89 2.03 7.84 2.15l-0.06 0.1-0.06 0.1-0.08 0.11-0.09 0.1-0.1 0.09-0.09 0.07L7.25 2.8l-0.1 0.06L7.02 2.9l-0.1 0.03L6.8 2.97 6.7 3H6.58h-0.1L6.36 2.97l-0.1-0.03L6.18 2.9 6.1 2.84 6.03 2.77 5.98 2.7 5.94 2.62 5.9 2.54 5.9 2.45l-0.02-0.1V2.28l0.02-0.1 0.02-0.12 0.04-0.12L6 1.82 6.05 1.7l0.06-0.1 0.08-0.08 0.08-0.1 0.08-0.05 0.08-0.05 0.07-0.03 0.07-0.02 0.07-0.01H6.7h0.06l0.05 0.02 0.03 0.01h0.03 0.03 0.02l0.02-0.01 0.02-0.02V1.24 1.17 1.05l-0.02-0.1-0.03-0.1-0.04-0.1-0.05-0.1-0.07-0.09L6.67 0.5 6.6 0.44 6.5 0.38l-0.1-0.02-0.12-0.04h-0.1-0.25-0.14L5.62 0.34 5.5 0.38 5.36 0.42 5.24 0.47 5.12 0.53 5 0.61l-0.1 0.07-0.15 0.13L4.6 0.95 4.47 1.09 4.35 1.25 4.21 1.48 4.07 1.73 3.94 1.97 3.83 2.23 3.7 2.53 3.6 2.86l-0.1 0.32-0.08 0.31-0.07 0.33-0.06 0.32-0.04 0.25L3.2 4.62 3.19 4.88 3.18 5.12l0.01 0.22 0.03 0.18 0.03 0.12 0.03 0.12 0.05 0.12 0.05 0.1 0.07 0.1 0.08 0.09 0.1 0.06 0.1 0.06 0.1 0.05 0.12 0.04 0.11 0.03 0.11 0.03 0.12 0.01h0.13 0.13l0.13-0.02 0.12-0.04 0.13-0.03 0.11-0.05 0.11-0.06 0.11-0.06 0.1-0.08 0.1-0.09 0.08-0.08 0.08-0.1 0.06-0.09 0.06-0.09 0.04-0.06 0.02-0.04 0.02-0.03V5.5L5.8 5.48 5.78 5.46H5.75 5.73L5.69 5.5H5.64L5.58 5.52H5.5L5.45 5.5 5.4 5.48 5.35 5.46 5.3 5.42 5.26 5.38 5.22 5.34 5.19 5.28 5.17 5.2 5.16 5.13V4.96l0.01-0.12 0.03-0.12 0.05-0.14 0.04-0.1 0.04-0.07 0.06-0.1 0.08-0.1 0.07-0.08 0.08-0.08 0.11-0.07 0.09-0.06 0.08-0.04L6 3.84 6.09 3.8 6.2 3.78l0.1-0.01h0.12l0.12 0.02 0.1 0.03 0.14 0.06 0.09 0.04L6.96 4l0.06 0.06 0.06 0.08 0.04 0.08 0.03 0.08 0.02 0.1 0.02 0.1v0.1l-0.02 0.1-0.02 0.1-0.04 0.16L7.06 5.1 7 5.25 6.92 5.4 6.83 5.56 6.74 5.7 6.65 5.86 6.55 6 6.47 6.11 6.46 6.13v0.02L6.44 6.17v0.01 0.02l0.02 0.01 0.02 0.01h0.03 0.02l0.01-0.01 3.6-2.76 0.02-0.02 0.02-0.01V3.39l0.01-0.02V3.35 3.32L10.18 3.3Zm6.08-0.93l0.06-0.07 0.04-0.09 0.05-0.09 0.03-0.1 0.08-0.3 0.07-0.3 0.07-0.31 0.07-0.3 0.08-0.31 0.01-0.04V0.4 0.34 0.3L16.8 0.23l-0.04-0.05-0.04-0.03-0.07-0.05-0.07-0.03h-0.05-0.02l-0.08-0.01h-0.06l-0.08 0.01-0.07 0.03-0.07 0.03-0.07 0.04-0.06 0.05-0.05 0.05-0.03 0.05-0.02 0.05-0.02 0.05-0.04 0.22h-0.01l-0.02 0.02H15.8l-0.01-0.02-0.03-0.03-0.05-0.07-0.08-0.09-0.08-0.09-0.08-0.07-0.12-0.08-0.13-0.06-0.13-0.06-0.18-0.04-0.19-0.03L14.5 0H14.3l-0.22 0.03-0.22 0.05-0.2 0.07-0.22 0.08-0.21 0.1-0.2 0.13-0.2 0.14-0.2 0.15-0.17 0.16-0.17 0.18-0.16 0.2-0.16 0.2-0.13 0.22-0.14 0.23-0.11 0.24-0.1 0.24-0.1 0.24-0.07 0.25-0.07 0.24-0.06 0.25-0.06 0.29-0.04 0.3-0.01 0.2v0.2l0.03 0.22 0.03 0.19 0.05 0.18 0.08 0.17 0.08 0.15 0.1 0.15 0.11 0.13 0.14 0.12 0.14 0.1 0.2 0.1 0.2 0.08 0.2 0.06 0.21 0.05 0.23 0.02h0.23 0.24l0.23-0.03 0.24-0.05 0.2-0.05 0.2-0.06 0.2-0.06 0.22-0.09 0.2-0.1 0.1-0.07 0.09-0.06 0.18-0.13 0.16-0.14 0.15-0.16 0.12-0.15 0.12-0.16 0.1-0.16 0.06-0.13 0.06-0.14L16 4.23l0.03-0.14 0.01-0.12v-0.1-0.09L16.04 3.7l-0.02-0.07-0.03-0.07-0.04-0.07-0.05-0.05-0.06-0.05-0.07-0.04-0.09-0.03-0.1-0.01-0.1-0.01h-0.1L15.3 3.33 15.2 3.35l-0.1 0.04-0.07 0.04-0.07 0.05-0.08 0.06-0.05 0.04-0.05 0.06-0.03 0.05-0.03 0.05-0.04 0.1L14.63 4 14.57 4.2l-0.04 0.1-0.04 0.08-0.04 0.08-0.05 0.07-0.06 0.08-0.08 0.06-0.08 0.06-0.1 0.06-0.12 0.06-0.11 0.03-0.12 0.03H13.6h-0.12-0.1l-0.1-0.02-0.1-0.03-0.1-0.05-0.09-0.04-0.06-0.06-0.06-0.08-0.06-0.1-0.04-0.13-0.04-0.14-0.01-0.15V3.93v-0.2l0.03-0.21 0.04-0.2 0.04-0.2 0.07-0.22 0.08-0.24 0.1-0.24 0.1-0.23 0.1-0.18 0.12-0.18 0.13-0.15 0.12-0.12 0.11-0.09 0.1-0.06 0.1-0.05 0.1-0.04 0.12-0.03 0.12-0.03 0.12-0.01 0.09-0.01h0.1l0.08 0.01 0.08 0.02 0.08 0.03 0.08 0.04 0.06 0.04 0.06 0.05 0.03 0.05 0.04 0.06 0.02 0.07 0.01 0.08v0.09l-0.01 0.14-0.03 0.2-0.01 0.1v0.09 0.06l0.02 0.06 0.02 0.06 0.05 0.05 0.06 0.05 0.07 0.05 0.08 0.02 0.09 0.02h0.1 0.08l0.08-0.01 0.06-0.01 0.08-0.03 0.08-0.03 0.08-0.04 0.08-0.06 0.07-0.06 0.06-0.07Zm31.6 2.88L47.82 5.2l-0.04-0.04-0.04-0.03-0.04-0.03h-0.06L47.6 5.08h-0.2-0.03l-0.03-0.04-0.01-0.03 0.01-0.04 0.77-2.87 0.01-0.07L48.13 2V1.95 1.9L48.1 1.86l-0.03-0.04-0.02-0.04-0.04-0.03-0.04-0.03-0.04-0.01h-0.05L47.85 1.7h-0.2l-0.2 0.02h-0.2-0.2-0.4l-0.1 0.02h-0.09L46.4 1.77l-0.07 0.02-0.06 0.03-0.08 0.04-0.05 0.04-0.06 0.06-0.05 0.07-0.04 0.07-0.02 0.06-0.02 0.07-0.02 0.06v0.05l0.01 0.06 0.02 0.05 0.03 0.05L46 2.54l0.04 0.04 0.05 0.02 0.05 0.02 0.05 0.02h0.08 0.1l0.11-0.01h0.04l0.03 0.01 0.01 0.02 0.02 0.01 0.01 0.02v0.05l-0.4 1.35-0.05 0.14-0.06 0.13-0.07 0.1-0.06 0.1-0.08 0.08-0.08 0.09-0.1 0.08-0.07 0.06-0.09 0.05-0.1 0.04-0.08 0.03L45.26 5h-0.08-0.08L45.02 5l-0.08-0.03-0.06-0.04-0.05-0.04-0.04-0.04-0.03-0.05-0.02-0.05-0.01-0.05-0.01-0.05V4.56l0.02-0.06 0.02-0.09 0.68-2.34V2.02 1.97 1.93L45.43 1.9 45.4 1.85l-0.03-0.03-0.03-0.04-0.04-0.02-0.04-0.02h-0.04l-0.04-0.01-0.22 0.01h-0.43-0.22L44.1 1.73h-0.12-0.1L43.8 1.76l-0.07 0.03-0.07 0.02-0.06 0.04-0.06 0.03-0.05 0.05-0.05 0.06-0.05 0.07-0.03 0.09-0.03 0.07v0.07 0.07 0.05l0.01 0.05 0.02 0.05 0.03 0.04 0.04 0.04 0.06 0.04 0.06 0.02 0.1 0.02 0.14 0.01h0.02 0.03l0.01 0.02 0.02 0.02v0.02l0.01 0.02v0.03 0.02l-0.29 1-0.29 1.05v0.03l-0.03 0.15-0.02 0.1 0.01 0.11 0.01 0.1 0.03 0.11 0.04 0.1 0.04 0.08 0.1 0.13 0.08 0.07 0.08 0.06 0.1 0.05L43.85 6l0.11 0.03 0.14 0.03 0.13 0.02h0.16 0.13l0.2-0.01 0.12-0.03L44.98 6l0.2-0.06 0.13-0.06 0.14-0.06 0.13-0.08 0.37-0.24 0.02-0.01h0.01H46v0.02 0.02L45.92 5.8v0.03 0.03 0.04 0.03l0.02 0.03 0.02 0.02 0.02 0.03 0.03 0.01h0.03l0.04 0.02h0.03l0.22-0.02h0.21 0.22 0.22l0.22 0.02 0.09-0.01h0.06L47.4 6l0.07-0.02 0.07-0.04 0.06-0.05 0.05-0.05 0.04-0.04 0.05-0.08 0.06-0.1 0.03-0.05 0.02-0.06 0.01-0.04V5.4 5.35 5.3l-0.02-0.05Zm-17.2-2.33l0.04-0.07 0.01-0.03 0.05-0.1 0.03-0.11 0.03-0.12 0.01-0.1V2.28l-0.01-0.1-0.02-0.1L30.77 2l-0.04-0.08-0.03-0.04-0.03-0.03-0.07-0.08-0.09-0.06-0.08-0.04-0.1-0.04-0.1-0.02-0.12-0.02h-0.13L29.85 1.6l-0.13 0.02-0.16 0.04-0.13 0.04-0.13 0.05L29.2 1.8l-0.13 0.07-0.13 0.1-0.12 0.1-0.12 0.1-0.17 0.18h-0.01-0.02-0.02V2.33 2.3l0.09-0.43V1.84 1.8l-0.01-0.02-0.02-0.02-0.02-0.02-0.02-0.01-0.02-0.02h-0.02-0.03-0.02l-0.2 0.02-0.14 0.02-0.16 0.02h-0.16-0.17-0.14-0.17-0.05L27.15 1.8l-0.07 0.02-0.06 0.02-0.05 0.03-0.06 0.04-0.06 0.06-0.05 0.06-0.04 0.06-0.03 0.07-0.02 0.06-0.01 0.06v0.06 0.05l0.01 0.06 0.02 0.05 0.03 0.06 0.03 0.04 0.04 0.04 0.04 0.02 0.05 0.02 0.05 0.01h0.06 0.05l0.3-0.02h0.03l0.04 0.03 0.02 0.03-0.01 0.04-0.53 2.03-0.03 0.15-0.02 0.03v0.03l-0.04 0.02-0.03 0.02h-0.03-0.04-0.1-0.1-0.06-0.07l-0.08 0.03-0.06 0.03-0.07 0.06-0.06 0.04-0.06 0.07-0.03 0.04-0.03 0.04-0.04 0.07-0.03 0.08-0.02 0.07v0.07 0.08l0.01 0.07 0.03 0.08L26 5.93l0.04 0.04L26.09 6l0.04 0.02 0.05 0.02h0.06 0.13 0.24l0.27-0.02h0.28 0.56H28h0.24l0.13 0.02 0.08-0.01L28.51 6l0.07-0.02 0.07-0.03 0.06-0.04 0.07-0.06 0.05-0.06 0.05-0.06 0.04-0.07 0.04-0.09 0.02-0.09L29 5.43V5.36 5.29l-0.03-0.06-0.03-0.04-0.04-0.06-0.04-0.04-0.05-0.02-0.06-0.02-0.06-0.01H28.6l-0.16 0.01-0.2 0.02h-0.02-0.03l-0.03-0.03-0.01-0.02V4.99 4.96l0.34-1.36 0.06-0.17 0.06-0.13 0.07-0.11 0.05-0.1 0.06-0.08 0.07-0.08 0.1-0.07 0.08-0.07 0.1-0.07 0.1-0.05 0.1-0.04 0.07-0.02h0.03 0.02 0.01 0.01v0.01 0.04 0.01l-0.03 0.05-0.03 0.07-0.03 0.07-0.02 0.05-0.02 0.06-0.01 0.06V3.1v0.07l0.02 0.06 0.03 0.05 0.04 0.05 0.06 0.05 0.05 0.04 0.07 0.03 0.07 0.02h0.1 0.09l0.09-0.01 0.11-0.03 0.1-0.05 0.1-0.05 0.09-0.07 0.07-0.05 0.08-0.08 0.08-0.1 0.07-0.1Z" fill="#28588C"/>
  <path d="M38.34 2.36l0.03-0.07 0.04-0.07 0.02-0.05V2.1l0.02-0.04V2.02v-0.1-0.05l-0.02-0.03-0.02-0.03-0.04-0.03-0.05-0.02-0.05-0.02-0.06-0.01h-0.14-0.25-0.07-0.03-0.02L37.68 1.7l-0.01-0.02V1.66 1.64 1.62l0.03-0.1 0.05-0.12 0.04-0.1 0.05-0.08 0.06-0.08 0.05-0.07 0.06-0.06 0.06-0.05 0.07-0.05 0.07-0.03 0.08-0.03 0.05-0.02h0.05v0.02l0.02 0.02v0.02 0.02 0.04L38.4 1l-0.02 0.07-0.01 0.06V1.2v0.07l0.02 0.06 0.03 0.05 0.03 0.05 0.03 0.04 0.05 0.03 0.06 0.04 0.07 0.02 0.08 0.01h0.08l0.08-0.01h0.02l0.07-0.02 0.08-0.02 0.07-0.04 0.07-0.03 0.08-0.05 0.06-0.06 0.06-0.08 0.05-0.07 0.04-0.08 0.03-0.08 0.02-0.09 0.01-0.09 0.01-0.08V0.68L39.53 0.6 39.5 0.5l-0.05-0.08-0.07-0.08-0.09-0.07-0.1-0.05-0.1-0.05-0.13-0.03h-0.04L38.8 0.11 38.66 0.1H38.5l-0.15-0.01h-0.17l-0.15 0.03-0.15 0.03-0.16 0.04-0.16 0.04L37.4 0.3l-0.13 0.07-0.12 0.08-0.11 0.08-0.12 0.1-0.1 0.1-0.1 0.12-0.08 0.13-0.08 0.13-0.07 0.14-0.1 0.26-0.03 0.12-0.01 0.02-0.01 0.02-0.02 0.02-0.02 0.02H36.3h-0.02l-0.02 0.02h-0.08-0.22-0.07l-0.05 0.02h-0.05l-0.05 0.02-0.05 0.03-0.06 0.03-0.04 0.04-0.04 0.05-0.04 0.04-0.02 0.06-0.03 0.06-0.03 0.1-0.02 0.08v0.08 0.06 0.05l0.02 0.06 0.02 0.04 0.04 0.04 0.05 0.04 0.05 0.03 0.08 0.01 0.09 0.01h0.2H36h0.03l0.02 0.01 0.01 0.02 0.01 0.03v0.02l-0.11 0.4-0.35 1.24-0.1 0.43-0.04 0.14L35.44 5 35.4 5.04l-0.04 0.01H35.3h-0.11-0.1-0.07l-0.07 0.02-0.08 0.04-0.07 0.04-0.05 0.05-0.02 0.02-0.04 0.03-0.05 0.07-0.04 0.07-0.03 0.08-0.03 0.08-0.01 0.08v0.14l0.01 0.05 0.02 0.06 0.04 0.05 0.04 0.05L34.68 6l0.04 0.02 0.05 0.02 0.1 0.02h0.1l0.3-0.02 0.3-0.01h0.63 0.31l0.31 0.02h0.13 0.1l0.06-0.01 0.06-0.02 0.07-0.03 0.06-0.03 0.06-0.05 0.05-0.06 0.06-0.07 0.05-0.08 0.04-0.08 0.03-0.08 0.01-0.07 0.02-0.06V5.35L37.59 5.3l-0.02-0.06-0.04-0.05-0.04-0.04-0.04-0.03-0.05-0.03-0.06-0.01H37.3h-0.14l-0.23 0.01h-0.06-0.02-0.02-0.02l-0.02-0.02-0.02-0.02V5.02 4.98l0.15-0.55 0.35-1.26 0.13-0.45V2.69l0.03-0.02 0.02-0.02 0.03-0.01h0.03l0.34-0.01h0.08H38l0.05-0.02 0.05-0.02 0.04-0.02 0.05-0.03 0.06-0.06 0.05-0.06 0.05-0.06ZM52.99 2.2l-0.02-0.09-0.04-0.1-0.04-0.09-0.06-0.07-0.06-0.06-0.09-0.06-0.08-0.05-0.1-0.03-0.1-0.03-0.13-0.01h-0.25l-0.14 0.02-0.15 0.04-0.13 0.04-0.13 0.06-0.12 0.05-0.12 0.07L51.1 2l-0.13 0.1-0.1 0.1-0.18 0.17-0.02 0.02h-0.02l-0.01-0.02-0.01-0.02V2.33l0.1-0.42V1.9 1.87 1.84L50.7 1.82 50.69 1.8V1.78l-0.03-0.01-0.02-0.01-0.02-0.01h-0.06l-0.18 0.03-0.16 0.02h-0.16L49.9 1.83h-0.16-0.14-0.22-0.06l-0.08 0.03-0.06 0.02-0.05 0.04-0.05 0.04L49.02 2l-0.05 0.06-0.04 0.06-0.03 0.07-0.03 0.06v0.06l-0.01 0.06v0.05l0.01 0.06 0.03 0.06 0.03 0.04 0.03 0.05L49 2.66l0.04 0.03 0.05 0.02 0.05 0.01h0.11l0.3-0.02h0.03l0.04 0.03v0.03 0.04L49.1 4.84l-0.03 0.14-0.02 0.03-0.02 0.03-0.02 0.02-0.03 0.01-0.03 0.02H48.9l-0.1-0.02h-0.1-0.07l-0.07 0.02L48.5 5.1l-0.07 0.04-0.07 0.04-0.06 0.06-0.06 0.06-0.06 0.08-0.04 0.08-0.03 0.07v0.01L48.1 5.61v0.07 0.08 0.08l0.02 0.02 0.01 0.04 0.04 0.06L48.2 6l0.04 0.04 0.04 0.02 0.05 0.02h0.06 0.13l0.25-0.01 0.27-0.01 0.28-0.01h0.28 0.27 0.29l0.24 0.01h0.13 0.08l0.07-0.02 0.07-0.02 0.06-0.03 0.07-0.05 0.07-0.05L51 5.84l0.05-0.07 0.04-0.07 0.03-0.08 0.03-0.1V5.46l0.02-0.06-0.01-0.07-0.02-0.05L51.1 5.2l-0.04-0.04-0.04-0.04-0.05-0.03-0.06-0.02-0.06-0.01h-0.1l-0.15 0.01-0.2 0.03h-0.03l-0.03-0.02-0.02-0.02-0.02-0.02V5.02 4.99l0.35-1.36 0.05-0.17 0.06-0.13 0.07-0.11 0.06-0.1 0.06-0.08 0.07-0.08 0.08-0.07 0.1-0.07 0.1-0.06 0.1-0.06 0.1-0.04 0.06-0.02 0.04-0.01h0.01 0.02v0.02l0.02 0.02v0.02h-0.01l-0.03 0.07-0.04 0.06-0.02 0.06-0.03 0.06-0.01 0.07-0.02 0.06v0.06l0.01 0.06 0.02 0.06 0.03 0.06 0.04 0.06 0.06 0.04 0.05 0.04 0.06 0.03 0.08 0.02 0.09 0.01h0.1l0.09-0.03 0.1-0.03 0.1-0.04 0.1-0.05 0.1-0.07 0.07-0.06 0.08-0.08 0.08-0.09 0.07-0.1 0.05-0.11 0.05-0.1 0.03-0.11L53 2.52v-0.1L53 2.32l-0.01-0.1ZM31.89 4.3l0.04-0.2h0.01V4.07l0.01-0.01 0.02-0.02H32l0.02-0.02h0.42 2.11L34.58 4l0.04-0.02h0.03l0.03-0.03 0.03-0.02V3.92l0.02-0.01 0.03-0.03V3.84l0.02-0.03 0.03-0.1 0.04-0.17 0.03-0.16 0.03-0.16 0.01-0.17V2.92l-0.01-0.14-0.02-0.12-0.04-0.12-0.04-0.12-0.05-0.1-0.04-0.09-0.01-0.01-0.07-0.1-0.08-0.1-0.09-0.07-0.1-0.08-0.1-0.07-0.14-0.06-0.12-0.05-0.12-0.04-0.13-0.03-0.14-0.02-0.16-0.02h-0.19L33.12 1.6l-0.16 0.02h-0.03l-0.14 0.03-0.15 0.04-0.14 0.04-0.24 0.09-0.23 0.11-0.22 0.13-0.2 0.16-0.18 0.16-0.15 0.17-0.14 0.18L31 2.92l-0.12 0.23-0.1 0.22L30.7 3.6l-0.07 0.25L30.6 4.1l-0.02 0.25v0.26l0.02 0.19 0.04 0.18 0.05 0.18 0.02 0.03 0.05 0.14 0.1 0.15 0.12 0.14 0.14 0.12 0.17 0.12 0.18 0.09 0.2 0.06 0.24 0.03 0.24 0.02 0.24-0.01 0.25-0.03 0.25-0.05 0.05-0.01 0.2-0.06 0.23-0.08 0.2-0.08 0.19-0.1 0.17-0.12 0.17-0.14 0.15-0.15 0.06-0.08 0.06-0.08 0.04-0.08 0.02-0.08 0.02-0.05 0.01-0.06V4.73 4.67L34.44 4.6l-0.02-0.05-0.04-0.04-0.06-0.06-0.05-0.04-0.08-0.02-0.07-0.02h-0.09-0.09l-0.1 0.02-0.1 0.04-0.11 0.04-0.1 0.05-0.1 0.08-0.13 0.1-0.1 0.07-0.1 0.07L33 4.9l-0.07 0.04-0.04 0.02L32.8 5l-0.1 0.04-0.1 0.01-0.09 0.02h-0.08-0.08l-0.08-0.03-0.07-0.03-0.08-0.05-0.07-0.08-0.05-0.08-0.04-0.09-0.04-0.1-0.02-0.1V4.3Zm0.33-1.25l0.04-0.08 0.05-0.07 0.05-0.06 0.05-0.07 0.07-0.07 0.06-0.06 0.08-0.06 0.06-0.04 0.07-0.03 0.06-0.03 0.08-0.02 0.04-0.02h0.04l0.08-0.02h0.08l0.07 0.01 0.08 0.02 0.08 0.03 0.06 0.04 0.07 0.05 0.05 0.05 0.03 0.06 0.03 0.06 0.02 0.06v0.06l0.02 0.05v0.06 0.05 0.04L33.62 3.1l-0.03 0.03-0.03 0.02h-0.04-1.25-0.03L32.22 3.1V3.08 3.05Z" fill="#28588C"/>
  <path d="M0.03 3.52L2 6.22h0.01l0.02 0.02h0.01 0.04 0.02l0.01-0.01h0.02L2.14 6.2V6.2 6.15L2.07 5.9 1.99 5.66 1.93 5.41 1.89 5.16 1.87 4.91V4.63 4.36L1.9 4.09l0.04-0.27L2 3.55l0.07-0.24 0.07-0.22 0.09-0.23 0.1-0.23 0.1-0.23 0.1-0.21 0.12-0.22 0.12-0.2 0.12-0.2 0.13-0.2 0.15-0.18 0.15-0.18 0.15-0.18 0.16-0.17 0.01-0.01V0.64 0.62 0.6L3.62 0.58V0.57H3.58L3.57 0.55H3.56L3.54 0.57 3.52 0.58 0.05 3.33 0.03 3.35 0.02 3.37 0.01 3.39 0 3.42v0.02 0.03L0.03 3.5l0.01 0.02Z" fill="#CC2229"/>
</svg>
