<svg xmlns="http://www.w3.org/2000/svg" viewBox="0 0 53 64">
  <path d="M0.75 14.17v18.14l26.18 9.6L53 32.31V14.17l-26.07 9.6-26.18-9.6Z" fill="#000000"/>
  <path d="M0.75 36.25V54.4l26.18 9.6L53 54.4V36.25l-26.07 9.61-26.18-9.6ZM23.45 2.7h2.38l1.69 6.7 1.72-6.7h2.36l-2.44 9.6H25.9l-2.47-9.6Zm13.51 0h-4.53v9.6h2.44V6.59c0-1.26 0.8-1.3 2.1-1.3V2.7Zm12.55 2.59c0.8 0 1.08 0.27 1.08 1.19v5.83H53V5.29c0-1.03-0.54-2.7-2.52-2.6h-4.53v9.62h2.41V5.29h1.15Zm-8.42-2.6c-3.93 0-3.54 2.41-3.54 4.68 0 2.53-0.32 4.94 3.6 4.94 3.91 0 3.48-2.4 3.48-5 0-2.53 0.48-4.61-3.54-4.61Zm0 7.13c-1.1 0-1.15-0.83-1.15-2.4 0-1.51 0.13-2.27 1.15-2.27s1.1 0.7 1.13 2.22c0.02 1.64 0 2.45-1.13 2.45ZM18.78 8.45h4.3l-0.01-0.79c0-2.53 0.37-4.96-3.33-4.96-3.93 0-3.54 2.7-3.54 4.96 0 2.06-0.05 4.65 3.86 4.65h3V9.93H19.9c-0.59 0-1.07-0.57-1.12-1.48Zm0-2.62c0-1.13 1.71-1.08 1.71-0.16v0.67h-1.71V5.83ZM7.97 0v12.3h2.41V6.32c0.05-1.34 2.33-1.34 2.33-0.05v6.05h2.42V5.53c0-1.56-1.02-2.7-2.85-2.7-1.07 0-1.74 0.14-1.9 0.35V0H7.97ZM6.8 0H4.08C0.59 0 0 2.91 0 6.2c0 3.3 0.59 6.1 3.54 6.1h3.27V9.73H4.45c-1.71 0-1.6-2.38-1.6-3.57 0-1.18-0.33-3.4 2.03-3.45h1.93V0Z" fill="#000000"/>
</svg>
