<svg xmlns="http://www.w3.org/2000/svg" viewBox="0 0 53 22">
  <path d="M52.63 7.13c-0.27-0.24-0.57-0.37-0.91-0.37-0.38 0-0.67 0.13-0.92 0.37-0.27 0.28-0.4 0.6-0.4 0.97s0.13 0.7 0.4 0.94c0.25 0.25 0.54 0.4 0.92 0.4 0.34 0 0.64-0.15 0.91-0.4C52.88 8.79 53 8.47 53 8.1s-0.12-0.7-0.37-0.97Zm-0.92-0.17c0.3 0 0.55 0.1 0.75 0.32 0.2 0.22 0.3 0.5 0.32 0.82-0.03 0.32-0.13 0.6-0.32 0.81-0.2 0.2-0.45 0.33-0.75 0.33S51.15 9.1 50.95 8.9c-0.2-0.22-0.32-0.49-0.32-0.81 0-0.32 0.12-0.6 0.32-0.82 0.2-0.22 0.47-0.32 0.76-0.32Z" fill="#AD4C38"/>
  <path d="M51.79 7.33h-0.6v1.53h0.25V8.2h0.25l0.42 0.66h0.25L51.9 8.2c0.27-0.05 0.4-0.18 0.42-0.45-0.02-0.3-0.2-0.44-0.54-0.42ZM51.44 7.5h0.32c0.2 0 0.33 0.08 0.33 0.25 0 0.1-0.06 0.18-0.13 0.22L51.7 8h-0.25V7.5ZM7.71 21.67c1.38 0.19 3.15-0.38 4.66-1.32l0.08 0.07c1.23 0.94 2.61 1.41 3.99 1.37 1.88-0.04 3.48-0.52 4.77-1.4 1 0.76 2.21 1.22 3.47 1.34 0.9 0.1 1.85 0.01 2.82-0.27h0.03c0.72-0.23 1.36-0.54 1.9-0.93 0.77 0.66 1.68 1.03 2.7 1.08 1.17 0.08 2.38-0.2 3.5-0.8l0.05-0.03c0.75 0.54 1.63 0.86 2.55 0.93 1.12 0.07 2.22-0.15 3.3-0.6 0.67 0.46 1.49 0.8 2.42 0.72 0.8 0.05 1.61-0.07 2.44-0.4 1.16-0.48 2.15-1.59 2.93-2.55 0.8-1 1.49-2.26 1.87-3.7 0.23-0.95 0.23-1.72-0.02-2.26-0.27-0.67-0.92-0.99-1.9-0.99-0.05 0-0.05-0.15 0.05-0.42l0.3-1.01c0.29-1.1 0.29-1.9-0.06-2.45-0.22-0.42-0.64-0.72-1.23-0.97-0.52-0.2-1.1-0.32-1.76-0.37-0.54-0.04-1.08-0.03-1.6 0.05-0.45 0.08-0.72 0.18-0.77 0.3l-0.47-0.5c-0.5-0.32-1.1-0.34-1.81-0.1 0.15-0.81-0.17-1.26-1.01-1.28L40.04 5.2c-0.27 0.03-0.4-0.02-0.37-0.12 0.25-0.91 0.02-1.5-0.7-1.83-0.26-0.12-0.61-0.22-1.06-0.27L36.73 2.9c-1.31-0.04-2.3 0-2.9 0.18-1.01 0.3-1.63 0.89-1.8 1.85l-0.35 0.03-0.76-0.05c-0.72-0.03-1.14 0.15-1.27 0.52-2.99-1.19-5.09-0.4-6.28 2.37-0.44 0.12-0.76 0.03-0.96-0.27-0.67-1.11-1.66-1.76-3-1.95L18.19 5.5c-0.35-0.02-0.52-0.07-0.52-0.15-0.2-3.95-2.67-5.71-7.4-5.29C8.72 0.23 7.26 0.73 5.92 1.5 4.68 2.24 3.6 3.2 2.67 4.39c-0.89 1.14-1.57 2.43-2 3.8C0.2 9.62-0.03 11.03 0 12.49c0 2.7 0.74 4.84 2.18 6.48 1.84 1.89 3.36 2.4 5.53 2.7Z" fill="#AD4C38"/>
  <path d="M48.55 18.16c0.22-0.22 0.5-0.59 0.84-1.1 0.42-0.68 0.7-1.3 0.86-1.84 0.2-0.74 0.18-1.31-0.12-1.7-0.34-0.5-1.06-0.72-2.13-0.67-0.07 0-0.05-0.15 0.08-0.47l0.4-1.14c0.39-1.16 0.51-1.93 0.32-2.3-0.23-0.45-0.6-0.74-1.12-0.97-0.44-0.17-0.96-0.27-1.56-0.3-0.51 0-1 0.06-1.43 0.16-0.42 0.1-0.67 0.2-0.72 0.32l-0.05 0.12c0.05-0.57-0.91-0.84-2.82-0.77 0.28-0.91-0.07-1.38-1.08-1.43l-1.1 0.05c-0.31 0.02-0.46-0.02-0.44-0.1 0.23-0.84 0.08-1.4-0.42-1.73-0.37-0.25-0.99-0.37-1.93-0.4-1.01-0.05-1.75 0.05-2.22 0.28-0.6 0.3-1 0.89-1.21 1.8L32.3 6h-0.84c-0.82 0-1.31 0.17-1.41 0.5-3.14-1.25-5.2-0.28-6.16 2.98-0.64 0.15-1.06 0.13-1.26-0.14-1.11-1.51-2.42-2.33-3.88-2.48L17.4 6.91c-0.34 0.03-0.52 0.03-0.52-0.05-0.17-3.95-2.12-5.9-5.93-5.83C9.57 1.13 8.24 1.5 7 2.2 5.81 2.86 4.77 3.75 3.86 4.83 2.96 5.9 2.28 7.1 1.81 8.4c-0.48 1.25-0.72 2.58-0.72 3.93 0.02 2.47 0.7 4.42 1.98 5.88l0.06 0.08c1.15 1.4 2.74 2.18 4.63 2.27 1.59 0.07 3.16-0.45 4.68-1.56 0.2 0.18 0.4 0.36 0.61 0.52 1.07 0.81 2.2 1.2 3.38 1.17 1.38-0.03 3.28-0.37 4.8-1.71l0.32 0.33c0.91 0.76 2.02 1.21 3.23 1.32 0.79 0.09 1.58 0.02 2.44-0.23 0.71-0.22 1.3-0.53 1.8-0.91l0.6-0.28c0.67 0.8 1.55 1.25 2.57 1.3 0.98 0.07 2-0.17 2.98-0.7l0.16-0.09 0.42-0.29c0.84 0.84 1.79 1.12 2.56 1.18 1.12 0.07 2.24-0.2 3.35-0.77 0.6 0.54 1.38 1 2.29 0.88 0.66 0.06 1.36-0.04 2.08-0.33 0.64-0.25 1.17-0.75 1.81-1.38l0.7-0.85Z" fill="#FFFFFF"/>
  <path d="M33.9 7.03c-0.1 0.3-0.19 0.5-0.29 0.62h-2.03c-0.47 0-0.69 0.27-0.66 0.77 0 0.22 0.14 0.37 0.44 0.47h1.78l-1.9 5.1c-0.35 1.08-0.84 1.65-1.44 1.68 0.1-1.88-0.47-3.5-1.7-4.83 0.71-0.34 1.18-0.79 1.4-1.36 0.2-0.54 0.13-0.99-0.2-1.3-0.29-0.3-0.66-0.45-1.08-0.4-1.31 0.1-2.18 0.69-2.55 1.7-0.12 0.32-0.2 0.67-0.24 1.07l-0.05 0.5c-1.17 0.44-2.3 0.39-3.44-0.08-0.08-0.05-0.17-0.18-0.3-0.4-0.17-0.3-0.32-0.54-0.47-0.72-0.54-0.66-1.36-1.08-2.45-1.28-1.01-0.2-2.02-0.03-3.04 0.52-0.3 0.17-0.62 0.34-0.89 0.6l-0.34 0.29c-0.94 1.26-1.56 2.42-1.8 3.53l-0.18 1c-0.03 0.24-0.05 0.39-0.08 0.44-0.47 0.47-0.89 0.86-1.23 1.11-0.6 0.4-1.2 0.6-1.76 0.57-0.91 0-1.6-0.37-2.13-1.09-0.47-0.67-0.71-1.46-0.66-2.42 0.02-1.36 0.37-2.75 1.01-4.16 0.52-1.1 1.11-2.1 1.85-2.96 1.83-1.98 3.27-2.43 4.28-1.36 0.62 0.64 0.52 1.2-0.3 1.7-0.46 0.08-0.78-0.07-0.9-0.44l-0.16-0.35c-0.02-0.07-0.1-0.07-0.22-0.02-0.54 0.32-0.82 0.79-0.77 1.45 0.03 0.45 0.2 0.85 0.55 1.2 0.34 0.31 0.74 0.49 1.19 0.46 0.69-0.05 1.2-0.25 1.6-0.62 0.37-0.4 0.57-0.89 0.62-1.53 0.08-1.11-0.37-2-1.28-2.67-0.85-0.6-1.81-0.92-2.95-0.92-1.8 0-3.41 0.75-4.82 2.23-1.04 1.01-1.83 2.05-2.32 3.12-0.6 1.18-0.9 2.52-0.97 4-0.07 1.73 0.32 3.2 1.19 4.38 0.89 1.26 2.1 1.9 3.63 1.98 1.61 0.07 3.22-0.7 4.85-2.33 0.32 0.62 0.8 1.17 1.41 1.64 0.72 0.54 1.48 0.84 2.28 0.81 3.58-0.07 5.49-2.22 5.68-6.4 0.65 0.2 1.8 0.17 3.47-0.08 0.61 1.14 0.91 2.13 0.84 3.04-0.08 1.1-0.67 1.69-1.8 1.83-0.92-0.14-1.37-0.56-1.37-1.23 0-1.12 0.62-1.46 1.88-1.04 0.2-0.4 0.12-0.8-0.22-1.16-0.32-0.37-0.72-0.55-1.16-0.5-0.57 0.05-1.04 0.32-1.39 0.82-0.32 0.44-0.5 0.99-0.54 1.65-0.08 0.82 0.22 1.51 0.91 2.1 0.62 0.53 1.39 0.85 2.28 0.92 0.6 0.08 1.18 0 1.78-0.17 0.57-0.17 1.04-0.42 1.38-0.74 0.47-0.2 0.84-0.37 1.14-0.55l1.21-0.79c0 0.55 0.18 1.02 0.5 1.46 0.34 0.42 0.76 0.64 1.3 0.67 0.68 0.05 1.4-0.13 2.09-0.5l1.85-1.26c0.5 1.16 1.21 1.78 2.23 1.86 1.13 0.07 2.32-0.35 3.53-1.26 0.82 1.03 1.44 1.5 1.88 1.36 0.47 0.1 1 0.02 1.53-0.2 0.52-0.2 1.02-0.52 1.54-0.94 0.47-0.4 0.89-0.84 1.23-1.34 0.38-0.47 0.6-0.94 0.72-1.36 0.03-0.1 0.03-0.2-0.05-0.27-0.05-0.07-0.15-0.12-0.24-0.12-0.3-0.03-0.52 0.15-0.7 0.5-0.2 0.44-0.54 0.88-1.04 1.38-0.59 0.57-1.08 0.76-1.45 0.52-0.28-0.15-0.15-0.9 0.34-2.16l1.41-3.68c0.13-0.35 0.17-0.62 0.17-0.8 0-0.51-0.42-0.8-1.28-0.88-0.94-0.1-1.56 0.27-1.88 1.06-0.08-0.25-0.27-0.47-0.6-0.7-0.37-0.26-0.79-0.41-1.26-0.49-1.3-0.17-2.6 0.4-3.85 1.71-0.55 0.54-1.04 1.34-1.49 2.4l-0.47 1.11c-0.15 0.4-0.27 0.67-0.34 0.8-0.5 0.64-1.07 0.98-1.71 1.03-0.25 0-0.42-0.1-0.52-0.32-0.12-0.25-0.12-0.47 0.02-0.7l2.4-6.4h2.38c0.42-0.02 0.64-0.27 0.72-0.71 0.02-0.2 0-0.35-0.08-0.42-0.1-0.08-0.25-0.13-0.47-0.13l-2.1-0.02 0.34-0.92c0.1-0.27 0.13-0.5 0.1-0.64-0.05-0.17-0.17-0.3-0.4-0.37-0.21-0.1-0.59-0.15-1.08-0.18-0.77-0.02-1.29 0.25-1.56 0.8-0.05 0.1-0.15 0.34-0.27 0.71ZM28.13 9.2c-0.17 0.32-0.35 0.44-0.54 0.42-0.13-0.05-0.2-0.15-0.23-0.3-0.02-0.15 0-0.3 0.05-0.44 0.13-0.28 0.3-0.43 0.55-0.43 0.2 0 0.32 0.08 0.34 0.23 0.03 0.15-0.02 0.32-0.17 0.52Zm14.72 1.5c0.56 0.1 0.76 0.6 0.56 1.49-0.04 0.3-0.2 0.7-0.37 1.16L42.6 14.5c-0.32 0.82-0.7 1.44-1.09 1.88-0.52 0.55-1.06 0.74-1.63 0.62-0.97-0.25-0.92-1.4 0.07-3.54 0.45-0.91 0.82-1.58 1.16-1.97 0.55-0.65 1.12-0.92 1.74-0.8ZM18.6 9.77c0.6 0.2 0.84 0.76 0.77 1.7-0.08 0.72-0.3 1.56-0.7 2.52-0.42 1.02-0.89 1.78-1.38 2.35-0.67 0.72-1.29 0.94-1.86 0.62-0.52-0.27-0.71-0.84-0.61-1.68 0.07-0.54 0.3-1.31 0.66-2.3 0.97-2.5 2-3.59 3.12-3.21Z" fill="#AD4C38"/>
</svg>
