<svg xmlns="http://www.w3.org/2000/svg" viewBox="0 0 53 53">
  <path d="M26.5 0c-0.24 0-0.48 0.05-0.7 0.14-0.23 0.1-0.44 0.23-0.6 0.4L0.53 25.2C0.2 25.54 0 26.01 0 26.5c0 0.5 0.2 0.96 0.54 1.31L25.2 52.46C25.54 52.81 26.01 53 26.5 53c0.5 0 0.96-0.19 1.31-0.54l24.65-24.65c0.17-0.17 0.3-0.38 0.4-0.6 0.1-0.22 0.14-0.46 0.14-0.7 0-0.25-0.05-0.5-0.14-0.72-0.1-0.22-0.23-0.43-0.4-0.6L27.81 0.54c-0.17-0.17-0.37-0.3-0.6-0.4C27 0.04 26.75 0 26.51 0Z" fill="#2360A5"/>
  <path d="M52.26 25.4c0.3 0.29 0.46 0.69 0.46 1.1 0 0.42-0.17 0.81-0.46 1.1L27.6 52.27c-0.3 0.3-0.69 0.46-1.1 0.46-0.43 0-0.82-0.17-1.12-0.46L0.74 27.6c-0.3-0.3-0.45-0.69-0.45-1.11 0-0.42 0.16-0.81 0.45-1.1L25.4 0.73c0.3-0.3 0.7-0.45 1.11-0.45 0.42 0 0.81 0.16 1.1 0.45L52.27 25.4Z" fill="#FFFFFF"/>
  <path d="M13.74 13.54L1.85 25.43c-0.26 0.26-0.41 0.63-0.41 1 0 0.38 0.15 0.74 0.41 1.01L12.4 37.98c0.26 0.27 0.63 0.42 1 0.42 0.38 0 0.74-0.15 1.01-0.42L26.3 26.1 13.74 13.54ZM25.5 1.78L14.48 12.8l12.56 12.56 11.01-11.02c0.27-0.27 0.42-0.63 0.42-1 0-0.38-0.15-0.74-0.42-1.01L27.51 1.78c-0.27-0.26-0.63-0.41-1-0.41-0.39 0-0.75 0.15-1.02 0.41Z" fill="#CF4037"/>
  <path d="M8.9 29.66c1.71 0 3.1-1.39 3.1-3.1 0-1.7-1.39-3.08-3.1-3.08-1.7 0-3.09 1.38-3.09 3.09 0 1.7 1.39 3.09 3.1 3.09Z" fill="#FFFFFF"/>
  <path d="M17.9 29.8c1.71 0 3.1-1.4 3.1-3.1 0-1.7-1.39-3.09-3.1-3.09-1.7 0-3.09 1.38-3.09 3.1 0 1.7 1.39 3.08 3.1 3.08Z" fill="#FFFFFF"/>
  <path d="M26.77 16.36c1.7 0 3.09-1.39 3.09-3.1 0-1.7-1.38-3.08-3.1-3.08-1.7 0-3.08 1.38-3.08 3.09 0 1.7 1.38 3.09 3.09 3.09Z" fill="#FFFFFF"/>
  <path d="M38.66 14.95L15.02 38.59c-0.27 0.27-0.42 0.63-0.42 1 0 0.39 0.15 0.75 0.42 1.02l10.54 10.54c0.27 0.27 0.63 0.42 1 0.42 0.39 0 0.75-0.15 1.02-0.42l23.64-23.64c0.26-0.27 0.41-0.63 0.41-1.01s-0.15-0.74-0.41-1L40.67 14.94c-0.26-0.27-0.63-0.42-1-0.42-0.38 0-0.74 0.15-1.01 0.42Z" fill="#2360A5"/>
  <path d="M20.94 44.03L16.5 39.6l1.24-1.25c1.31-1.31 3.44-0.76 4.72 1.55 0.59 1.08 0.52 2.1-0.23 2.86l-1.29 1.28Z" fill="#FFFFFF"/>
  <path d="M20.6 40.24c-1.13-1.26-1.84-0.65-1.84-0.65l2.2 2.2s0.55-0.53-0.36-1.55Z" fill="#2360A5"/>
  <path d="M22.6 39.31c-0.88-0.87-1-2-0.37-2.85 0.85-1.13 2.27-1.15 3.32-0.1 0.98 0.97 1.04 2.24 0.16 3.11-0.88 0.88-2.14 0.82-3.11-0.16Z" fill="#FFFFFF"/>
  <path d="M24.54 38.65c0.26 0.03 0.38-0.1 0.36-0.36 0-0.24-0.24-0.63-0.65-0.97-0.26-0.22-0.48-0.32-0.65-0.33-0.26-0.01-0.38 0.1-0.36 0.36 0.01 0.2 0.17 0.5 0.48 0.81 0.32 0.32 0.61 0.48 0.82 0.5Z" fill="#2360A5"/>
  <path d="M35.26 26.65c-0.88-0.87-1-2-0.38-2.85 0.86-1.14 2.28-1.15 3.33-0.1 0.98 0.97 1.04 2.24 0.16 3.11-0.88 0.88-2.14 0.81-3.11-0.16Z" fill="#FFFFFF"/>
  <path d="M37.2 26c0.26 0.02 0.38-0.1 0.36-0.37 0-0.24-0.24-0.63-0.65-0.97-0.26-0.22-0.48-0.32-0.65-0.33-0.25-0.01-0.37 0.1-0.36 0.36 0.01 0.2 0.17 0.5 0.48 0.81 0.32 0.32 0.62 0.48 0.82 0.5Z" fill="#2360A5"/>
  <path d="M27.34 37.64l-3.12-3.11 1.13-1.13 0.4 0.4-0.03-0.14c-0.05-0.3 0-0.62 0.16-0.88 0.33-0.59 0.99-0.79 1.48-0.6 0-0.04-0.16-0.65 0.1-1.03 0.43-0.62 1.05-0.77 1.59-0.5l0.24 0.16 0.01 0.02 0.46 0.45 1.97 1.97-1.17 1.17-1.8-1.8c-0.12-0.1-0.23-0.13-0.33-0.11-0.15 0.02-0.3 0.21-0.27 0.41 0.02 0.1 0.08 0.2 0.16 0.27l1.73 1.74-1.1 1.1-1.65-1.65c-0.35-0.35-0.67-0.3-0.77-0.04-0.04 0.12 0 0.26 0.12 0.4l1.8 1.8-1.11 1.1Zm2.85-9.08l3.11 3.11-1.2 1.2-3.11-3.1 1.2-1.21Zm3.57 2.66l-3.11-3.12 1.16-1.16 0.43 0.43v-0.01l-0.03-0.15c-0.09-0.4-0.05-0.64 0.19-1 0.51-0.78 1.25-0.72 2.15 0.18l2.02 2.02-1.17 1.17-1.64-1.65c-0.37-0.37-0.64-0.4-0.74-0.13-0.08 0.16-0.01 0.34 0.35 0.7l1.55 1.55-1.16 1.17Zm6.98-7.51l-0.42-1.18 0.33-0.09c0.5-0.16 0.66-0.37 0.63-0.54-0.02-0.13-0.14-0.21-0.29-0.16-0.04 0.01-0.09 0.03-0.13 0.06l-0.08 0.04-0.12 0.07-0.1 0.06-0.11 0.07c-0.6 0.32-1.4-0.03-1.73-0.82-0.31-0.75-0.07-1.56 0.96-2.2 0.15-0.1 0.3-0.19 0.48-0.26l0.06-0.03 0.07-0.02 0.5 1.18c-0.17 0.03-0.15 0.03-0.31 0.1-0.1 0.05-0.2 0.1-0.3 0.18l-0.11 0.17c-0.07 0.12 0 0.24 0.11 0.27 0.06 0.01 0.13 0 0.18-0.02l0.07-0.03 0.07-0.05 0.36-0.19c0.54-0.32 1.2-0.16 1.66 0.53 0.48 0.7 0.36 1.63-0.57 2.35-0.32 0.24-0.69 0.41-1.08 0.49l-0.13 0.02Z" fill="#FFFFFF"/>
  <path d="M28.63 29.1c0.52 0 0.94-0.42 0.94-0.94s-0.42-0.94-0.94-0.94-0.94 0.42-0.94 0.94 0.42 0.94 0.94 0.94Z" fill="#FFFFFF"/>
  <path d="M27.84 42.2l3.11 3.11-1.2 1.2-3.11-3.12 1.2-1.2Z" fill="#FFFFFF"/>
  <path d="M26.28 42.74c0.52 0 0.95-0.42 0.95-0.94s-0.43-0.95-0.95-0.95-0.94 0.43-0.94 0.95 0.42 0.94 0.94 0.94Z" fill="#FFFFFF"/>
  <path d="M37.54 22.74l0.9-0.9-1.26-2.8-1.12 1.12 1.48 2.58ZM26.52 49.66l-4.45-4.45 1.3-1.3c0.98-0.99 2.11-1.08 3.14-0.03 1.39 1.4 0.22 2.68 0.15 2.74l-0.45 0.46 1.44 1.44-1.13 1.14Z" fill="#FFFFFF"/>
  <path d="M25.34 45.85c0.17-0.17 0.17-0.35 0.04-0.57-0.25-0.4-0.73-0.63-0.98-0.38l-0.19 0.18 0.95 0.95 0.18-0.18Z" fill="#2360A5"/>
  <path d="M35.93 34.83l-0.34-0.34 1.12-1.12 3.05 3.04-1.12 1.13-0.38-0.38c0.23 0.44 0.11 1-0.46 1.34-0.48 0.32-1.24 0.22-2.07-0.4-1.12-0.87-1.47-2.07-1.11-2.75 0.32-0.6 0.88-0.74 1.3-0.52Z" fill="#FFFFFF"/>
  <path d="M37.38 37c0.33-0.03 0.28-0.38-0.1-0.83-0.45-0.5-0.83-0.7-1.03-0.62-0.08 0.03-0.12 0.1-0.12 0.2-0.01 0.18 0.13 0.44 0.46 0.78 0.34 0.34 0.6 0.48 0.8 0.47Z" fill="#2360A5"/>
  <path d="M28.33 41.7l2.5-2.48 1.11 3.22 0.84-0.84 0.95 0.95-2.46 2.47-1.16-3.32-0.9 0.9-0.88-0.9Zm2.86-2.85l2.49-2.49 1.12 3.23 0.84-0.84 0.95 0.95-2.46 2.46-1.17-3.31-0.89 0.89-0.88-0.89Z" fill="#FFFFFF"/>
  <path d="M29.94 51.84c0-0.13 0.04-0.26 0.1-0.38 0.05-0.12 0.12-0.23 0.22-0.32 0.1-0.1 0.21-0.17 0.34-0.21 0.12-0.05 0.26-0.07 0.39-0.06 0.27 0 0.52 0.11 0.7 0.3 0.19 0.2 0.29 0.46 0.28 0.73 0 0.26-0.12 0.52-0.31 0.7-0.2 0.18-0.45 0.28-0.72 0.28-0.13 0-0.27-0.03-0.39-0.09-0.12-0.05-0.23-0.12-0.33-0.22-0.09-0.1-0.16-0.21-0.2-0.33-0.06-0.13-0.08-0.26-0.08-0.4Z" fill="#2360A5"/>
  <path d="M30.95 52.7c0.1 0.01 0.21 0 0.31-0.05 0.1-0.04 0.2-0.1 0.28-0.17 0.07-0.08 0.14-0.17 0.18-0.27 0.04-0.1 0.06-0.21 0.06-0.32 0-0.11-0.01-0.22-0.05-0.32s-0.1-0.2-0.17-0.28c-0.07-0.08-0.16-0.14-0.26-0.18-0.1-0.05-0.2-0.07-0.31-0.08-0.11 0-0.22 0.02-0.32 0.06-0.1 0.04-0.2 0.1-0.28 0.17-0.07 0.08-0.14 0.17-0.18 0.27-0.04 0.1-0.06 0.21-0.06 0.32-0.01 0.1 0 0.22 0.04 0.32s0.1 0.2 0.17 0.28c0.08 0.08 0.17 0.14 0.27 0.19 0.1 0.04 0.2 0.07 0.32 0.07Z" fill="#FFFFFF"/>
  <path d="M30.74 52.44h-0.18l0.03-1.16 0.44 0.01c0.28 0.01 0.4 0.11 0.4 0.34 0 0.21-0.13 0.3-0.3 0.32l0.31 0.51h-0.2l-0.29-0.51h-0.2l-0.01 0.5Z" fill="#2360A5"/>
  <path d="M30.97 51.8c0.14 0 0.28 0 0.28-0.18 0-0.15-0.13-0.18-0.25-0.18h-0.24v0.35h0.2Z" fill="#FFFFFF"/>
</svg>
