<svg xmlns="http://www.w3.org/2000/svg" viewBox="0 0 53 21">
  <path d="M7.65 12.59c-0.83-1.18-1.98-1.87-3.4-2.04H1.9c-0.5 0-0.98 0.2-1.34 0.55C0.2 11.46 0 11.95 0 12.46V18c0 1.05 0.85 1.9 1.9 1.9h2.34c1.43-0.16 2.6-0.85 3.41-2.03 0.52-0.83 0.78-1.67 0.78-2.64 0-0.97-0.26-1.82-0.78-2.64Zm5.95-2.22c-2.68 0-4.85 2.19-4.85 4.86 0 1.28 0.52 2.51 1.42 3.42 0.91 0.91 2.14 1.42 3.43 1.42 0.63 0 1.26-0.12 1.85-0.37 0.6-0.24 1.13-0.6 1.58-1.04 0.45-0.45 0.8-0.99 1.05-1.58 0.25-0.58 0.37-1.21 0.37-1.85 0-1.29-0.51-2.52-1.42-3.43-0.91-0.91-2.15-1.43-3.43-1.43Zm10.72 9.03l-2.55-3.24v2.21c0 0.41-0.17 0.8-0.46 1.08-0.29 0.29-0.67 0.45-1.08 0.45-0.38 0-0.74-0.13-1.02-0.38s-0.46-0.6-0.5-0.97v-6.46c0-0.87 0.69-1.54 1.54-1.54h0.15c0.41 0.03 0.76 0.2 1.02 0.52l2.55 3.22v-2.2c0.02-0.85 0.7-1.54 1.54-1.54 0.78 0 1.43 0.58 1.52 1.37v6.46c0 0.85-0.69 1.54-1.54 1.54-0.04 0-0.09 0-0.15-0.02-0.41-0.03-0.76-0.19-1.02-0.5Zm12.07-7.49v4.42c-0.22 2.15-2.01 3.74-4.17 3.74-2.15 0-3.93-1.59-4.16-3.74v-4.42c0.04-0.37 0.21-0.72 0.5-0.97 0.28-0.25 0.64-0.4 1.02-0.4 0.8 0 1.45 0.59 1.54 1.37V16c0.02 0.28 0.14 0.54 0.35 0.74 0.2 0.19 0.47 0.3 0.75 0.3s0.55-0.1 0.76-0.3c0.2-0.2 0.33-0.46 0.34-0.74v-4.09c0.1-0.78 0.76-1.36 1.54-1.36 0.79 0 1.45 0.58 1.53 1.36Zm8 3.23c0.48 0.51 1.03 0.83 1.7 1l0.53 0.11 0.36 0.11c0.06 0.05 0.13 0.08 0.17 0.14 0.06 0.07 0.1 0.16 0.1 0.26v0.04c0 0.13-0.05 0.22-0.15 0.33-0.03 0.04-0.07 0.07-0.12 0.08-0.04 0.02-0.1 0.03-0.14 0.03l-0.07-0.01c-0.15-0.03-0.3-0.08-0.44-0.14-0.16-0.06-0.33-0.14-0.48-0.22-0.16-0.07-0.3-0.15-0.43-0.26-0.17-0.11-0.37-0.18-0.57-0.18-0.2-0.01-0.41 0.04-0.59 0.14-0.15 0.08-0.29 0.2-0.4 0.33-0.11 0.13-0.2 0.29-0.24 0.45-0.05 0.15-0.07 0.3-0.07 0.44 0 0.46 0.18 0.85 0.5 1.15 0.84 0.72 1.77 1.08 2.87 1.08l0.14-0.01h0.03c0.63 0 1.24-0.18 1.76-0.53 0.52-0.36 0.91-0.86 1.13-1.45 0.16-0.4 0.24-0.76 0.24-1.18 0-0.6-0.14-1.12-0.46-1.63-0.24-0.42-0.6-0.77-1.02-1.01-0.22-0.13-0.45-0.25-0.7-0.35-0.4-0.17-0.81-0.26-1.25-0.39-0.1-0.03-0.2-0.07-0.28-0.12-0.05-0.04-0.09-0.09-0.11-0.14-0.03-0.05-0.05-0.1-0.05-0.16 0-0.08 0.02-0.15 0.05-0.2 0.04-0.07 0.1-0.12 0.15-0.15 0.07-0.05 0.15-0.07 0.22-0.08 0.2 0 0.35 0.05 0.5 0.14 0.27 0.16 0.51 0.29 0.8 0.4 0.3 0.1 0.63 0.12 0.94 0.04 0.36-0.15 0.62-0.42 0.73-0.81 0.03-0.1 0.03-0.2 0.03-0.29 0-0.42-0.18-0.78-0.51-1.02-0.39-0.28-0.82-0.49-1.28-0.61-0.39-0.13-0.8-0.2-1.2-0.19-0.38 0-0.75 0.05-1.1 0.16-0.5 0.13-0.96 0.4-1.3 0.8-0.24 0.26-0.44 0.56-0.57 0.9-0.14 0.33-0.2 0.69-0.2 1.05 0 0.75 0.26 1.4 0.78 1.95ZM38.6 13.6v4.94c0.04 0.37 0.22 0.72 0.5 0.97 0.29 0.25 0.65 0.38 1.03 0.38 0.84 0 1.52-0.68 1.54-1.53v-4.76H42c0.85 0 1.54-0.7 1.54-1.52 0-0.85-0.7-1.54-1.54-1.54h-3.74c-0.2 0-0.4 0.04-0.6 0.11-0.18 0.08-0.35 0.2-0.49 0.34s-0.25 0.31-0.33 0.5c-0.07 0.18-0.11 0.38-0.11 0.59 0 0.83 0.68 1.52 1.53 1.52h0.34Z" fill="#CB0879"/>
  <path d="M7.65 2.22c-0.83-1.18-1.98-1.87-3.4-2.05H1.9C0.85 0.17 0 1.02 0 2.07v5.55c0 1.06 0.85 1.9 1.9 1.9h2.34c1.43-0.15 2.6-0.84 3.41-2.04 0.52-0.82 0.78-1.65 0.78-2.62 0-0.94-0.26-1.86-0.78-2.64ZM5.11 5.8C4.99 5.98 4.83 6.13 4.64 6.25c-0.18 0.11-0.39 0.2-0.6 0.23h-1V3.22h0.97c0.47 0.1 0.81 0.33 1.1 0.7 0.19 0.3 0.27 0.59 0.27 0.94 0 0.34-0.1 0.64-0.27 0.94Zm4.07-4.26c0.04-0.38 0.22-0.73 0.5-0.98s0.65-0.4 1.02-0.39c0.8 0 1.45 0.58 1.54 1.37v4.07c0.04 0.6 0.5 1.05 1.1 1.05 0.6 0 1.07-0.45 1.1-1.05V1.54c0.05-0.38 0.23-0.73 0.51-0.98 0.29-0.25 0.65-0.4 1.03-0.39 0.8 0 1.45 0.58 1.53 1.37v4.42c-0.1 1.03-0.6 1.98-1.36 2.67-0.77 0.7-1.77 1.07-2.8 1.07-1.04 0-2.04-0.38-2.81-1.07C9.77 7.93 9.28 7 9.18 5.96V1.54Zm15.98-1.37c-0.83 0-1.52 0.7-1.52 1.54v2.2L21.08 0.7c-0.13-0.15-0.28-0.28-0.46-0.37-0.17-0.09-0.37-0.14-0.56-0.15H19.9c-0.2 0-0.4 0.04-0.59 0.12-0.18 0.07-0.35 0.18-0.5 0.33-0.14 0.14-0.25 0.3-0.33 0.5C18.4 1.3 18.36 1.5 18.36 1.7v6.47c0.04 0.38 0.22 0.72 0.5 0.97 0.29 0.25 0.65 0.39 1.02 0.38 0.2 0 0.4-0.03 0.6-0.1 0.18-0.08 0.35-0.2 0.49-0.34s0.26-0.3 0.33-0.5C21.38 8.4 21.42 8.2 21.42 8V5.78l2.55 3.24c0.33 0.35 0.73 0.52 1.2 0.52 0.2 0 0.4-0.04 0.58-0.12 0.19-0.08 0.35-0.2 0.5-0.33 0.14-0.15 0.25-0.32 0.33-0.5 0.07-0.19 0.1-0.39 0.1-0.59V1.54c-0.03-0.38-0.2-0.73-0.49-0.98-0.28-0.25-0.65-0.4-1.03-0.39ZM46.6 9.02c0.32 0.35 0.74 0.52 1.2 0.52 0.84 0 1.53-0.69 1.53-1.54V1.54c-0.04-0.38-0.22-0.72-0.5-0.98-0.28-0.25-0.64-0.39-1.02-0.39-0.85 0-1.54 0.7-1.54 1.54v2.2L43.7 0.7c-0.33-0.36-0.72-0.52-1.2-0.52-0.2 0-0.4 0.04-0.58 0.12-0.19 0.07-0.36 0.18-0.5 0.33-0.14 0.14-0.26 0.3-0.34 0.5-0.07 0.18-0.11 0.38-0.11 0.58v6.47c0.04 0.38 0.22 0.72 0.5 0.97s0.65 0.39 1.02 0.38c0.2 0 0.4-0.03 0.59-0.1 0.18-0.08 0.35-0.2 0.5-0.34 0.14-0.14 0.25-0.3 0.33-0.5C44 8.4 44.04 8.2 44.04 8V5.78l2.55 3.24ZM30.95 8c0 0.2-0.04 0.4-0.12 0.59-0.08 0.18-0.2 0.35-0.34 0.5-0.14 0.13-0.3 0.25-0.5 0.32-0.18 0.08-0.38 0.12-0.58 0.11-0.38 0-0.74-0.13-1.02-0.38s-0.46-0.6-0.5-0.97V1.71c0-0.85 0.68-1.54 1.53-1.54 0.84 0 1.53 0.7 1.53 1.54v2.2l2.56-3.27c0.3-0.31 0.66-0.47 1.1-0.47 0.85 0 1.52 0.7 1.52 1.54 0 0.36-0.09 0.66-0.31 0.94l-1.8 2.11 1.8 2.3c0.22 0.28 0.31 0.58 0.31 0.94 0 0.2-0.03 0.4-0.1 0.59-0.08 0.18-0.2 0.35-0.34 0.5-0.14 0.14-0.3 0.25-0.5 0.33-0.18 0.08-0.38 0.12-0.58 0.12-0.44 0-0.8-0.16-1.1-0.47L30.95 5.8V8Zm5.95 0.17V1.71c0-0.85 0.68-1.54 1.53-1.54s1.52 0.7 1.52 1.54V8c0 0.85-0.67 1.52-1.52 1.52-0.38 0-0.74-0.13-1.02-0.38s-0.46-0.6-0.5-0.97ZM53 1.54V1.43C53 0.64 52.37 0 51.57 0c-0.79 0-1.43 0.64-1.43 1.43l0.03 1.64c0.13 0.6 0.64 1.02 1.27 1.02 0.62 0 1.13-0.41 1.28-1.02L53 1.54Z" fill="#E0912F"/>
  <path d="M3.05 16.85h0.99c0.44-0.08 0.8-0.3 1.07-0.68 0.17-0.28 0.26-0.6 0.26-0.94 0-0.35-0.07-0.64-0.26-0.93-0.26-0.37-0.66-0.62-1.1-0.7H3.05v3.25Zm8.77-1.62c0-1 0.8-1.8 1.78-1.8 0.99 0 1.79 0.8 1.79 1.8 0 0.99-0.8 1.78-1.8 1.78-0.23 0-0.46-0.05-0.67-0.14-0.22-0.09-0.42-0.22-0.58-0.38-0.17-0.17-0.3-0.36-0.39-0.58-0.09-0.22-0.13-0.45-0.13-0.68Z" fill="#FFFFFF"/>
</svg>
