<svg xmlns="http://www.w3.org/2000/svg" viewBox="0 0 53 10">
  <path d="M52.79 6.93l0.1-0.28H53v0.38h-0.07v-0.3l-0.12 0.3h-0.04l-0.12-0.3v0.3h-0.07V6.65h0.1l0.11 0.28Zm-0.28-0.22H52.4v0.32h-0.07V6.71h-0.12V6.65h0.3v0.06Z" fill="#000000"/>
  <path d="M20.24 1.89h1.43v0.48c0.16-0.13 0.65-0.6 1.57-0.6 1.07 0 1.93 0.8 1.93 2.04v3.24h-1.51V4.2c0-0.7-0.34-1.1-0.95-1.1-0.6 0-0.96 0.38-0.96 1.1v2.84h-1.5V1.89Zm15.87 2.58c0-0.72 0.53-1.3 1.27-1.3s1.28 0.58 1.28 1.3c0 0.71-0.54 1.3-1.28 1.3s-1.27-0.59-1.27-1.3Zm-1.5 0c0 1.49 1.2 2.7 2.76 2.7 1.57 0 2.76-1.21 2.76-2.7 0-1.5-1.2-2.7-2.76-2.7-1.56 0-2.75 1.2-2.75 2.7Zm-19.23 0c0-0.72 0.53-1.3 1.28-1.3 0.74 0 1.27 0.58 1.27 1.3 0 0.71-0.53 1.3-1.27 1.3-0.75 0-1.28-0.59-1.28-1.3Zm-1.49 0c0 1.49 1.2 2.7 2.76 2.7 1.56 0 2.75-1.21 2.75-2.7 0-1.5-1.2-2.7-2.75-2.7-1.57 0-2.76 1.2-2.76 2.7Zm33.56-2.58h1.53v5.16h-1.53V1.89Zm0-1.89h1.53v1.31h-1.53V0Zm2.7 0h1.54v7.05h-1.53V0Zm-5.14 4.46c0 0.73-0.56 1.3-1.3 1.3-0.73 0-1.29-0.57-1.29-1.3 0-0.73 0.57-1.28 1.3-1.28 0.74 0 1.29 0.56 1.29 1.28Zm-2.55 2.59l0.02-0.4c0.1 0.08 0.58 0.52 1.57 0.52 1.3 0 2.5-1.17 2.5-2.7 0-1.54-1.13-2.7-2.48-2.7-1.04 0-1.52 0.47-1.6 0.53V0h-1.46v7.05h1.45Z" fill="#CC2132"/>
  <path d="M5 7.05l2.4-3.01-2.13-2.15h2.11l0.95 0.97 1.74-2.24h1.77l-2.55 3.2 1 1 2.28-2.93h1.78l-3.1 3.9 3.93 3.96h-2.14L10.3 6.97 8.85 8.85H7.08l2.26-2.84-0.99-1-1.59 2.04H5ZM0 0h4.64v1.31H1.58v1.46H4.5v1.28H1.58v1.68h3.06v1.32H0V0Zm26.38 0h2.5l1.17 5.15h0.05L31.31 0h2.43v7.05h-1.49V1.73h-0.07l-1.3 5.32H29.2l-1.28-5.32h-0.07v5.32h-1.48V0Z" fill="#CC2132"/>
</svg>
