<svg xmlns="http://www.w3.org/2000/svg" viewBox="0 0 53 24">
  <path d="M13.86 20.89v1.37h0.28v0.09h-0.98v-0.1h0.25v-2.71h-0.25v-0.1h0.98v0.1h-0.28v1.26h1.12v-1.26H14.7v-0.1h0.98v0.1h-0.25v2.72h0.25v0.09H14.7v-0.1h0.28V20.9h-1.12Zm3.08-0.74c0.52 0 0.92 0.46 0.92 1.13 0 0.68-0.4 1.14-0.92 1.14s-0.91-0.46-0.91-1.14c0-0.67 0.4-1.13 0.91-1.13Z" fill="#000000"/>
  <path d="M16.94 22.32c0.32 0 0.48-0.22 0.48-1.04 0-0.81-0.16-1.04-0.48-1.04-0.31 0-0.48 0.23-0.48 1.04 0 0.82 0.17 1.04 0.48 1.04Z" fill="#FFFFFF"/>
  <path d="M18.13 20.22h0.26v-0.5h0.4v0.5h0.48v0.1h-0.49v1.72c0 0.16 0.07 0.23 0.23 0.23 0.18 0 0.29-0.11 0.29-0.42V21.5h0.09v0.31c0 0.44-0.19 0.6-0.53 0.6-0.3 0-0.47-0.16-0.47-0.5v-1.6h-0.27v-0.1Zm1.94 0.86v0.13c0 0.8 0.2 1.09 0.51 1.09 0.36 0 0.62-0.23 0.66-0.75h0.09c-0.02 0.58-0.36 0.87-0.79 0.87-0.53 0-0.91-0.46-0.91-1.14 0-0.67 0.4-1.13 0.9-1.13 0.48 0 0.78 0.34 0.78 0.93h-1.24Z" fill="#000000"/>
  <path d="M20.88 20.99v-0.16c0-0.42-0.14-0.59-0.36-0.59-0.26 0-0.41 0.26-0.45 0.75h0.8Z" fill="#FFFFFF"/>
  <path d="M22.3 22.26h0.2v0.09h-0.79v-0.1h0.2v-2.71h-0.2v-0.1h0.6v2.82Zm0.56-0.77c0.15 0.7 0.23 0.83 0.61 0.83 0.33 0 0.57-0.16 0.57-0.47 0-0.4-1.3-0.32-1.3-1.03 0-0.42 0.34-0.67 0.82-0.67 0.23 0 0.45 0.06 0.6 0.15v0.67h-0.11c-0.18-0.62-0.23-0.73-0.53-0.73-0.26 0-0.51 0.15-0.51 0.38 0 0.53 1.3 0.35 1.3 1.08 0 0.43-0.37 0.72-0.87 0.72-0.22 0-0.49-0.07-0.7-0.19V21.5h0.12Zm4.98-1.11h-0.09c-0.26-0.8-0.34-0.9-0.67-0.9-0.43 0-0.71 0.33-0.71 1.42 0 1.09 0.24 1.43 0.75 1.43 0.35-0.01 0.47-0.26 0.66-1.04h0.09v0.95c-0.24 0.12-0.5 0.18-0.75 0.18-0.71 0-1.27-0.6-1.27-1.52 0-0.93 0.56-1.52 1.27-1.52 0.28 0 0.52 0.06 0.72 0.16v0.84Zm1.38-0.23c0.52 0 0.92 0.46 0.92 1.13 0 0.68-0.4 1.14-0.92 1.14s-0.91-0.46-0.91-1.14c0-0.67 0.4-1.13 0.91-1.13Z" fill="#000000"/>
  <path d="M29.22 22.32c0.32 0 0.48-0.22 0.48-1.04 0-0.81-0.16-1.04-0.48-1.04-0.31 0-0.48 0.23-0.48 1.04 0 0.82 0.17 1.04 0.48 1.04Z" fill="#FFFFFF"/>
  <path d="M30.8 20.31h-0.23v-0.1h0.61v0.32h0.01c0.09-0.24 0.24-0.38 0.5-0.38 0.11 0 0.24 0.05 0.3 0.08v0.82h-0.1l-0.14-0.43c-0.08-0.23-0.12-0.32-0.22-0.32-0.17 0-0.34 0.31-0.34 0.69v1.27h0.28v0.09h-0.9v-0.1h0.23v-1.94Zm1.49 2.77v-0.1h0.2v-2.67h-0.2v-0.1h0.58v0.25c0.05-0.1 0.12-0.18 0.2-0.23 0.1-0.06 0.2-0.09 0.3-0.08 0.52 0 0.82 0.5 0.82 1.13 0 0.74-0.4 1.14-0.82 1.14-0.1 0-0.2-0.03-0.28-0.08-0.09-0.06-0.16-0.13-0.2-0.23V23h0.23v0.09h-0.83Z" fill="#000000"/>
  <path d="M33.3 20.27c-0.25 0-0.42 0.19-0.42 1.01 0 0.73 0.16 1.02 0.44 1.02s0.43-0.22 0.43-1.02c0-0.7-0.16-1.01-0.45-1.01Z" fill="#FFFFFF"/>
  <path d="M35.36 20.15c0.52 0 0.91 0.46 0.91 1.13 0 0.68-0.39 1.14-0.91 1.14s-0.91-0.46-0.91-1.14c0-0.67 0.39-1.13 0.91-1.13Z" fill="#000000"/>
  <path d="M35.36 22.32c0.32 0 0.48-0.22 0.48-1.04 0-0.81-0.16-1.04-0.48-1.04-0.31 0-0.48 0.23-0.48 1.04 0 0.82 0.17 1.04 0.48 1.04Z" fill="#FFFFFF"/>
  <path d="M36.94 20.31H36.7v-0.1h0.61v0.32c0.1-0.24 0.25-0.38 0.52-0.38 0.1 0 0.22 0.05 0.29 0.08v0.82h-0.1l-0.14-0.43c-0.08-0.23-0.12-0.32-0.22-0.32-0.17 0-0.34 0.31-0.34 0.69v1.27h0.28v0.09h-0.9v-0.1h0.23v-1.94Zm1.62 0.67V20.3c0.22-0.09 0.42-0.15 0.64-0.15 0.52 0 0.76 0.28 0.76 0.54v1.57h0.2v0.09h-0.57v-0.37c-0.06 0.13-0.14 0.24-0.26 0.32-0.11 0.08-0.25 0.12-0.39 0.12-0.37 0-0.63-0.22-0.63-0.59 0-0.73 0.86-0.52 1.28-0.77v-0.44c0-0.27-0.14-0.38-0.37-0.38-0.29 0-0.37 0.15-0.57 0.74h-0.1Z" fill="#000000"/>
  <path d="M39.59 21.17c-0.47 0.22-0.86 0.06-0.86 0.66 0 0.32 0.11 0.43 0.34 0.43 0.31 0 0.52-0.31 0.52-0.78v-0.31Z" fill="#FFFFFF"/>
  <path d="M40.34 20.22h0.26v-0.5H41v0.5h0.48v0.1h-0.49v1.72c0 0.16 0.07 0.23 0.23 0.23 0.18 0 0.29-0.11 0.29-0.42V21.5h0.09v0.31c0 0.44-0.19 0.6-0.53 0.6-0.3 0-0.47-0.16-0.47-0.5v-1.6h-0.26v-0.1Zm2.13 2.04h0.2v0.09h-0.8v-0.1h0.2v-1.94h-0.2v-0.1h0.6v2.05Zm-0.2-2.76c0.13 0 0.24 0.1 0.24 0.24 0 0.15-0.1 0.24-0.24 0.24-0.14 0-0.24-0.1-0.24-0.24 0-0.14 0.1-0.24 0.24-0.24Zm1.53 0.65c0.52 0 0.92 0.46 0.92 1.13 0 0.68-0.4 1.14-0.92 1.14s-0.91-0.46-0.91-1.14c0-0.67 0.4-1.13 0.91-1.13Z" fill="#000000"/>
  <path d="M43.8 22.32c0.32 0 0.48-0.22 0.48-1.04 0-0.81-0.16-1.04-0.48-1.04-0.31 0-0.48 0.23-0.48 1.04 0 0.82 0.17 1.04 0.48 1.04Z" fill="#FFFFFF"/>
  <path d="M45.07 20.22h0.59v0.28c0.07-0.1 0.15-0.2 0.26-0.25 0.1-0.07 0.22-0.1 0.34-0.1 0.33 0 0.57 0.16 0.57 0.62v1.49h0.22v0.09H46.2v-0.1h0.24v-1.53c0-0.31-0.1-0.42-0.3-0.42-0.22 0-0.44 0.2-0.44 0.64v1.31h0.25v0.1h-0.87v-0.1h0.23v-1.94h-0.23v-0.1ZM0.53 0v0.14c0.77 0.05 1.48 0.38 2 0.94 0.53 0.56 0.82 1.3 0.82 2.07 0 0.76-0.29 1.5-0.81 2.06C2 5.77 1.3 6.11 0.53 6.16V6.3h4.1V0h-4.1Zm8.9 0v0.14C8.65 0.19 7.93 0.52 7.41 1.08 6.89 1.64 6.6 2.38 6.6 3.15c0 0.76 0.3 1.5 0.82 2.06s1.24 0.9 2 0.95V6.3h-4.1V0h4.1Zm11.7 7.6c-0.18-0.26-0.5-0.42-0.5-0.42-0.38-0.2-0.97 0.03-0.97 0.03-1.59 0.76-3.2 1.9-4.73 3.18-1.34-0.11-2.68-0.18-4.03-0.19 2.5-2.05 3.97-2.52 3.97-2.52 0.33-0.19 0.09-0.4 0.09-0.4l-0.28-0.3c-0.15-0.23-0.53-0.03-0.53-0.03-1.67 0.7-3.31 1.95-4.75 3.27-6.07 0.19-8.78 1.64-8.78 1.64C0.35 12 0.04 12.3 0.04 12.3c-0.18 0.44 0.28 0.55 0.28 0.55 0.3 0.13 0.7-0.14 0.7-0.14 2.49-1.16 5.28-1.69 7.77-1.9-2.4 2.34-4.1 4.73-4.1 4.73-0.25 0.3 0.04 0.45 0.04 0.45l0.15 0.11c0.24 0.1 0.47-0.2 0.47-0.2 1.88-2.3 3.55-3.97 4.95-5.19 1.4-0.05 2.79-0.03 4.18 0.07-4.75 4.14-8.64 9.58-8.64 9.58-0.17 0.41 0.28 0.78 0.28 0.78 0.42 0.37 0.86-0.23 0.86-0.23 3.38-4.2 6.3-6.38 6.3-6.38 0.52-0.37 0.36-0.48 0.36-0.48-0.16-0.05-0.43 0.18-0.43 0.18-0.87 0.62-2.78 2.21-2.78 2.21 2-2.48 3.87-4.26 5.46-5.52 0.73 0.09 0.7-0.13 0.7-0.13 0.01-0.17-0.1-0.23-0.2-0.26C19.1 8.5 20.87 8 20.87 8c0.44-0.06 0.25-0.4 0.25-0.4Zm-0.88 2.3c-0.16-0.21-0.7-0.07-0.99 0.17-0.28 0.25-0.38 0.6-0.2 0.81 0.17 0.2 0.5 0.13 0.82-0.06 0.29-0.18 0.59-0.65 0.37-0.92Z" fill="#000000"/>
  <path d="M17.73 11.59s0.3-0.26 0.45-0.19c0 0 0.37 0.12 0.37 0.44 0 0-0.07 0.22-0.28 0.34 0 0-2.07 1.75-2.6 2.37 0 0-0.54 0.52 0.3 0.23 0 0 2.64-1.14 3.92-1.8 0 0 3.93-4.43 7.55-5.93 0 0 1.67-0.76 2.03-0.25 0 0 0.37 0.53-1.1 1.64 0 0-2.52 1.94-7.27 4.26 0 0-2.64 2.6 0.38 1.32 0 0 1.33-0.57 2.09-0.98 0 0 0.26-0.13 0.28-0.04 0 0 0.08 0.06-0.39 0.36 0 0-1.98 1.32-3.98 2 0 0-1.43 0.47-0.08-1.75 0 0-3.4 1.87-4.4 2.32 0 0-0.98 0.44-1.16-0.12 0 0-0.22-0.54 0.83-1.52 0 0 1.85-1.73 3.06-2.7Z" fill="#000000"/>
  <path d="M21.87 11.9s3.61-3.23 5.9-4.2c0 0 0.54-0.25 0.78-0.14 0 0 0.3 0.16-0.57 0.82 0 0-1.87 1.4-6.11 3.53Z" fill="#FFFFFF"/>
  <path d="M27.17 11.7l2.03-1.82s0.46-0.48 0.7-0.15c0 0 0.46 0.15 0.06 0.58l-1.3 1.12 1.82-0.18s-0.09 0.46-0.94 0.64l-1.58 0.18s-3.38 2.98-4.62 4.47c0 0-0.4 0.52-0.58 0.28 0 0-0.1-0.06-0.18-0.42 0 0 0-0.37 0.24-0.56 0 0 2.2-2.25 3.75-3.6l-1.85 0.27s-0.47 0.1-0.45-0.16c0 0-0.04-0.2 0.43-0.25l2.47-0.4Zm10.26-1.64c0.74-0.24-0.18 0.7-0.18 0.7-0.96 0.97-4.8 4.06-4.8 4.06-0.47 0.4-0.17 0.77-0.17 0.77 0.22 0.3 0.56-0.13 0.56-0.13 2.64-2.69 4.9-3.04 4.9-3.04 0.56-0.06-0.08 0.47-0.08 0.47-0.85 0.74-1.67 1.5-2.47 2.28-0.6 0.6 0.17 1.08 0.17 1.08 0.78 0.35 1.23-0.07 1.23-0.07 5.73-3.4 12.57-3.05 12.57-3.05 1.24 0 1.73 0.52 1.73 0.52 0.06 0.06 0.13 0.12 0.22 0.16 0.56 0.32 1.4-0.02 1.4-0.02 0.7-0.29 0.44-0.73 0.44-0.73-0.3-0.64-2.75-0.5-2.75-0.5-6.93 0.05-13.64 2.64-13.64 2.64-0.52 0.16-0.11-0.34-0.11-0.34 1.34-1.77 3.35-2.5 3.35-2.5 0.39-0.2 0.14-0.68 0.14-0.68-0.17-0.45-0.92-0.28-0.92-0.28-1.07 0.25-3.31 1.2-3.31 1.2 0.75-0.62 2.48-1.96 2.48-1.96 0.74-0.48 0.54-0.7 0.54-0.7-0.22-0.48-1.35-0.07-1.35-0.07-1.5 0.57-5.08 1.5-5.08 1.5s-0.83-0.36-2.62 1.09c0 0-2.5 1.84-1.36 3.06 0 0 0.8 0.8 2.83-1.1 0 0 2.07-1.97 1.66-2.68 0 0 3.47-1.31 4.62-1.68Z" fill="#000000"/>
  <path d="M30.35 13.07s1.35-1.37 1.88-1.13c0 0 0.4 0.28-0.83 1.53 0 0-0.98 1.1-1.8 1.38 0 0-0.75 0.26-0.3-0.64 0 0 0.23-0.39 1.05-1.14Z" fill="#FFFFFF"/>
</svg>
