<svg xmlns="http://www.w3.org/2000/svg" viewBox="0 0 47 31">
  <path d="M32.46 0.93c1.67-0.83 2.52-0.7 2.54 0.13 0.02 1.09-0.15 2.54-0.26 3.58-0.64 5.68-1.66 10.3-1.74 16.15 2.75-7.12 5.03-12.03 8-18.11 0.93-1.94 1.55-1.58 2.32-1.94 3.01-1.35 3.12-0.51 2.71 1.15-1.45 6.04-5.16 25.13-5.74 28.05-0.17 0.86-1.1 0.52-1.32 0.18-1.11-1.48-2.3-1.5-2.18-2.5 0.69-4.86 3.12-17.18 3.74-20.08-3.22 6.57-6.55 14.83-8.26 19.48-0.36 0.98-1.02 0.92-1.43 0.2-0.6-1.05-1.7-1.56-1.88-2.76-0.6-3.82 0.66-11.11 0.84-15.74-1.73 5.03-4.68 14.85-5.96 19.26-0.53 1.84-2.3 1.52-1.83-0.23 1.96-7.45 6.16-20.57 7.98-25.28 0.42-1.14 1.55-1.07 2.47-1.54ZM21.84 0.01c-0.58-0.13-2.24 0.77-3.27 0.92-0.32 0.09-0.62 0.4-0.72 0.66-1.62 3.73-3.07 7.28-4.31 10.48-1.87 0.34-3.73 0.7-5.6 1.1 1.52-3.83 3.04-7.65 4.51-11.3 0.73-1.84-1.2-2-1.94-0.17-0.96 2.37-2.78 6.82-4.78 12-1.47 0.37-3.07 0.78-4.7 1.27-1.19 0.32-1.23 0.64-0.72 1.36 0.3 0.39 0.85 0.34 1.13 0.64 0.7 0.73 1.13 1.6 2.4 1.73-1.16 2.99-2.27 6.04-3.25 8.96-0.64 1.86 1.17 2.24 1.85 0.28 1.11-3.14 2.29-6.32 3.5-9.54 1-0.21 3.42-0.72 5.66-1.23-1.77 4.9-2.93 8.6-3.4 10.4-0.08 0.35 0.09 0.52 0.15 0.69 0.58 0.85 1.18 0.9 1.95 1.98 0.19 0.3 0.9 0.45 1.15-0.27 1.53-4.65 3.16-9.26 4.88-13.83 0.66-0.17 1.86-0.45 2.58-1.51 1.28-1.92 1.65-1.54 1.99-2.12 0.38-0.74 0.1-1.4-1.26-1.25 0 0-0.51 0.04-1.5 0.15 1.54-3.9 2.9-7.22 3.85-9.75 0.32-0.88 0.36-1.52-0.15-1.65Z" fill="#C7232F"/>
  <path d="M20.34 24.26c0.22-0.28 0.42-0.58 0.6-0.84 0.81-1.2 0.02-1.9-0.8-1.2l-0.37 0.35-0.41-1.28c0.38-0.47 0.75-0.95 1.07-1.44 1.34-2.07-1.28-3.26-2.41-1.92-0.6 0.7-0.45 1.41-0.28 2.03l0.22 0.77c-0.41 0.44-0.81 0.88-1.2 1.34-1.3 1.5-0.94 3.42 0.43 3.84 0.82 0.26 1.6-0.11 2.27-0.7l0.1 0.23c0.36 0.9 1.49 0.62 1.04-0.47l-0.26-0.71Zm-1.86-1.88l0.35 1.06c-0.15 0.13-0.3 0.25-0.45 0.34-0.53 0.3-0.92-0.02-0.23-0.94 0.1-0.16 0.22-0.31 0.33-0.46Zm0.43-2.62l-0.08-0.27c-0.38-1.43 1.26-1.05 0.43-0.1-0.12 0.13-0.23 0.26-0.35 0.37Z" fill="#C7232F"/>
</svg>
