<svg xmlns="http://www.w3.org/2000/svg" viewBox="0 0 53 16">
  <path d="M53 15.89V0H0v15.89h53Z" fill="#000000"/>
  <path d="M19.75 9.54c-2.71 0.72-5.18 1.81-7.13 3.27 2.24-1.05 4.64-1.86 7.13-2.4V9.54Zm8.85-0.96c-0.72-0.02-1.45-0.02-2.17 0l-0.4 1.03c1-0.04 2.03-0.04 3.05 0L28.6 8.59Zm-3.04 0.04c-1.55 0.1-3.08 0.3-4.55 0.62v0.91c1.35-0.24 2.72-0.4 4.1-0.5l0.45-1.03Zm16.41 4.19c-1.75-1.35-3.86-2.36-6.15-3.06v0.85c2.1 0.53 4.17 1.26 6.15 2.2Zm-7.4-3.41c-1.49-0.37-3.02-0.61-4.58-0.74l0.49 1.05c1.37 0.12 2.73 0.32 4.08 0.6V9.4Z" fill="#C6C7C9"/>
  <path d="M17.43 4.56h1.09l1.9 3.05 0.05 0.1 0.06-0.1 1.9-3.05h0.83l-2.38 3.5-0.01 0.03v2.82h-0.98V8.16l-0.02-0.02-2.44-3.58Zm-4.34 3.22H9.56v3.13H8.58V4.56h0.98v2.7h3.6v-2.7h0.98v6.35h-0.98V7.78h-0.07Zm14.4-1.94l-0.06-0.15-0.06 0.15-2.74 6.9h-0.71l3.58-8.2 0.4 0.01 3.84 8.19h-1.08l-3.16-6.9Zm8.2-0.75v5.82H34.7V5.02h-2.17V4.56h5.3v0.46h-2.15V5.1Zm7.64 0v5.82h-0.99V5.02h-2.17V4.56h5.3v0.46h-2.14V5.1Z" fill="#FFFFFF"/>
</svg>
