<svg xmlns="http://www.w3.org/2000/svg" viewBox="0 0 53 54">
  <path d="M26.5 0.44c-0.64 0-1.88 0.07-1.93 0.07 0.24 0.06-18.59 9.72-18.59 9.62 0 0.03-0.01 0.06-0.03 0.08C2.22 14.78 0 20.58 0 26.94c0 5.24 1.53 10.12 4.15 14.23 0.02 0 6.69 6.45 6.6 7.08 4.4 3.26 9.85 5.19 15.75 5.19 2.06 0 4.06-0.25 5.99-0.69l-0.1-0.62-0.35-2.45c-0.1-0.66-0.65-5.2-0.65-5.2v-0.02l0.58-0.22 0.75 0.03 0.9 5.36 0.16 0.84c0.05 0.34 0.1 0.67 0.17 1.02 0.05 0.29 0.1 0.57 0.13 0.84 0.63-0.19 1.25-0.4 1.86-0.63-0.1-0.52-0.2-1.05-0.2-1.13l-0.32-1.86c-0.4-1.92-0.67-3.34-0.87-4.29l-0.07-0.37 0.6-0.24 0.78 0.06s1 4.4 1.26 5.73l0.29 1.49c0.54-0.25 1.07-0.5 1.6-0.78l-0.18-0.77-0.05-0.26c-0.34-1.48-1.24-5.63-1.24-5.63l0.72-0.28 0.7 0.1s0.91 3.82 1.5 6c1-0.63 1.97-1.32 2.88-2.07 0 0 8.39-12.56 8.45-12.52 0.78-2.5 1.21-5.17 1.21-7.94 0-14.64-11.86-26.5-26.5-26.5Z" fill="#A3080C"/>
  <path d="M33.14 13.63s-3.31-6.24-4.66-7.18c-1.35-0.93-3.57-1.52-5.11-1.32-1.95 0.24-6.42 2.6-6.71 2.68 0 0.02-1.67 2.08-2.1 4.2l-1.81 7.96 3.26 9.4 11.6 5.54 4.26-4.63s0.54-4.58 1.7-8.02c1.14-3.44 0.78-5.31 0.78-5.31l-1.21-3.32Z" fill="#FFF1E2"/>
  <path d="M18.92 19.7c-0.18 0.1-0.32 0.12-0.4 0.17-0.09 0.05-0.22 0.15-0.19 0.32 0.03 0.18 0.08 0.24 0.1 0.38 0.02 0.14-0.05 0.39-0.2 0.67-0.16 0.28-0.41 0.48-0.56 0.57l-0.3 0.15c-0.02 0-0.04 0.05-0.05 0.13l0.03-0.02 0.15-0.02 0.12-0.03 0.17-0.02c0.02 0 0.4-0.09 0.64-0.2 0.24-0.1 0.66-0.3 0.9-0.6 0.17-0.2 0.38-0.6 0.4-0.97V20.1h0.01c-0.03 0-0.07-0.02-0.1-0.04-0.06-0.05-0.11-0.09-0.3-0.3-0.14-0.13-0.13-0.23-0.06-0.34-0.06 0.06-0.18 0.17-0.36 0.27Zm9.73-1.25s-0.1 0-0.14 0.02c-0.03 0.02-0.09 0.04-0.12 0.09-0.04 0.05-0.05 0.14 0.03 0.23 0.08 0.1 0.2 0.28 0.18 0.44 0 0.06 0 0.29-0.07 0.45-0.08 0.18-0.17 0.36-0.23 0.44-0.04 0.04-0.21 0.23-0.24 0.37 0 0.02 0 0.05 0.02 0.08l0.01-0.02c0.05-0.05 0.13-0.1 0.28-0.14 0.2-0.07 0.35-0.14 0.46-0.23l-0.03 0.05 0.05-0.07c0.06-0.05 0.85-0.58 0.87-1.43 0-0.32-0.41-0.36-0.58-0.37-0.13 0-0.37 0.11-0.48 0.09Zm-8.36 5.87s3.12 0.97 4.61-0.77c1.5-1.73 4.08 0.92 4.24 1.7 0.17 0.8-3.87 2.96-5.1 3-1.22 0.05-6.06-0.6-6.06-1.1 0-0.49 2.31-2.83 2.31-2.83Zm12.81-12.4c-0.5-5.26-2.92-7.9-4.66-9.18-1.83-1.21-6.18-2.27-8.23-2.18-2.42 0.12-8.01 2.76-8.23 2.95-0.2 0.19-3.95 6.46-3.49 7.58 0.46 1.12 1.12 6.4 1.33 6.83 0.07 0.13 1.14 3.57 1.84 3.45 0.72-0.13 1.38-3.27 1.35-3.52-0.1-0.69-1.35-3.82-1.26-4.26 0.1-0.44 3.47-5.7 3.7-5.89 0.18-0.12 5.94-0.84 5.98-0.79 0.4-0.35 1.33-1.28 2.17-1.25 0.83 0.04 3.22 0.34 4.57 1.27 1.35 0.94 1.77 1.86 1.88 2.11 0.04 0.01 1.92 4.28 2.47 4.3 0.37 0 0.64-0.79 0.58-1.42Zm-2.34 3.5l-0.8 0.08c-0.11 0.01-0.1 0.08-0.1 0.12l0.03 0.3c0 0.08 0.08 0.13 0.17 0.12l0.68-0.06c0.08-0.02 0.15-0.08 0.15-0.14v-0.3c0-0.06-0.05-0.13-0.13-0.12ZM8.96 40.59l0.33 0.08-0.65-0.15c-0.07-0.02-0.19-0.03-0.32-0.03-0.23 0-0.5 0.05-0.73 0.16L4.76 42.1c0.86 1.23 1.82 2.39 2.88 3.46 0.06-0.27 1.24-1.5 1.4-2.23 0.23-1-0.33-2.3-0.07-2.73Zm30 2.88l-1.42 0.18s1.02 4.72 1.3 5.9L39 50.3c0.5-0.27 0.98-0.55 1.45-0.85-0.58-2.17-1.49-6-1.49-6Z" fill="#FFFFFF"/>
  <path d="M47.2 24.6c-0.73 0.54-1.12 1.27-1.12 2 0 1.09 0.88 2.14 2.92 2.13 0.45 0 0.9-0.05 1.35-0.12l0.34-0.07 0.24-1c-0.4 0.12-0.9 0.23-1.3 0.23-1.07 0-1.8-0.63-1.8-1.48 0-0.45 0.18-0.84 0.51-1.13 0.36-0.3 0.89-0.5 1.55-0.5 0.52 0 0.82 0.15 1.03 0.36l0.12 0.12h0.17l0.33-1.19c-0.34-0.11-0.85-0.2-1.39-0.21-1.24-0.02-2.25 0.33-2.96 0.86Zm-1.7 0.16c0.14 0 0.26 0.06 0.34 0.13 0.07 0.06 0.12 0.13 0.12 0.19h0.16l0.33-1.3h-4.4l-0.06 0.26-0.02 0.06s0.48 0.05 0.33 0.53l-1.1 3.99h1.87 0.33l0.08-0.34s-0.4-0.1-0.3-0.48l0.25-0.93 0.07-0.25h1c0.17 0 0.3 0.03 0.4 0.07 0.2 0.07 0.27 0.19 0.27 0.19l0.3-1.18h-1.7l0.19-0.68 0.06-0.25h1.48Zm-5.35 3.15C40.02 27.77 38.9 26 38.9 26l2-1.6 0.07-0.05c0.07-0.07 0.16-0.12 0.24-0.17 0.22-0.1 0.35-0.1 0.35-0.1l0.08-0.31h-2.56L39 24.04 39 24.1c0.17 0.01 0.42 0.17 0.22 0.35l-2.07 1.58 0.02-0.05 0.42-1.54c0.1-0.3 0.42-0.34 0.42-0.34l0.08-0.32h-2.45l-0.06 0.26-0.02 0.06c0.12 0.03 0.45 0.1 0.34 0.53l-0.78 2.83c-0.19 0.7-0.46 0.8-0.63 0.81H34.4l-0.03 0.14-0.05 0.2h2.56l0.09-0.34s-0.4-0.08-0.33-0.37l0.23-0.85 0.17-0.6c0.44 0.7 0.54 0.8 1.08 1.53 0.5 0.68 1.02 0.65 2.3 0.64h0.32l0.09-0.34c-0.32 0-0.54-0.23-0.67-0.37Zm12.1-4.04c-0.04-0.03-0.07-0.06-0.11-0.07-0.04-0.02-0.08-0.03-0.13-0.03-0.09 0-0.16 0.03-0.22 0.1-0.04 0.03-0.06 0.06-0.08 0.1L51.7 24.1c0 0.1 0.03 0.17 0.1 0.23 0.06 0.07 0.13 0.1 0.22 0.1 0.1 0 0.17-0.03 0.23-0.1 0.07-0.06 0.1-0.14 0.1-0.23 0-0.04 0-0.08-0.03-0.12-0.01-0.04-0.04-0.07-0.07-0.1Zm-0.04 0.42c-0.02 0.03-0.05 0.05-0.09 0.06-0.03 0.02-0.07 0.03-0.1 0.03-0.08 0-0.15-0.03-0.2-0.09-0.03-0.02-0.05-0.05-0.06-0.09-0.02-0.03-0.02-0.07-0.02-0.1 0-0.08 0.02-0.15 0.08-0.2 0.02-0.03 0.05-0.05 0.09-0.06 0.03-0.02 0.07-0.03 0.1-0.02 0.04 0 0.08 0 0.11 0.02 0.04 0.01 0.07 0.03 0.1 0.06 0.05 0.05 0.07 0.12 0.07 0.2 0 0.07-0.02 0.14-0.08 0.2Z" fill="#FFFFFF"/>
  <path d="M52.16 24.02c0-0.05-0.02-0.08-0.06-0.1H52h-0.12v0.35h0.06v-0.14H52l0.07 0.01c0.03 0.02 0.04 0.04 0.04 0.08v0.03 0.01 0.01h0.06v-0.02-0.05l-0.03-0.06c0-0.02-0.03-0.03-0.06-0.03l0.05-0.02c0.02 0 0.02-0.02 0.03-0.03v-0.04Zm-0.1 0.06H52h-0.05v-0.12H52l0.08 0.01 0.02 0.05-0.01 0.04-0.03 0.02Zm-3.42 9.76c-3.38-1.03-10.31-0.79-10.31-0.79L44 46.42s0.52-0.27 0.59-0.12c3.07-2.88 5.46-6.48 6.9-10.53-0.12-0.08 0.53-0.9-2.85-1.93Z" fill="#FFFFFF"/>
  <path d="M37.12 49.6c-0.25-1.33-1.26-5.73-1.26-5.73s1.34-0.35 1.65-1.12c0.32-0.76-0.4-1.94-0.43-2.4-0.14-1.4-0.69-7.08-1.58-8.25-0.52-0.69-2.91-2.04-3.1-2.03-0.86 0.04-2.58 3.78-4.01 4.12-0.96 0.23-1.64-0.7-1.48-0.64H26.9s0-0.1-0.16-0.61c-0.16-0.5-0.5-1.04-0.56-1.16-0.06-0.12-0.24-0.38-0.25-0.4 0-0.04-0.07-0.2-0.11-0.51-0.1-0.6-0.05-1-0.05-1.03l0.02-0.16c0-0.02 0-0.06-0.03-0.07-0.03 0-0.1-0.02-0.18 0.06-0.17 0.17-0.18 0.2-0.18 0.23v0.13c-0.01 0.19-0.04 0.33-0.13 0.47-0.08 0.13-0.14 0.18-0.25 0.17-0.12-0.01-0.22-0.1-0.24-0.35-0.01-0.25-0.06-0.33-0.11-0.39s-0.16-0.09-0.2-0.08c-0.04 0-0.07 0.03-0.33 0.1-0.25 0.06-0.66 0.08-0.72 0.08l-0.29 0.03c0.05 0.17-0.94-0.1-1.1 0.04-0.34 0.27-0.5 2.03-0.67 2.95l-5.56 0.56-1.95 4.53 0.59 9.09c0 0.14 12.3-2.67 12.3-2.67l4.65-0.1v0.01c0.03 0.27 0.55 4.55 0.65 5.22l0.35 2.44 0.1 0.62c0.53-0.12 1.07-0.26 1.6-0.42l-0.14-0.84c-0.07-0.35-0.12-0.68-0.17-1.02l-0.15-0.84-0.91-5.36 0.81-0.51 0.95 0.29 0.07 0.37c0.2 0.95 0.46 2.37 0.87 4.29l0.32 1.86c0 0.08 0.1 0.61 0.2 1.13 0.5-0.19 0.98-0.4 1.47-0.61l-0.29-1.49Z" fill="#FFFFFF"/>
  <path d="M27.9 15.67c-1.03 0.15-2.52 0.98-2.45 1.6 0.04 0.37 2.18 0.43 3.14 0.5 0.97 0.07 1.13-0.86 1.07-1.36-0.05-0.5-0.68-0.9-1.76-0.74Zm7 16.44c-0.51-0.05-0.28 0.77-0.28 0.85 0.24 0.94 0.46 1.88 0.64 2.82l0.01 0.23c0.08 0.38 0.23 1.61 0.52 4.4 0.07 0.93 0.12 1.9 0.16 2.72l1.74 0.1s-0.06-2.4-0.6-5.41c-0.53-3-1.32-5.62-2.2-5.71Zm-4.62-7.56c0.07-0.42-0.02-0.63-0.15-0.88-0.14-0.25-0.4-0.48-0.75-0.7-0.33-0.22-1.07-0.88-1.15-0.94-0.07-0.06-0.42-0.4-0.5-0.46-0.08-0.06-0.24-0.2-0.6-0.38-0.87-0.44-1.56-0.11-1.59-0.1l-0.28 0.24c-0.12 0.12-0.03 0.34 0.02 0.42 0 0 4.6 3.37 4.6 3.44 0 0 0.33-0.29 0.4-0.64Zm-1.9-4.14c-0.16 0.04-0.24 0.1-0.29 0.14l-0.01 0.03v0.02 0.02 0.02l0.02 0.03v0.02l0.03 0.03 0.02 0.01 0.05 0.05 0.05 0.04 0.06 0.04 0.07 0.05 0.1 0.02 0.13-0.01c0.16-0.03 0.36-0.12 0.54-0.2-0.02 0-0.33-0.52-0.32-0.54-0.11 0.09-0.25 0.16-0.46 0.23Zm-6.17 3.15l0.03 0.01c-0.07-0.07-0.07-0.08-0.1-0.18-0.02-0.1-0.08-0.21-0.1-0.28-0.04-0.06-0.16-0.3-0.21-0.44-0.05-0.15-0.07-0.24-0.08-0.38-0.04-0.12-0.07-0.34-0.05-0.54 0.02-0.18 0.05-0.38 0.17-0.96 0.07-0.37-0.05-0.81-0.05-1.21 0-0.31-0.03-1.08-0.03-1.85-0.05 0.02-6.89-1.45-6.84-1.46 0.06-0.56 0.02-1.32 0-1.9 0.17-1.74 0.44-3.75 1.05-5.09 0.47-1.03 0.41-0.69 0.64-1.17 0.02-0.03 0.04-0.06 0.04-0.1l-0.02-0.2c-0.02 0-1.68-0.46-3.76 4.3-0.87 2 0.29 6.98 0.29 6.98l1.8 0.6 1.18-0.64 2.78-0.57 1.14 0.55-0.35 1.07v0.13c-0.03 0.38-0.24 0.76-0.42 0.98-0.23 0.28-0.65 0.48-0.89 0.6C18.2 21.9 17.81 22 17.8 22l-0.17 0.02-0.12 0.03-0.15 0.02-0.04 0.03-0.03 0.05v0.05c0.01 0.06 0.07 0.14 0.08 0.15 0.03 0.05 0.17 0.2 0.42 0.14l0.73-0.2c0.21-0.08 0.5-0.2 0.54-0.24l0.18-0.13 0.07-0.07 0.03-0.02h0.01c0.04 0.44-0.5 1.78-0.5 1.78s-1.25 0.45-1.17 0.4c-0.1 0.04-0.26 0.1-0.4-0.02 0 0-0.16-0.17-0.34-0.4l-0.33-0.45c-0.06-0.08-0.12-0.17-0.17-0.27-0.08-0.13-0.11-0.21-0.13-0.27l-0.06-0.24c-0.23-0.03-0.47-0.08-0.68-0.16 0.02 0.02-1.55 0.36-1.55 0.36l1.62 6.62s3.03 4.76 4.93 3.84c0.29-0.13 0.78-1.1 0.58-1.43l-3.43-5.67s4.45-2.38 4.5-2.36Zm6.16 17.98c0.6 0.4 0.8 0.49 1.45 0.76 0.2 0.1 0.75-0.02 0.98-0.36h-0.01c-0.02 0.02-3.24-2.5-3.65-2.66-0.15-0.05-0.98 0.25-0.87 0.4 0.1 0.14 0.5 0.55 0.5 0.57 0.56 0.43 1.27 1.02 1.6 1.29Zm-6.84-4.66l-5.38-3.08 0.15 1.55c0.4 0.36 1.01 0.78 1.11 0.84 0.04 0.03 0.29 0.2 0.34 0.25 0.07 0.07 0.73 0.55 0.78 0.58 0.05 0.03 0.76 0.43 1.2 0.66l-0.3 0.24c-0.15 0.02-0.26 0.09-0.43 0.14-0.75 0.42-0.3 1.3-0.24 1.92 0.15 0.52 0.33 1.41 1 1.5 0.51 0.06 1.68-0.26 2.3-0.39 0.09-0.15 0.98-0.2 0.97-0.2 0.16-0.04 0.37-0.12 0.44-0.1 0.04 0-0.14 0.2-0.25 0.38-0.1 0.2-0.74 2.1-1.34 3.11-0.2 0.41-0.1 0.24-0.23 0.54l1.21 0.28 1.96-4.97-3.3-3.25Zm-6.1 3.87c0.2 0.4 0.8 1.2 0.83 1.25 0.03 0.05 0.16 0.18 0.32 0.36l0.32 0.36c0.03 0.04 0.32 0.34 0.4 0.4 0.07 0.07 0.15 0.21 0.22 0.27 0.2 0.19 1 0.87 1.07 0.93 0.07 0.05 0.44 0.3 0.51 0.31 0.67 0.09 1-0.28 1.07-0.39 0.07-0.1 0.08-0.15 0.04-0.31 0 0.01-2.6-1.94-4.31-5.68-0.07-0.15-0.66-0.87-1.21-0.43-0.45 0.36-0.13 1.22-0.13 1.22l0.86 1.71Zm-5.1 0.37c0.18-0.65-1.26-0.5-1.36-0.52-0.45 0.72-0.92 3.18-1.17 4.34l-0.16 0.6c0.33 0.34 0.67 0.67 1.01 0.99 0.25-0.98 1.64-5.24 1.69-5.4Z" fill="#F5D4B7"/>
  <path d="M52.1 24.26v0.01Z" fill="#A3080C"/>
  <path d="M48.83 33.55c-0.8-0.18-2.7-0.56-5.26-0.8l-4.94-0.46c-0.26-0.02-0.35-0.26-0.6-0.38-0.86-0.44-2.5-0.84-3.53-1.2-0.25-0.1-0.42-0.32-0.77-0.74-0.21-0.27-0.36-0.38-0.54-0.55l-0.4-0.35c-0.07-0.05-0.11-0.2-0.06-0.47 0.05-0.28 0.22-1.38 0.2-2.66 0-0.34 0.15-0.56 0.31-0.64 0.1-0.04 0.65-0.3 0.62-0.85-0.04-0.55-0.22-1.33 0.23-2.43 0.44-1.07 0.98-2.96 1.05-4.22 0.07-1.33-0.27-2.18-0.8-2.65-0.2-0.18-0.44-0.45-0.24-1.03 0.2-0.62 0.6-2.32 0.22-3.45-0.09-0.25-0.18-0.25-0.24-0.28-0.06-0.03-0.33-0.24-0.43-0.7-0.14-0.6-0.58-2.75-2.25-4.94-0.89-1.16-1.83-1.85-2.2-2.13-0.27-0.17-0.72-0.49-1.26-0.78-0.78-0.4-1.4-0.72-2.64-1.12-0.24-0.08-0.48-0.15-0.73-0.21 0 0-1.06-0.29-2.2-0.42L21.6 0.03c-1.17-0.07-1.6 0-2.21 0.06-0.07 0-0.14 0.02-0.2 0.03L18.8 0.17c-1.82 0.31-3.67 1.17-4.57 1.6-0.5 0.24-0.95 0.49-1.37 0.72l-0.03 0.02-0.43 0.25-0.74 0.4c-0.72 0.35-1.36 0.53-1.83 0.69L9.63 3.93c-0.34 0.13-0.56 0.26-0.6 0.49-0.07 0.4 0.4 0.77 0.24 1.41-0.42 1.58-2.2 3.1-2.48 3.27C5.96 9.6 6 9.95 5.98 10.13c0 0.17 0.03 0.35 0.13 0.55 0.27 0.59 0.78 1.09 1.03 1.61 0.25 0.53 0.4 1.46 0.2 2.54-0.17 1.04-0.23 1.27-0.32 1.46-0.1 0.2-0.28 0.57-0.02 1.02 0.26 0.44 0.8 0.9 1.14 1.16 0.18 0.14 0.28 0.26 0.14 0.52-0.22 0.41-0.16 1.38 0.05 1.93 0.31 0.83 0.69 1.62 1.03 2.13 0.35 0.51 0.96 1.38 1.33 1.7 0.36 0.3 0.4 0.85 0.4 1.2 0 0.33-0.06 1.29 0.93 1.89 0.48 0.3 0.53 0.22 0.7 0.37 0.18 0.14 0.26 0.21 0.39 0.6 0.12 0.39 0.68 1.74 1.45 2.7 0.22 0.27 0.35 0.47 0.38 0.51 0.02 0.05 0.06 0.1-0.03 0.32-0.1 0.23-0.49 1.53-0.8 2.87-0.06 0.25-0.14 0.57-0.45 0.73l-1.25 0.67c-0.25 0.14-0.38 0.21-0.67 0.57l-0.3 0.36c-0.05 0.05-0.07 0.1-0.32 0.22-0.21 0.11-3.38 1.22-6.73 3.28l-0.24 0.13 0.61 0.92 2.83-1.44c0.23-0.1 0.5-0.15 0.73-0.16 0.13 0 0.25 0.01 0.32 0.03l0.65 0.15 0.07 0.01 0.05 0.01 0.26 0.07h0.01l0.1 0.03c0.21 0.07 0.32 0.47 0.2 0.84l-0.34 1.23-0.2 0.72-0.79 2.95c0.67 0.6 1.38 1.18 2.1 1.72L11 46.48c0.17-1.25 1.17-5.87 1.45-6.93 0.2-0.76 0.32-1.11 0.58-1.23l0.23-0.12c0.05-0.02 0.17-0.05 0.13 0.15-0.04 0.24-0.24 1.23-0.55 4.41-0.21 2.21-0.22 4.17-0.14 5.35 0.03 0.5 0.04 1.21 0.8 0.9 0.9-0.36 3.96-1.45 5.6-1.95 2.62-0.82 7.55-1.9 12.3-2.6l1.33-0.19 0.9 5.36 0.15 0.84-0.14-0.84-0.91-5.36 0.55-0.07 1.2-0.15 1.4-0.18 1.67-0.22 1.23 5.64 0.06 0.26L39 50.3l-0.16-0.76c-0.28-1.18-1.3-5.9-1.3-5.9l1.42-0.18 1.12-0.13c0.33-0.01 0.48-0.2 0.22-0.28-0.18-0.05-0.6-0.1-0.82-0.1h-0.32c-0.33 0-0.42-0.07-0.5-0.56-0.2-1.42-1-4.94-1.56-6.8l-0.82-2.7c-0.12-0.34 0.1-0.36 0.22-0.36 0.4 0.02 0.95 0.23 1.11 0.57 0.35 0.77 2.76 7.08 3.73 9.44 0.61 1.48 1.32 3.26 2 4.85 0.43-0.35 0.84-0.72 1.25-1.1-1.25-2.75-4.04-8.98-5.5-12.13-0.06-0.13-0.12-0.27-0.16-0.4-0.02-0.04-0.02-0.07-0.02-0.1 0-0.2 0.27-0.23 0.4-0.22 0.52 0.05 5.22 0.36 6.5 0.48 0.86 0.09 1.7 0.21 2.27 0.32l0.34 0.06 0.27 0.06c0.42 0.1 1.16 0.4 1.84 0.77 0.29 0.15 0.6 0.37 0.95 0.63 0.11-0.29 0.21-0.59 0.3-0.89-0.25-0.17-0.52-0.34-0.79-0.49-0.78-0.41-1.44-0.68-2.16-0.84Zm-38.32-15.6C10.38 18 10.27 18 10.18 17.83c-0.22-0.43-0.38-1.18-0.44-1.67-0.07-0.5-0.16-1.96-0.13-2.76 0.03-0.8-0.13-1.25-0.41-1.63C8.9 11.4 8.73 11.13 8.66 11c-0.1-0.16-0.03-0.27 0.14-0.39 0.08-0.06 0.25-0.02 0.38-0.05 0.25-0.05 1.11-0.36 1.75-0.86 0.63-0.5 1.65-1.47 2.34-1.84 0.69-0.38 1-0.55 1.8-0.64 0.14-0.02 0.35 0.06 0.11 0.24s-1.02 0.46-1.92 1.82c-0.55 0.83-0.64 1.31-0.82 1.69-0.17 0.37-0.34 0.48-0.62 0.78-0.14 0.14-0.41 0.45-0.51 0.89-0.1 0.44-0.5 1.99-0.26 4.33 0.02 0.27 0.14 0.64-0.12 0.77l-0.42 0.2Zm1.1 3.15c-0.13-0.1-0.69-0.85-0.96-1.69-0.03-0.09-0.06-0.31 0.08-0.38l0.37-0.18c0.08-0.04 0.3-0.1 0.32 0.2 0.03 0.3 0.06 0.67 0.4 1.56l0.1 0.27c0.04 0.19-0.18 0.31-0.3 0.22Zm1.14-2.85l-0.63 0.1c-0.12 0.02-0.26 0.07-0.27-0.06l-0.07-0.37c-0.01-0.05 0.01-0.1 0.07-0.12l0.8-0.13c0.06 0 0.11 0.01 0.14 0.13l0.06 0.3c0 0.05 0.02 0.14-0.1 0.15Zm0.2-1.91c-0.03-0.18-0.08-0.48-0.06-0.68 0-0.07 0.03-0.26 0.12-0.36 0.13-0.15 0.3-0.28 0.4-0.37 0.21-0.17 0.17-0.6 0.18-0.84 0.05-0.71-0.02-2.96 1.44-5.12l0.18-0.23 0.05-0.06 0.12-0.14 0.21-0.2 0.03-0.02 0.17-0.13 0.07-0.04 0.12-0.07 0.07-0.04 0.14-0.07 0.05-0.02 0.18-0.07 0.08-0.02 0.12-0.04 0.04-0.01c0.3-0.08 0.6-0.12 0.9-0.17 0.88-0.15 1.9-0.01 2.41 0.15 0.42 0.13 0.63 0.23 0.77 0.1 0.13-0.13 0.5-0.54 0.65-0.68l0.05-0.07 0.01-0.02 0.01-0.05V7.04 7 6.98c0-0.03-0.02-0.05-0.03-0.07-0.03-0.05-0.09-0.1-0.15-0.14-0.17-0.1-1.87-1.35-4.16-1.4-2.23-0.06-4.05 0.73-4.53 0.9-0.1 0.03-0.15 0.05-0.2 0.05-0.06 0-0.26-0.07-0.18-0.2 0.08-0.16 0.27-0.39 0.48-0.58 0.22-0.2 1.27-1.19 2.32-1.65 0.2-0.08 0.24-0.12 0.36-0.17 0.16-0.06 0.25-0.41-0.1-0.41s-0.5 0.03-0.68 0.06c-0.2 0.03-0.3-0.05-0.18-0.21 0.12-0.16 0.35-0.34 0.78-0.57 0.91-0.5 2.59-1.03 3.38-1.2 1.03-0.23 1.16-0.24 1.84-0.28 0.64-0.04 1.15 0 1.4 0.01 2.05 0.08 4.41 0.76 6.24 1.97 1.74 1.28 4.25 3.41 4.74 8.68 0.06 0.63 0.02 0.99 0 1.14-0.02 0.16-0.2 0.45-0.36 0.12-0.52-1.09-1.32-2.5-2.23-3.86-0.05-0.08-0.1-0.12-0.15-0.12H30l-0.01 0.01-0.03 0.03V9.1l-0.02 0.04v0.03 0.1c0.03 0.09 0.32 1.52 0.33 1.71 0.01 0.2-0.08 0.69 0.66 1.59 0.3 0.37 0.57 0.68 0.7 1.23 0.14 0.54 0.19 0.77 0.19 0.83 0 0.05 0.06 0.21-0.2 0.22-0.26 0-1.25-0.08-1.68-0.07-0.42 0.01-3.36 0.3-4.45 0.53-1.09 0.24-1.68 0.51-2.24 1.1-0.13 0.14-0.32 0.27-0.37 0.29l-0.46-0.01c-0.27-0.02-0.75 0.05-1 0.16-0.26 0.11-0.44 0.22-0.75 0.1-0.44-0.18-1.19-0.99-3.13-0.9-1.18 0.06-1.78 0.1-2.6 0.21L14.8 16.3l-0.1 0.01-0.04 0.01c-0.34 0.05-0.71 0.12-1.17 0.21l-0.2 0.04c-0.17 0.04-0.3-0.04-0.33-0.23Zm17.95-0.5c0 0.06-0.08 0.12-0.16 0.14l-0.68 0.06c-0.08 0-0.16-0.04-0.17-0.11l-0.03-0.3c0-0.05-0.01-0.12 0.1-0.13l0.8-0.08c0.08 0 0.13 0.06 0.13 0.13v0.29Zm-2.46 0.59c-0.16-0.12-0.44-0.3-0.62-0.36-0.11-0.04-0.07-0.2 0.1-0.22 0.59-0.08 0.97-0.08 1.26 0.1 0.21 0.13 0.36 0.4 0.3 0.62-0.09 0.26-0.19 0.2-0.32 0.2s-0.56-0.23-0.72-0.34Zm0.35 1.15c-0.1 0.07-0.45 0-0.57-0.04-0.25-0.1-0.43-0.17-0.79-0.4-0.23-0.14-0.63-0.21-0.98-0.1-0.23 0.06-0.41 0.12-0.62 0.2-0.2 0.08-0.24-0.1-0.19-0.19 0.06-0.08 0.38-0.45 0.8-0.61 0.1-0.04 0.28-0.06 0.37-0.06 0.27 0 0.61 0.13 0.87 0.32s0.68 0.5 0.95 0.61c0.13 0.06 0.4 0.1 0.16 0.27Zm-8.5 9.16c-1.02 0.36-1.31 0-1.4-0.1-0.1-0.11 0.02-0.22 0.13-0.27 0.24-0.11 0.57-0.36 0.73-0.52 0.17-0.16 0.5-0.73 0.73-0.92 0.1-0.1 0.7-0.3 1.16-0.09 0.53 0.26 1.36 0.29 1.88 0.22 0.5-0.07 0.7-0.44 0.81-0.66 0.11-0.23 0.39-0.3 0.53-0.37 0.39-0.16 0.91-0.7 0.96-0.75 0.06-0.06 0.22-0.14 0.48 0.01 0.46 0.28 0.7 0.64 1.14 1.14 0.43 0.5 0.95 0.57 1.1 0.58 0.15 0 0.24 0.18 0.25 0.23 0 0.05-0.12 0.22-0.21 0.29-0.1 0.07-0.15 0.2-0.98 0.21-4.18 0.1-6.06 0.57-7.3 1Zm5.68 0.5c-0.25 0.14-0.99 0.41-1.36 0.48-0.36 0.08-1.53 0.31-1.73 0.33-0.25 0.02-0.6-0.06-0.9-0.26-0.05-0.04-0.13-0.2 0.09-0.24 0.4-0.06 1.05-0.36 3.43-0.48l0.44-0.02c0.06 0 0.28 0.07 0.03 0.2Zm-5.5 5.28c-0.84 0.14-3.05-0.5-4.48-4.05-0.37-0.92 0.03-1.82 0.39-2 0.2-0.11 0.32-0.16 0.4-0.17 0.07-0.02 0.45-0.07 0.5 0.35 0.03 0.34 0.7 3.15 1.58 4.08 0.22 0.23 0.4 0.22 0.46-0.02 0.04-0.22 0.14-0.5 0.17-0.62 0.02-0.07 0.23-0.31 0.36 0 0.26 0.64 0.58 1.48 0.78 1.82 0.2 0.33 0.14 0.56-0.17 0.61Zm0.16-9.27c0.07 0.11 0.12 0.3 0.12 0.4-0.01 0.1-0.35 0.28-0.71-0.12s-0.29-0.96-0.14-1.2c0.23-0.37 0.7-0.18 0.65-0.05-0.15 0.47 0 0.86 0.08 0.97Zm-2.65-5.19c-0.27 0-0.56-0.04-1.04 0.14-0.55 0.2-0.9 0.46-1.15 0.62-0.26 0.16-0.54 0.23-0.63 0.24-0.1 0-0.43-0.04-0.2-0.28 0.07-0.07 0.21-0.12 0.44-0.28l0.45-0.35c0.33-0.28 0.98-0.67 1.27-0.7 0.21-0.03 0.58 0 0.8 0.19 0.24 0.19 0.32 0.43 0.06 0.42Zm-4.59 0.47c0.03-0.17 0.22-0.63 0.62-0.76l0.43-0.13 0.51-0.11c0.3-0.05 0.36 0.17 0.17 0.31l-0.48 0.36c-0.26 0.21-0.5 0.45-0.7 0.6-0.23 0.2-0.6 0.1-0.55-0.27Zm1.37 5.01c-0.08-0.1-0.15-0.21-0.2-0.32l-0.05-0.07-0.17-0.36c-0.09-0.24 0.06-0.27 0.17-0.22 0.1 0.05 0.39 0.22 0.7 0.29 0.2 0.04 0.3-0.05 0.35-0.2l0.03-0.07 0.01-0.03 0.01-0.03 0.01-0.04v-0.03l0.01-0.05V22.4v-0.05-0.02l-0.02-0.05v-0.01l-0.05-0.06-0.1-0.05c-0.26-0.11-1.04-0.36-1.62-1.44-0.03-0.05-0.04-0.11-0.04-0.17 0.01-0.06 0.04-0.12 0.09-0.16l0.36-0.23c0.1-0.06 0.23-0.05 0.37 0.04 0.13 0.1 0.42 0.3 0.65 0.29 0.22-0.02 0.24-0.11 0.28-0.17 0.15-0.22 0.56-1.03 1.64-1.04 0.44 0 0.86 0.04 1 0.03 0.15-0.01 0.68-0.06 0.99-0.27 0.3-0.21 0.44-0.06 0.26 0.17l-0.07 0.1-0.03 0.03-0.06 0.09c-0.07 0.11-0.07 0.2 0.05 0.34 0.2 0.21 0.25 0.25 0.31 0.3 0.03 0.02 0.07 0.04 0.1 0.04l0.06-0.01h0.02l0.09-0.06c0.11-0.1 0.19-0.16 0.28-0.29 0.08-0.1 0.14 0 0.12 0.15-0.01 0.11 0.04 0.85-0.76 1.75l-0.16 0.14-0.06 0.05-0.03 0.02-0.07 0.07-0.06 0.06-0.07 0.07-0.04 0.04-0.08 0.1-0.02 0.03-0.09 0.12-0.09 0.17c-0.22 0.48-0.2 0.63-0.22 0.8-0.02 0.18-0.15 0.24-0.3 0.31-0.1 0.04-0.33 0.18-0.6 0.38l-0.23 0.2c-0.02 0-0.03 0.02-0.05 0.04l-0.23 0.22c-0.05 0.05-0.1 0.1-0.15 0.13l-0.05 0.04-0.1 0.07-0.06 0.03-0.11 0.05-0.06 0.02h-0.03l-0.07 0.01-0.08 0.02h-0.1l-0.08-0.01c-0.04 0-0.07-0.02-0.1-0.03-0.03 0-0.06 0-0.09-0.02l-0.1-0.04-0.08-0.05h-0.01l-0.16-0.12-0.46-0.43h-0.01l-0.23-0.26s-0.19-0.22-0.26-0.33Zm9.58 16.82c-0.04 0.25-0.25 1.11-1.02 2.88l-0.15 0.34c0 0.03-0.02 0.05-0.03 0.08l-0.06 0.13-0.09 0.18L22.98 44l-0.03 0.06-0.04 0.07-0.02 0.03-0.03 0.05v0.01l-0.03 0.05v0.01h-0.01l-0.04 0.06v0.01l-0.05 0.06-0.04 0.05v0.01l-0.05 0.05-0.03 0.03-0.01 0.01h-0.01l-0.04 0.04h-0.01l-0.04 0.04h-0.01l-0.02 0.01-0.03 0.02-0.04 0.02h-0.02l-0.04 0.02-0.43 0.07-0.13 0.02-0.13 0.02c-1.15 0.2-4.26 0.73-5.7 1.03-0.97 0.19-0.87-0.3-1.11-1.17-0.1-0.36-0.46-3.6-0.28-5.64 0.07-0.68 0.1-0.88 0.22-0.95 0.12-0.07 0.3-0.2 0.36-0.21 0.05-0.02 0.22-0.06 0.3 0.08 0.07 0.14 1.47 2.98 2.39 4 0.8 0.92 1.38 1.59 2.06 2.03l0.12 0.06h0.01l0.05 0.02h0.04c0.03 0 0.05-0.02 0.06-0.03v-0.01l0.04-0.06c0.02-0.12-0.04-0.28-0.14-0.38-0.15-0.17-0.77-0.81-1.6-1.98-1.06-1.51-1.78-3.75-1.98-4.46-0.12-0.47-0.2-1.2-0.18-1.8v-0.07-0.05l0.02-0.28 0.01-0.06 0.02-0.1v-0.06l0.04-0.12c0.17-0.47 0.3-0.42 0.45-0.26 0.15 0.16 1.47 1.36 3.65 2.33 0.46 0.21 0.74 0.3 0.8 0.37 0.06 0.07 0.16 0.21-0.03 0.26-0.2 0.04-0.78 0.06-1.39 0.3l-0.1 0.05c-0.21 0.1-0.31 0.19-0.36 0.3L19.4 38v0.05 0.07 0.05 0.09l0.02 0.17c0.03 0.33 0.1 0.57 0.13 1 0.04 0.45 0.02 0.85 0.23 1.04 0.22 0.18 0.51 0.3 1.3 0.14l1.08-0.21c0.09 0 0.3-0.04 0.17 0.2l-0.05 0.1c-0.17 0.3-0.58 0.99-0.73 1.45-0.15 0.5-0.19 0.64-0.2 0.73-0.01 0.09 0.05 0.26 0.2 0.07 0.16-0.2 0.46-0.9 1.23-1.78l0.29-0.32 0.2-0.21 0.05-0.05 0.14-0.14c0.1-0.1 0.22-0.2 0.34-0.28l0.02-0.02 0.1-0.06 0.02-0.02 0.09-0.05h0.01l0.01-0.01 0.09-0.04c0.21-0.1 0.27 0.04 0.2 0.38Zm1.28 3.9c-0.13 0.03-0.66 0.1-0.74 0.11-0.08 0-0.15-0.07-0.12-0.13 0.04-0.06 0.4-0.54 0.6-1.36 0.04-0.14 0.12-0.23 0.18-0.04 0.04 0.14 0.2 0.85 0.24 1.11 0 0.05 0.04 0.26-0.16 0.3Zm0.22-6.76c-0.35 0.13-0.74-0.26-1.05-0.47-0.71-0.48-1.36-0.95-1.9-1.6-0.81-1-0.73-1.7-0.5-2.98 0.17-0.92-0.13-1.78-0.2-1.9-0.06-0.12 0.01-0.24 0.2-0.15 0.2 0.09 0.38 0.37 0.58 0.61 0.2 0.24 0.24 0.07 0.26-0.1 0.04-0.37-0.05-0.67-0.1-0.85v-0.03c-0.03-0.1-0.13-0.34-0.34-0.38-0.27-0.06-0.54-0.08-0.69-0.19-0.07-0.05-0.14-0.15-0.07-0.22 0.14-0.14 0.35-0.32 0.54-0.38 0.26-0.1 0.52-0.23 0.85-0.23 2.25 0.01 2.86-0.5 3.72-0.86 0.17-0.08 0.27-0.1 0.41-0.06 0.15 0.04 0.54 0.19 0.64 0.36 0.1 0.18 0.12 0.91 0.31 1.44 0.19 0.53 0.51-0.02 0.58-0.25 0.07-0.22 0.1-0.76 0.1-0.9s0.04-0.72 0.23-0.91c0.36-0.38 0.44-0.84 0.48-1.02 0.04-0.16 0.07-0.6 0-1.23l-0.04-0.25c-0.12-0.76-0.28-0.83-0.48-0.97-0.21-0.13-0.43-0.07-0.96-0.44-0.47-0.32-0.9-0.89-1.26-1.24-0.35-0.34-0.92-0.7-1.51-0.75h-0.1-0.01-0.07-0.01l-0.06 0.02-0.04 0.03-0.01 0.01-0.02 0.02-0.01 0.02v0.02L25.3 21.7v0.02 0.04c0 0.15 0.11 0.33 0.14 0.4 0.04 0.1 0.13 0.4-0.04 0.59-0.17 0.18-1.16 1.06-2.1 1.04-0.41 0-0.76-0.1-1.06-0.22l-0.03-0.01-0.2-0.1-0.04-0.02-0.2-0.13-0.05-0.04-0.14-0.11-0.04-0.03-0.14-0.15-0.03-0.03-0.1-0.12-0.02-0.03-0.09-0.14v-0.02l-0.07-0.1-0.01-0.03-0.04-0.1c-0.14-0.42 0.2-1.38 0.19-2.07 0-0.3-0.07-0.89-0.12-1.3-0.04-0.4 0.17-0.94 0.27-1.07l0.1-0.09 0.02-0.02 0.13-0.06 0.02-0.01 0.15-0.06 0.28-0.08c0.33-0.07 0.72 0.1 0.82 0.37 0.34 0.95 0.73 1.16 0.86 1.22 0.13 0.06 0.33-0.13 0.41-0.2 0.08-0.06 0.28-0.32 0.2-0.43-0.14-0.17-0.21-0.28-0.25-0.39-0.07-0.18 0.17-0.18 0.22-0.15 0.71 0.3 1.05 0.36 1.74 0.34 0.69-0.02 1.75-0.48 1.89-0.48 0.1 0 0.32 0.06 0.4 0.18l0.04 0.07c0.07 0.1 0.17 0.24 0.25 0.27 0.1 0.02 0.35 0 0.48 0.01 0.17 0 0.47-0.05 0.46 0.27-0.01 0.85-0.69 1.38-0.75 1.43l-0.05 0.07v0.03c-0.02 0.03-0.02 0.06-0.01 0.09l0.12 0.28 0.04 0.05 0.02 0.01 0.04 0.03h0.03l0.04 0.01h0.04l0.07-0.03c0.57-0.34 0.8-0.74 1.05-1.25 0.25-0.5 0.38-2.17 0.4-2.44 0-0.28 0.1-0.45 0.23-0.56 0.13-0.1 0.8-0.53 0.9-0.56 0.09-0.02 0.2-0.03 0.3 0.22 0.11 0.25 0.35 1.79 0.4 2.02 0.05 0.25 0.18 0.22 0.24 0.18 0.15-0.1 0.25-0.24 0.38-0.45 0.13-0.22 0.03-0.52-0.1-0.66-0.12-0.14-0.32-0.37-0.24-0.6 0.2-0.5 0.6-0.47 0.71-0.46 0.1 0.02 0.52 0.2 0.6 1.31 0.1 1.64-0.57 3.33-0.73 3.76-0.35 0.96-0.42 1.6-0.48 1.92-0.05 0.3-0.29 0.25-0.34 0.2-0.06-0.05-0.13-0.29-0.17-0.32-0.03-0.04-0.13-0.02-0.19 0.24s-0.26 0.63-0.38 0.83c-0.08 0.13-0.06 0.31-0.04 0.45 0.03 0.28 0.18 1.35 0.13 2.56-0.08 2.15-0.8 3.51-1.33 4.22-1.27 1.67-2.45 2.37-2.6 2.47-0.18 0.13-0.49 0.11-0.59 0.08-0.1-0.03-0.2-0.14-0.39-0.28l-0.04-0.03c-0.16-0.07-0.18 0.15-0.18 0.2 0 0.07 0.1 0.3 0.15 0.5 0.1 0.42-0.13 0.91-0.36 1.3-0.34 0.56-0.7 1.16-0.63 1.83 0 0.06 0 0.1-0.05 0.12Zm10.71 0.64c0.2 1.1 0.4 2.43 0.65 4.07l0.03 0.22v0.03l0.01 0.17v0.02 0.06 0.05l-0.01 0.02-0.03 0.09h-0.01l-0.05 0.06-0.02 0.01-0.08 0.04h-0.03l-0.07 0.03h-0.06l-0.11 0.03-0.27 0.04-0.47 0.04c-1.67 0.15-4.94 0.49-7.55 0.82l-0.16 0.01c-0.2 0.03-0.32 0-0.33-0.2-0.02-0.18-0.32-2-1.25-3.55l-0.27-0.42c-0.1-0.15 0.05-0.26 0.2-0.21 0.42 0.14 1.58 0.68 3.24 1.86 0.42 0.3 0.53 0.4 0.63 0.48l0.05 0.03h0.02l0.04 0.02h0.02 0.05 0.02l0.05-0.01c0.04-0.03 0.05-0.08 0.02-0.16-0.1-0.29-0.65-0.86-2.07-2.17-0.2-0.19-0.2-0.27 0-0.29 0.21-0.02 0.78 0 1.08 0 0.3-0.02 0.98-0.04 0.85-0.92-0.1-0.69-0.18-1.4-0.2-1.6 0-0.22-0.04-0.62-0.54-0.67-0.49-0.06-1.31 0.06-2.05 0.32-0.2 0.07-0.28-0.03-0.13-0.17 0.15-0.13 1.45-0.98 2.56-2.25 1.21-1.4 1.75-2.42 2.05-3.36 0.06-0.17 0.13-0.11 0.2-0.07 0.06 0.04 0.52 0.4 0.68 1.31 0.16 0.91 0.47 2.17-0.08 5.49-0.3 1.81-0.68 2.88-0.76 3.14-0.1 0.25 0.06 0.4 0.23 0.17 0.39-0.54 0.9-2.02 1.34-3.72 0.43-1.67 0.58-3.11 0.65-4.03l0.02-0.25V32.7l0.01-0.2 0.01-0.1 0.01-0.03 0.01-0.04 0.03-0.04h0.01c0-0.02 0.02-0.02 0.02-0.02l0.02-0.01h0.01 0.03 0.01 0.01 0.01l0.09 0.03c0.09 0.03 0.47 0.14 0.67 1.06l0.02 0.12 0.01 0.04 0.03 0.11c0.17 0.73 0.47 1.98 0.9 4.53Z" fill="#000000"/>
  <path d="M29.5 39.7h0.18v0.48h0.12V39.7h0.18v-0.1H29.5v0.1Zm0.89 0.31l-0.15-0.4h-0.16v0.57h0.1v-0.46l0.16 0.46h0.1l0.15-0.46v0.46h0.1V39.6h-0.16L30.4 40Z" fill="#000000"/>
</svg>
