<svg xmlns="http://www.w3.org/2000/svg" viewBox="0 0 53 46">
  <path d="M26.84 1.12c11.32 0 20.56 7.49 20.56 16.68 0 9.2-9.24 16.68-20.56 16.68C15.5 34.48 6.26 27 6.26 17.8S15.5 1.12 26.84 1.12Z" fill="#989A9C"/>
  <path d="M35.86 32l9.3-6.48c-2.22 2.83-5.47 5.13-9.3 6.48Z" fill="#825A51"/>
  <path d="M33.18 32.77l13.3-9.3c-2.47 4.5-7.35 7.97-13.3 9.3Z" fill="#94594F"/>
  <path d="M45.16 25.52L35.86 32c-1.53 0.54-3.14 0.92-4.8 1.15l16.22-11.34c-0.54 1.33-1.25 2.56-2.12 3.7Z" fill="#A7554C"/>
  <path d="M46.49 23.47l-13.31 9.3c-1.28 0.3-2.6 0.48-3.96 0.56l18.54-12.95c-0.3 1.08-0.71 2.1-1.27 3.1Z" fill="#B84845"/>
  <path d="M47.28 21.81L31.06 33.15c-1.12 0.16-2.24 0.23-3.37 0.23h-0.13l20.51-14.33c-0.18 0.95-0.43 1.87-0.8 2.76Z" fill="#C24143"/>
  <path d="M47.76 20.38L29.22 33.33c-0.51 0.03-1.02 0.05-1.53 0.05-0.54 0-1.1-0.02-1.64-0.05l22.17-15.48c-0.08 0.86-0.23 1.7-0.46 2.53Z" fill="#C44D4A"/>
  <path d="M48.07 19.05L27.56 33.38c-0.97 0-1.94-0.07-2.89-0.18l23.6-16.5c0 0.8-0.07 1.59-0.2 2.35Z" fill="#C65850"/>
  <path d="M48.22 17.85L26.05 33.33c-0.92-0.05-1.81-0.18-2.68-0.33l24.85-17.37c0.03 0.36 0.05 0.72 0.05 1.07 0 0.39-0.02 0.77-0.05 1.15Z" fill="#CA6358"/>
  <path d="M48.27 16.7l-23.6 16.5c-0.87-0.1-1.7-0.25-2.53-0.43L48.1 14.61c0.1 0.69 0.18 1.38 0.18 2.1Z" fill="#CC6C5F"/>
  <path d="M48.22 15.63L23.37 33c-0.8-0.13-1.61-0.3-2.4-0.54l26.95-18.82c0.15 0.65 0.26 1.32 0.3 2Z" fill="#CE7567"/>
  <path d="M48.1 14.61L22.13 32.77c-0.79-0.18-1.53-0.4-2.27-0.64L47.66 12.7c0.18 0.62 0.33 1.26 0.43 1.92Z" fill="#D17D6E"/>
  <path d="M47.92 13.64L20.97 32.46c-0.73-0.2-1.44-0.44-2.15-0.71L47.35 11.8c0.23 0.59 0.41 1.2 0.57 1.84Z" fill="#D38676"/>
  <path d="M47.66 12.7L19.87 32.12c-0.69-0.23-1.38-0.51-2.02-0.8L47 10.97c0.25 0.56 0.48 1.15 0.66 1.73Z" fill="#D58F7F"/>
  <path d="M47.35 11.8L18.82 31.75c-0.66-0.26-1.3-0.54-1.91-0.87l29.68-20.77c0.27 0.56 0.53 1.12 0.76 1.69Z" fill="#DA9A8A"/>
  <path d="M47 10.96L17.85 31.34c-0.63-0.28-1.25-0.59-1.83-0.95l30.1-21.07c0.33 0.53 0.62 1.07 0.88 1.64Z" fill="#DCA394"/>
  <path d="M46.59 10.11L16.9 30.88c-0.61-0.3-1.2-0.64-1.76-0.97l30.5-21.33c0.35 0.49 0.66 1 0.94 1.53Z" fill="#DFAD9E"/>
  <path d="M46.13 9.32L16.02 30.4c-0.6-0.3-1.15-0.66-1.69-1.02L45.11 7.84c0.37 0.47 0.71 0.97 1.02 1.48Z" fill="#E4B8AA"/>
  <path d="M45.64 8.58l-30.5 21.33c-0.56-0.36-1.07-0.72-1.58-1.12L44.52 7.13c0.4 0.46 0.79 0.94 1.12 1.45Z" fill="#E7C2B5"/>
  <path d="M45.1 7.84L14.34 29.37c-0.51-0.38-1.02-0.76-1.5-1.17L43.9 6.46c0.43 0.44 0.84 0.9 1.2 1.38Z" fill="#EACCC0"/>
  <path d="M44.52 7.13L13.56 28.79c-0.5-0.39-0.97-0.8-1.43-1.18L43.27 5.82c0.43 0.41 0.87 0.85 1.25 1.3Z" fill="#F0D9CE"/>
  <path d="M43.9 6.46L12.83 28.2c-0.46-0.39-0.92-0.8-1.35-1.25L42.55 5.19c0.48 0.4 0.93 0.82 1.36 1.27Z" fill="#F3E3DA"/>
  <path d="M43.27 5.82l-31.14 21.8c-0.46-0.44-0.87-0.88-1.27-1.34L41.84 4.6c0.48 0.38 0.97 0.79 1.43 1.22Z" fill="#F7EDE7"/>
  <path d="M42.55 5.19L11.47 26.95c-0.41-0.44-0.82-0.9-1.18-1.38L41.05 4.04c0.53 0.35 1.04 0.74 1.5 1.15Z" fill="#FFFFFF"/>
  <path d="M41.84 4.6L10.86 26.28c-0.39-0.46-0.77-0.94-1.1-1.43L40.26 3.5c0.53 0.33 1.07 0.71 1.58 1.1Z" fill="#FBF1ED"/>
  <path d="M41.05 4.04L10.29 25.57c-0.38-0.46-0.71-0.97-1.04-1.48l30.14-21.1c0.58 0.33 1.14 0.66 1.66 1.05Z" fill="#F7E4DD"/>
  <path d="M40.25 3.5L9.75 24.85c-0.34-0.5-0.66-1.02-0.94-1.56L38.5 2.5c0.6 0.3 1.2 0.64 1.76 1Z" fill="#EFD5CA"/>
  <path d="M39.39 2.99L9.25 24.09C8.94 23.58 8.66 23 8.4 22.48L37.55 2.07c0.62 0.28 1.24 0.58 1.84 0.92Z" fill="#ECCABD"/>
  <path d="M38.49 2.5L8.81 23.3c-0.3-0.54-0.56-1.1-0.77-1.7l28.5-19.96c0.67 0.28 1.34 0.56 1.95 0.86Z" fill="#E8BEB1"/>
  <path d="M37.55 2.07L8.4 22.47c-0.25-0.56-0.48-1.14-0.66-1.76L35.53 1.28c0.68 0.22 1.36 0.49 2.02 0.79Z" fill="#E2B0A2"/>
  <path d="M36.55 1.63L8.05 21.61c-0.23-0.59-0.41-1.2-0.57-1.82L34.43 0.92c0.72 0.23 1.43 0.46 2.12 0.71Z" fill="#DFA696"/>
  <path d="M35.53 1.28L7.73 20.7c-0.2-0.61-0.35-1.24-0.45-1.89L33.25 0.64c0.77 0.18 1.54 0.38 2.28 0.64Z" fill="#DA9989"/>
  <path d="M34.43 0.92L7.48 19.79c-0.15-0.65-0.25-1.32-0.3-1.99L32.03 0.38c0.82 0.16 1.6 0.34 2.4 0.54Z" fill="#D78F7F"/>
  <path d="M33.26 0.64L7.28 18.82c-0.1-0.69-0.15-1.39-0.15-2.09L30.73 0.2c0.87 0.1 1.7 0.23 2.53 0.44Z" fill="#D58676"/>
  <path d="M32.03 0.38L7.18 17.8c-0.03-0.36-0.05-0.74-0.05-1.1 0-0.38 0.02-0.74 0.05-1.12l22.14-15.5c0.92 0.05 1.84 0.15 2.71 0.3Z" fill="#D07A6B"/>
  <path d="M30.73 0.2L7.13 16.73V16.7c0-0.79 0.07-1.58 0.2-2.35L27.82 0c1 0.03 1.96 0.08 2.9 0.2Z" fill="#CE6F62"/>
  <path d="M29.32 0.08L7.18 15.58c0.07-0.85 0.23-1.7 0.46-2.53l18.54-13c0.51-0.02 1-0.05 1.5-0.05 0.57 0 1.1 0.03 1.64 0.08Z" fill="#CC665A"/>
  <path d="M27.81 0L7.33 14.35c0.18-0.94 0.43-1.86 0.8-2.75L24.33 0.23c1.15-0.16 2.31-0.24 3.47-0.23Z" fill="#C85951"/>
  <path d="M26.18 0.05l-18.54 13c0.28-1.07 0.71-2.12 1.25-3.11L22.22 0.6c1.28-0.28 2.6-0.48 3.96-0.56Z" fill="#C64B49"/>
  <path d="M24.34 0.23L8.12 11.6c0.51-1.3 1.23-2.56 2.12-3.7l9.3-6.52c1.5-0.54 3.12-0.92 4.8-1.15Z" fill="#C23C40"/>
  <path d="M22.22 0.61L8.9 9.94c2.5-4.52 7.38-7.97 13.33-9.33Z" fill="#B24E48"/>
  <path d="M19.54 1.38l-9.3 6.51c2.2-2.86 5.44-5.16 9.3-6.51Z" fill="#A1564D"/>
  <path d="M27.71 1.56c10.17 0 18.44 6.77 18.44 15.04 0 8.3-8.27 15.05-18.44 15.05-10.16 0-18.44-6.75-18.44-15.05 0-8.27 8.28-15.04 18.44-15.04Z" fill="#FFFFFF"/>
  <path d="M43.8 10.55L22.96 2.96c1.53-0.35 3.17-0.53 4.83-0.53 7.05 0 13.18 3.32 16.01 8.12Z" fill="#4B3B92"/>
  <path d="M23.83 2.78L43.4 9.91c0.27 0.4 0.52 0.82 0.74 1.25l-22-8c0.56-0.14 1.12-0.27 1.69-0.38Z" fill="#4B3B92"/>
  <path d="M22.96 2.96l20.84 7.59c0.23 0.4 0.46 0.82 0.64 1.22L21.4 3.4c0.52-0.18 1.03-0.3 1.56-0.44Z" fill="#4B3B92"/>
  <path d="M22.15 3.17l21.99 8c0.2 0.39 0.38 0.79 0.56 1.2L20.69 3.62c0.48-0.18 0.96-0.33 1.46-0.46Z" fill="#4B3B92"/>
  <path d="M21.4 3.4l23.04 8.37c0.18 0.38 0.33 0.76 0.46 1.15L20.03 3.88c0.43-0.18 0.89-0.36 1.37-0.48Z" fill="#4B3D93"/>
  <path d="M20.69 3.63l24 8.73c0.14 0.36 0.26 0.74 0.4 1.13l-25.7-9.35c0.4-0.18 0.84-0.36 1.3-0.51Z" fill="#4B3D93"/>
  <path d="M20.02 3.88l24.88 9.04c0.13 0.36 0.23 0.73 0.3 1.1l-26.43-9.6c0.4-0.2 0.83-0.39 1.25-0.54Z" fill="#4B3D93"/>
  <path d="M19.39 4.14l25.7 9.35c0.07 0.35 0.17 0.71 0.22 1.07L18.21 4.7C18.6 4.5 19 4.31 19.4 4.14Z" fill="#4C3F94"/>
  <path d="M18.77 4.42l26.44 9.6c0.07 0.36 0.15 0.72 0.2 1.08L17.65 5c0.37-0.2 0.74-0.4 1.12-0.58Z" fill="#4C4094"/>
  <path d="M18.21 4.7l27.1 9.86c0.08 0.36 0.13 0.69 0.15 1.05L17.14 5.29c0.33-0.2 0.69-0.41 1.07-0.59Z" fill="#4C4094"/>
  <path d="M17.65 5L45.4 15.1l0.08 1.02-28.86-10.5c0.32-0.23 0.66-0.43 1.02-0.61Z" fill="#4C4295"/>
  <path d="M17.14 5.29L45.46 15.6c0.03 0.33 0.06 0.66 0.06 1 0 0-0.03 0-0.03 0.02L16.14 5.93l1-0.64Z" fill="#4C4396"/>
  <path d="M16.63 5.62l28.86 10.5 0.03 0.48c0 0.18-0.03 0.33-0.03 0.51L15.71 6.26c0.28-0.23 0.61-0.44 0.92-0.64Z" fill="#4E4497"/>
  <path d="M16.14 5.93l29.35 10.7c0 0.3 0 0.64-0.03 0.97L15.27 6.59c0.28-0.23 0.6-0.43 0.87-0.66Z" fill="#4E4698"/>
  <path d="M15.7 6.26L45.5 17.1l-0.08 0.95L14.84 6.95l0.87-0.7Z" fill="#4E4999"/>
  <path d="M15.27 6.59l30.2 11c-0.03 0.31-0.08 0.62-0.13 0.95L14.46 7.31c0.25-0.26 0.53-0.49 0.81-0.72Z" fill="#4C4A9A"/>
  <path d="M14.84 6.95l30.57 11.1L45.26 19 14.07 7.66l0.77-0.71Z" fill="#4C4C9B"/>
  <path d="M14.46 7.3l30.88 11.24c-0.05 0.31-0.13 0.62-0.2 0.92L13.71 8.02c0.23-0.25 0.48-0.48 0.74-0.71Z" fill="#4C4D9C"/>
  <path d="M14.07 7.66L45.26 19c-0.08 0.3-0.15 0.62-0.26 0.9L13.38 8.38c0.2-0.23 0.46-0.49 0.7-0.72Z" fill="#4C4E9D"/>
  <path d="M13.72 8.02l31.41 11.44c-0.07 0.28-0.15 0.59-0.25 0.9L13.05 8.76c0.21-0.26 0.43-0.5 0.67-0.74Z" fill="#4C509E"/>
  <path d="M13.38 8.38L45 19.9c-0.07 0.3-0.17 0.58-0.28 0.9L12.75 9.13c0.2-0.25 0.4-0.5 0.63-0.76Z" fill="#4B539F"/>
  <path d="M13.05 8.76l31.83 11.6c-0.1 0.29-0.22 0.58-0.34 0.87l-32.1-11.7 0.61-0.77Z" fill="#4B54A0"/>
  <path d="M12.75 9.14L44.72 20.8l-0.38 0.84-32.16-11.7c0.18-0.27 0.36-0.53 0.57-0.79Z" fill="#4B55A1"/>
  <path d="M12.44 9.53l32.1 11.7c-0.12 0.28-0.25 0.56-0.4 0.84L11.93 10.32l0.5-0.8Z" fill="#4D57A2"/>
  <path d="M12.18 9.94l32.16 11.7-0.43 0.84-32.24-11.75c0.16-0.27 0.33-0.54 0.51-0.8Z" fill="#4D58A3"/>
  <path d="M11.93 10.32l32.2 11.75-0.45 0.82-32.24-11.73c0.16-0.28 0.31-0.56 0.49-0.84Z" fill="#4D59A4"/>
  <path d="M11.67 10.73l32.24 11.75-0.49 0.79-32.18-11.7c0.13-0.28 0.28-0.56 0.43-0.84Z" fill="#4E5CA5"/>
  <path d="M11.44 11.16L43.68 22.9l-0.54 0.79L11.06 12c0.1-0.3 0.26-0.58 0.38-0.84Z" fill="#4E5FA7"/>
  <path d="M11.24 11.57l32.18 11.7c-0.18 0.28-0.38 0.54-0.59 0.79L10.88 12.41c0.1-0.28 0.23-0.56 0.36-0.84Z" fill="#4E60A8"/>
  <path d="M11.06 12l32.08 11.68-0.61 0.76L10.7 12.87c0.1-0.3 0.23-0.58 0.36-0.87Z" fill="#4E61A9"/>
  <path d="M10.88 12.41l31.95 11.65-0.61 0.77L10.57 13.3c0.08-0.3 0.18-0.59 0.31-0.9Z" fill="#5063AA"/>
  <path d="M10.7 12.87l31.83 11.57c-0.21 0.26-0.43 0.5-0.67 0.74L10.45 13.74c0.07-0.28 0.15-0.59 0.25-0.87Z" fill="#5064AB"/>
  <path d="M10.57 13.3l31.65 11.53c-0.23 0.25-0.46 0.49-0.72 0.71L10.34 14.2c0.05-0.3 0.13-0.59 0.23-0.9Z" fill="#5065AC"/>
  <path d="M10.45 13.74l31.41 11.44c-0.23 0.26-0.48 0.49-0.74 0.72L10.24 14.66c0.05-0.3 0.13-0.61 0.2-0.92Z" fill="#5067AD"/>
  <path d="M10.34 14.2l31.17 11.34c-0.26 0.26-0.52 0.49-0.77 0.72L10.17 15.15c0.05-0.34 0.1-0.64 0.17-0.95Z" fill="#5169AE"/>
  <path d="M10.24 14.66L41.12 25.9c-0.25 0.25-0.5 0.48-0.79 0.71l-30.21-11c0.05-0.31 0.07-0.62 0.12-0.95Z" fill="#516AAF"/>
  <path d="M10.17 15.15l30.57 11.1-0.84 0.7-29.81-10.86 0.08-0.94Z" fill="#516BB0"/>
  <path d="M10.12 15.6l30.21 11.01-0.9 0.67L10.1 16.6c0-0.33 0-0.66 0.03-1Z" fill="#516CB1"/>
  <path d="M10.09 16.1l29.8 10.85c-0.3 0.22-0.61 0.44-0.94 0.63L10.1 17.08V16.6v-0.5Z" fill="#516FB3"/>
  <path d="M10.09 16.6l29.35 10.68c-0.34 0.2-0.64 0.43-0.97 0.61L10.12 17.6c-0.03-0.32-0.03-0.66-0.03-0.99Z" fill="#5170B4"/>
  <path d="M10.09 17.09l28.86 10.5c-0.33 0.23-0.66 0.4-1.02 0.6L10.19 18.12c-0.05-0.33-0.07-0.67-0.1-1.02Z" fill="#5370B4"/>
  <path d="M10.12 17.6l28.35 10.3c-0.36 0.2-0.72 0.4-1.08 0.58l-27.12-9.83c-0.08-0.36-0.1-0.7-0.15-1.05Z" fill="#5373B6"/>
  <path d="M10.2 18.1l27.73 10.1c-0.36 0.2-0.74 0.38-1.12 0.56l-26.44-9.58c-0.08-0.36-0.13-0.71-0.18-1.07Z" fill="#5374B7"/>
  <path d="M10.27 18.65l27.12 9.83c-0.38 0.2-0.79 0.38-1.17 0.56l-25.7-9.32c-0.1-0.36-0.2-0.72-0.25-1.07Z" fill="#5375B8"/>
  <path d="M10.37 19.18l26.43 9.58c-0.4 0.2-0.8 0.38-1.22 0.54l-24.9-9.02-0.31-1.1Z" fill="#5177B7"/>
  <path d="M10.52 19.72l25.7 9.32c-0.44 0.18-0.87 0.36-1.33 0.51l-23.98-8.7c-0.16-0.37-0.29-0.75-0.39-1.13Z" fill="#5179B8"/>
  <path d="M10.68 20.28l24.9 9.02c-0.46 0.18-0.92 0.35-1.4 0.48l-23.04-8.35-0.46-1.15Z" fill="#517AB9"/>
  <path d="M10.9 20.84l23.99 8.71c-0.46 0.18-0.97 0.33-1.46 0.46l-21.99-7.97c-0.2-0.4-0.38-0.79-0.53-1.2Z" fill="#517CBB"/>
  <path d="M11.14 21.43l23.03 8.35c-0.48 0.18-1.02 0.3-1.55 0.44l-20.84-7.56c-0.23-0.41-0.44-0.82-0.64-1.23Z" fill="#517DBC"/>
  <path d="M11.44 22.04l22 7.97c-0.57 0.15-1.1 0.28-1.7 0.38l-19.56-7.1c-0.28-0.4-0.5-0.81-0.74-1.25Z" fill="#517DBA"/>
  <path d="M11.78 22.66l20.84 7.56c-0.59 0.12-1.2 0.25-1.82 0.33l-18.13-6.6c-0.33-0.4-0.61-0.83-0.9-1.3Z" fill="#5180BC"/>
  <path d="M12.18 23.3l19.57 7.1c-1.3 0.23-2.63 0.35-3.96 0.35-6.74 0-12.62-3.01-15.6-7.46Z" fill="#5180BC"/>
  <path d="M36.5 22.94c0-0.08-0.03-0.16-0.08-0.18-0.05-0.05-0.15-0.08-0.25-0.08h-0.3v0.9h0.12v-0.41h0.18l0.18 0.4h0.12l-0.17-0.4c0.07 0 0.1-0.05 0.15-0.08 0.02-0.05 0.05-0.1 0.05-0.15Zm-0.18 0.12c-0.05 0.03-0.1 0.03-0.18 0.03H36v-0.3h0.15c0.08 0 0.13 0 0.18 0.02 0.03 0.02 0.05 0.08 0.05 0.13s-0.02 0.1-0.05 0.12Z" fill="#FFFFFF"/>
  <path d="M36.8 22.86c-0.04-0.09-0.1-0.17-0.15-0.26-0.08-0.05-0.15-0.12-0.23-0.15-0.1-0.05-0.18-0.05-0.28-0.05-0.1 0-0.2 0-0.28 0.05-0.08 0.03-0.15 0.08-0.23 0.15l-0.15 0.26c-0.03 0.08-0.05 0.18-0.05 0.28 0 0.1 0.02 0.2 0.05 0.28 0.05 0.1 0.07 0.18 0.15 0.26 0.08 0.07 0.15 0.12 0.23 0.15 0.08 0.05 0.18 0.05 0.28 0.05 0.08 0 0.18 0 0.26-0.05 0.1-0.03 0.17-0.08 0.25-0.15l0.15-0.26c0.03-0.08 0.06-0.18 0.06-0.28 0-0.1-0.03-0.2-0.06-0.28Zm-0.07 0.54c-0.03 0.07-0.08 0.15-0.13 0.2-0.08 0.08-0.15 0.13-0.23 0.15-0.08 0.03-0.15 0.06-0.23 0.06-0.08 0-0.18-0.03-0.25-0.06-0.08-0.02-0.13-0.07-0.2-0.15-0.06-0.05-0.11-0.13-0.14-0.2-0.02-0.08-0.05-0.18-0.05-0.26 0-0.08 0.03-0.18 0.05-0.25 0.03-0.08 0.08-0.16 0.16-0.2 0.05-0.09 0.1-0.14 0.18-0.16 0.07-0.03 0.15-0.05 0.25-0.05 0.08 0 0.15 0.02 0.23 0.05 0.08 0.02 0.15 0.07 0.23 0.15 0.05 0.05 0.1 0.13 0.13 0.2 0.02 0.08 0.05 0.18 0.05 0.26 0 0.1-0.03 0.18-0.05 0.26Z" fill="#FFFFFF"/>
  <path d="M0 36.7c0.92-0.69 2.04-1.45 2.91-1.96 0.41-0.23 0.61-0.28 0.87-0.08 0.64 0.97 1.38 3.22 1.79 4.93 2.07-4.37 5.8-9.53 10.78-12.85-3.02 4.04-5.11 8.3-7 13.03-0.67 1.79-1.1 3.93-1.94 4.72C6.59 45.16 5.29 45.4 4.5 45c-0.74-0.4-1.18-1.3-1.64-2.27-0.59-1.53-1.02-3.22-1.45-4.88-0.23-1.1-0.6-1.17-1.41-1.15Z" fill="#989A9C"/>
  <path d="M4.44 43.86l2.38 0.28c-0.7 0.25-1.46 0.25-1.97 0-0.15-0.08-0.28-0.18-0.4-0.28Z" fill="#5C5B5C"/>
  <path d="M5.95 44.31l-0.94-0.1-0.16-0.07c-0.28-0.16-0.48-0.36-0.69-0.62l3.17 0.39c-0.4 0.25-0.92 0.38-1.38 0.4Z" fill="#605D5D"/>
  <path d="M6.82 44.14l-2.38-0.28c-0.17-0.18-0.35-0.41-0.5-0.64l3.77 0.46c-0.25 0.2-0.56 0.35-0.89 0.46Z" fill="#635E5E"/>
  <path d="M7.33 43.9l-3.17-0.38c-0.16-0.19-0.3-0.4-0.43-0.61l4.24 0.51c-0.08 0.08-0.13 0.15-0.2 0.2-0.14 0.11-0.29 0.2-0.44 0.29Z" fill="#66605F"/>
  <path d="M7.71 43.68l-3.78-0.46c-0.12-0.2-0.25-0.41-0.35-0.62l4.57 0.57c-0.13 0.17-0.23 0.33-0.39 0.45l-0.05 0.06Z" fill="#69615F"/>
  <path d="M7.97 43.42l-4.24-0.51-0.3-0.61 4.87 0.58c-0.1 0.2-0.2 0.39-0.33 0.54Z" fill="#6E6461"/>
  <path d="M8.15 43.16L3.58 42.6 3.27 42l5.16 0.61C8.35 42.8 8.25 43 8.15 43.16Z" fill="#716562"/>
  <path d="M8.3 42.88L3.42 42.3l-0.2-0.44-0.08-0.18 5.42 0.67-0.26 0.53Z" fill="#746562"/>
  <path d="M8.43 42.6L3.27 42c-0.03-0.05-0.03-0.08-0.05-0.13-0.05-0.15-0.13-0.3-0.18-0.48l5.62 0.69-0.23 0.53Z" fill="#776561"/>
  <path d="M8.56 42.35l-5.42-0.67c-0.05-0.2-0.13-0.4-0.2-0.6l5.82 0.7-0.2 0.57Z" fill="#7A6661"/>
  <path d="M8.66 42.07l-5.62-0.7c-0.08-0.2-0.13-0.38-0.2-0.58l6.02 0.74c-0.07 0.18-0.12 0.36-0.2 0.54Z" fill="#7C6660"/>
  <path d="M8.76 41.79l-5.82-0.72c-0.08-0.18-0.13-0.38-0.2-0.59l6.2 0.77-0.18 0.54Z" fill="#806761"/>
  <path d="M8.86 41.53L2.84 40.8c-0.06-0.2-0.13-0.4-0.18-0.61l6.38 0.79c-0.07 0.18-0.13 0.36-0.18 0.56Z" fill="#836860"/>
  <path d="M8.94 41.25l-6.2-0.77c-0.05-0.2-0.11-0.4-0.19-0.58l6.57 0.79c-0.05 0.18-0.1 0.38-0.18 0.56Z" fill="#86675F"/>
  <path d="M9.04 40.97l-6.38-0.8C2.58 40 2.53 39.8 2.48 39.6l6.74 0.82c-0.08 0.2-0.13 0.38-0.18 0.56Z" fill="#88665E"/>
  <path d="M9.12 40.69l-6.57-0.8c-0.05-0.2-0.1-0.4-0.17-0.6l6.92 0.84c-0.05 0.2-0.13 0.38-0.18 0.56Z" fill="#8B665D"/>
  <path d="M9.22 40.4L2.48 39.6C2.43 39.39 2.35 39.2 2.3 39l7.07 0.87-0.15 0.54Z" fill="#8F665C"/>
  <path d="M9.3 40.13l-6.92-0.85-0.16-0.58 7.26 0.89-0.18 0.54Z" fill="#91665C"/>
  <path d="M9.37 39.87L2.3 39 2.15 38.4l7.43 0.92c-0.08 0.18-0.13 0.36-0.2 0.56Z" fill="#92655B"/>
  <path d="M9.48 39.59l-7.26-0.9-0.15-0.58 3.8 0.46c0.03 0.05 0.03 0.13 0.06 0.18L6 38.59l3.68 0.44c-0.08 0.18-0.15 0.38-0.2 0.56Z" fill="#93655B"/>
  <path d="M9.58 39.3L2.15 38.4C2.09 38.2 2.05 38 1.97 37.8L5.8 38.3c0.05 0.15 0.07 0.3 0.13 0.46 0.05-0.16 0.12-0.28 0.2-0.44l3.65 0.46-0.07 0.16c-0.06 0.12-0.1 0.25-0.13 0.38Z" fill="#95645A"/>
  <path d="M9.68 39.03L6 38.59l0.26-0.53 3.62 0.43c-0.05 0.13-0.12 0.28-0.17 0.44l-0.03 0.1Zm-3.8-0.46L2.07 38.1c-0.08-0.2-0.13-0.41-0.18-0.59l3.83 0.46 0.16 0.59Z" fill="#96645A"/>
  <path d="M9.78 38.77l-3.65-0.46c0.08-0.18 0.18-0.36 0.28-0.53L10 38.2c-0.08 0.18-0.13 0.36-0.2 0.56ZM5.8 38.3L1.97 37.8 1.8 37.21l3.84 0.46 0.15 0.62Z" fill="#976258"/>
  <path d="M9.88 38.5l-3.62-0.44 0.3-0.57 3.55 0.44c-0.07 0.2-0.15 0.38-0.23 0.56Zm-4.16-0.52L1.9 37.52l-0.13-0.54-0.02-0.07 3.83 0.48 0.15 0.6Z" fill="#9A6358"/>
  <path d="M9.99 38.21L6.4 37.78l0.28-0.54 3.55 0.43c-0.1 0.18-0.18 0.36-0.25 0.54Zm-4.35-0.54l-3.83-0.46c-0.02-0.07-0.02-0.15-0.05-0.23-0.02-0.12-0.05-0.25-0.1-0.35l3.8 0.46c0.08 0.2 0.13 0.4 0.18 0.58Z" fill="#9C6358"/>
  <path d="M10.11 37.93L6.56 37.5c0.08-0.18 0.18-0.36 0.29-0.54l3.5 0.43-0.24 0.54Zm-4.54-0.54l-3.83-0.48c-0.05-0.26-0.1-0.44-0.18-0.59l3.83 0.46c0.05 0.2 0.13 0.4 0.18 0.61Z" fill="#9D6257"/>
  <path d="M10.24 37.67L6.7 37.24c0.1-0.18 0.2-0.36 0.33-0.54l3.45 0.41c-0.07 0.2-0.15 0.39-0.23 0.56ZM5.47 37.1l-3.81-0.46c-0.1-0.34-0.2-0.51-0.38-0.64l4 0.5c0.08 0.19 0.14 0.4 0.19 0.6Z" fill="#9F6156"/>
  <path d="M10.34 37.4l-3.5-0.44c0.1-0.18 0.23-0.36 0.34-0.54l3.42 0.44c-0.1 0.18-0.18 0.35-0.26 0.53ZM5.4 36.77l-3.83-0.46c-0.26-0.46-0.62-0.49-1.2-0.49 0.07-0.07 0.18-0.12 0.25-0.2l4.57 0.56c0.08 0.2 0.13 0.39 0.2 0.59Z" fill="#A06054"/>
  <path d="M10.47 37.11l-3.45-0.4 0.31-0.54 3.4 0.4c-0.1 0.18-0.18 0.36-0.26 0.54ZM5.3 36.5l-4.01-0.51c-0.23-0.16-0.51-0.16-0.92-0.16 0.2-0.16 0.4-0.31 0.61-0.45l4.11 0.5c0.08 0.21 0.13 0.41 0.2 0.62Z" fill="#A15F54"/>
  <path d="M10.6 36.86l-3.42-0.44c0.1-0.15 0.2-0.33 0.33-0.5l3.35 0.4c-0.1 0.18-0.18 0.36-0.26 0.54Zm-5.41-0.67L0.6 35.63c0.23-0.15 0.46-0.33 0.7-0.48l3.67 0.43c0.08 0.2 0.13 0.4 0.2 0.61Z" fill="#A46054"/>
  <path d="M10.73 36.58l-3.4-0.41 0.36-0.54 3.3 0.4c-0.1 0.19-0.19 0.37-0.26 0.55Zm-5.65-0.7l-4.1-0.5c0.22-0.16 0.45-0.31 0.68-0.5l3.2 0.42 0.22 0.59Z" fill="#A65E53"/>
  <path d="M10.86 36.32l-3.35-0.4c0.1-0.19 0.23-0.37 0.33-0.54l3.27 0.38c-0.1 0.18-0.18 0.36-0.25 0.56Zm-5.88-0.74L1.3 35.15c0.24-0.18 0.5-0.34 0.74-0.49l2.69 0.33 0.25 0.59Z" fill="#A75E53"/>
  <path d="M10.98 36.04l-3.3-0.4 0.34-0.55 3.22 0.41c-0.1 0.18-0.18 0.36-0.26 0.54ZM4.85 35.3l-3.19-0.41c0.26-0.15 0.51-0.33 0.74-0.49l2.2 0.29c0.07 0.17 0.18 0.38 0.25 0.6Z" fill="#A85C51"/>
  <path d="M11.11 35.76l-3.27-0.38 0.38-0.54 3.15 0.38-0.26 0.54Zm-6.39-0.77l-2.68-0.33c0.23-0.18 0.49-0.33 0.74-0.49l1.66 0.2c0.1 0.19 0.2 0.4 0.28 0.62Z" fill="#AA5B50"/>
  <path d="M11.24 35.5l-3.22-0.4 0.38-0.52 3.12 0.39c-0.1 0.18-0.2 0.35-0.28 0.53ZM4.6 34.7L2.4 34.4c0.26-0.15 0.54-0.33 0.77-0.45l1.12 0.12c0.11 0.2 0.22 0.4 0.3 0.62Z" fill="#AB594F"/>
  <path d="M11.37 35.22l-3.15-0.38c0.1-0.18 0.23-0.36 0.36-0.54l3.07 0.39-0.28 0.53Zm-6.93-0.84l-1.66-0.2 0.49-0.31c0.11-0.07 0.23-0.12 0.36-0.16l0.43 0.06 0.08 0.02c0.1 0.18 0.2 0.36 0.3 0.59Z" fill="#AC584E"/>
  <path d="M11.52 34.97L8.4 34.58l0.39-0.53 2.99 0.35c-0.08 0.18-0.18 0.36-0.26 0.57Zm-7.23-0.9l-1.12-0.13 0.1-0.07c0.4-0.23 0.61-0.26 0.87-0.08l0.15 0.28Z" fill="#AF584F"/>
  <path d="M11.65 34.69L8.58 34.3c0.13-0.18 0.26-0.33 0.41-0.5l2.94 0.35-0.28 0.54Zm-7.59-0.92L3.63 33.7c0.18-0.07 0.3-0.05 0.43 0.06Z" fill="#B1554D"/>
  <path d="M11.78 34.4l-3-0.35 0.39-0.54 2.91 0.36-0.3 0.53Z" fill="#B2544C"/>
  <path d="M11.93 34.15l-2.94-0.36 0.38-0.54 2.84 0.36c-0.08 0.18-0.18 0.36-0.28 0.54Z" fill="#B3514A"/>
  <path d="M12.08 33.87L9.17 33.5c0.15-0.15 0.28-0.33 0.4-0.51l2.8 0.33-0.29 0.54Z" fill="#B4504A"/>
  <path d="M12.2 33.61l-2.83-0.36 0.44-0.5 2.7 0.33-0.3 0.53Z" fill="#B64D48"/>
  <path d="M12.36 33.33L9.58 33 10 32.46l2.66 0.34-0.3 0.53Z" fill="#B94D48"/>
  <path d="M12.52 33.08L9.8 32.74l0.43-0.53 2.58 0.33-0.3 0.54Z" fill="#BA4B46"/>
  <path d="M12.67 32.8L10 32.46c0.15-0.15 0.28-0.33 0.44-0.5l2.52 0.3-0.3 0.54Z" fill="#BB4745"/>
  <path d="M12.82 32.54l-2.58-0.33c0.13-0.18 0.28-0.33 0.44-0.51l2.45 0.3-0.3 0.54Z" fill="#BC4644"/>
  <path d="M12.98 32.26l-2.53-0.3c0.15-0.19 0.3-0.34 0.46-0.52l2.4 0.28c-0.13 0.18-0.23 0.36-0.33 0.54Z" fill="#BE4243"/>
  <path d="M13.13 32l-2.45-0.3c0.15-0.18 0.3-0.36 0.46-0.51l2.32 0.28c-0.1 0.18-0.23 0.35-0.33 0.53Z" fill="#BF4042"/>
  <path d="M13.3 31.72l-2.4-0.28c0.16-0.18 0.31-0.36 0.47-0.5l2.24 0.25-0.3 0.53Z" fill="#C23C40"/>
  <path d="M13.46 31.47l-2.32-0.28c1.81-2 3.9-3.86 6.13-5.34-1.36 1.81-2.63 3.68-3.8 5.62Z" fill="#C23C40"/>
  <path d="M52.05 28.48h-0.1v0.2h0.1c0.06 0 0.1 0 0.13-0.02 0.03 0 0.05-0.03 0.05-0.08 0-0.02-0.02-0.08-0.05-0.08-0.02-0.02-0.07-0.02-0.13-0.02Zm0.03-0.08c0.08 0 0.15 0.03 0.18 0.05 0.05 0.03 0.08 0.08 0.08 0.13s-0.03 0.08-0.06 0.1c-0.02 0.03-0.05 0.05-0.1 0.05l0.13 0.29h-0.1l-0.13-0.26h-0.13v0.26h-0.1V28.4h0.23Zm0.46 0.33c0 0.06-0.03 0.13-0.05 0.18 0 0.05-0.05 0.1-0.08 0.16l-0.18 0.1c-0.05 0.02-0.12 0.02-0.18 0.02-0.05 0-0.12 0-0.17-0.02l-0.16-0.1c-0.05-0.05-0.1-0.1-0.1-0.16-0.03-0.05-0.05-0.12-0.05-0.18 0-0.07 0.02-0.12 0.05-0.17 0.03-0.06 0.05-0.1 0.1-0.16 0.05-0.05 0.1-0.07 0.16-0.1 0.05-0.03 0.1-0.05 0.17-0.05 0.06 0 0.13 0.02 0.18 0.05 0.08 0.03 0.13 0.05 0.18 0.1 0.03 0.03 0.08 0.1 0.08 0.16 0.02 0.05 0.05 0.1 0.05 0.17Zm-0.49-0.53l0.2 0.02c0.09 0.05 0.14 0.08 0.19 0.13 0.05 0.05 0.1 0.1 0.12 0.18 0.03 0.05 0.03 0.13 0.03 0.2 0 0.08 0 0.13-0.03 0.2-0.02 0.06-0.07 0.11-0.12 0.16-0.05 0.05-0.1 0.1-0.18 0.13-0.08 0.03-0.13 0.03-0.2 0.03-0.08 0-0.16 0-0.21-0.03-0.08-0.03-0.13-0.08-0.18-0.13-0.05-0.05-0.1-0.1-0.13-0.15-0.02-0.08-0.02-0.13-0.02-0.2 0-0.08 0-0.16 0.02-0.21 0.03-0.08 0.08-0.13 0.13-0.18 0.05-0.05 0.1-0.08 0.18-0.13l0.2-0.02Z" fill="#000000"/>
  <path d="M38.75 13.82l2.5 1.73c-0.05 0.08-0.1 0.16-0.15 0.2-0.8-0.5-1.59-1.24-2.35-1.93Z" fill="#3A6DB4"/>
  <path d="M41.12 15.7l-1.1-0.76c-0.79-0.66-1.58-1.45-2.3-2.1l3.66 2.56c-0.08 0.1-0.18 0.23-0.26 0.3Z" fill="#3C70B5"/>
  <path d="M41.25 15.56l-2.5-1.74-1.38-1.33c-0.17-0.1-0.3-0.26-0.39-0.43l4.52 3.16c-0.07 0.13-0.17 0.23-0.25 0.34Z" fill="#3E72B7"/>
  <path d="M41.38 15.4l-3.66-2.55-0.35-0.36c-0.23-0.15-0.41-0.43-0.54-0.8l4.8 3.38-0.25 0.33Z" fill="#4275B9"/>
  <path d="M41.5 15.22l-4.52-3.16c-0.12-0.22-0.2-0.45-0.25-0.7l5.03 3.53c-0.08 0.13-0.18 0.23-0.26 0.33Z" fill="#4276BA"/>
  <path d="M41.63 15.07l-4.8-3.37c-0.08-0.18-0.13-0.38-0.15-0.61l5.2 3.65c-0.1 0.1-0.17 0.23-0.25 0.33Z" fill="#4678BB"/>
  <path d="M41.76 14.9l-5.03-3.53c-0.05-0.18-0.08-0.36-0.1-0.57l5.36 3.76-0.23 0.33Z" fill="#487BBB"/>
  <path d="M41.89 14.74l-5.21-3.65c-0.05-0.18-0.05-0.36-0.08-0.57l5.5 3.86c-0.06 0.13-0.13 0.23-0.21 0.36Z" fill="#4A7CBC"/>
  <path d="M42 14.56l-5.37-3.76c-0.03-0.17-0.03-0.35-0.03-0.53l5.62 3.93L42 14.56Z" fill="#4F80BC"/>
  <path d="M42.1 14.38l-5.5-3.86v-0.28c-0.02-0.07-0.02-0.18-0.02-0.25l5.74 4.03c-0.07 0.13-0.15 0.23-0.23 0.36Z" fill="#5380BC"/>
  <path d="M42.22 14.2l-5.62-3.93v-0.03l-0.08-0.5 5.9 4.1c-0.07 0.13-0.15 0.23-0.2 0.36Z" fill="#5784BE"/>
  <path d="M42.32 14.02L36.57 10 36.5 9.45l6 4.19c-0.05 0.13-0.13 0.25-0.18 0.38Z" fill="#5A84C0"/>
  <path d="M42.42 13.84l-5.9-4.1c-0.02-0.21-0.02-0.4-0.05-0.57l6.1 4.29-0.15 0.38Z" fill="#5E88C2"/>
  <path d="M42.5 13.64l-6-4.19c-0.03-0.2-0.05-0.38-0.05-0.56l6.2 4.34c-0.02 0.08-0.02 0.13-0.05 0.18-0.02 0.08-0.05 0.15-0.1 0.23Z" fill="#628AC4"/>
  <path d="M42.58 13.46l-6.1-4.29-0.06-0.54 6.29 4.4c-0.03 0.12-0.08 0.25-0.1 0.38 0 0 0 0.02-0.03 0.05Z" fill="#668CC5"/>
  <path d="M42.65 13.23l-6.2-4.34c-0.03-0.15-0.03-0.33-0.05-0.51l6.33 4.42-0.08 0.43Z" fill="#698EC9"/>
  <path d="M42.7 13.03l-6.28-4.4L36.4 8.1l6.38 4.5-0.07 0.43Z" fill="#6D91CA"/>
  <path d="M42.73 12.8L36.4 8.38V7.84l6.4 4.52c0 0.13-0.02 0.28-0.07 0.44Z" fill="#7193CB"/>
  <path d="M42.78 12.6L36.4 8.1V7.64 7.6l6.43 4.5c0 0.15-0.02 0.3-0.05 0.48Z" fill="#7595CD"/>
  <path d="M42.8 12.36l-6.4-4.52v-0.2-0.28l6.46 4.52c0 0.15-0.03 0.3-0.05 0.48Z" fill="#7797CE"/>
  <path d="M42.83 12.1L36.4 7.62v-0.5l6.46 4.51c0 0.15 0 0.33-0.03 0.49Z" fill="#7D9ACD"/>
  <path d="M42.86 11.88L36.4 7.36V6.85l6.46 4.52v0.5Z" fill="#7F9CCE"/>
  <path d="M42.86 11.62L36.4 7.1c0-0.15 0-0.33-0.03-0.54l6.46 4.55c0.03 0.15 0.03 0.33 0.03 0.51Z" fill="#83A0CE"/>
  <path d="M42.86 11.37L36.4 6.85c-0.03-0.18-0.03-0.36-0.08-0.57l6.49 4.55c0.02 0.18 0.05 0.36 0.05 0.54Z" fill="#85A2CF"/>
  <path d="M42.83 11.11l-6.46-4.55L36.3 6l6.47 4.55c0.05 0.18 0.07 0.36 0.07 0.56Z" fill="#89A5D1"/>
  <path d="M42.8 10.83l-6.48-4.55c0-0.15-0.05-0.35-0.08-0.56l6.44 4.5c0.05 0.2 0.1 0.4 0.13 0.61Z" fill="#8EA8D2"/>
  <path d="M42.76 10.55L36.3 6l-0.1-0.56 6.35 4.44c0.08 0.2 0.16 0.44 0.2 0.67Z" fill="#95ADD5"/>
  <path d="M42.68 10.22l-6.44-4.5c-0.02-0.15-0.05-0.33-0.1-0.5l-0.02-0.09 6.23 4.37c0.12 0.23 0.23 0.46 0.33 0.72Z" fill="#9BB2D8"/>
  <path d="M42.55 9.88L36.2 5.44c0-0.08-0.02-0.15-0.05-0.23-0.08-0.18-0.1-0.3-0.1-0.38l6.03 4.21c0.18 0.26 0.35 0.54 0.48 0.84Z" fill="#9FB6DB"/>
  <path d="M42.35 9.5l-6.23-4.37c-0.16-0.38-0.08-0.5 0.25-0.33l5.06 3.55c0.08 0.05 0.13 0.13 0.18 0.18 0.3 0.3 0.56 0.61 0.74 0.97Z" fill="#A7BCDE"/>
  <path d="M42.07 9.04l-6.03-4.21c0.02-0.13 0.13-0.13 0.36 0 0.35 0.13 0.69 0.28 1.02 0.46l3.14 2.2c0.36 0.33 0.71 0.68 1.05 1.04 0.18 0.15 0.3 0.33 0.46 0.51Z" fill="#ADC0E3"/>
  <path d="M41.43 8.35L36.37 4.8l0.03 0.03c1.96 0.79 3.62 2.02 5.03 3.52Z" fill="#B2C3E1"/>
  <path d="M40.56 7.48l-3.14-2.2c1.15 0.6 2.2 1.34 3.14 2.2Z" fill="#BBC9E2"/>
  <path d="M15.73 37.65c-0.1-1.2 0.08-2.63 0.34-3.96 0.15-0.92-0.41-0.97-0.72-0.95-0.5 0.08-1.15 0.57-1.63 2.86-0.39 2.3-0.26 4.3 0.48 5.52 0.61 1.02 1.3 1 1.87 0.44 0.94-0.9 1.96-3.02 2.65-4.63 0.16-0.3 0.23-0.53 0.39-0.79 0.1-0.2 0.5-0.18 0.48-0.08v0.39c0.26 0 0.1-0.26 0.59-0.26 0.33 0 0.53 0.23 0.61 0.7 0.15 0.73-0.02 1.96-0.02 1.96 0.4-0.44 0.79-1.53 1.12-3.07 0.08-0.2 0.69-0.5 0.66-0.23 0 0.23-0.23 2.5-0.18 3.33 0 0.6 0.16 0.84 0.39 0.38 0.46-0.92 0.84-2.45 0.84-2.45 0.13-0.44 0.61-0.44 0.61-0.16 0.03 0.36 0.16 0.87 0.2 1.18 0.14 0.84 0.67 0.15 0.75-0.15 0.28-1.2 0.56-1.84 1.07-2.79 0.18-0.38 0.59-0.4 0.72 0.2 0.12 0.67-0.2 2.61-0.16 3.02 0.13 0 0.62-1.69 0.95-2.15 0.2-0.33 0.69-0.56 0.92-0.05 0.18 0.41 0.3 0.8 0.38 1.1 0.1 0.38 0.38 0.28 0.54 0.05 0.2-0.33 1.07-2.94 1.15-3.06L31 33.2c0.66 0 0.53 0.21 0.48 0.5 0 0-0.1 3.26-0.15 3.77 0.03 0.18 0.23 0.46 0.26 0.3 0.02-0.17 0.86-1.68 0.89-1.6 0 0 0.05 0.66-0.03 1.02-0.15 0.26-0.53 1.02-0.89 1.76-0.26 0.44-0.36 0.7-0.64 0.39-0.3-0.26-0.23-2.5-0.1-3.55 0.03-0.52-0.15-0.26-0.28 0-0.3 0.66-0.7 2.06-1.15 2.68-0.36 0.46-0.59 0.36-0.8 0 0 0-0.2-0.49-0.45-0.92-0.2-0.46-0.3-0.28-0.51 0.15-0.39 0.56-0.85 2.07-1.18 2.63-0.2 0.33-0.48 0.3-0.5 0.08-0.14-0.95 0.1-1.92 0.07-2.91 0.05-0.54-0.2-0.28-0.3-0.1-0.14 0.68-0.52 1.53-0.93 1.91-0.36 0.36-0.66 0.33-0.82 0.1-0.15-0.2-0.2-0.3-0.3-0.61-0.1-0.36-0.13-0.3-0.23 0.03-0.08 0.45-0.67 1.6-0.85 1.89-0.25 0.28-0.74 0.17-0.84-0.2-0.07-0.32-0.15-0.93-0.15-1.29 0.02-0.2-0.08-0.4-0.2-0.23-0.6 0.92-1.33 1.72-1.82 2.25-0.4 0.38-0.71 0.46-1.05 0.2-0.25-0.25-0.53-0.5-0.43-1.63 0.03-0.28-0.05-0.28-0.23 0.05-0.38 0.67-1 1.53-1.58 2.35-0.44 0.62-0.9 0.92-1.61 0.9-0.28 0-1.13-0.36-1.56-1.54-0.44-1.53-0.67-2.6-0.26-5.87 0.18-1.23 1.03-3.04 2.12-4.14 0.36-0.33 1.2-0.38 1.43 0.05 0.44 1.02 0.44 2.17 0.39 3.07 0 0.53-0.16 2.83-0.41 2.99-0.41 0.38-0.61 0.4-0.67-0.03Zm3.86 0.25c-0.56 0.9-0.59 1.18-0.64 2.2 0 0.46 0.36 0.51 0.59 0.13 0.46-0.61 0.66-1.33 0.66-2.02-0.02-0.56-0.3-0.74-0.6-0.3Zm22.27-3.8c0.08 0.36 0.08 0.69 0.1 1.05-0.2 0.28-0.3 0.45-0.53 0.79-0.15 0.28-0.3 0.28-0.49 0.1-0.2-0.15-0.53-0.7-0.69-0.97-0.1-0.16-0.12-0.54-0.35-0.16-0.67 0.95-0.87 2.18-1.2 2.71-0.26 0.54-0.67 0.44-0.67 0.18 0-0.84 0.1-1.84 0.2-2.88-0.02-0.23-0.12-0.49-0.27-0.08-0.34 0.61-0.67 1.4-1.05 2.1-0.44 0.78-0.8 1.1-1.15 1.14-0.41 0.08-0.7-0.36-0.84-0.79-0.18-0.48-0.03-1.5 0.28-2.43 0.23-0.76 0.56-1.45 1-1.83 0.32-0.26 0.76-0.62 1.07-0.31 0.25 0.36 0.25 1.15 0.3 1.25 0.2-0.15 0.56-1.12 0.74-1.63 0.08-0.26 0.39-0.52 0.62-0.26 0.12 0.1 0.28 0.61 0.23 1.02l-0.29 2.3c0.06 0.59 0.49-0.92 0.7-1.46 0.22-0.53 0.58-0.86 0.81-0.89 0.26-0.02 0.44 0.23 0.54 0.54 0.1 0.38 0.18 0.84 0.3 1.02 0.18 0.33 0.36 0.05 0.64-0.51Zm-5.54 0.23c-0.15 0.3-0.3 0.69-0.48 1-0.1 0.35-0.1 0.81-0.13 1.2 0 0.33 0.23 0.63 0.53 0.22 0.44-0.63 0.8-1.53 0.7-2.14-0.13-0.51-0.36-0.67-0.62-0.28Zm14.97-0.46c0.1-0.36 0.3-0.64 0.4-0.9 0.08-0.17 0.6-0.1 0.72 0.16 0.15 0.3 0.13 0.46-0.1 0.92-0.15 0.28-0.33 0.4-0.56 0.58-0.18-0.2-0.62-0.38-0.46-0.76Zm-7.56 1.1l-0.1-0.8c0.38-1.12 0.76-2.24 1.17-3.37 0.13-0.23 0.54-0.23 0.51 0.1-0.2 1.08-0.28 2.15-0.2 3.27 0.07 0.62 0.2 0.77 0.38 0.41l0.92-2.65c0.08-0.23 0.46-0.44 0.51 0 0.03 0.18 0.2 1 0.23 1.25 0.13 0.3 0.3 0.25 0.44 0.07 0.45-0.6 1.25-2.63 1.78-3.57 0.1-0.3 0.33-0.36 0.54-0.13 0.3 0.3 0.25 2.22 0.03 3.78-0.03 0.16-0.06 0.49 0 0.51 0.22 0.03 0.56-0.9 0.89-1.63 0.05 0.25 0.08 0.69 0.13 0.94-0.46 0.92-0.9 1.69-1.36 2.58-0.28 0.39-0.5 0.33-0.5 0.13 0.02-0.56-0.21-1.23-0.34-1.5 0-0.47 0.15-0.7 0.33-0.95 0.03 0.07 0.18 0.33 0.18 0.23 0.08-0.61 0.03-1.18 0.03-1.74s-0.18-0.36-0.41-0.05c-0.36 0.82-0.74 1.58-1.1 2.38-0.26 0.43-0.46 0.58-0.8 0.58-0.2-0.05-0.43-0.3-0.45-0.66-0.05-0.49-0.23-0.38-0.36-0.03-0.25 0.54-0.51 1.36-0.77 1.71-0.23 0.31-0.53 0.34-0.74 0.1-0.28-0.48-0.3-0.96-0.38-1.42 0.03-0.54-0.08-0.6-0.26-0.18-0.12 0.2-0.2 0.46-0.3 0.64Z" fill="#989A9C"/>
  <path d="M16.24 36.75c-0.12-1.22 0.06-2.63 0.34-3.95 0.15-0.92-0.41-1-0.72-0.98-0.54 0.08-1.15 0.6-1.66 2.87-0.36 2.3-0.25 4.29 0.49 5.54 0.6 1 1.32 1 1.89 0.4 0.92-0.89 1.96-2.98 2.65-4.6 0.16-0.3 0.23-0.55 0.36-0.78 0.13-0.2 0.51-0.18 0.48-0.08 0 0 0.03 0.23 0 0.36 0.26 0.02 0.1-0.26 0.62-0.26 0.3 0.03 0.5 0.26 0.61 0.72 0.15 0.74-0.05 1.94-0.05 1.94 0.43-0.44 0.82-1.53 1.15-3.07 0.05-0.2 0.69-0.48 0.66-0.23-0.02 0.26-0.23 2.53-0.2 3.35 0 0.61 0.18 0.84 0.38 0.38 0.49-0.94 0.84-2.47 0.84-2.47 0.13-0.44 0.62-0.41 0.64-0.16 0.03 0.39 0.13 0.9 0.18 1.18 0.16 0.84 0.7 0.18 0.77-0.16 0.28-1.2 0.53-1.83 1.07-2.78 0.18-0.36 0.59-0.38 0.72 0.2 0.1 0.67-0.2 2.61-0.18 3.02 0.13 0.02 0.64-1.66 0.97-2.15 0.2-0.33 0.69-0.56 0.92-0.05 0.15 0.36 0.28 0.73 0.38 1.1 0.1 0.4 0.38 0.28 0.54 0.05 0.18-0.3 1.07-2.94 1.12-3.04 0.13-0.25 0.18-0.53-0.02-0.5-0.2 0.02-0.6 0.17-1 0.22-0.36 0.03-0.4 0-0.4-0.15l0.02-0.72c0-0.3 0.02-0.4 0.18-0.38 0.48-0.03 1.02-0.18 1.3-0.26 0.18-0.05 0.36-0.17 0.36-0.38 0.02-0.51 0.23-1.22 0.43-1.22 0.23 0.02 0.23 0.38 0.15 0.94-0.05 0.28-0.02 0.54 0.13 0.61l0.03 1.05c0 0.23-0.39 0.03-0.39 0.49 0 0-0.12 3.26-0.15 3.75 0 0.18 0.2 0.46 0.26 0.3 0.02-0.17 0.84-1.68 0.89-1.58 0 0 0.02 0.64-0.03 1.02-0.18 0.26-0.56 1.03-0.89 1.74-0.26 0.46-0.38 0.72-0.66 0.41-0.31-0.26-0.2-2.53-0.1-3.55 0.04-0.51-0.13-0.26-0.26-0.03-0.33 0.67-0.7 2.1-1.18 2.71-0.33 0.44-0.56 0.33-0.76 0 0 0-0.2-0.48-0.46-0.92-0.2-0.46-0.33-0.28-0.54 0.13-0.38 0.56-0.82 2.07-1.17 2.66-0.18 0.3-0.46 0.3-0.51 0.07-0.13-0.94 0.12-1.91 0.1-2.93 0.05-0.54-0.23-0.26-0.3-0.1-0.16 0.68-0.52 1.55-0.93 1.9-0.38 0.4-0.69 0.37-0.84 0.11-0.13-0.18-0.2-0.28-0.28-0.61-0.13-0.33-0.13-0.28-0.23 0.05-0.08 0.46-0.7 1.6-0.87 1.89-0.23 0.25-0.74 0.18-0.84-0.23-0.05-0.3-0.13-0.9-0.16-1.25 0.03-0.2-0.05-0.44-0.2-0.23-0.59 0.9-1.3 1.71-1.82 2.22-0.38 0.41-0.71 0.49-1.02 0.2-0.25-0.25-0.53-0.48-0.43-1.63 0.02-0.25-0.05-0.28-0.23 0.05-0.4 0.7-1.02 1.56-1.58 2.35-0.46 0.64-0.9 0.92-1.61 0.92-0.31-0.02-1.13-0.36-1.56-1.56-0.44-1.5-0.7-2.6-0.26-5.87 0.16-1.2 1.02-3.04 2.12-4.14 0.36-0.3 1.18-0.36 1.4 0.08 0.47 1.02 0.47 2.14 0.42 3.04 0 0.56-0.18 2.86-0.44 3.01-0.38 0.36-0.58 0.4-0.64-0.03Zm3.86 0.26c-0.56 0.87-0.59 1.15-0.64 2.2-0.02 0.43 0.36 0.5 0.56 0.1 0.45-0.58 0.7-1.29 0.7-2.02-0.03-0.54-0.34-0.74-0.62-0.28Zm22.27-3.8c0.05 0.35 0.05 0.66 0.1 1.04-0.2 0.28-0.3 0.46-0.56 0.77-0.12 0.28-0.28 0.28-0.46 0.13-0.2-0.18-0.53-0.7-0.69-1-0.1-0.15-0.12-0.54-0.35-0.13-0.7 0.95-0.87 2.15-1.2 2.7-0.26 0.55-0.67 0.42-0.67 0.19-0.02-0.85 0.1-1.84 0.2-2.89-0.02-0.23-0.12-0.48-0.3-0.1-0.3 0.64-0.66 1.43-1.05 2.1-0.4 0.81-0.76 1.1-1.12 1.14-0.41 0.08-0.7-0.35-0.87-0.76-0.18-0.51 0-1.51 0.3-2.45 0.24-0.75 0.57-1.46 1-1.82 0.33-0.25 0.77-0.61 1.08-0.3 0.23 0.35 0.23 1.12 0.3 1.25 0.2-0.16 0.54-1.15 0.72-1.66 0.1-0.23 0.4-0.51 0.61-0.26 0.13 0.1 0.3 0.61 0.26 1.02-0.13 0.77-0.2 1.54-0.29 2.33 0.06 0.58 0.46-0.95 0.7-1.48 0.22-0.54 0.58-0.85 0.81-0.9 0.23 0 0.44 0.23 0.51 0.54 0.13 0.38 0.2 0.84 0.33 1.05 0.16 0.3 0.34 0.05 0.64-0.52Zm-5.57 0.2c-0.12 0.33-0.28 0.71-0.45 1.02-0.13 0.33-0.13 0.82-0.13 1.2-0.03 0.3 0.23 0.64 0.53 0.23 0.41-0.66 0.8-1.56 0.67-2.17-0.1-0.51-0.36-0.66-0.62-0.28Zm14.97-0.46c0.13-0.36 0.3-0.61 0.44-0.9 0.07-0.15 0.58-0.07 0.71 0.18 0.13 0.31 0.1 0.46-0.1 0.92-0.18 0.28-0.36 0.39-0.59 0.56-0.18-0.2-0.59-0.35-0.46-0.76Zm-7.56 1.1c0-0.23-0.08-0.54-0.1-0.77 0.4-1.12 0.8-2.25 1.17-3.37 0.13-0.23 0.54-0.26 0.51 0.1-0.17 1.05-0.25 2.15-0.17 3.27 0.07 0.61 0.2 0.74 0.38 0.4l0.92-2.67c0.08-0.23 0.46-0.44 0.51 0 0.03 0.2 0.2 1 0.23 1.25 0.13 0.3 0.3 0.25 0.4 0.1 0.5-0.64 1.26-2.63 1.82-3.6 0.1-0.3 0.3-0.36 0.54-0.13 0.3 0.3 0.25 2.22 0.02 3.78-0.02 0.18-0.05 0.51 0 0.51 0.2 0.03 0.57-0.86 0.9-1.6 0.05 0.25 0.07 0.66 0.13 0.91-0.46 0.92-0.9 1.69-1.38 2.6-0.28 0.37-0.49 0.32-0.49 0.11 0-0.54-0.23-1.23-0.36-1.5 0.03-0.47 0.16-0.67 0.34-0.93 0.05 0.08 0.2 0.31 0.2 0.23 0.05-0.63 0-1.17 0.03-1.76 0-0.53-0.2-0.33-0.41-0.02-0.36 0.79-0.74 1.55-1.1 2.35-0.26 0.43-0.46 0.58-0.82 0.58-0.2-0.02-0.4-0.28-0.43-0.64-0.05-0.48-0.23-0.4-0.39-0.02-0.25 0.51-0.5 1.33-0.76 1.69-0.2 0.33-0.51 0.33-0.74 0.1-0.28-0.46-0.28-0.95-0.39-1.43 0.03-0.54-0.05-0.59-0.23-0.16-0.12 0.18-0.2 0.44-0.33 0.62Zm-23.4-19.5h-1.35c0.03 0.34 0.13 0.9 0.18 1.2v5.88h1.56V17.5c0.02-1.05 0.51-1.74 1.53-1.56V14.4c-0.87 0-1.17 0.2-1.56 0.56-0.1-0.16-0.2-0.2-0.35-0.41Z" fill="#000000"/>
  <path d="M16.58 16.17c1.5-0.46 2.27-1.2 2.55-3.96 0.36-3.96 0.84-4.62 2.83-4.65 2.38-0.02 2.84 1.66 2.84 5.62h1.69c0.07-6.59-2.66-6.85-4.42-6.82-2.4 0.05-4.3 1.3-4.45 4.5-0.1 2.12-0.07 2.88-0.76 3.93-0.41 0.66-1.77 1.12-1.92 0.61v-4.54h-1.58v10.77h1.66V17.2c0.5-0.36 1.63 0.2 1.79 1.15 0.12 0.8 0.25 3.14 0.6 3.3h1.39c0.07 0 0.13-0.31 0.02-0.8-0.28-2.73-0.64-3.8-2.32-4.4-0.1-0.02-0.15-0.2 0.08-0.27Z" fill="#000000"/>
  <path d="M28.17 17.98c0-2.12-0.79-3.83-2.7-3.83-1.92 0-2.71 1.71-2.71 3.83 0 2.1 0.92 3.83 2.7 3.83 1.8 0 2.71-1.73 2.71-3.83Zm-3.85 0c0-1.28 0.28-2.35 1.1-2.4 0.84-0.05 1.14 1 1.14 2.38 0 1.37-0.25 2.42-1.1 2.42-0.86 0-1.14-1.12-1.14-2.4Zm17.44-2.94c-0.1-0.17-0.2-0.23-0.36-0.43h-1.35c0.03 0.33 0.13 0.9 0.18 1.2v5.85l1.58-0.03v-4.08c0-1.05 0.49-1.74 1.5-1.56v-1.53c-0.86 0-1.17 0.2-1.55 0.58Z" fill="#000000"/>
  <path d="M32.49 14.5c-0.13 0.11-0.23 0.11-0.28 0.29-0.18-0.23-0.59-0.46-1.28-0.44-0.64 0.03-1.3 0.36-1.74 1.13-0.35 0.59-0.4 1.63-0.46 2.73-0.05 1.1 0.16 1.81 0.52 2.48 0.63 1.12 2.22 1.4 2.96 0.61v2.76c0 2.3-1.38 3.52-3 3.55-1.32 0.03-2.62-0.77-2.62-3.4v-1.15h-1.71c0.02 2.58 0.43 3.89 1.78 4.88 1.18 0.9 3.53 1.13 5.19-0.02 1.74-1.28 1.84-2.6 1.84-4.98v-2.5l-0.08-4.68c0-0.49 0.1-0.95 0.3-1.25H32.5Zm-0.41 4.91c0 0.3-0.38 0.84-0.69 0.84-0.87 0-1.02-0.66-1.05-2.17 0.03-2.14 0.44-2.3 1.15-2.32 0.41 0.03 0.59 0.33 0.59 0.64 0.15 1 0.15 2.01 0 3.01Zm4.98-5.18c-0.71-0.03-1.35 0.23-1.81 0.87-0.51 0.74-0.77 1.68-0.77 2.9 0 1.26 0.28 2.23 0.8 2.92 0.45 0.61 0.99 0.82 1.83 0.82 0.67 0 1.23-0.2 1.64-0.67 0.46-0.53 0.74-1.3 0.76-2.17l-1.45-0.02c-0.13 1.2-0.51 1.5-1.1 1.5-0.61 0-0.95-1.43-0.9-2.2h3.48c0.02-1.37 0-2.3-0.59-3.21-0.61-0.67-0.94-0.72-1.89-0.74Zm0.82 2.99h-1.53c-0.1 0-0.16-0.31-0.08-0.67 0.08-0.43 0.13-0.92 0.87-0.97 0.66-0.02 0.74 0.51 0.84 0.97 0.05 0.36 0.03 0.67-0.1 0.67Z" fill="#000000"/>
  <path d="M22.3 5.95h0.33c1.53 0.03 3.58 0.46 4 4.73h-1.65C24.8 8.2 24.11 7.13 22.2 7.15c-1.8 0.03-2.35 0.56-2.74 3.53h-1.63l0.02-0.26c0.16-3.17 2.07-4.44 4.45-4.47Zm-7.13 4.73H13.6v-0.26h1.58v0.26Z" fill="#9991C1"/>
  <path d="M17.85 10.42h1.66l-0.07 0.54h-1.61c0-0.18 0-0.33 0.02-0.54Zm7.1 0h1.66l0.06 0.54h-1.69l-0.03-0.54Zm-9.78 0.54H13.6v-0.54h1.58v0.54Z" fill="#9991C1"/>
  <path d="M13.59 10.68h1.58v0.53H13.6v-0.53Zm4.24 0h1.63c0 0.18-0.02 0.35-0.05 0.53h-1.6c0.02-0.15 0.02-0.33 0.02-0.53Zm7.15 0h1.66c0.03 0.18 0.03 0.35 0.05 0.53H25l-0.02-0.53Z" fill="#9E95C1"/>
  <path d="M13.59 10.96h1.58v0.53H13.6v-0.53Zm4.24 0h1.6l-0.04 0.53H17.8c0-0.18 0.03-0.35 0.03-0.53Zm7.15 0h1.69c0.02 0.18 0.02 0.35 0.05 0.53H25c0-0.18 0-0.35-0.02-0.53Z" fill="#A299C4"/>
  <path d="M13.59 11.21h1.58v0.54H13.6v-0.54Zm4.21 0h1.61c-0.02 0.18-0.02 0.36-0.05 0.54h-1.58c0.02-0.15 0.02-0.33 0.02-0.54Zm7.2 0h1.7l0.02 0.54h-1.69c-0.02-0.18-0.02-0.36-0.02-0.54Z" fill="#A6A0C8"/>
  <path d="M13.59 11.5h1.58v0.53H13.6v-0.54Zm4.21 0h1.59c0 0.1-0.03 0.17-0.03 0.27-0.03 0.08-0.03 0.18-0.03 0.26h-1.55l0.02-0.54Zm7.2 0h1.72v0.53h-1.69c0-0.18 0-0.36-0.02-0.54Z" fill="#ABA4CC"/>
  <path d="M13.59 11.75h1.58v0.54H13.6v-0.54Zm4.19 0h1.58v0.02c-0.03 0.18-0.05 0.36-0.05 0.52h-1.56c0.03-0.16 0.03-0.34 0.03-0.54Zm7.25 0h1.69v0.54h-1.69v-0.54Z" fill="#AFA9D1"/>
  <path d="M13.59 12.03h1.58v0.54H13.6v-0.54Zm4.19 0h1.55l-0.07 0.54h-1.53c0.02-0.18 0.02-0.36 0.05-0.54Zm7.25 0h1.69c0 0.18 0.02 0.36 0 0.54h-1.69v-0.54Z" fill="#B4B0D5"/>
  <path d="M13.59 12.29h1.58v0.53H13.6V12.3Zm4.16 0h1.56l-0.1 0.53H17.7c0.03-0.15 0.03-0.33 0.05-0.53Zm7.28 0h1.69c0.02 0.15 0.02 0.33 0 0.48h-1.69V12.3Z" fill="#B8B4D8"/>
  <path d="M13.59 12.57h1.58v0.53H13.6v-0.53Zm4.14 0h1.53c-0.03 0.18-0.05 0.35-0.1 0.53h-1.51l0.08-0.53Zm7.3 0h1.69v0.2h-1.69v-0.2Z" fill="#BDB9DB"/>
  <path d="M13.59 12.82h1.58v0.54H13.6v-0.54Zm4.11 0h1.5c-0.02 0.2-0.07 0.38-0.1 0.54h-1.53c0.05-0.15 0.08-0.33 0.13-0.54Z" fill="#C2BEDB"/>
  <path d="M13.59 13.1h1.58v0.54H13.6V13.1Zm4.06 0h1.5c-0.02 0.18-0.07 0.36-0.12 0.54h-1.56c0.08-0.18 0.13-0.36 0.18-0.54Z" fill="#C7C3DB"/>
  <path d="M13.59 13.36h1.58v0.53H13.6v-0.53Zm3.98 0h1.54l-0.18 0.53h-1.56c0.07-0.17 0.15-0.33 0.2-0.53Zm20.7 0.53h-1.75c0.23-0.05 0.49-0.1 0.77-0.07 0.43 0 0.72 0.02 0.97 0.07Zm-11.6 0h-1.92c0.28-0.1 0.59-0.15 0.94-0.15 0.39 0 0.7 0.05 0.98 0.15Z" fill="#CAC6DD"/>
  <path d="M13.59 13.64h1.58v0.54H13.6v-0.54Zm3.88 0h1.56c-0.08 0.2-0.13 0.38-0.2 0.54H17.2c0.1-0.18 0.2-0.36 0.26-0.54Zm26.1 0.4v0.14h-0.94c0.23-0.1 0.51-0.16 0.94-0.13Zm-4.77 0.14h-2.81c0.36-0.29 0.82-0.39 1.3-0.36 0.74 0 1.1 0.05 1.5 0.36Zm-4.7 0h-1.5l0.14-0.1h1.4l-0.04 0.1Zm-1.87 0H30.3c0.28-0.16 0.59-0.23 0.87-0.26 0.51 0 0.84 0.1 1.07 0.26Zm-5.08 0h-2.89c0.39-0.29 0.85-0.44 1.43-0.44 0.6 0 1.08 0.15 1.46 0.44Zm-4.19 0h-1.05c0.26-0.13 0.57-0.2 1.05-0.18v0.18Zm-1.89 0H19.7v-0.06h1.36l0.02 0.06Z" fill="#CAC8DE"/>
  <path d="M13.59 13.9h1.58v0.53H13.6V13.9Zm3.78 0h1.56c-0.08 0.2-0.16 0.38-0.26 0.53h-1.6s0.02-0.02 0.02-0.05c0.13-0.18 0.2-0.33 0.28-0.49Zm7.38 0h1.92c0.3 0.12 0.56 0.3 0.79 0.53h-3.5c0.2-0.23 0.48-0.4 0.79-0.54Zm11.77 0h1.74c0.3 0.1 0.54 0.25 0.82 0.53h-3.4c0.23-0.25 0.54-0.43 0.84-0.54Zm7.05 0.15v0.38H42.2c0.31-0.25 0.64-0.4 1.38-0.38Zm-1.7 0.38H40.3l-0.02-0.25h1.35c0.08 0.12 0.16 0.2 0.23 0.25Zm-7.87 0h-4.1c0.36-0.3 0.8-0.48 1.26-0.5 0.72 0 1.1 0.2 1.28 0.45 0.05-0.2 0.18-0.2 0.3-0.3h1.4c-0.04 0.1-0.1 0.22-0.14 0.35Zm-11.04 0h-1.43c0.33-0.28 0.67-0.46 1.43-0.43v0.43Zm-1.63 0h-1.61l-0.03-0.3h1.36c0.1 0.15 0.17 0.22 0.28 0.3Z" fill="#CAC8DE"/>
  <path d="M13.59 14.18h1.58v0.53H13.6v-0.53Zm3.63 0h1.6c-0.1 0.2-0.2 0.38-0.33 0.53h-1.7c0.12-0.1 0.22-0.23 0.3-0.33l0.13-0.2Zm2.47 0h1.38c0.13 0.17 0.23 0.23 0.33 0.38 0.18-0.15 0.34-0.28 0.51-0.38h1.05v0.53h-3.2c-0.02-0.2-0.04-0.38-0.07-0.53Zm4.57 0h2.89c0.2 0.15 0.38 0.33 0.54 0.53h-3.96c0.15-0.2 0.33-0.38 0.53-0.53Zm6.03 0h1.94c0.08 0.05 0.16 0.12 0.2 0.2 0.03-0.13 0.08-0.15 0.16-0.2h1.5c-0.07 0.15-0.12 0.33-0.17 0.53h-4.27c0.2-0.23 0.41-0.4 0.64-0.53Zm5.7 0h2.8c0.11 0.1 0.24 0.2 0.4 0.38 0.02 0.05 0.07 0.1 0.1 0.15h-3.84c0.03-0.02 0.03-0.02 0.03-0.05 0.15-0.2 0.33-0.36 0.5-0.48Zm6.64 0h0.94v0.53h-3.21c-0.03-0.2-0.08-0.38-0.08-0.53h1.35c0.16 0.2 0.26 0.28 0.36 0.43 0.2-0.18 0.38-0.33 0.64-0.43Z" fill="#CDCADF"/>
  <path d="M13.59 14.43h1.58v0.54H13.6v-0.54Zm3.47 0h1.61c-0.1 0.2-0.25 0.38-0.4 0.54h-1.92c0.28-0.13 0.53-0.3 0.71-0.54Zm2.66 0h1.6l0.08 0.13c0.05-0.05 0.1-0.08 0.13-0.13h1.43v0.54h-3.14c-0.03-0.16-0.08-0.36-0.1-0.54Zm4.24 0h3.5c0.15 0.18 0.28 0.36 0.38 0.54h-4.3c0.14-0.18 0.26-0.36 0.42-0.54Zm5.95 0H34c-0.06 0.18-0.1 0.36-0.13 0.54h-4.4c0.13-0.2 0.29-0.39 0.44-0.54Zm5.77 0h3.4c0.02 0.05 0.08 0.08 0.1 0.13 0.1 0.13 0.18 0.28 0.23 0.4H35.3l0.18-0.3 0.2-0.23Zm4.62 0h1.56c0.05 0.05 0.1 0.1 0.13 0.18 0.08-0.05 0.13-0.13 0.2-0.18h1.38v0.54h-3.16c-0.05-0.16-0.08-0.36-0.1-0.54Z" fill="#CDCADF"/>
  <path d="M13.59 14.71h1.58v0.26c0.13 0.43 1.05 0.2 1.61-0.26h1.71c-0.15 0.2-0.36 0.39-0.56 0.54h-4.34V14.7Zm6.18 0h3.2v0.54h-3.1c-0.02-0.15-0.08-0.36-0.1-0.54Zm3.96 0h3.96c0.1 0.16 0.2 0.33 0.3 0.54H26.1c-0.12-0.08-0.28-0.1-0.46-0.1-0.12 0-0.23 0.05-0.33 0.1h-1.89c0.07-0.2 0.18-0.38 0.3-0.54Zm5.92 0h4.27c-0.03 0.18-0.05 0.36-0.05 0.54h-4.55c0.03-0.08 0.08-0.13 0.1-0.18l0.23-0.36Zm5.8 0h3.83c0.1 0.18 0.18 0.36 0.26 0.54h-1.76c-0.1-0.05-0.26-0.08-0.41-0.08-0.16 0-0.28 0.03-0.39 0.08h-1.81c0.08-0.18 0.18-0.36 0.28-0.54Zm4.9 0h3.22v0.54h-3.11c-0.03-0.15-0.08-0.36-0.1-0.54Z" fill="#D0CDDE"/>
  <path d="M13.59 14.97h1.58c0.1 0.33 0.67 0.25 1.18 0h1.91c-0.23 0.23-0.5 0.4-0.82 0.53H13.6v-0.53Zm6.23 0h3.14v0.53c-0.2-0.02-0.4-0.02-0.59 0H19.9v-0.17l-0.08-0.36Zm3.73 0h4.29c0.1 0.18 0.18 0.36 0.26 0.53h-1.72c-0.17-0.23-0.4-0.38-0.74-0.35-0.12 0-0.24 0.05-0.35 0.1-0.11 0.07-0.2 0.15-0.28 0.25h-1.72c0.08-0.17 0.16-0.35 0.26-0.53Zm5.92 0h4.4v0.53h-1.74c-0.08-0.07-0.23-0.15-0.4-0.15-0.26 0-0.5 0.03-0.67 0.15h-1.81c0.05-0.15 0.1-0.3 0.17-0.43 0-0.03 0.03-0.05 0.05-0.1Zm5.83 0h4.11c0.08 0.18 0.15 0.36 0.2 0.53h-1.58c-0.13-0.2-0.3-0.35-0.66-0.33-0.39 0.03-0.59 0.16-0.7 0.33h-1.63c0.08-0.17 0.16-0.35 0.26-0.53Zm5.1 0h3.17v0.53h-3.09v-0.12l-0.07-0.41Z" fill="#D0CDDE"/>
  <path d="M13.59 15.25h4.34c-0.33 0.2-0.69 0.36-1.12 0.48l-0.08 0.06h-3.14v-0.54Zm6.28 0h3.1v0.25c-0.47-0.07-0.85 0.03-1.1 0.29H19.9v-0.46c-0.03-0.03-0.03-0.06-0.03-0.08Zm3.55 0h1.9c-0.21 0.1-0.37 0.28-0.47 0.54h-1.63c0.05-0.18 0.13-0.36 0.2-0.54Zm2.68 0H28c0.07 0.18 0.12 0.36 0.2 0.54H26.5c-0.1-0.26-0.23-0.44-0.4-0.54Zm3.22 0h4.55v0.54h-1.59c-0.05-0.23-0.23-0.44-0.56-0.44-0.38 0-0.69 0.05-0.87 0.44h-1.68l0.15-0.54Zm5.85 0h1.81c-0.25 0.1-0.35 0.3-0.4 0.54h-1.61c0.05-0.18 0.1-0.36 0.2-0.54Zm2.6 0h1.77c0.05 0.18 0.1 0.36 0.13 0.54h-1.54c-0.07-0.23-0.15-0.44-0.35-0.54Zm2.69 0h3.11v0.3c-0.46-0.07-0.79 0.03-1.04 0.24h-2.05v-0.41c-0.02-0.03-0.02-0.08-0.02-0.13Z" fill="#D2CFE0"/>
  <path d="M13.59 15.5h3.85c-0.2 0.1-0.41 0.18-0.63 0.23-0.23 0.08-0.18 0.26-0.08 0.28 0.03 0.03 0.08 0.03 0.1 0.03H13.6V15.5Zm6.3 0h2.48c-0.3 0.08-0.53 0.29-0.69 0.54H19.9V15.5Zm3.4 0h1.72c-0.1 0.16-0.2 0.34-0.26 0.54h-1.6l0.14-0.54Zm3.1 0h1.7c0.08 0.18 0.13 0.36 0.16 0.54H26.6c-0.04-0.19-0.12-0.37-0.23-0.54Zm2.86 0h1.8c-0.12 0.1-0.22 0.29-0.3 0.54h-1.63c0.02-0.18 0.07-0.36 0.13-0.54Zm2.88 0h1.74v0.54H32.3v-0.08c0-0.15-0.05-0.33-0.18-0.46Zm2.91 0h1.64c-0.1 0.18-0.13 0.36-0.18 0.54h-1.61c0.03-0.18 0.1-0.36 0.15-0.54Zm3 0h1.57c0.06 0.18 0.08 0.36 0.1 0.54h-1.53c-0.02-0.18-0.07-0.36-0.15-0.54Zm2.44 0h3.1v0.06c-0.62-0.1-1.05 0.1-1.28 0.48h-1.82V15.5Z" fill="#D2CFE0"/>
  <path d="M13.59 15.78h3.14c-0.13 0.08-0.1 0.2 0 0.23 0.26 0.1 0.48 0.2 0.66 0.31h-3.8v-0.54Zm6.3 0h1.97c-0.12 0.13-0.23 0.31-0.3 0.54H19.9v-0.54Zm3.33 0h1.63c-0.07 0.16-0.13 0.34-0.18 0.54H23.1c0.02-0.18 0.08-0.36 0.13-0.54Zm3.3 0h1.68c0.05 0.18 0.07 0.36 0.1 0.54h-1.61c-0.05-0.2-0.1-0.38-0.18-0.54Zm2.65 0h1.68c-0.07 0.13-0.12 0.31-0.17 0.54h-1.61c0.02-0.18 0.07-0.38 0.1-0.54Zm3.11 0h1.59v0.54h-1.5l-0.06-0.36c0-0.05 0-0.12-0.03-0.18Zm2.69 0h1.6l-0.07 0.36c-0.03 0.05-0.03 0.13-0.03 0.18h-1.63c0.02-0.18 0.08-0.36 0.13-0.54Zm3.16 0h1.54c0.05 0.18 0.07 0.36 0.07 0.54h-1.5c0-0.05-0.03-0.13-0.03-0.2l-0.08-0.34Zm2.35 0h2.05c-0.16 0.13-0.28 0.31-0.36 0.54h-1.69v-0.54Z" fill="#D3D1E1"/>
  <path d="M13.59 16.04h3.24c0.39 0.15 0.7 0.33 0.95 0.54h-4.2v-0.54Zm6.3 0h1.8c-0.1 0.15-0.16 0.36-0.21 0.54H19.9v-0.54Zm3.25 0h1.61c-0.05 0.18-0.1 0.36-0.13 0.54h-1.58c0.02-0.18 0.07-0.36 0.1-0.54Zm3.47 0h1.64c0.05 0.18 0.08 0.36 0.1 0.54h-1.6c-0.03-0.18-0.08-0.36-0.14-0.54Zm2.5 0h1.64c-0.05 0.15-0.07 0.33-0.1 0.54h-1.6l0.07-0.54Zm3.2 0h1.56v0.54h-1.48l-0.08-0.54Zm2.58 0h1.6v0.1c-0.02 0.18-0.04 0.33-0.02 0.44H34.8c0.02-0.18 0.05-0.36 0.1-0.54Zm3.3 0h1.53c0.02 0.18 0.05 0.36 0.05 0.54h-1.53c0.02-0.1 0-0.28-0.03-0.46 0-0.03-0.03-0.05-0.03-0.08Zm2.3 0h1.8c-0.1 0.16-0.17 0.34-0.2 0.54h-1.6v-0.54Z" fill="#D5D2E1"/>
  <path d="M13.59 16.32h3.8c0.26 0.14 0.48 0.32 0.67 0.54h-1.79c-0.36-0.2-0.77-0.28-1.02-0.1v0.1h-1.66v-0.54Zm6.3 0h1.67c-0.05 0.15-0.08 0.33-0.1 0.54H19.9v-0.54Zm3.2 0h1.58c-0.05 0.18-0.07 0.36-0.07 0.54H23l0.08-0.54Zm3.6 0h1.61c0.05 0.18 0.08 0.36 0.08 0.54h-1.61l-0.08-0.54Zm2.38 0h1.6c-0.02 0.15-0.05 0.33-0.05 0.54h-1.6c0.02-0.18 0.05-0.36 0.05-0.54Zm3.3 0h1.5v0.54H32.4c-0.02-0.18-0.02-0.36-0.05-0.54Zm2.47 0h1.63c-0.02 0.26 0.03 0.46 0.13 0.46h1.53c0.08 0 0.13-0.2 0.1-0.46h1.51c0.03 0.18 0.03 0.36 0.05 0.54h-5.03c0-0.18 0.03-0.36 0.08-0.54Zm5.64 0h1.69c-0.08 0.15-0.1 0.33-0.13 0.54h-1.56v-0.54Z" fill="#D7D5E3"/>
  <path d="M13.59 16.58h4.19c0.2 0.14 0.36 0.33 0.48 0.53h-1.63c-0.44-0.4-1.05-0.58-1.38-0.35v0.35h-1.66v-0.53Zm6.3 0h1.59c-0.03 0.15-0.03 0.33-0.03 0.48v0.05H19.9v-0.53Zm3.15 0h1.58c-0.02 0.18-0.05 0.35-0.05 0.53H23c0.02-0.18 0.02-0.35 0.05-0.53Zm3.7 0h1.61c0.03 0.18 0.05 0.35 0.05 0.53h-1.6l-0.06-0.53Zm2.3 0h1.61c-0.03 0.18-0.05 0.35-0.05 0.53H29c0-0.18 0.03-0.35 0.03-0.53Zm3.35 0h1.48v0.53H32.4c0-0.18 0-0.35-0.02-0.53Zm2.4 0h1.68c0.03 0.12 0.05 0.2 0.13 0.2h1.53c0.05 0 0.08-0.08 0.1-0.2h1.54c0.02 0.18 0.02 0.35 0.02 0.53h-5.05c0-0.18 0.02-0.35 0.05-0.53Zm5.7 0h1.6c-0.05 0.18-0.05 0.35-0.05 0.53h-1.56v-0.53Z" fill="#D7D5E3"/>
  <path d="M13.59 16.86h1.66v0.53h-1.66v-0.53Zm2.68 0h1.79c0.14 0.16 0.26 0.34 0.36 0.53h-1.59c-0.13-0.23-0.33-0.4-0.56-0.53Zm3.63 0h1.55v0.53H19.9v-0.53Zm3.11 0h1.59c-0.03 0.18-0.03 0.36-0.05 0.53h-1.56L23 16.86Zm3.76 0h1.6c0.03 0.18 0.03 0.36 0.03 0.53h-1.6c0-0.17-0.03-0.35-0.03-0.53Zm2.25 0h1.6C30.6 17 30.6 17.19 30.6 17.39h-1.61c0-0.17 0.03-0.35 0.03-0.53Zm3.4 0h1.45l0.02 0.53h-1.45c0-0.17-0.03-0.35-0.03-0.53Zm2.34 0h5.03v0.53h-5.05c0-0.17 0-0.35 0.02-0.53Zm5.72 0h1.56v0.53h-1.56v-0.53Z" fill="#D8D7E4"/>
  <path d="M13.59 17.11h1.66v0.54h-1.66V17.1Zm3.04 0h1.63l0.28 0.54h-1.58c-0.08-0.2-0.18-0.38-0.33-0.54Zm3.27 0h1.55v0.54H19.9V17.1Zm3.09 0h1.58l-0.02 0.44v0.1h-1.56v-0.1-0.44Zm3.8 0h1.61v0.54h-1.6v-0.13-0.4Zm2.23 0h1.58l-0.03 0.54h-1.6c0.02-0.18 0.02-0.36 0.05-0.54Zm3.4 0h1.45l0.02 0.54h-1.45c0-0.18 0-0.36-0.03-0.54Zm2.32 0h5.05v0.54h-5.05v-0.08-0.46Zm5.74 0h1.56v0.54h-1.56V17.1Z" fill="#DAD7E4"/>
  <path d="M13.59 17.4h1.66v0.53h-1.66v-0.54Zm3.24 0h1.59c0.07 0.15 0.15 0.33 0.2 0.53h-1.58c-0.03-0.2-0.1-0.38-0.2-0.54Zm3.07 0h1.55v0.53H19.9v-0.54Zm3.09 0h1.56v0.15c0 0.13 0 0.25 0.02 0.38H23v-0.38-0.16Zm3.8 0h1.61v0.53h-1.6v-0.4-0.14Zm2.2 0h1.6c-0.02 0.07-0.02 0.17-0.02 0.25v0.28h-1.6V17.8l0.02-0.4Zm3.45 0h1.45v0.53h-1.48c0.03-0.18 0.03-0.36 0.03-0.54Zm2.3 0h5.05v0.38h-3.5v0.15h-1.55v-0.36-0.18Zm5.74 0h1.56v0.53h-1.56v-0.54Z" fill="#DDDAE5"/>
  <path d="M13.59 17.65h1.66v0.54h-1.66v-0.54Zm3.37 0h1.58l0.16 0.54h-1.61c-0.03-0.1-0.03-0.18-0.05-0.26 0-0.1-0.03-0.18-0.08-0.28Zm2.94 0h1.55v0.54H19.9v-0.54Zm3.09 0h1.56l0.02 0.54h-1.56C23 18.03 23 17.85 23 17.65Zm3.8 0h1.61c0 0.2 0 0.38-0.02 0.54h-1.61l0.02-0.54Zm2.17 0h1.61c0 0.2 0.03 0.38 0.03 0.54h-1.64V17.8v-0.15Zm3.48 0h1.45v0.54h-1.48c0-0.18 0-0.36 0.03-0.54Zm2.3 0h5.05v0.13h-3.5c0 0.12 0 0.25 0.03 0.4h-1.58v-0.53Zm5.74 0h1.56v0.54h-1.56v-0.54Z" fill="#DDDAE5"/>
  <path d="M13.59 17.93h1.66v0.54h-1.66v-0.54Zm3.45 0h1.58l0.15 0.54h-1.66l-0.07-0.54Zm2.86 0h1.55v0.54H19.9v-0.54Zm3.09 0h1.58c0 0.18 0.03 0.36 0.05 0.54h-1.58C23 18.29 23 18.1 22.99 17.93Zm3.8 0h1.61c0 0.18-0.02 0.36-0.05 0.54h-1.6l0.04-0.54Zm2.17 0h1.61c0.03 0.2 0.03 0.38 0.05 0.54h-1.66v-0.54Zm3.45 0h1.48v0.54h-1.5l0.02-0.54Zm2.33 0h1.55c0 0.15 0.03 0.36 0.06 0.54h-1.59l-0.02-0.54Zm5.74 0h1.56v0.54h-1.56v-0.54Zm-1.17 0.54h-1.02v-0.03l1.02 0.03Z" fill="#DDDCE6"/>
  <path d="M13.59 18.19h1.66v0.53h-1.66V18.2Zm3.5 0h1.6c0.06 0.17 0.1 0.35 0.13 0.53h-1.68c-0.03-0.18-0.05-0.36-0.05-0.53Zm2.8 0h1.56v0.53H19.9V18.2Zm3.12 0h1.56l0.08 0.53h-1.56l-0.08-0.53Zm3.76 0h1.6c0 0.2-0.02 0.38-0.07 0.53h-1.61c0.05-0.15 0.05-0.33 0.08-0.53Zm2.2 0h1.63c0 0.2 0.02 0.38 0.05 0.53h-1.66c-0.03-0.15-0.03-0.33-0.03-0.53Zm3.44 0h1.48v0.53h-1.55l0.07-0.53Zm2.33 0h1.58c0 0.17 0.03 0.35 0.08 0.53H34.8l-0.07-0.53Zm5.74 0h1.56v0.53h-1.56V18.2Zm-0.76 0.53h-1.46c0-0.07 0.03-0.18 0.03-0.28l1.45 0.03c0 0.1 0 0.18-0.02 0.25Z" fill="#DFDDE7"/>
  <path d="M13.59 18.47h1.66V19h-1.66v-0.53Zm3.52 0h1.66c0.03 0.18 0.08 0.35 0.1 0.53h-1.7c-0.03-0.18-0.03-0.38-0.06-0.53Zm2.79 0h1.55V19H19.9v-0.53Zm3.14 0h1.58c0.03 0.18 0.05 0.38 0.1 0.53h-1.58c-0.03-0.18-0.08-0.35-0.1-0.53Zm3.7 0h1.61c-0.02 0.18-0.05 0.35-0.1 0.53h-1.61c0.05-0.15 0.08-0.33 0.1-0.53Zm2.22 0h1.66c0 0.2 0.03 0.38 0.08 0.53h-1.66l-0.08-0.53Zm3.43 0h1.5V19h-1.58l0.08-0.53Zm2.37 0h1.59c0.02 0.18 0.05 0.35 0.1 0.53h-1.59c-0.05-0.18-0.07-0.35-0.1-0.53Zm3.53 0h1.45c0 0.18-0.02 0.35-0.05 0.53h-1.48l0.08-0.53Zm2.2 0h1.55V19h-1.56v-0.53Z" fill="#E0DFE8"/>
  <path d="M13.59 18.72h1.66v0.54h-1.66v-0.54Zm3.55 0h1.68c0.03 0.18 0.08 0.36 0.1 0.54H17.2c0-0.18-0.03-0.36-0.05-0.54Zm2.76 0h1.55l-0.02 0.54H19.9v-0.54Zm3.19 0h1.56c0.05 0.2 0.1 0.39 0.18 0.54h-1.61c-0.06-0.18-0.1-0.36-0.13-0.54Zm3.6 0h1.61c-0.02 0.18-0.07 0.36-0.13 0.54h-1.6c0.05-0.18 0.1-0.36 0.12-0.54Zm2.3 0h1.66c0.03 0.23 0.05 0.41 0.13 0.54h-1.69c-0.05-0.15-0.07-0.33-0.1-0.54Zm3.35 0h1.55l0.03 0.54h-1.69c0.05-0.08 0.08-0.18 0.08-0.26 0-0.1 0.03-0.18 0.03-0.28Zm2.47 0h1.59c0.02 0.2 0.07 0.39 0.15 0.54h-1.63c-0.03-0.15-0.08-0.33-0.1-0.54Zm3.45 0h1.46c0 0.2-0.03 0.39-0.08 0.54h-1.5c0.04-0.13 0.07-0.3 0.12-0.54Zm2.22 0h1.56v0.54h-1.56v-0.54Z" fill="#E2E0E8"/>
  <path d="M13.59 19h1.66v0.54h-1.66V19Zm3.57 0h1.72l0.07 0.54h-1.7L17.15 19Zm2.74 0h1.55l-0.02 0.54H19.9V19Zm3.24 0h1.58c0.06 0.2 0.13 0.39 0.23 0.54h-1.63c-0.08-0.18-0.13-0.36-0.18-0.54Zm3.5 0h1.6l-0.14 0.54h-1.66c0.07-0.15 0.15-0.33 0.2-0.54Zm2.4 0h1.66c0.05 0.23 0.1 0.41 0.2 0.54h-1.73c-0.05-0.18-0.1-0.36-0.13-0.54Zm3.27 0h1.58l0.03 0.54h-1.84c0.13-0.18 0.23-0.38 0.23-0.54Zm2.55 0h1.59c0.05 0.2 0.13 0.39 0.2 0.54h-1.63c-0.08-0.17-0.13-0.35-0.16-0.54Zm3.35 0h1.48c-0.02 0.18-0.05 0.36-0.1 0.54H38c0.07-0.13 0.15-0.3 0.2-0.54Zm2.27 0h1.56v0.54h-1.56V19Z" fill="#E3E2E9"/>
  <path d="M13.59 19.26h1.66v0.53h-1.66v-0.53Zm3.6 0h1.74L19 19.79h-1.73l-0.08-0.53Zm2.7 0h1.54v0.53H19.9v-0.53Zm3.33 0h1.6c0.08 0.23 0.21 0.43 0.39 0.53h-1.79c-0.09-0.17-0.15-0.35-0.2-0.53Zm3.34 0h1.61c-0.05 0.18-0.11 0.36-0.2 0.53h-1.79c0.18-0.1 0.28-0.28 0.38-0.53Zm2.53 0h1.69c0.1 0.3 0.28 0.48 0.56 0.53h-2.07c-0.08-0.15-0.13-0.33-0.18-0.53Zm3.14 0h1.69v0.53h-2.15c0.18-0.07 0.36-0.3 0.46-0.53Zm2.69 0h1.63c0.08 0.23 0.18 0.43 0.3 0.53h-1.73c-0.09-0.17-0.16-0.35-0.2-0.53Zm3.21 0h1.51c-0.03 0.2-0.08 0.38-0.15 0.53h-1.71c0.12-0.1 0.25-0.25 0.35-0.53Zm2.35 0h1.56v0.53h-1.56v-0.53Z" fill="#E5E3E9"/>
  <path d="M13.59 19.54h1.66v0.54h-1.66v-0.54Zm3.65 0h1.71l0.08 0.54h-1.74c-0.02-0.18-0.05-0.36-0.05-0.54Zm2.66 0h1.53v0.54H19.9v-0.54Zm3.42 0h1.63c0.18 0.28 0.41 0.43 0.74 0.43 0.34 0 0.57-0.15 0.75-0.43h1.66c-0.08 0.18-0.16 0.36-0.26 0.54h-4.27c-0.1-0.18-0.17-0.36-0.25-0.54Zm5.85 0h1.74c0.17 0.2 0.4 0.3 0.74 0.3 0.12 0 0.3-0.12 0.43-0.3h1.84v0.54H29.4c-0.1-0.18-0.15-0.36-0.23-0.54Zm5.85 0h1.63c0.16 0.25 0.33 0.43 0.54 0.43 0.36 0 0.61-0.1 0.82-0.43h1.58c-0.08 0.18-0.13 0.36-0.23 0.54h-4.11c-0.1-0.17-0.18-0.35-0.23-0.54Zm5.46 0h1.56v0.54h-1.56v-0.54Z" fill="#E6E5ED"/>
  <path d="M13.59 19.8h1.66v0.56h-1.66v-0.57Zm3.68 0H19c0 0.17 0.03 0.35 0.05 0.56h-1.7l-0.08-0.57Zm2.63 0h1.53v0.56H19.9v-0.57Zm3.52 0h1.79c0.13 0.12 0.28 0.17 0.48 0.17 0.2 0 0.36-0.05 0.49-0.18h1.79c-0.08 0.2-0.18 0.39-0.3 0.57h-3.94l-0.3-0.57Zm5.85 0h2.07c0.1 0.03 0.2 0.05 0.3 0.05 0.03 0 0.08-0.03 0.13-0.06h2.15v0.57h-4.37l-0.05-0.1c-0.1-0.13-0.15-0.29-0.23-0.47Zm5.85 0h1.74c0.1 0.1 0.2 0.17 0.33 0.17 0.23 0 0.4-0.05 0.59-0.18h1.7c-0.07 0.2-0.15 0.39-0.27 0.57h-3.8c-0.11-0.18-0.21-0.36-0.29-0.57Zm5.36 0h1.56v0.56h-1.56v-0.57Z" fill="#E8E6ED"/>
  <path d="M13.59 20.08h1.66v0.53h-1.66v-0.53Zm3.7 0h1.74l0.02 0.35c0.03 0.05 0.03 0.13 0.06 0.18h-1.72l-0.1-0.53Zm2.6 0h1.54v0.53H19.9v-0.53Zm3.68 0h4.27c-0.1 0.2-0.23 0.38-0.38 0.53h-3.5c-0.16-0.15-0.29-0.34-0.39-0.53Zm5.83 0h4.52v0.53h-4.19c-0.08-0.1-0.18-0.23-0.23-0.36-0.05-0.05-0.08-0.1-0.1-0.17Zm5.85 0h4.11c-0.1 0.2-0.2 0.38-0.33 0.53H35.6c-0.05-0.02-0.07-0.07-0.1-0.1-0.1-0.13-0.18-0.28-0.25-0.43Zm5.23 0h1.56v0.53h-1.56v-0.53Z" fill="#E8E8EE"/>
  <path d="M13.59 20.36h1.66v0.53h-1.66v-0.53Zm3.75 0h1.71v0.07c0.06 0.18 0.06 0.34 0.08 0.46h-1.66c-0.06-0.17-0.1-0.35-0.13-0.53Zm2.56 0h1.53v0.53H19.9v-0.53Zm3.83 0h3.93c-0.13 0.2-0.3 0.38-0.48 0.53h-2.94c-0.19-0.16-0.36-0.34-0.51-0.53Zm5.82 0h4.37v0.53h-1.48H30c-0.18-0.15-0.33-0.33-0.46-0.53Zm5.85 0h3.8c-0.04 0.1-0.12 0.2-0.22 0.28l-0.23 0.25h-2.89c-0.13-0.12-0.23-0.23-0.36-0.38-0.02-0.05-0.07-0.1-0.1-0.15Zm5.08 0h1.56v0.53h-1.56v-0.53Z" fill="#EBEBEF"/>
  <path d="M13.59 20.61h1.66v0.54h-1.66V20.6Zm3.8 0h1.72c0.02 0.26 0.02 0.44-0.03 0.54h-1.5c-0.08-0.1-0.14-0.28-0.19-0.54Zm2.5 0h1.54v0.54H19.9V20.6Zm4.07 0h3.5c-0.2 0.23-0.44 0.41-0.72 0.54h-2.1c-0.25-0.13-0.49-0.32-0.68-0.54Zm5.77 0h4.19v0.54h-1.48v-0.28c-0.1 0.13-0.23 0.2-0.36 0.28h-1.61c-0.25-0.13-0.54-0.3-0.74-0.54Zm5.87 0h3.43c-0.03 0-0.03 0.03-0.05 0.03-0.18 0.23-0.44 0.4-0.7 0.5h-1.96c-0.28-0.1-0.51-0.27-0.72-0.53Zm4.88 0h1.56v0.54h-1.56V20.6Z" fill="#EBEBEF"/>
  <path d="M13.59 20.9h1.66v0.3h-1.66v-0.3Zm3.88 0h1.66c0 0.2-0.05 0.3-0.1 0.3h-1.38c-0.08-0.03-0.13-0.13-0.18-0.3Zm2.43 0h1.53v0.33H19.9v-0.34Zm4.34 0h2.94c-0.41 0.3-0.9 0.48-1.49 0.48-0.56 0-1.07-0.18-1.45-0.49Zm5.77 0h2.43c-0.56 0.58-1.66 0.56-2.43 0Zm2.43 0h1.48v0.53h-1.48v-0.54Zm3.42 0h2.89c-0.39 0.27-0.85 0.43-1.4 0.43-0.62 0-1.1-0.13-1.49-0.44Zm4.62 0h1.56v0.33h-1.56v-0.34Z" fill="#EDECF0"/>
  <path d="M13.59 21.15h1.66v0.05h-1.66v-0.05Zm3.98 0h1.5c0 0.05-0.02 0.05-0.04 0.05h-1.38c-0.03 0-0.05-0.03-0.08-0.05Zm2.33 0h1.53v0.08H19.9v-0.08Zm4.75 0h2.1c-0.31 0.15-0.65 0.23-1.06 0.23-0.36 0-0.71-0.08-1.04-0.23Zm5.82 0h1.61c-0.46 0.23-1.07 0.23-1.6 0Zm1.97 0h1.48v0.53h-1.48v-0.53Zm3.88 0h1.97c-0.28 0.13-0.6 0.18-0.95 0.18-0.4 0-0.74-0.05-1.02-0.18Zm4.16 0h1.56v0.08h-1.56v-0.08Z" fill="#EEEEF1"/>
  <path d="M32.44 21.43h1.48v0.54h-1.48v-0.54Z" fill="#EEEEF1"/>
  <path d="M32.44 21.68h1.48v0.54h-1.48v-0.54Z" fill="#F1F1F2"/>
  <path d="M32.44 21.97h1.48v0.53h-1.48v-0.53Z" fill="#F4F4F4"/>
  <path d="M32.44 22.22h1.48v0.54h-1.46l-0.02-0.54Zm-5.62 0.54H25.1v-0.13h1.7v0.13Z" fill="#F4F4F7"/>
  <path d="M32.44 22.5h1.48v0.54h-1.46l-0.02-0.54Zm-5.62 0.54H25.1v-0.41h1.7v0.4Z" fill="#F6F5F7"/>
  <path d="M25.1 22.76h1.72v0.53h-1.69c-0.02-0.17-0.02-0.35-0.02-0.53Zm7.36 0h1.46v0.53h-1.46v-0.53Z" fill="#F7F8F8"/>
  <path d="M25.1 23.04h1.72v0.53h-1.69c0-0.17 0-0.35-0.02-0.53Zm7.36 0h1.46c0 0.18 0 0.36-0.03 0.53h-1.43v-0.53Z" fill="#FAF9F9"/>
  <path d="M25.13 23.3h1.69v0.53h-1.66l-0.03-0.54Zm7.33 0h1.46c0 0.17-0.03 0.35-0.03 0.53h-1.43V23.3Z" fill="#FBFDFF"/>
  <path d="M25.13 23.57h1.69v0.54h-1.64c-0.02-0.18-0.02-0.36-0.05-0.54Zm7.33 0h1.43c0 0.18 0 0.36-0.02 0.54h-1.43l0.02-0.46v-0.07Z" fill="#FFFFFF"/>
  <path d="M25.16 23.83h1.66c0.02 2.6 1.3 3.4 2.65 3.37 1.54-0.02 2.92-1.2 3-3.37h1.42c-0.07 1.58-0.4 2.66-1.81 3.68-0.77 0.5-1.66 0.74-2.53 0.76h-0.23c-0.94-0.02-1.84-0.3-2.42-0.74-1.13-0.84-1.59-1.89-1.74-3.7Z" fill="#FFFFFF"/>
  <path d="M29.8 28h-0.22c-0.95-0.03-1.84-0.29-2.43-0.75-1.35-1-1.76-2.32-1.79-4.9h1.71v1.15c0 2.63 1.3 3.45 2.64 3.42 1.6-0.02 2.98-1.25 3-3.55l-0.02-1.15h1.48c0 2.38-0.1 3.73-1.83 5-0.77 0.54-1.66 0.75-2.53 0.77Z" fill="#9991C1"/>
  <path d="M34.18 22.43h-1.49v-0.44h1.49v0.44Zm-7.1 0h-1.72v-0.08h1.71v0.08Z" fill="#9991C1"/>
  <path d="M34.18 22.22h-1.49v-0.46h1.49v0.46Z" fill="#9E95C1"/>
  <path d="M34.18 22h-1.49v-0.47h1.49V22Z" fill="#A299C4"/>
  <path d="M34.18 21.76h-1.49v-0.43h1.49v0.43Z" fill="#A6A0C8"/>
  <path d="M34.17 21.53H32.7V21.1h1.48v0.43Z" fill="#ABA4CC"/>
  <path d="M34.17 21.33H32.7v-0.46h1.48v0.46Zm-20.33-0.39v-0.07h1.66v0.07h-1.66Zm3.99-0.07h1.5c0 0.05-0.02 0.05-0.05 0.07H17.9l-0.07-0.07Zm2.3 0h1.55v0.07h-1.55v-0.07Zm4.77 0H27c-0.3 0.15-0.67 0.23-1.05 0.23s-0.74-0.08-1.05-0.23Zm5.83 0h1.6c-0.45 0.23-1.07 0.23-1.6 0Zm5.85 0h1.96c-0.28 0.13-0.61 0.18-0.94 0.18-0.41 0-0.74-0.05-1.02-0.18Zm4.13 0h1.59v0.07H40.7v-0.07Z" fill="#AFA9D1"/>
  <path d="M34.17 21.1H32.7v-0.46h1.48v0.46Zm-8.04 0h-0.36c-0.48-0.03-0.9-0.2-1.22-0.46h2.8c-0.33 0.25-0.74 0.43-1.22 0.46Zm-12.29-0.16v-0.3h1.66v0.3h-1.66Zm3.89-0.3h1.63c0 0.18-0.02 0.28-0.08 0.3H17.9c-0.07-0.02-0.12-0.15-0.17-0.3Zm2.4 0h1.55v0.3h-1.55v-0.3Zm10.21 0h2.3c-0.56 0.56-1.58 0.53-2.3 0Zm5.83 0h2.76c-0.36 0.28-0.82 0.4-1.33 0.4-0.59 0-1.05-0.12-1.43-0.4Zm4.54 0h1.59v0.3H40.7v-0.3Z" fill="#B4B0D5"/>
  <path d="M42.3 20.87H40.7v-0.44h1.59v0.44Zm-3.76 0h-1.96c-0.26-0.1-0.46-0.26-0.64-0.44h3.24c-0.18 0.18-0.4 0.33-0.64 0.44Zm-4.37 0H32.7v-0.28c-0.1 0.12-0.23 0.2-0.35 0.28h-1.61c-0.23-0.1-0.46-0.26-0.67-0.44h4.11v0.44Zm-7.17 0h-2.1c-0.23-0.1-0.43-0.26-0.61-0.44h3.32c-0.18 0.18-0.38 0.34-0.61 0.44Zm-5.32 0h-1.55v-0.44h1.55v0.44Zm-2.35 0h-1.5c-0.08-0.13-0.14-0.28-0.16-0.44h1.69c0.03 0.2 0 0.36-0.03 0.44Zm-3.83 0h-1.66v-0.44h1.66v0.44Z" fill="#B8B4D8"/>
  <path d="M42.3 20.64H40.7V20.2h1.59v0.44Zm-3.37 0h-2.76c-0.16-0.1-0.28-0.23-0.41-0.41 0 0 0-0.03-0.03-0.03h3.66l-0.16 0.16c-0.07 0.12-0.18 0.2-0.3 0.28Zm-4.76 0H32.7v-0.05c-0.02 0.02-0.02 0.05-0.05 0.05h-2.3c-0.18-0.1-0.33-0.26-0.46-0.44h4.3v0.44Zm-6.82 0h-2.8c-0.18-0.13-0.33-0.27-0.46-0.44h3.72c-0.13 0.17-0.28 0.31-0.45 0.44Zm-5.67 0h-1.55V20.2h1.55v0.44Zm-2.32 0h-1.63c-0.06-0.1-0.08-0.26-0.1-0.44h1.68c0.05 0.18 0.05 0.34 0.05 0.44Zm-3.86 0h-1.66V20.2h1.66v0.44Z" fill="#BDB9DB"/>
  <path d="M42.3 20.43H40.7v-0.46h1.59v0.46Zm-3.12 0h-3.24c-0.08-0.07-0.13-0.12-0.18-0.2l-0.18-0.26h3.93c-0.07 0.15-0.16 0.28-0.28 0.39 0 0.02-0.02 0.05-0.05 0.07Zm-5 0h-4.12c-0.12-0.12-0.23-0.27-0.3-0.43l-0.03-0.03h4.44v0.46Zm-6.57 0h-3.32c-0.13-0.15-0.26-0.3-0.36-0.46H28c-0.12 0.16-0.23 0.31-0.38 0.46Zm-5.93 0h-1.55v-0.46h1.55v0.46Zm-2.32 0h-1.69c-0.05-0.15-0.07-0.3-0.1-0.46h1.71c0.03 0.06 0.03 0.1 0.03 0.18 0.02 0.1 0.02 0.18 0.05 0.28Zm-3.86 0h-1.66v-0.46h1.66v0.46Z" fill="#C2BEDB"/>
  <path d="M42.3 20.2H40.7v-0.46h1.59v0.46Zm-2.92 0h-3.65c-0.1-0.15-0.18-0.28-0.25-0.46h4.16c-0.08 0.18-0.18 0.31-0.26 0.46Zm-5.2 0h-4.3L29.76 20l-0.13-0.26h4.54v0.46Zm-6.37 0H24.1l-0.31-0.46h4.34c-0.1 0.18-0.2 0.31-0.3 0.46Zm-6.13 0h-1.55v-0.46h1.55v0.46Zm-2.37 0h-1.69l-0.07-0.46h1.7c0.03 0.13 0.03 0.26 0.06 0.41v0.05Zm-3.8 0h-1.67v-0.46h1.66v0.46Z" fill="#C7C3DB"/>
  <path d="M42.3 19.97H40.7v-0.43h1.59v0.43Zm-2.79 0h-3.93c-0.08-0.12-0.15-0.28-0.23-0.43h1.76c0.1 0.08 0.2 0.15 0.33 0.15 0.23 0 0.41-0.05 0.57-0.15h1.73c-0.07 0.15-0.13 0.3-0.23 0.43Zm-5.34 0h-4.44c-0.08-0.15-0.15-0.28-0.2-0.43h2.06l0.29 0.02 0.15-0.02h2.14v0.43Zm-6.18 0h-4.06c-0.1-0.12-0.18-0.28-0.25-0.43h1.76c0.15 0.1 0.33 0.16 0.51 0.15 0.18 0 0.36-0.05 0.49-0.15h1.78c-0.07 0.15-0.14 0.3-0.23 0.43Zm-6.3 0h-1.56v-0.43h1.55v0.43Zm-2.4 0h-1.72c-0.02-0.15-0.05-0.28-0.05-0.43h1.71c0.03 0.13 0.05 0.28 0.05 0.43Zm-3.79 0h-1.66v-0.43h1.66v0.43Z" fill="#CAC6DD"/>
  <path d="M42.3 19.74H40.7v-0.43h1.59v0.43Zm-2.66 0h-4.16c-0.09-0.13-0.15-0.28-0.2-0.43h1.65c0.13 0.23 0.31 0.38 0.51 0.38 0.34 0 0.6-0.1 0.8-0.38h1.58c-0.05 0.15-0.1 0.3-0.18 0.43Zm-5.47 0h-4.54c-0.08-0.12-0.13-0.28-0.2-0.43h1.78c0.15 0.18 0.36 0.25 0.67 0.25 0.15 0 0.28-0.1 0.4-0.25h1.9v0.43Zm-6.05 0h-4.34c-0.08-0.12-0.13-0.28-0.2-0.43h1.65c0.18 0.23 0.41 0.38 0.72 0.38 0.3 0 0.54-0.15 0.69-0.38h1.69l-0.2 0.43Zm-6.44 0h-1.55v-0.43h1.55v0.43Zm-2.42 0h-1.71c-0.03-0.12-0.05-0.28-0.05-0.43h1.7c0.03 0.13 0.06 0.28 0.06 0.43Zm-3.76 0h-1.66v-0.43h1.66v0.43Z" fill="#CAC8DE"/>
  <path d="M42.3 19.54H40.7v-0.46h1.59v0.46Zm-2.56 0h-1.73c0.15-0.1 0.25-0.26 0.33-0.46h1.53c-0.03 0.15-0.08 0.3-0.13 0.46Zm-2.63 0h-1.76l-0.15-0.46h1.63c0.08 0.18 0.15 0.33 0.28 0.46Zm-2.94 0h-2.14c0.15-0.08 0.3-0.28 0.4-0.46h1.72l0.02 0.46Zm-2.58 0h-2.06c-0.08-0.15-0.13-0.3-0.16-0.46h1.69c0.1 0.23 0.28 0.38 0.54 0.46Zm-3.37 0h-1.78c0.15-0.13 0.25-0.28 0.33-0.46h1.63c-0.05 0.15-0.1 0.3-0.18 0.46Zm-2.78 0h-1.76c-0.08-0.15-0.13-0.3-0.18-0.46h1.6c0.11 0.18 0.21 0.33 0.34 0.46Zm-3.76 0h-1.55v-0.46h1.55v0.46Zm-2.45 0h-1.7c-0.03-0.15-0.06-0.3-0.06-0.46h1.71c0.03 0.15 0.05 0.28 0.05 0.46Zm-3.73 0h-1.66v-0.46h1.66v0.46Z" fill="#CAC8DE"/>
  <path d="M42.3 19.3H40.7v-0.45h1.59v0.46Zm-2.48 0h-1.58c0.07-0.12 0.12-0.25 0.17-0.45h1.51c-0.02 0.15-0.05 0.3-0.1 0.46Zm-2.89 0h-1.66c-0.05-0.14-0.1-0.3-0.12-0.45h1.6c0.06 0.18 0.1 0.33 0.18 0.46Zm-2.76 0h-1.89c0.13-0.12 0.2-0.3 0.26-0.45h1.6l0.03 0.46Zm-2.96 0h-1.79c-0.02-0.14-0.07-0.3-0.1-0.45h1.66c0.05 0.2 0.13 0.33 0.23 0.46Zm-2.88 0h-1.7c0.11-0.12 0.16-0.27 0.21-0.45h1.64l-0.15 0.46Zm-3.1 0h-1.65c-0.06-0.14-0.1-0.3-0.13-0.45H25c0.07 0.18 0.15 0.33 0.23 0.46Zm-3.55 0h-1.55v-0.45h1.55v0.46Zm-2.47 0H17.5c-0.03-0.14-0.06-0.3-0.06-0.45h1.72c0.02 0.15 0.02 0.3 0.05 0.46Zm-3.7 0h-1.67v-0.45h1.66v0.46Z" fill="#CDCADF"/>
  <path d="M42.3 19.08H40.7v-0.43h1.59v0.43Zm-2.43 0h-1.53c0.05-0.13 0.1-0.28 0.13-0.43h1.48c0 0.15-0.03 0.28-0.08 0.43Zm-3.04 0H35.2c-0.03-0.15-0.08-0.28-0.1-0.43h1.58l0.15 0.43Zm-2.68 0h-1.71c0.07-0.13 0.13-0.26 0.13-0.36v-0.07h1.58v0.43Zm-3.1 0h-1.68c-0.04-0.14-0.08-0.29-0.1-0.43h1.66c0.03 0.15 0.08 0.3 0.13 0.43Zm-2.65 0h-1.63l0.15-0.43h1.61l-0.13 0.43Zm-3.3 0h-1.6l-0.13-0.43h1.58c0.03 0.15 0.1 0.3 0.16 0.43Zm-3.42 0h-1.55v-0.43h1.55v0.43Zm-2.5 0h-1.71c-0.03-0.15-0.05-0.3-0.05-0.43h1.68l0.08 0.43Zm-3.68 0h-1.66v-0.43h1.66v0.43Z" fill="#CDCADF"/>
  <path d="M42.3 18.85H40.7v-0.43h1.59v0.43Zm-2.38 0h-1.5c0.05-0.13 0.07-0.28 0.1-0.43h1.45c0 0.15-0.02 0.3-0.05 0.43Zm-3.17 0h-1.6c-0.03-0.13-0.08-0.28-0.1-0.43h1.58c0.02 0.15 0.07 0.3 0.12 0.43Zm-2.6 0h-1.61c0-0.05 0.03-0.1 0.03-0.13l0.02-0.3h1.56v0.43Zm-3.17 0h-1.66c-0.05-0.14-0.08-0.29-0.07-0.43h1.63c0.03 0.15 0.05 0.3 0.1 0.43Zm-2.5 0h-1.64c0.06-0.13 0.08-0.28 0.13-0.43h1.59l-0.08 0.43Zm-3.47 0h-1.56c-0.05-0.13-0.08-0.28-0.1-0.43h1.55l0.1 0.43Zm-3.33 0h-1.55v-0.43h1.55v0.43Zm-2.52 0h-1.72c-0.02-0.15-0.05-0.3-0.05-0.43h1.69l0.08 0.43Zm-3.66 0h-1.66v-0.43h1.66v0.43Z" fill="#D0CDDE"/>
  <path d="M42.3 18.65H40.7v-0.46h1.59v0.46Zm-2.35 0h-1.48l0.07-0.46H40c-0.03 0.15-0.03 0.3-0.05 0.46Zm-3.27 0h-1.59l-0.07-0.46h1.58c0 0.15 0.05 0.3 0.08 0.46Zm-2.53 0h-1.58c0.02-0.16 0.05-0.31 0.05-0.46h1.53v0.46Zm-3.22 0h-1.66c-0.02-0.16-0.05-0.31-0.05-0.46h1.63l0.08 0.46Zm-2.4 0h-1.6L27 18.19h1.6l-0.07 0.46Zm-3.58 0h-1.58l-0.08-0.46h1.56c0.03 0.15 0.05 0.3 0.1 0.46Zm-3.27 0h-1.55v-0.46h1.55v0.46Zm-2.57 0h-1.7c-0.02-0.18-0.04-0.34-0.04-0.46h1.66l0.07 0.46Zm-3.6 0h-1.67v-0.46h1.66v0.46Z" fill="#D0CDDE"/>
  <path d="M42.3 18.42H40.7v-0.46h1.59v0.46Zm-2.33 0h-1.45l0.02-0.26L40 18.19c0 0.07-0.03 0.15-0.03 0.23Zm-3.34 0h-1.59c0-0.16-0.02-0.31-0.05-0.46h1.59c0 0.15 0.02 0.3 0.05 0.46Zm-2.48 0h-1.56c0.03-0.16 0.05-0.31 0.05-0.46h1.5v0.46Zm-3.27 0h-1.63c-0.03-0.16-0.03-0.31-0.03-0.46h1.63c0 0.17 0.03 0.3 0.03 0.46Zm-2.32 0h-1.59c0-0.16 0.03-0.31 0.05-0.46h1.61c-0.02 0.15-0.02 0.3-0.07 0.46Zm-3.66 0h-1.55l-0.08-0.46h1.56l0.07 0.46Zm-3.22 0h-1.55v-0.46h1.55v0.46Zm-2.6 0h-1.69c-0.02-0.18-0.05-0.31-0.05-0.46h1.64c0.02 0.15 0.05 0.3 0.1 0.46Zm-3.58 0h-1.66v-0.46h1.66v0.46Z" fill="#D2CFE0"/>
  <path d="M42.3 18.19H40.7v-0.44h1.59v0.44Zm-2.74 0h-1.02v-0.03l1.02 0.03Zm-2.96 0h-1.58c0-0.16-0.03-0.29-0.03-0.44h1.56c0 0.13 0.03 0.28 0.05 0.44Zm-2.45 0h-1.53c0.02-0.16 0.02-0.31 0.05-0.44h1.48v0.44Zm-3.3 0h-1.63v-0.44h1.6c0.03 0.16 0.03 0.3 0.03 0.44Zm-2.24 0H27l0.02-0.44h1.64c-0.03 0.13-0.03 0.28-0.05 0.44Zm-3.76 0H23.3c-0.02-0.16-0.02-0.31-0.05-0.44h1.59l0.02 0.44Zm-3.17 0h-1.55v-0.44h1.55v0.44Zm-2.65 0h-1.66c-0.03-0.18-0.05-0.34-0.05-0.44h1.58c0.05 0.13 0.08 0.28 0.13 0.44Zm-3.53 0h-1.66v-0.44h1.66v0.44Z" fill="#D2CFE0"/>
  <path d="M42.3 17.96H40.7v-0.44h1.59v0.44Zm-5.72 0h-1.59c0-0.13 0-0.29-0.02-0.44h1.58c0 0.13 0 0.28 0.03 0.44Zm-2.43 0h-1.5c0.02-0.16 0.02-0.29 0.02-0.44h1.48v0.44Zm-3.3 0h-1.63v-0.44h1.6c0 0.16 0 0.3 0.03 0.44Zm-2.22 0h-1.6c0-0.13 0-0.29 0.02-0.44h1.6c0 0.16 0 0.3-0.02 0.44Zm-3.8 0h-1.56c-0.03-0.13-0.03-0.29-0.03-0.44h1.56c0 0.16 0.03 0.3 0.03 0.44Zm-3.15 0h-1.55v-0.44h1.55v0.44Zm-2.7 0h-1.64c-0.02-0.13-0.02-0.23-0.05-0.31l-0.02-0.13h1.55c0.06 0.13 0.1 0.28 0.16 0.44Zm-3.48 0h-1.66v-0.44h1.66v0.44Z" fill="#D3D1E1"/>
  <path d="M42.3 17.75H40.7V17.3h1.59v0.46Zm-5.75 0h-1.56c-0.02-0.15-0.02-0.3-0.02-0.46h5.08c0 0.08 0 0.13-0.03 0.2h-3.47v0.26Zm-2.4 0h-1.48V17.3h1.45l0.03 0.46Zm-3.32 0h-1.61v-0.23-0.23h1.6v0.46Zm-2.17 0h-1.64c0.03-0.15 0.03-0.3 0.03-0.46h1.6v0.46Zm-3.83 0h-1.59V17.3h1.56c0 0.15 0 0.3 0.03 0.46Zm-3.15 0h-1.55V17.3h1.55v0.46Zm-2.78 0h-1.58c-0.03-0.05-0.03-0.07-0.03-0.1-0.02-0.13-0.05-0.26-0.1-0.36h1.56l0.15 0.46Zm-3.4 0h-1.66V17.3h1.66v0.46Z" fill="#D5D2E1"/>
  <path d="M42.3 17.52H40.7v-0.46h1.59v0.46Zm-5.75 0h-1.58V17.3v-0.23h5.08c0 0.16 0 0.28-0.03 0.44h-3.47v0.02Zm-2.4 0h-1.48v-0.46h1.45l0.03 0.46Zm-3.32 0h-1.61c0-0.15 0.03-0.3 0.03-0.46h1.58v0.46Zm-2.17 0h-1.61v-0.28-0.18h1.6v0.46Zm-3.86 0h-1.56v-0.25-0.2h1.56v0.45Zm-3.12 0h-1.55v-0.46h1.55v0.46Zm-2.86 0h-1.55c-0.05-0.18-0.13-0.3-0.2-0.46h1.58c0.07 0.16 0.12 0.28 0.17 0.46Zm-3.32 0h-1.66v-0.46h1.66v0.46Z" fill="#D7D5E3"/>
  <path d="M42.3 17.3H40.7v-0.44h1.59v0.43Zm-2.25 0h-5.08c0-0.16 0-0.31 0.02-0.44h5.06v0.43Zm-5.93 0h-1.45v-0.44h1.45v0.43Zm-3.3 0h-1.6c0.03-0.16 0.03-0.31 0.03-0.44h1.6c-0.02 0.13-0.02 0.28-0.02 0.43Zm-2.16 0h-1.61v-0.06c0-0.13 0-0.25-0.03-0.38h1.64v0.43Zm-3.86 0h-1.56v-0.03-0.41h1.59c-0.03 0.13-0.03 0.28-0.03 0.4v0.03Zm-3.12 0h-1.55v-0.44h1.55v0.43Zm-2.93 0h-1.56c-0.08-0.19-0.2-0.31-0.3-0.44h1.63l0.23 0.43Zm-3.25 0h-1.66v-0.44h1.66v0.43Z" fill="#D7D5E3"/>
  <path d="M42.3 17.06H40.7v-0.43h1.59v0.43Zm-2.25 0h-5.08c0.02-0.15 0.02-0.3 0.02-0.43h5.06v0.43Zm-5.93 0h-1.45v-0.43h1.45v0.43Zm-3.3 0h-1.57l0.02-0.43h1.58c0 0.13 0 0.28-0.02 0.43Zm-2.16 0h-1.61c-0.03-0.15-0.03-0.3-0.03-0.43h1.61c0.03 0.13 0.03 0.28 0.03 0.43Zm-3.86 0h-1.56c0-0.15 0-0.3 0.03-0.43h1.56c0 0.13-0.03 0.28-0.03 0.43Zm-3.12 0h-1.55v-0.43h1.58l-0.03 0.15v0.28Zm-3.03 0h-1.59c-0.13-0.18-0.28-0.33-0.46-0.43h1.74c0.13 0.13 0.2 0.28 0.3 0.43Zm-3.15 0h-1.66v-0.43h1.66v0.43Z" fill="#D8D7E4"/>
  <path d="M42.3 16.86H40.7V16.4h1.61c-0.02 0.13-0.02 0.28-0.02 0.43v0.03Zm-2.25 0h-5.06c0-0.18 0.03-0.3 0.03-0.46h1.73c0 0.07 0.06 0.1 0.1 0.1h1.51c0.05 0 0.08-0.03 0.1-0.1h1.56c0 0.15 0.03 0.28 0.03 0.46Zm-5.93 0h-1.45c0-0.16 0-0.3-0.03-0.46h1.48v0.46Zm-3.27 0h-1.6c0.02-0.16 0.02-0.3 0.05-0.46h1.58c0 0.13-0.03 0.28-0.03 0.46Zm-2.2 0h-1.63c0-0.18 0-0.3-0.02-0.46h1.6c0.03 0.15 0.06 0.3 0.06 0.46Zm-3.82 0h-1.59c0-0.16 0.03-0.3 0.05-0.46h1.56c-0.02 0.15-0.02 0.28-0.02 0.46Zm-3.15 0h-1.55V16.4h1.6c-0.02 0.13-0.05 0.25-0.05 0.38v0.08Zm-3.16 0h-1.64c-0.25-0.26-0.53-0.41-0.81-0.46h2.06c0.16 0.13 0.29 0.28 0.39 0.46Zm-3.02 0h-1.66V16.4h1.87c-0.08 0.02-0.15 0.05-0.2 0.1v0.36Z" fill="#DAD7E4"/>
  <path d="M42.3 16.63H40.7v-0.46h1.66c-0.05 0.15-0.07 0.28-0.07 0.46Zm-2.25 0h-5.06c0.03-0.16 0.05-0.3 0.05-0.46h1.66c0.03 0.2 0.05 0.33 0.16 0.33h1.5c0.1 0 0.13-0.13 0.13-0.33h1.53c0 0.15 0 0.3 0.03 0.46Zm-5.93 0h-1.45c-0.03-0.16-0.03-0.3-0.05-0.46h1.5v0.46Zm-3.27 0h-1.58c0-0.16 0.03-0.3 0.05-0.46h1.59c-0.03 0.13-0.03 0.28-0.06 0.46Zm-2.22 0h-1.6l-0.06-0.46h1.61c0.03 0.15 0.05 0.3 0.05 0.46Zm-3.8 0h-1.56c0-0.16 0.02-0.3 0.05-0.46h1.58l-0.07 0.46Zm-3.12 0h-1.58v-0.46h1.63c-0.02 0.15-0.05 0.3-0.05 0.46Zm-3.37 0H16.6c-0.38-0.26-0.84-0.33-1.1-0.13v0.13h-1.66v-0.46h4.01c0.2 0.12 0.36 0.27 0.49 0.46Z" fill="#DDDAE5"/>
  <path d="M42.32 16.4h-1.6v-0.46h1.73c-0.05 0.15-0.1 0.3-0.13 0.46Zm-2.3 0h-1.55c0.02-0.1 0.02-0.26 0-0.46H40c0.02 0.15 0.02 0.3 0.02 0.46Zm-3.27 0h-1.73l0.07-0.46h1.64c-0.03 0.2-0.03 0.36 0.02 0.46Zm-2.63 0h-1.48c0-0.16-0.02-0.3-0.05-0.46h1.53v0.46Zm-3.24 0H29.3c0-0.16 0.02-0.3 0.05-0.46h1.6l-0.07 0.46Zm-2.27 0H27l-0.08-0.46h1.64c0.02 0.15 0.05 0.3 0.05 0.46Zm-3.76 0H23.3c0-0.16 0.03-0.3 0.06-0.46h1.58l-0.08 0.46Zm-3.11 0h-1.61v-0.46h1.7c-0.04 0.15-0.1 0.3-0.1 0.46Zm-3.6 0h-2.07c-0.13-0.03-0.26-0.03-0.36 0h-1.87v-0.46h3.66c0.23 0.12 0.45 0.27 0.63 0.46Z" fill="#DDDAE5"/>
  <path d="M42.37 16.17h-1.66v-0.44h1.87c-0.1 0.13-0.16 0.28-0.2 0.44Zm-2.35 0H38.5c0-0.1 0-0.2-0.02-0.33-0.03-0.03-0.03-0.08-0.03-0.1h1.53C40 15.85 40 16 40.02 16.16Zm-3.32 0h-1.66c0.03-0.16 0.08-0.3 0.1-0.44h1.64c-0.03 0.03-0.03 0.08-0.03 0.13-0.02 0.1-0.05 0.23-0.05 0.3Zm-2.58 0h-1.5c0-0.16-0.03-0.28-0.05-0.44h1.55v0.44Zm-3.21 0h-1.59c0-0.16 0.03-0.3 0.05-0.44h1.64c-0.03 0.13-0.08 0.26-0.1 0.44Zm-2.33 0h-1.6c-0.04-0.15-0.08-0.3-0.14-0.44h1.66l0.08 0.44Zm-3.68 0h-1.58l0.08-0.44H25c-0.05 0.13-0.07 0.28-0.1 0.44Zm-3.14 0h-1.63v-0.44h1.81c-0.08 0.13-0.13 0.28-0.18 0.44Zm-3.9 0h-4.02v-0.44H17c0.35 0.13 0.63 0.28 0.86 0.44Z" fill="#DDDCE6"/>
  <path d="M42.45 15.94h-1.74V15.5h2.07c-0.15 0.1-0.25 0.26-0.33 0.44Zm-2.45 0h-1.53v-0.1l-0.08-0.34h1.53L40 15.94Zm-3.27 0h-1.64c0.03-0.16 0.08-0.28 0.1-0.44h1.62c-0.03 0.1-0.03 0.23-0.06 0.36-0.02 0.03-0.02 0.05-0.02 0.08Zm-2.6 0h-1.54l-0.02-0.26-0.03-0.18h1.58v0.44Zm-3.17 0h-1.61l0.07-0.44h1.69c-0.08 0.13-0.13 0.26-0.15 0.44Zm-2.4 0h-1.64l-0.15-0.44h1.66c0.05 0.16 0.07 0.28 0.13 0.44Zm-3.63 0h-1.58l0.12-0.44h1.61l-0.15 0.44Zm-3.1 0h-1.7V15.5h1.99c-0.13 0.13-0.2 0.28-0.28 0.44Zm-4.33 0h-3.66V15.5H17c-0.16 0.08-0.1 0.2 0 0.23 0.17 0.08 0.35 0.13 0.5 0.2Z" fill="#DFDDE7"/>
  <path d="M42.58 15.73H40.7v-0.46h2.56c-0.3 0.06-0.54 0.23-0.7 0.46Zm-2.6 0h-1.54l-0.13-0.46h1.56c0.05 0.16 0.08 0.31 0.1 0.46Zm-3.2 0h-1.63c0.02-0.15 0.07-0.3 0.12-0.46h1.64c-0.08 0.13-0.1 0.31-0.13 0.46Zm-2.66 0h-1.55v-0.05c0-0.15-0.06-0.28-0.13-0.4h1.66l0.02 0.45Zm-3.11 0h-1.64c0.03-0.15 0.05-0.3 0.1-0.46h1.8c-0.1 0.1-0.19 0.26-0.26 0.46Zm-2.5 0h-1.67c-0.05-0.18-0.1-0.33-0.17-0.46h1.7c0.06 0.16 0.08 0.31 0.13 0.46Zm-3.5 0H23.4l0.15-0.46h1.66c-0.08 0.13-0.15 0.28-0.2 0.46Zm-3.07 0h-1.81v-0.46h2.35c-0.22 0.1-0.41 0.26-0.54 0.46Zm-4.98 0h-3.12v-0.46h3.76c-0.18 0.08-0.36 0.13-0.54 0.2-0.2 0.06-0.2 0.21-0.1 0.26Z" fill="#E0DFE8"/>
  <path d="M42.78 15.5h-2.07v-0.4-0.06h3.1v0.23c-0.44-0.05-0.8 0.03-1.03 0.23Zm-2.86 0H38.4c-0.05-0.17-0.13-0.33-0.26-0.46h1.69c0.02 0.16 0.08 0.31 0.1 0.46Zm-3.11 0H35.2c0.05-0.15 0.1-0.3 0.17-0.46h1.72c-0.16 0.13-0.23 0.29-0.28 0.46Zm-2.69 0h-1.58c-0.05-0.23-0.23-0.43-0.56-0.43-0.39 0-0.7 0.05-0.87 0.43h-1.69c0.03-0.15 0.08-0.3 0.13-0.46h4.55l0.02 0.46Zm-5.7 0h-1.65c-0.07-0.17-0.18-0.32-0.3-0.46h1.8c0.06 0.16 0.13 0.31 0.16 0.46Zm-3.34 0h-1.6l0.15-0.46h1.78c-0.12 0.13-0.23 0.29-0.33 0.46Zm-2.96 0h-2v-0.46h3.1v0.18c-0.49-0.07-0.85 0.03-1.1 0.28Zm-5.13 0h-3.15v-0.46h4.2c-0.29 0.18-0.62 0.31-0.98 0.44-0.05 0-0.07 0-0.07 0.02Z" fill="#E2E0E8"/>
  <path d="M43.8 15.27h-0.02c-0.17-0.02-0.34-0.02-0.51 0H40.7V15.1c0-0.08-0.02-0.16-0.05-0.26h3.14v0.43Zm-3.93 0h-1.56c-0.13-0.23-0.3-0.4-0.69-0.38-0.4 0.03-0.61 0.18-0.71 0.38h-1.64c0.05-0.15 0.13-0.3 0.2-0.43h4.25c0.07 0.13 0.12 0.28 0.15 0.43Zm-5.77 0h-1.66c-0.1-0.12-0.26-0.2-0.46-0.2-0.28 0-0.54 0.03-0.72 0.2h-1.79c0.06-0.15 0.1-0.3 0.18-0.43h4.47c-0.02 0.08-0.02 0.13-0.02 0.2v0.23Zm-5.72 0h-1.71c-0.18-0.28-0.44-0.43-0.77-0.4-0.28 0.02-0.51 0.17-0.7 0.4h-1.65c0.05-0.15 0.1-0.3 0.18-0.43h4.44c0.08 0.13 0.13 0.28 0.2 0.43Zm-5.9 0h-2.35v-0.23c0-0.05-0.03-0.12-0.03-0.2h3.12v0.38c-0.28-0.05-0.54-0.02-0.74 0.05Zm-4.88 0h-3.76v-0.43h1.69c0.15 0.1 0.43 0.1 0.74 0h2.1c-0.24 0.18-0.5 0.33-0.77 0.43Z" fill="#E3E2E9"/>
  <path d="M43.8 15.04h-3.09l-0.07-0.43h3.16v0.43Zm-3.98 0h-1.69c-0.1-0.1-0.28-0.15-0.5-0.15-0.26 0-0.44 0.08-0.54 0.15h-1.72c0.06-0.15 0.13-0.28 0.23-0.43h4.01c0.08 0.15 0.16 0.3 0.2 0.43Zm-5.72 0h-4.55l0.13-0.25c0.02-0.05 0.05-0.13 0.1-0.18h4.37c-0.03 0.15-0.05 0.28-0.05 0.43Zm-5.83 0h-1.8c-0.16-0.12-0.34-0.17-0.57-0.17-0.18 0.02-0.33 0.07-0.49 0.17h-1.78l0.23-0.43h4.18c0.1 0.13 0.18 0.28 0.23 0.43Zm-5.05 0h-3.1c0-0.1-0.04-0.25-0.07-0.43h3.17v0.43Zm-5.19 0h-4.19v-0.43h1.59v0.08c0.1 0.35 0.79 0.25 1.35-0.08h1.81c-0.17 0.18-0.35 0.33-0.56 0.43Z" fill="#E5E3E9"/>
  <path d="M43.8 14.84h-3.14l-0.07-0.46h3.21v0.46Zm-4.08 0h-4.24c0.07-0.15 0.15-0.3 0.25-0.46h3.78c0.08 0.15 0.16 0.3 0.2 0.46Zm-5.6 0h-4.47c0-0.03 0-0.03 0.03-0.05 0.08-0.15 0.18-0.28 0.28-0.41h4.21c-0.02 0.15-0.05 0.3-0.05 0.46Zm-5.95 0h-4.44c0.07-0.18 0.18-0.3 0.28-0.46h3.88c0.1 0.15 0.2 0.28 0.28 0.46Zm-4.95 0H20.1l-0.08-0.46h3.2v0.46Zm-4.86 0h-2.09c0.28-0.1 0.59-0.26 0.82-0.46h1.68c-0.12 0.18-0.25 0.33-0.4 0.46Zm-2.83 0h-1.69v-0.46h1.59v0.3c0.02 0.08 0.05 0.1 0.1 0.16Z" fill="#E6E5ED"/>
  <path d="M43.8 14.61h-3.16l-0.08-0.46h1.56c0.05 0.05 0.07 0.1 0.13 0.18 0.07-0.05 0.12-0.13 0.17-0.18h1.38v0.46Zm-4.19 0h-4c0.02-0.08 0.07-0.15 0.12-0.23l0.2-0.23h3.4l0.1 0.13c0.08 0.1 0.13 0.2 0.18 0.33Zm-5.46 0h-4.37c0.12-0.16 0.24-0.32 0.38-0.46h4.1c-0.06 0.15-0.11 0.3-0.11 0.46Zm-6.1 0h-4.2l0.34-0.46h3.52c0.13 0.15 0.23 0.3 0.33 0.46Zm-4.83 0h-3.17l-0.08-0.46h1.59l0.1 0.13 0.13-0.13h1.43v0.46Zm-4.63 0h-1.8c0.2-0.13 0.37-0.28 0.5-0.46h1.64c-0.1 0.18-0.2 0.33-0.34 0.46Zm-3.16 0h-1.59v-0.46h1.59v0.46Z" fill="#E8E6ED"/>
  <path d="M43.8 14.38H40.6c-0.03-0.15-0.06-0.3-0.06-0.43h1.38c0.13 0.17 0.23 0.23 0.34 0.38 0.17-0.15 0.33-0.3 0.53-0.38h1.02v0.43Zm-4.29 0h-3.78c0.13-0.18 0.28-0.33 0.44-0.43h2.9c0.14 0.07 0.24 0.17 0.37 0.33l0.07 0.1Zm-5.34 0h-4.21c0.15-0.18 0.33-0.33 0.51-0.43h2.07l0.15 0.15c0.03-0.08 0.05-0.13 0.08-0.15h1.56l-0.16 0.43Zm-6.28 0h-3.88c0.13-0.15 0.28-0.3 0.43-0.43h3.02c0.18 0.12 0.3 0.28 0.43 0.43Zm-4.67 0h-3.2c-0.05-0.15-0.05-0.3-0.07-0.43h1.4c0.13 0.12 0.2 0.2 0.3 0.33 0.16-0.13 0.29-0.26 0.44-0.33h1.13v0.43Zm-4.45 0H17.1c0.1-0.08 0.2-0.18 0.25-0.28 0.05-0.05 0.08-0.1 0.1-0.15h1.61c-0.1 0.15-0.17 0.3-0.28 0.43Zm-3.34 0h-1.59v-0.43h1.59v0.43Z" fill="#E8E8EE"/>
  <path d="M43.8 14.15h-1.38c0.34-0.26 0.67-0.4 1.38-0.38v0.38Zm-1.68 0h-1.56c-0.03-0.08-0.03-0.18-0.03-0.23l1.36-0.03c0.07 0.13 0.15 0.2 0.23 0.26Zm-2.79 0h-3.4c0.19-0.18 0.4-0.33 0.62-0.43h2.2c0.2 0.1 0.38 0.23 0.58 0.43Zm-5.08 0h-4.09c0.26-0.2 0.54-0.36 0.82-0.43h1.07c0.31 0.07 0.52 0.23 0.64 0.38 0.05-0.2 0.16-0.2 0.28-0.3h1.43c-0.05 0.1-0.12 0.22-0.15 0.35Zm-6.54 0H24.2c0.18-0.18 0.38-0.33 0.61-0.43h2.32c0.21 0.1 0.41 0.25 0.6 0.43Zm-4.5 0H21.8c0.28-0.26 0.56-0.4 1.12-0.43h0.3v0.43Zm-1.65 0h-1.59c-0.02-0.1-0.02-0.2-0.02-0.3h1.35c0.1 0.15 0.18 0.22 0.26 0.3Zm-2.63 0h-1.64c0.03 0 0.05-0.03 0.05-0.05 0.1-0.13 0.16-0.26 0.23-0.38h1.56c-0.05 0.15-0.12 0.3-0.2 0.43Zm-3.5 0h-1.59v-0.43h1.59v0.43Z" fill="#EBEBEF"/>
  <path d="M43.8 13.95h-1.02c0.23-0.13 0.54-0.2 1.02-0.18v0.18Zm-1.89 0h-1.38v-0.03l1.36-0.03 0.02 0.06Zm-2.83 0h-2.91c0.38-0.31 0.86-0.44 1.38-0.41 0.76 0 1.12 0.05 1.53 0.4Zm-4.75 0h-1.56c0.08-0.06 0.13-0.08 0.2-0.16h1.43l-0.07 0.16Zm-1.79 0h-2.07c0.3-0.2 0.61-0.29 0.95-0.29 0.53-0.02 0.89 0.1 1.12 0.29Zm-5.08 0h-3.02c0.28-0.23 0.64-0.39 1.02-0.46h0.98c0.4 0.07 0.74 0.23 1.02 0.46Zm-4.24 0h-1.13c0.26-0.16 0.6-0.26 1.13-0.23v0.23Zm-1.87 0h-1.4v-0.1h1.35c0.03 0.04 0.05 0.07 0.05 0.1Zm-2.3 0h-1.6c0.1-0.16 0.17-0.31 0.22-0.46h1.56c-0.05 0.17-0.13 0.3-0.18 0.46Zm-3.62 0h-1.59v-0.46h1.59v0.46Z" fill="#EBEBEF"/>
  <path d="M38.75 13.72h-2.2c0.3-0.13 0.64-0.2 1-0.18 0.56 0 0.89 0.02 1.2 0.18Zm-6.7 0h-1.07c0.16-0.06 0.28-0.06 0.44-0.06 0.25-0.02 0.46 0 0.63 0.06Zm-4.92 0H24.8c0.33-0.18 0.72-0.26 1.15-0.26 0.46 0 0.84 0.08 1.18 0.26Zm-8 0h-1.56c0.08-0.16 0.16-0.31 0.2-0.46h1.54c-0.05 0.17-0.1 0.33-0.18 0.46Zm-3.7 0h-1.59v-0.46h1.59v0.46Z" fill="#EDECF0"/>
  <path d="M26.44 13.49h-0.98c0.16-0.03 0.31-0.03 0.49-0.03s0.33 0 0.49 0.03Zm-7.2 0h-1.57c0.08-0.16 0.13-0.28 0.16-0.44h1.53l-0.13 0.44Zm-3.81 0h-1.59v-0.44h1.59v0.44Z" fill="#EEEEF1"/>
  <path d="M19.31 13.26h-1.53c0.05-0.13 0.07-0.28 0.1-0.44h1.53c-0.02 0.15-0.08 0.3-0.1 0.44Zm-3.88 0h-1.59v-0.44h1.59v0.44Z" fill="#EEEEF1"/>
  <path d="M19.36 13.05h-1.53c0.05-0.15 0.07-0.3 0.1-0.46h1.53c-0.02 0.16-0.07 0.3-0.1 0.46Zm-3.93 0h-1.59V12.6h1.59v0.46Z" fill="#F1F1F2"/>
  <path d="M19.41 12.82h-1.53c0.05-0.15 0.08-0.28 0.08-0.46h1.53l-0.08 0.46Zm-3.98 0h-1.59v-0.46h1.59v0.46Zm9.86-0.46h1.68v0.13H25.3v-0.13Z" fill="#F4F4F4"/>
  <path d="M19.46 12.6h-1.53c0.03-0.14 0.05-0.29 0.05-0.44h1.56l-0.08 0.43Zm-4.03 0h-1.59v-0.44h1.59v0.43Zm9.86-0.44h1.68v0.33H25.3v-0.33Z" fill="#F4F4F7"/>
  <path d="M26.97 12.36H25.3v-0.43h1.68v0.43Zm-7.48 0h-1.53c0.02-0.13 0.05-0.28 0.05-0.43h1.55l-0.07 0.43Zm-4.06 0h-1.59v-0.43h1.59v0.43Z" fill="#F6F5F7"/>
  <path d="M26.97 12.16H25.3V11.7h1.68v0.46Zm-7.43 0h-1.56c0.03-0.16 0.03-0.3 0.05-0.46h1.56c-0.03 0.15-0.05 0.3-0.05 0.46Zm-4.11 0h-1.59V11.7h1.59v0.46Z" fill="#F7F8F8"/>
  <path d="M26.97 11.93H25.3c0-0.16 0-0.3-0.03-0.46h1.71v0.46Zm-7.4 0H18l0.02-0.46h1.59v0.02c-0.03 0.16-0.06 0.31-0.06 0.44Zm-4.14 0h-1.59v-0.46h1.59v0.46Z" fill="#FAF9F9"/>
  <path d="M26.97 11.7H25.3c-0.03-0.15-0.03-0.3-0.03-0.44h1.69c0.02 0.13 0.02 0.29 0.02 0.44Zm-7.38 0h-1.56c0-0.13 0-0.28 0.03-0.44h1.58c-0.02 0.08-0.02 0.16-0.02 0.23-0.03 0.08-0.03 0.16-0.03 0.2Zm-4.16 0h-1.59v-0.44h1.59v0.44Z" fill="#FBFDFF"/>
  <path d="M26.97 11.47h-1.71v-0.44h1.69l0.02 0.44Zm-7.35 0h-1.59c0-0.13 0.03-0.28 0.03-0.44h1.58l-0.02 0.44Zm-4.2 0h-1.58v-0.44h1.59v0.44Z" fill="#FFFFFF"/>
  <path d="M26.95 11.26h-1.69c-0.08-3.09-0.69-4.41-2.8-4.39-1.95 0.03-2.46 0.67-2.82 4.4h-1.58c0-0.34 0.02-0.7 0.05-1.13 0.15-3.17 2.07-4.44 4.44-4.47h0.31c1.63 0.03 3.86 0.51 4.09 5.6Zm-11.52 0h-1.59v-1.12h1.59v1.12Z" fill="#FFFFFF"/>
  <path d="M35.02 10.73l0.92 0.46c0.02 0.05 0.02 0.1 0.05 0.15-0.13 0.03-0.33 0-0.77-0.43-0.07-0.05-0.15-0.1-0.2-0.18Z" fill="#3A6DB4"/>
  <path d="M35.94 11.34l-0.51-0.23-0.2-0.2c-0.25-0.18-0.48-0.37-0.7-0.57l1.38 0.64 0.08 0.36h-0.05Z" fill="#3C70B5"/>
  <path d="M35.94 11.19l-0.92-0.46-0.95-0.77 1.79 0.84 0.08 0.39Z" fill="#3E72B7"/>
  <path d="M35.91 10.98l-1.38-0.64-0.56-0.46c-0.08-0.07-0.13-0.12-0.15-0.2l2.02 0.95 0.07 0.35Z" fill="#4275B9"/>
  <path d="M35.86 10.8l-1.79-0.84-0.1-0.08c-0.13-0.12-0.2-0.28-0.26-0.4l2.1 0.97c0.02 0.12 0.02 0.23 0.05 0.35Z" fill="#4276BA"/>
  <path d="M35.84 10.63l-2.02-0.95c-0.08-0.13-0.13-0.26-0.16-0.4l2.12 0.99 0.06 0.36Z" fill="#4678BB"/>
  <path d="M35.81 10.45l-2.1-0.97c-0.05-0.13-0.07-0.26-0.1-0.39l2.15 1c0.02 0.13 0.02 0.23 0.05 0.36Z" fill="#487BBB"/>
  <path d="M35.78 10.27l-2.12-1c-0.02-0.13-0.05-0.25-0.05-0.36l2.15 1c0 0.13 0 0.23 0.02 0.36Z" fill="#4A7CBC"/>
  <path d="M35.76 10.09l-2.15-1-0.02-0.35 2.14 1c0 0.12 0.03 0.22 0.03 0.35Z" fill="#4F80BC"/>
  <path d="M35.76 9.91l-2.15-1c-0.02-0.1-0.02-0.17-0.02-0.28V8.56l2.12 1c0.02 0.12 0.02 0.22 0.05 0.35Z" fill="#5380BC"/>
  <path d="M35.73 9.73l-2.14-1v-0.1c0-0.07-0.03-0.15-0.05-0.25l2.17 1 0.02 0.35Z" fill="#5784BE"/>
  <path d="M35.7 9.55l-2.11-1L33.5 8.2l2.2 1.02v0.33Z" fill="#5A84C0"/>
  <path d="M35.7 9.37l-2.16-1c0-0.12-0.03-0.22-0.06-0.35l2.2 1.02 0.03 0.33Z" fill="#5E88C2"/>
  <path d="M35.7 9.22L33.52 8.2c-0.02-0.13-0.02-0.26-0.05-0.36l2.22 1.02c0 0.13 0 0.23 0.03 0.36Z" fill="#628AC4"/>
  <path d="M35.68 9.04l-2.2-1.02-0.07-0.38 2.27 1.07v0.33Z" fill="#668CC5"/>
  <path d="M35.68 8.86l-2.22-1.02c-0.03-0.13-0.05-0.25-0.1-0.38l2.3 1.07 0.02 0.33Z" fill="#698EC9"/>
  <path d="M35.68 8.71l-2.27-1.07-0.08-0.36 2.33 1.07c0 0.13 0 0.23 0.02 0.36Z" fill="#6D91CA"/>
  <path d="M35.66 8.53l-2.3-1.07-0.08-0.39 2.38 1.13v0.33Z" fill="#7193CB"/>
  <path d="M35.66 8.35l-2.33-1.07c-0.05-0.15-0.07-0.28-0.1-0.4l2.43 1.14v0.33Z" fill="#7595CD"/>
  <path d="M35.65 8.2l-2.37-1.12-0.13-0.39 2.48 1.15 0.02 0.1V8.2Z" fill="#7797CE"/>
  <path d="M35.66 8.02l-2.43-1.15c-0.05-0.13-0.1-0.25-0.13-0.38l2.53 1.2c0 0.07 0 0.15 0.03 0.25v0.08Z" fill="#7D9ACD"/>
  <path d="M35.63 7.84L33.15 6.7c-0.05-0.15-0.07-0.28-0.12-0.4l2.6 1.22v0.33Z" fill="#7F9CCE"/>
  <path d="M35.63 7.69l-2.53-1.2-0.15-0.41 2.68 1.25V7.7Z" fill="#83A0CE"/>
  <path d="M35.63 7.5l-2.6-1.22c-0.06-0.12-0.1-0.28-0.18-0.4l2.78 1.27v0.36Z" fill="#85A2CF"/>
  <path d="M35.63 7.33l-2.68-1.25-0.2-0.4L35.6 7c0.03 0.1 0.03 0.2 0.03 0.33Z" fill="#89A5D1"/>
  <path d="M35.63 7.15l-2.78-1.28c-0.06-0.15-0.12-0.3-0.2-0.43l2.96 1.38 0.02 0.33Z" fill="#8EA8D2"/>
  <path d="M35.6 7l-2.86-1.33c-0.05-0.16-0.13-0.32-0.23-0.46l3.1 1.43V7Z" fill="#95ADD5"/>
  <path d="M35.6 6.82l-2.96-1.38c-0.07-0.15-0.15-0.3-0.25-0.46l3.19 1.5C35.6 6.6 35.6 6.7 35.6 6.83Z" fill="#9BB2D8"/>
  <path d="M35.6 6.64l-3.09-1.43c-0.07-0.15-0.17-0.33-0.28-0.46l3.35 1.56c0 0.1 0.03 0.2 0.03 0.33Z" fill="#9FB6DB"/>
  <path d="M35.58 6.49l-3.2-1.5c-0.1-0.19-0.22-0.36-0.35-0.52l3.52 1.66c0.03 0.1 0.03 0.23 0.03 0.36Z" fill="#A7BCDE"/>
  <path d="M35.58 6.3l-3.35-1.55c-0.15-0.2-0.3-0.4-0.46-0.56l3.76 1.76c0.02 0.1 0.02 0.23 0.05 0.36Z" fill="#ADC0E3"/>
  <path d="M35.55 6.13l-3.52-1.66c-0.2-0.23-0.43-0.46-0.66-0.64l4.13 1.94c0.03 0.1 0.05 0.23 0.05 0.36Z" fill="#B2C3E1"/>
  <path d="M35.53 5.95L31.77 4.2c-0.23-0.23-0.48-0.44-0.76-0.59-0.1-0.07-0.16-0.13-0.18-0.18l4.65 2.17c0.02 0.1 0.05 0.23 0.05 0.36Z" fill="#BBC9E2"/>
  <path d="M35.5 5.77l-4.14-1.94c-0.1-0.08-0.23-0.15-0.35-0.23-0.18-0.13-0.26-0.28-0.1-0.33l4.52 2.12 0.07 0.38Z" fill="#C0CEE5"/>
  <path d="M35.48 5.6l-4.65-2.18c-0.05-0.12 0.05-0.2 0.38-0.15l4.16 1.92 0.1 0.4Z" fill="#C7D3E5"/>
  <path d="M35.43 5.39L30.9 3.27c0.07-0.03 0.23-0.03 0.46 0.03l0.43 0.07 3.5 1.64c0.05 0.12 0.1 0.25 0.13 0.38Z" fill="#CDD7E6"/>
  <path d="M35.37 5.19l-4.16-1.92c0.05 0 0.1 0 0.15 0.02l1.1 0.2 2.79 1.31c0.05 0.16 0.07 0.28 0.12 0.39Z" fill="#D4DCE8"/>
  <path d="M35.3 5l-3.5-1.63c0.46 0.08 0.94 0.2 1.43 0.33l1.97 0.9v0.05C35.25 4.78 35.27 4.9 35.3 5Z" fill="#DCE2EB"/>
  <path d="M35.25 4.8l-2.79-1.3 1.64 0.43 1 0.46 0.1 0.26c0.02 0.05 0.02 0.1 0.05 0.15Z" fill="#E0E6EC"/>
  <path d="M35.2 4.6l-1.97-0.9c0.61 0.16 1.18 0.31 1.61 0.46 0.23 0.13 0.28 0.23 0.36 0.44Z" fill="#EAECF1"/>
  <path d="M35.1 4.4l-1-0.47 0.74 0.23c0.13 0.08 0.2 0.16 0.25 0.23Z" fill="#EFF0F2"/>
</svg>
