<svg xmlns="http://www.w3.org/2000/svg" viewBox="0 0 53 21">
  <path d="M49.02 18.13c-0.66-0.34-0.76-1.32-0.75-3.7l0.02-3.66h-1.26l0.28-0.68h0.98V8.36l2.34-0.87v2.54h1.07l-0.28 0.75h-0.8v6.33c0.05 0.5 0.23 0.8 0.47 1.02h-2.07ZM26.04 2.5c0.18 0.5 0.58 1 0.3 1.57-0.15 0.57-0.7 1.04-1.27 1.13-0.6 0.06-1.17-0.05-1.61-0.41-0.32-1.66 0.35-3.2 1.67-4.12l0.9 1.83Z" fill="#B01842"/>
  <path d="M28.36 7.57c-0.3 1-3.27 0.35-4.2-1.3 1.22 0.13 2.6-0.95 2.62-2.19l1.58 3.5Zm1.21-0.13c0.14-0.06 0.41-0.2 0.48-0.49l-3.2-6.93c-0.21-0.03-0.37-0.05-0.64 0.14l3.36 7.28Zm1.44-1.5c1.36-2.06 0.22-5.45-2.71-5.92L31 5.94Zm-0.3 4.43c0.43-0.36 1.18-0.37 1.67-0.14 0.2 0.1 0.4 0.24 0.53 0.42l-0.94 1.47c-0.12-0.1-0.2-0.14-0.36-0.21-0.47-0.2-0.96-0.09-1.24 0.17v4.27c0 0.74 0.12 1.42 0.5 1.77h-2.14c-0.44-0.34-0.55-0.9-0.6-1.37l-0.01-5.69c0.01-0.46-0.1-0.66-0.29-0.92h2.22c0.18 0.14 0.19 0.36 0.29 0.53l0.37-0.3Zm2.71 1.4c-0.02-0.53 0.1-1.18-0.25-1.65h2.06c0.14 0.1 0.21 0.28 0.26 0.44 0.1 0.15 0.1 0.35 0.15 0.52l0.02 6.06c0.08 0.36 0.22 0.73 0.49 1l-2.2 0.01c-0.73-0.7-0.5-1.84-0.55-3.02l0.02-3.35Zm3.26 0.07c0.22-0.62 0.91-0.93 1.42-1.26 0.77-0.29 1.62-0.99 2.48-0.41 0.72 0.47 1.36 1 1.81 1.73 0.11 0.28 0.16 0.6 0.24 0.9 0 0.4 0.09 0.7 0.08 1.1 0.02 0.44 0.02 0.83 0 1.26-0.03 0.73-0.37 1.38-0.94 1.89-0.86 0.76-1.94 1.62-3.1 1.03-1.05-0.49-2.29-1.45-2.2-2.78-0.05-0.94-0.1-1.76 0.03-2.68 0.06-0.26 0.03-0.55 0.18-0.78Zm2.14 4.28c0.1 0.38 0.3 0.84 0.75 0.9 0.27 0 0.47-0.22 0.62-0.41 0.48-0.94 0.41-1.97 0.41-3.04-0.15-0.8 0.04-1.89-0.82-2.38-0.3-0.1-0.53 0.1-0.72 0.29-0.34 0.5-0.37 1.08-0.4 1.72-0.1 1.03 0.01 1.88 0.16 2.92Zm5.41 2.01c-0.66-0.34-0.76-1.32-0.75-3.7l0.02-3.66h-1.26l0.28-0.68h0.98V8.36l2.34-0.87v2.54h1.07l-0.28 0.75h-0.8v6.33c0.05 0.5 0.23 0.8 0.47 1.02h-2.07Zm-21.38-7.07c-0.02-0.46-0.1-0.66-0.29-0.92h2.22c0.18 0.14 0.19 0.36 0.28 0.53l0.38-0.3c0.43-0.36 1.18-0.37 1.67-0.14 0.2 0.1 0.4 0.24 0.53 0.42l-0.94 1.47c-0.12-0.1-0.2-0.14-0.36-0.21-0.47-0.2-0.96-0.09-1.24 0.17v4.27c0 0.74 0.12 1.42 0.5 1.77h-2.14c-0.44-0.35-0.57-0.86-0.6-1.37l-0.01-5.69Zm-16.8 2.25l-0.8 1.66c-0.55 0.98-1.33 2.18-2.51 2.48-0.46 0.16-0.87 0.01-1.31-0.02L0 19.77c0.1 0.12 0.26 0.21 0.4 0.27 2.52 0.96 3.53-0.07 6.01-5.67l2.34 4.99h3.12l-1.47-3.37 0.83-1.74 2.3 5.03 2.99 0.02L11.3 7.83l-2.4 1.2 1.88 4.27-0.83 1.68L6.5 7.53 3.96 8.82l2.1 4.5Zm9.59 2.02c0.06-0.83 0.51-1.6 1.28-2.03 0.77-0.47 1.66-0.66 2.45-1.07 0.13-0.11 0.3-0.25 0.31-0.43 0.01-0.22-0.1-0.4-0.3-0.47-1.2-0.26-2.2 0.5-3.06 1.24 0.1-0.55 0.2-1.15 0.45-1.66 0.13-0.14 0.2-0.32 0.38-0.43 0.84-0.42 1.9-0.54 2.86-0.47 0.78 0.05 1.5 0.6 1.76 1.32 0.14 0.33 0.13 0.71 0.16 1.05v4.65c0.02 0.4 0.2 0.78 0.44 1.1h-2.22c-0.26-0.24-0.4-0.54-0.47-0.91-0.62 0.55-1.91 1.36-2.69 0.82-0.8-0.36-1.53-1.57-1.35-2.7Zm3.93-1.61c-0.02-0.32-0.25-0.36-0.41-0.36-0.53 0.08-0.99 0.52-1.24 0.98-0.23 0.4-0.28 0.75-0.3 1.1 0 0.39-0.03 0.67 0.13 0.96 0.08 0.2 0.27 0.28 0.45 0.33 0.34 0.07 0.66-0.03 0.93-0.2 0.62-0.36 0.51-1.06 0.52-1.69l-0.08-1.12Zm33.14 3.34c0.11 0.1 0.17 0.24 0.17 0.4 0 0.16-0.06 0.3-0.17 0.4-0.11 0.12-0.25 0.18-0.4 0.18-0.16 0-0.3-0.06-0.41-0.17-0.06-0.05-0.1-0.12-0.13-0.19s-0.04-0.15-0.04-0.22c0-0.16 0.05-0.3 0.17-0.4 0.1-0.12 0.24-0.18 0.4-0.18 0.16 0 0.3 0.06 0.41 0.18Zm0.09-0.1c-0.07-0.06-0.14-0.11-0.23-0.15-0.08-0.03-0.17-0.05-0.27-0.05-0.18 0-0.34 0.07-0.47 0.2-0.15 0.13-0.22 0.3-0.22 0.5s0.07 0.36 0.2 0.5c0.13 0.13 0.3 0.2 0.5 0.2 0.18 0 0.35-0.07 0.48-0.2 0.07-0.07 0.12-0.14 0.16-0.23 0.03-0.09 0.05-0.18 0.05-0.27 0-0.2-0.07-0.36-0.2-0.5Zm-0.41 0.45c-0.03 0.02-0.07 0.03-0.11 0.02H52.2v-0.22h0.05c0.05 0 0.09 0 0.12 0.02 0.04 0.01 0.06 0.04 0.06 0.08 0 0.05-0.01 0.08-0.04 0.1Zm-0.19 0.16h0.04 0.05l0.07 0.02 0.03 0.02 0.02 0.03 0.02 0.1v0.1h0.2v-0.02l-0.01-0.04V17.7c0-0.08-0.03-0.14-0.07-0.17-0.03-0.03-0.07-0.04-0.11-0.05 0.05 0 0.1-0.02 0.13-0.05 0.04-0.03 0.06-0.08 0.06-0.14 0-0.09-0.04-0.15-0.1-0.18-0.05-0.03-0.1-0.04-0.16-0.04h-0.16H52v0.77h0.2v-0.28Z" fill="#B01842"/>
</svg>
