<svg xmlns="http://www.w3.org/2000/svg" viewBox="0 0 55 98">
  <path d="M34.63 0.6l-0.04 21.26-0.04 21.26-1.75-4.94v-0.01L30.54 85.5l3.43 9.64c0.01 0.01 1.28 0.09 2.8 0.16 4.64 0.23 10.38 0.72 14.75 1.27 1.01 0.13 1.87 0.19 1.94 0.14 0.06-0.05 0.07-21.7 0.06-48.1L53.48 0.6H34.63Z" fill="#B1060F"/>
  <path d="M0.52 0.54V48.6c0 26.43 0.03 48.08 0.07 48.12 0.03 0.04 1.67-0.13 3.64-0.34 1.98-0.22 4.7-0.5 6.05-0.6 2.08-0.19 8.3-0.58 9.01-0.59 0.21 0 0.23-1.08 0.25-20.36l0.04-20.36 1.5 4.25 0.54 1.5 2.26-47.3-0.77-2.2c-1.85-5.22-3.42-9.64-3.48-9.84L19.5 0.52H0.52v0.02Z" fill="#B1060F"/>
  <path d="M34.63 0.6l-0.04 21.26-0.04 21.26-1.75-4.94v-0.01L30.54 85.5l3.43 9.64c0.01 0.01 1.28 0.09 2.8 0.16 4.64 0.23 10.38 0.72 14.75 1.27 1.01 0.13 1.87 0.19 1.94 0.14 0.06-0.05 0.07-21.7 0.06-48.1L53.48 0.6H34.63Z" fill="#B1060F"/>
  <path d="M0.52 0.54V48.6c0 26.43 0.03 48.08 0.07 48.12 0.03 0.04 1.67-0.13 3.64-0.34 1.98-0.22 4.7-0.5 6.05-0.6 2.08-0.19 8.3-0.58 9.01-0.59 0.21 0 0.23-1.08 0.25-20.36l0.04-20.36 1.5 4.25 0.54 1.5 2.26-47.3-0.77-2.2c-1.85-5.22-3.42-9.64-3.48-9.84L19.5 0.52H0.52v0.02Z" fill="#B1060F"/>
  <path d="M0.52 0.54L19.57 54.5v-0.03l1.5 4.25c8.37 23.68 12.86 36.38 12.89 36.4 0 0.02 1.27 0.1 2.8 0.17 4.64 0.23 10.38 0.72 14.75 1.27 1 0.13 1.87 0.19 1.92 0.14L34.55 43.1l-1.75-4.93-9.71-27.46c-1.85-5.22-3.42-9.64-3.48-9.84l-0.13-0.36H10L0.52 0.54Z" fill="#E50914"/>
</svg>
