<svg xmlns="http://www.w3.org/2000/svg" viewBox="0 0 53 43">
  <path d="M13.4 6.33L0 12.18 0 12.82l53 0.03-0.04-0.7L39.73 6.3 37.1 0H16l-2.6 6.33Z" fill="#CA3432"/>
  <path d="M20 28.17c0 0.06-0.03 0.13 0 0.17v0.04c0.3 0.3 0.49 0.66 0.57 1.06l0.02 0.14 0.02 0.28v3.9L20.58 34c-0.15-0.1-0.31-0.18-0.48-0.25-0.36-0.13-0.78-0.2-1.19-0.16l-0.43 0.08-0.3 0.06H18l-0.01-0.05v-4.28c0-0.07 0.03-0.15 0.06-0.21l0.15-0.26 0.21-0.3 0.11-0.18c0.06-0.12 0.07-0.2 0.05-0.3 0-0.04-0.03-0.08-0.06-0.12l-0.06-0.05-0.12-0.06h-4.65-0.15c-0.1 0.02-0.15 0.04-0.22 0.1-0.03 0.04-0.06 0.08-0.07 0.13-0.02 0.04-0.02 0.1-0.01 0.14l0.01 0.1c0.02 0.07 0.08 0.19 0.15 0.3l0.2 0.26 0.09 0.14c0.04 0.07 0.05 0.11 0.07 0.17l0.03 0.13 0.04 0.28-0.01 5.01c-0.01 0.03-0.04 0.06-0.07 0.06l-0.16 0.03-0.07 0.01-0.46 0.1c-0.16 0.02-0.34 0.04-0.57 0.05-0.24 0.01-0.52 0.02-0.77 0-0.23 0-0.45 0-0.68-0.03l-0.5-0.07c-0.38-0.07-0.75-0.18-1.1-0.33-0.26-0.11-0.5-0.24-0.74-0.38-0.27-0.17-0.53-0.35-0.77-0.55-0.1-0.01-0.18 0.01-0.26 0.1L7.6 33.74l-0.06 0.12-0.06 0.17-0.04 0.22v0.3c0 0.26 0.08 0.67 0.21 1.03 0.07 0.18 0.15 0.34 0.24 0.5l0.3 0.4c0.11 0.12 0.24 0.23 0.38 0.33s0.3 0.2 0.48 0.28c0.17 0.08 0.37 0.15 0.6 0.2 0.23 0.05 0.49 0.08 0.79 0.1 0.3 0 0.64 0 1.2-0.12 0.56-0.11 1.35-0.33 2.11-0.6l0.06 0.26v3.26l-0.01 0.18c-0.01 0.06-0.03 0.13-0.1 0.26-0.06 0.12-0.17 0.3-0.29 0.48-0.08 0.1-0.16 0.23-0.2 0.3l-0.08 0.16c-0.04 0.12-0.04 0.24 0.05 0.35 0.07 0.07 0.12 0.1 0.2 0.13h4.96c0.09-0.01 0.19-0.15 0.2-0.24 0.01-0.08 0-0.15-0.02-0.23-0.02-0.05-0.04-0.1-0.07-0.13l-0.18-0.25-0.14-0.22-0.07-0.17c-0.02-0.08-0.05-0.17-0.07-0.32-0.02-0.17-0.04-0.35-0.04-0.53v-4.39c0.01-0.1 0.01-0.19 0.11-0.28l0.16-0.08 0.19-0.07 0.34-0.08 0.46-0.06c0.14 0 0.25 0 0.35 0.02 0.1 0 0.18 0.03 0.25 0.05l0.2 0.08c0.1 0.06 0.16 0.11 0.24 0.2 0.04 0.04 0.08 0.1 0.11 0.16 0.04 0.06 0.08 0.13 0.11 0.24 0.04 0.1 0.08 0.24 0.1 0.38l-0.01 3.93c0 0.25-0.05 0.5-0.14 0.74-0.02 0.04-0.04 0.09-0.1 0.17l-0.22 0.3-0.13 0.2c-0.06 0.12-0.07 0.2-0.07 0.29 0 0.09 0.04 0.17 0.11 0.21 0.04 0.03 0.12 0.06 0.2 0.08h4.82c0.08-0.01 0.18-0.11 0.2-0.2 0.05-0.1 0.05-0.18 0.02-0.26 0-0.03-0.02-0.05-0.03-0.08l-0.09-0.14-0.19-0.25c-0.09-0.12-0.1-0.16-0.13-0.24l-0.05-0.14-0.06-0.26v-10.9l0.01-0.09c0-0.03 0.01-0.06 0.04-0.11l0.1-0.21c0.01-0.05 0.03-0.1 0.1-0.17l0.2-0.27 0.14-0.2c0.06-0.11 0.09-0.2 0.09-0.3-0.01-0.08-0.02-0.18-0.13-0.24l-0.05-0.02-0.1-0.02-0.24-0.01H20.3c-0.07 0-0.15 0-0.23 0.09-0.03 0.04-0.06 0.08-0.07 0.14Zm-1.6-10.24l0.18 0.26c0.09 0.13 0.1 0.17 0.13 0.24l0.03 0.11c0.03 0.1 0.06 0.23 0.08 0.38l0.01 5.4-0.01 0.5c-0.01 0.14-0.05 0.28-0.11 0.4l-0.07 0.1-0.14 0.16-0.2 0.2c-0.08 0.1-0.08 0.13-0.1 0.18-0.04 0.1-0.04 0.2 0.04 0.33l0.07 0.07 0.04 0.04 0.08 0.09 0.08 0.06 5.84-0.03c0.27 0 0.55 0.03 0.85 0.1 0.3 0.06 0.62 0.16 1 0.32 0.37 0.17 0.8 0.4 1.2 0.67 0.49 0.4 1 0.76 1.36 0.99 0.35 0.23 0.54 0.32 0.7 0.38 0.18 0.07 0.32 0.11 0.5 0.14 0.17 0.03 0.38 0.05 0.59 0.05 0.51 0 1.12-0.15 1.66-0.46l0.33-0.21c0.12-0.08 0.24-0.18 0.37-0.29 0.13-0.1 0.27-0.23 0.36-0.33 0.18-0.19 0.22-0.27 0.29-0.4l0.07-0.16c0.03-0.1 0.03-0.13 0.02-0.19-0.01-0.07-0.1-0.15-0.16-0.17-0.06-0.03-0.12-0.04-0.18-0.04h-0.14l-0.25 0.08-0.4 0.12c-0.2 0.03-0.4 0.05-0.59 0.05-0.2 0-0.38-0.01-0.56-0.04-0.17-0.03-0.34-0.07-0.5-0.13-0.25-0.1-0.5-0.21-0.88-0.41l-1.2-0.66c-0.35-0.17-0.53-0.23-0.72-0.27l-1.46-0.2 4.63-7.15c0.12-0.21 0.12-0.45-0.03-0.7-0.05-0.07-0.09-0.09-0.14-0.11l-0.12-0.04-0.28-0.05h-7.12c-0.1 0-0.2 0.03-0.3 0.16-0.12 0.14-0.17 0.31-0.19 0.47l-0.01 0.13v0.28c-0.02 0.26-0.03 0.53-0.03 0.79v0.7l0.04 0.55c0 0.13 0.01 0.18 0.02 0.22 0.02 0.08 0.04 0.13 0.1 0.2 0.15 0.1 0.3 0.1 0.46 0.05 0.08-0.04 0.15-0.09 0.2-0.16l0.3-0.62c0.09-0.17 0.15-0.29 0.22-0.39l0.18-0.26c0.08-0.1 0.17-0.2 0.26-0.28 0.2-0.17 0.44-0.3 0.69-0.37 0.17-0.05 0.35-0.08 0.53-0.1l0.4-0.04 0.3-0.02c0.14 0 0.18 0.02 0.25 0.05l-0.1 0.25-4.35 6.58c-0.05 0.05-0.1 0.03-0.14-0.02-0.02-0.02-0.04-0.08-0.06-0.14-0.03-0.1-0.06-0.2-0.07-0.3l-0.04-0.39v-6.64l-0.01-0.25c0-0.05-0.02-0.1-0.04-0.16-0.03-0.08-0.05-0.14-0.13-0.22l-0.11-0.07-0.21-0.05h-2.92-0.22c-0.11 0.02-0.13 0.03-0.2 0.06-0.12 0.1-0.14 0.23-0.12 0.37l0.15 0.24ZM6.62 15.4c0.01 0.08 0.02 0.15 0.07 0.23l0.1 0.13 0.17 0.2 0.06 0.12 0.07 0.2 0.09 0.42v10.33c0 0.13 0 0.26-0.02 0.35 0 0.08-0.02 0.15-0.03 0.23l-0.05 0.16c-0.02 0.06-0.05 0.11-0.11 0.2l-0.24 0.34c-0.07 0.1-0.1 0.15-0.12 0.21L6.56 28.7c-0.02 0.1 0 0.13 0.02 0.19l0.06 0.07c0.03 0.04 0.08 0.07 0.14 0.1l4.89 0.02c0.1 0 0.2 0 0.3-0.14 0.05-0.07 0.06-0.17 0.04-0.25 0-0.04-0.01-0.07-0.03-0.1-0.03-0.07-0.06-0.13-0.1-0.18l-0.2-0.33c-0.08-0.13-0.15-0.26-0.2-0.4-0.04-0.07-0.07-0.15-0.09-0.23l-0.04-0.2 0.04-9.74c0-0.18 0-0.35 0.02-0.47 0.02-0.15 0.06-0.29 0.12-0.41 0.06-0.13 0.17-0.24 0.28-0.3 0.23-0.13 0.49-0.14 0.76-0.06 0.22 0.06 0.4 0.17 0.58 0.37 0.12 0.13 0.25 0.34 0.34 0.54l0.12 0.29c0.03 0.1 0.07 0.22 0.1 0.38 0.04 0.16 0.08 0.36 0.1 0.57 0.06 0.4 0.1 0.81 0.1 1.16 0 0.29-0.03 0.58-0.08 0.87-0.03 0.22-0.09 0.45-0.16 0.66-0.06 0.19-0.14 0.37-0.24 0.54-0.07 0.15-0.16 0.28-0.26 0.4-0.08 0.11-0.18 0.21-0.28 0.3-0.1 0.1-0.2 0.18-0.32 0.26-0.25 0.17-0.51 0.3-0.79 0.4-0.16 0.18-0.08 0.4 0.08 0.6l0.16 0.16 0.24 0.17c0.33 0.18 0.7 0.3 1.07 0.35 0.51 0.07 1.1 0.01 1.67-0.18 0.3-0.1 0.6-0.24 0.86-0.4 0.26-0.17 0.5-0.36 0.73-0.57 0.2-0.2 0.39-0.42 0.55-0.65 0.32-0.46 0.57-1.03 0.7-1.56 0.08-0.27 0.12-0.53 0.15-0.8 0.03-0.28 0.04-0.58 0.02-0.9-0.01-0.33-0.05-0.68-0.1-1-0.05-0.28-0.13-0.56-0.22-0.84-0.09-0.24-0.19-0.46-0.29-0.65-0.1-0.18-0.21-0.35-0.33-0.5-0.23-0.29-0.5-0.54-0.8-0.74-0.15-0.1-0.3-0.18-0.47-0.25-0.23-0.1-0.48-0.17-0.74-0.21-0.3-0.05-0.59-0.09-0.88-0.11H6.8c-0.05 0.01-0.1 0.06-0.12 0.1-0.05 0.1-0.08 0.24-0.07 0.38Zm25.3 2c-0.05 0.04-0.1 0.08-0.13 0.13l-0.07 0.13-0.07 0.21-0.02 2.47c0 0.07 0 0.14 0.02 0.2 0 0.05 0.02 0.08 0.03 0.12 0.02 0.07 0.05 0.12 0.12 0.18 0.13 0.1 0.27 0.1 0.43 0.03 0.08-0.04 0.15-0.1 0.24-0.2 0.05-0.05 0.1-0.11 0.17-0.26 0.08-0.15 0.17-0.39 0.25-0.56 0.07-0.16 0.13-0.26 0.2-0.36 0.16-0.22 0.37-0.4 0.6-0.54 0.42-0.23 0.91-0.28 1.37-0.31l0.2-0.02h0.16l0.08 0.04 0.04 0.07-4.52 6.89c-0.1 0.18-0.15 0.4 0.03 0.63 0.05 0.05 0.1 0.08 0.15 0.09 0.04 0.01 0.13 0.03 0.23 0.03 0.1 0.02 0.22 0.04 0.44 0.04l0.77 0.02c0.23 0 0.37 0.02 0.57 0.04l0.64 0.1c0.25 0.05 0.5 0.12 0.74 0.2 0.27 0.09 0.52 0.21 0.96 0.51 0.44 0.3 1.07 0.78 1.51 1.08 0.44 0.3 0.7 0.42 0.97 0.52 0.2 0.07 0.42 0.12 0.63 0.15 0.54 0.07 1.15 0 1.74-0.25 0.2-0.08 0.38-0.17 0.56-0.27 0.21-0.13 0.42-0.27 0.56-0.4 0.3-0.23 0.4-0.4 0.5-0.59l0.09-0.16c0.04-0.12 0.05-0.2 0.02-0.3-0.02-0.07-0.12-0.15-0.19-0.15H41.8c-0.06 0-0.13 0-0.25 0.03l-0.43 0.12-0.29 0.05c-0.17 0.02-0.34 0.01-0.52 0-0.22-0.03-0.45-0.08-0.66-0.15-0.27-0.09-0.6-0.22-0.92-0.38L38 26.16l-0.4-0.21-0.26-0.12c-0.68-0.28-1.4-0.42-2.1-0.45-0.03-0.04-0.01-0.06 0-0.1l4.55-6.95c0.1-0.15 0.14-0.35 0.11-0.53-0.01-0.11-0.04-0.2-0.12-0.3l-0.11-0.1-0.13-0.05-0.28-0.08h-6.74c-0.1 0-0.2 0.01-0.28 0.03-0.08 0-0.14 0.03-0.19 0.05l-0.12 0.06Zm-6.64 15.77c0 0.07 0 0.15 0.03 0.22 0 0.02 0.01 0.04 0.05 0.09 0.06 0.08 0.17 0.2 0.22 0.28l0.1 0.23 0.07 0.26-0.01 5.78c0 0.08 0 0.16 0.02 0.25s0.05 0.2 0.1 0.31c0.05 0.12 0.11 0.25 0.2 0.39 0.08 0.14 0.18 0.28 0.28 0.4 0.18 0.2 0.4 0.39 0.64 0.53 0.1 0.06 0.21 0.11 0.36 0.17 0.15 0.05 0.35 0.1 0.58 0.14 0.23 0.04 0.48 0.06 0.79 0.06 0.31-0.01 0.63-0.04 0.94-0.1 0.27-0.05 0.52-0.12 0.77-0.21 0.22-0.1 0.44-0.2 0.64-0.32 0.19-0.12 0.37-0.26 0.53-0.4v0.18c0 0.05 0 0.1 0.02 0.15 0.03 0.13 0.06 0.24 0.2 0.35L31.95 42l0.1 0.02 0.24 0.03h2.65c0.06 0 0.12-0.02 0.2-0.1 0.08-0.09 0.08-0.2 0.06-0.29 0-0.03-0.02-0.05-0.03-0.08l-0.09-0.15-0.18-0.24c-0.06-0.07-0.08-0.11-0.1-0.16l-0.05-0.14-0.05-0.23c-0.03-0.1-0.05-0.25-0.07-0.39v-6.94c-0.01-0.07-0.04-0.12-0.1-0.19l-0.17-0.13-0.14-0.05-0.3-0.04-3.04-0.03c-0.05 0-0.1 0.07-0.11 0.12-0.03 0.09-0.03 0.17-0.03 0.3 0.13 0.13 0.23 0.3 0.31 0.47 0.08 0.16 0.12 0.3 0.15 0.42 0.01 0.05 0.03 0.12 0.04 0.26l0.04 0.56v4.18c0 0.12-0.02 0.24-0.05 0.34-0.03 0.1-0.06 0.2-0.1 0.27-0.05 0.08-0.1 0.15-0.16 0.21-0.07 0.07-0.14 0.13-0.22 0.18-0.24 0.14-0.53 0.22-0.82 0.17-0.08 0-0.15-0.03-0.22-0.06-0.14-0.06-0.27-0.17-0.34-0.28l-0.07-0.14c-0.03-0.05-0.05-0.11-0.08-0.23-0.03-0.13-0.06-0.3-0.08-0.49l0.01-5.62c0-0.14-0.02-0.33-0.2-0.48l-0.07-0.04c-0.04-0.03-0.08-0.04-0.12-0.05-0.09-0.03-0.17-0.05-0.26-0.06l-3.08-0.03c0.02 0 0.02 0.02 0.01 0.03l-0.08 0.1c-0.04 0.07-0.06 0.1-0.07 0.15Zm22.45-13.7c0-0.15-0.03-0.3-0.06-0.43-0.04-0.15-0.1-0.3-0.16-0.43-0.07-0.13-0.16-0.25-0.24-0.36-0.09-0.1-0.17-0.19-0.27-0.27-0.11-0.1-0.23-0.18-0.36-0.25-0.13-0.08-0.3-0.16-0.5-0.24-0.2-0.07-0.45-0.14-0.68-0.2-0.24-0.05-0.48-0.09-0.72-0.1-0.28-0.04-0.56-0.05-0.85-0.05-0.32 0-0.64 0.02-0.96 0.06-0.29 0.02-0.52 0.06-0.7 0.09-0.19 0.03-0.32 0.06-0.44 0.1-0.22 0.05-0.4 0.13-0.6 0.21-0.32 0.13-0.6 0.33-0.85 0.58-0.18 0.2-0.32 0.44-0.42 0.7-0.03 0.08-0.06 0.17-0.07 0.26-0.04 0.2-0.03 0.38 0.04 0.56L40 19.94c0.06 0.07 0.12 0.14 0.2 0.2 0.28 0.21 0.62 0.3 0.96 0.27 0.09 0 0.18-0.03 0.26-0.05l0.22-0.08c0.11-0.06 0.22-0.13 0.3-0.23 0.05-0.05 0.1-0.1 0.16-0.24 0.08-0.14 0.17-0.35 0.26-0.57 0.05-0.1 0.11-0.2 0.17-0.27 0.27-0.36 0.52-0.46 0.8-0.5 0.08-0.01 0.16-0.02 0.23-0.01 0.08 0 0.15 0.01 0.21 0.03 0.07 0.01 0.12 0.03 0.17 0.06 0.14 0.05 0.25 0.15 0.33 0.27l0.07 0.14c0.09 0.2 0.13 0.45 0.1 0.7-0.02 0.1-0.05 0.18-0.09 0.26-0.06 0.12-0.13 0.22-0.23 0.31l-0.16 0.12-0.32 0.15-2.53 0.75c-0.23 0.07-0.46 0.16-0.66 0.26s-0.36 0.21-0.5 0.33c-0.14 0.12-0.26 0.23-0.36 0.37-0.19 0.24-0.33 0.52-0.42 0.81-0.1 0.3-0.14 0.64-0.13 0.96 0 0.32 0.07 0.64 0.2 0.93 0.06 0.18 0.16 0.34 0.27 0.5 0.12 0.16 0.26 0.31 0.41 0.44 0.15 0.13 0.33 0.25 0.51 0.34 0.2 0.1 0.4 0.18 0.6 0.24 0.45 0.12 0.94 0.17 1.43 0.13 0.14-0.01 0.29-0.03 0.43-0.06 0.39-0.07 0.66-0.16 0.97-0.33 0.23-0.12 0.52-0.32 0.8-0.58 0.08 0.13 0.18 0.25 0.3 0.35 0.12 0.11 0.26 0.21 0.43 0.3 0.16 0.09 0.34 0.16 0.54 0.22 0.43 0.11 0.88 0.13 1.32 0.04 0.15-0.03 0.3-0.08 0.45-0.14 0.12-0.05 0.23-0.12 0.34-0.2 0.22-0.15 0.4-0.36 0.51-0.6l0.06-0.13c0.03-0.1 0.03-0.14 0.02-0.2-0.01-0.04-0.06-0.1-0.1-0.11-0.05-0.03-0.07-0.03-0.14-0.05l-0.14-0.02c-0.03 0-0.06-0.02-0.08-0.03l-0.12-0.07c-0.06-0.03-0.1-0.08-0.14-0.14l-0.05-0.1-0.07-0.21-0.07-0.46v-4.57Zm-5.17 4.88l-0.08-0.13c-0.03-0.07-0.06-0.14-0.07-0.2-0.06-0.22-0.1-0.54-0.05-0.8 0.03-0.15 0.07-0.3 0.14-0.43 0.12-0.24 0.3-0.43 0.56-0.62 0.13-0.1 0.28-0.19 0.5-0.28 0.22-0.1 0.5-0.2 0.79-0.28 0.03-0.02 0.06 0 0.1 0.04v1.97l-0.09 0.4c-0.07 0.2-0.12 0.26-0.22 0.37l-0.2 0.16c-0.22 0.14-0.5 0.2-0.77 0.17-0.08-0.01-0.15-0.03-0.22-0.06-0.15-0.06-0.25-0.15-0.39-0.31Zm-7.6 9.07c-0.03 0.12-0.06 0.24 0 0.37l0.07 0.1c0.03 0.04 0.06 0.06 0.1 0.08 0.02 0.02 0.05 0.04 0.1 0.05l0.21 0.05 0.3 0.06-0.02 5.65c0 0.2 0.02 0.39 0.06 0.57 0.03 0.18 0.08 0.36 0.14 0.51 0.06 0.16 0.13 0.3 0.2 0.43 0.08 0.12 0.16 0.23 0.25 0.32 0.08 0.1 0.17 0.18 0.26 0.24 0.09 0.07 0.18 0.13 0.29 0.18 0.1 0.05 0.2 0.09 0.33 0.12 0.12 0.04 0.26 0.07 0.4 0.08 0.17 0.02 0.34 0.03 0.5 0.02 0.2-0.01 0.4-0.04 0.57-0.08 0.17-0.03 0.3-0.07 0.42-0.13 0.13-0.05 0.25-0.1 0.35-0.18 0.11-0.07 0.21-0.15 0.3-0.23 0.22-0.2 0.4-0.46 0.52-0.74l0.1-0.25c0.03-0.13 0.02-0.17 0.02-0.24-0.01-0.07-0.05-0.16-0.14-0.22-0.06-0.04-0.11-0.04-0.17-0.03-0.03 0-0.07 0.01-0.1 0.03l-0.16 0.06-0.1 0.02c-0.1 0.01-0.2 0-0.3-0.03-0.08-0.03-0.14-0.07-0.2-0.12-0.05-0.05-0.09-0.1-0.11-0.16l-0.06-0.16-0.05-0.3v-5.16l0.03-0.25 1.38-0.03c0.09 0 0.2-0.12 0.22-0.2 0.06-0.15 0.06-0.3 0.06-0.46l-0.01-0.14-0.03-0.16c-0.03-0.08-0.04-0.1-0.09-0.14-0.04-0.03-0.04-0.03-0.09-0.04L40.5 32.9c-0.47 0.07-0.96 0.05-1.45-0.05v-1.92-0.13c-0.02-0.1-0.03-0.14-0.12-0.2-0.1-0.08-0.25-0.07-0.35-0.01l-0.1 0.06-0.18 0.14-3.14 2.35c-0.11 0.09-0.16 0.18-0.2 0.28Zm6.6 7.2c-0.08 0.02-0.16 0.06-0.24 0.11-0.16 0.12-0.26 0.28-0.3 0.43-0.06 0.16-0.06 0.33 0 0.49 0.02 0.08 0.06 0.16 0.11 0.24 0.06 0.07 0.12 0.14 0.2 0.19 0.23 0.16 0.5 0.2 0.76 0.12 0.08-0.02 0.16-0.07 0.24-0.12 0.15-0.1 0.26-0.26 0.31-0.43 0.07-0.23 0.06-0.47-0.12-0.72-0.05-0.08-0.12-0.14-0.19-0.2-0.23-0.16-0.5-0.2-0.76-0.12Zm0.48 0.12c0.07 0.02 0.14 0.06 0.2 0.1 0.22 0.16 0.3 0.37 0.3 0.56 0 0.13-0.04 0.28-0.13 0.41-0.06 0.08-0.13 0.14-0.2 0.2-0.09 0.04-0.18 0.08-0.27 0.1-0.1 0-0.19 0-0.28-0.02-0.09-0.02-0.18-0.06-0.25-0.12-0.22-0.16-0.3-0.37-0.3-0.57 0-0.13 0.04-0.26 0.14-0.4 0.09-0.12 0.21-0.21 0.36-0.26 0.14-0.04 0.3-0.04 0.43 0Zm0.18 0.38c-0.01-0.06-0.03-0.1-0.11-0.17l-0.12-0.04h-0.52v0.94h0.2v-0.38h0.21c0.06 0.01 0.15 0.1 0.15 0.18v0.2h0.2c-0.03-0.11 0.01-0.22-0.04-0.34-0.03-0.05-0.1-0.1-0.14-0.1 0.05-0.02 0.09-0.03 0.14-0.11l0.04-0.09v-0.1Zm-0.33-0.05c0.05 0 0.13 0.01 0.14 0.07 0.02 0.05 0.02 0.15-0.09 0.19-0.09 0.01-0.18 0-0.28 0v-0.26h0.23ZM21.62 14c-0.14-0.09-0.3-0.15-0.46-0.2-0.19-0.04-0.39-0.08-0.59-0.1-0.2 0-0.42 0-0.63 0.03-0.2 0.02-0.38 0.07-0.53 0.12-0.15 0.06-0.28 0.12-0.4 0.2-0.12 0.08-0.24 0.2-0.34 0.32-0.15 0.19-0.26 0.41-0.3 0.65-0.05 0.24-0.05 0.5 0.02 0.73 0.04 0.15 0.1 0.3 0.2 0.43 0.06 0.11 0.16 0.22 0.3 0.33 0.06 0.05 0.13 0.1 0.22 0.14 0.08 0.05 0.18 0.09 0.29 0.13l0.36 0.1c0.44 0.07 0.9 0.05 1.32-0.06 0.14-0.04 0.26-0.08 0.37-0.13l0.29-0.16c0.08-0.05 0.15-0.1 0.21-0.17 0.11-0.11 0.2-0.24 0.27-0.39 0.1-0.22 0.15-0.46 0.15-0.7-0.01-0.25-0.08-0.49-0.2-0.7-0.1-0.18-0.22-0.33-0.37-0.45L21.62 14Z" fill="#000000"/>
</svg>
