<svg xmlns="http://www.w3.org/2000/svg" viewBox="0 0 53 7">
  <path d="M26.15 2.81h-3.33v-2.6h-1v6.61h1V3.7h3.33v3.13h1v-6.6h-1m-9.82-0.03l-1.77-0.01v6.64h1.02V4.3l1.2-0.03c0.6-0.01 2.15-0.32 2.14-2.14 0.01-2.05-2.22-1.94-2.6-1.94Zm-0.05 3.23H15.6v-2.4h0.58c0.26 0 1.82-0.11 1.87 1.12 0.07 1.22-1.17 1.28-1.77 1.28ZM6.94 0.18v6.64h4.1V5.95H7.96V3.7h2.17V2.87H7.97v-1.8h3.06v-0.9h-4.1ZM1 1.8C1 0.7 2.4 0.67 3.24 1.37l0.3-0.9C1.13-0.72 0.02 0.85 0.02 1.86c0 2.4 3.34 1.89 2.86 3.58C2.7 6.05 1.63 6.4 0.4 5.64 0.29 5.9 0.15 6.2 0 6.52 1.64 7.4 3.76 6.98 3.83 5.17 3.93 2.91 1 3.07 1 1.8Zm42.95 0.24C43.8 0.07 41.92 0.22 41.5 0.2l-1.7-0.02V6.8h1.01V4L41.8 4l1.85 2.8h1.24l-2.06-2.98c0.56-0.2 1.2-0.68 1.12-1.78Zm-2.5 1.2l-0.63-0.01V0.99h0.54c0.25 0 1.59-0.08 1.7 1 0.15 1.29-1.33 1.25-1.6 1.25Zm9.21-3.05H49.5l-2.13 6.64h1c0.32-1.2 0.43-1.54 0.43-1.54l2.63-0.01 0.54 1.56H53l-2.34-6.65Zm-1.64 4.34l1.03-3.28 1.08 3.27h-2.11ZM33.46 0c-2.07 0-3.42 1.56-3.42 3.5S31.39 7 33.46 7c2.08 0 3.43-1.56 3.43-3.5S35.54 0 33.46 0Zm0 6.04c-1.52 0-2.38-1.12-2.38-2.54 0-1.4 0.86-2.54 2.38-2.54 1.51 0 2.38 1.12 2.38 2.54 0 1.4-0.85 2.54-2.38 2.54Z" fill="#000000"/>
</svg>
