<svg xmlns="http://www.w3.org/2000/svg" viewBox="0 0 53 61">
  <path d="M10.46 46.97l-1.19-9.63c-3.14-2.23-5.57-4.07-8.48-6.2-1.37-10.13 1.17-15.62 4.9-20.84C10.31 4.4 17.77 0 26.68 0c8.93 0.1 16.4 4.59 20.81 10.48 4.13 5.6 6.34 12.63 4.73 20.95l-8.04 5.91-1.18 9.63H30.26c-0.79 0.63-1.86 1.2-3.56 1.25-1.68-0.04-2.73-0.62-3.59-1.25H10.46Z" fill="#CC2229"/>
  <path d="M26.7 33.62c-0.68-8.97-0.86-20.04-1.42-28.91-0.96-0.24-2.3-0.17-3.43 0.02-1.12 0.35-1.93 0.65-2.89 1.19 1.75 8.52 3.78 19.38 5.5 27.84-2.35-8.23-5.5-18.52-7.82-26.72-1.12 0.23-2.22 0.86-3.01 1.51-0.84 0.65-1.33 1.14-2.1 2.3 3.38 7.23 7.43 16.43 10.84 23.6-3.94-6.52-8.72-15.11-12.68-21.59-0.77 0.68-1.35 1.16-2.12 2.47-0.65 1.05-0.98 2.28-1.12 3.47 4.34 5.29 9.5 11.63 13.87 16.89-4.55-4.38-10.14-10.02-14.63-14.4-0.45 0.89-0.73 1.63-0.87 3.1-0.16 1.42 0.12 3.12 0.42 4.15l8.79 6.52 0.93 7.25 9.67 0.07c0.7 0.81 0.93 1.23 2.07 1.3 1.1-0.07 1.72-0.74 2-1.3h9.65l0.98-7.27 8.7-6.48c0.33-1.07 0.54-2.72 0.43-4.15-0.14-1.53-0.42-2.3-0.8-3.12-4.51 4.36-10.13 10-14.62 14.38 4.38-5.22 9.5-11.58 13.88-16.92-0.23-1.18-0.51-2.4-1.21-3.44-0.82-1.3-1.28-1.8-2.03-2.5-3.98 6.46-8.83 15.12-12.76 21.6 3.49-7.2 7.45-16.4 10.88-23.53-0.75-1.14-1.29-1.72-2.03-2.33-0.89-0.68-1.98-1.3-3.05-1.56-2.45 8.18-5.45 18.57-7.83 26.72l5.38-27.72c-0.84-0.6-1.65-0.91-2.75-1.24-1.26-0.23-2.5-0.28-3.47-0.11-0.65 8.94-0.68 19.98-1.35 28.9Z" fill="#F6D330"/>
  <path d="M0 57.22h4.52c-0.07 1 0.42 1.23 0.65 1.4 0.26 0.09 2.15 0.18 3.08 0.02 0.37-0.07 0.72-0.21 0.72-1.35 0-0.5-0.12-1.03-0.68-1.15C6.31 55.98 4.38 56.2 2.4 56 0.42 55.56 0.12 55.05 0 53.5c0.14-2.17 0.9-2.8 3.12-2.87 2.3-0.07 4.62-0.07 6.92 0 2.35 0 3.08 0.91 3.08 2.9H8.97c0-0.99-0.19-1.36-0.68-1.4-1-0.08-2.02-0.08-3.02 0-0.38 0-0.87 0.18-0.87 1.07 0 0.83 0.21 1.04 0.77 1.11 1.7 0.07 3.43 0.1 5.1 0.21 2.8 0.17 2.9 1.4 2.99 2.7 0.04 1.87-0.63 2.52-1.12 2.82-0.47 0.21-2.73 0.47-3.17 0.47H4.5c-1 0-2.26-0.12-3.36-0.44C0.12 59.78 0 58.4 0 57.22Zm42.47 3.33h3.96v-9.88h-3.96v9.88Zm6.62 0H53v-9.88h-3.91v9.88Zm-8.93-5.17c-0.07-0.31-0.16-0.62-0.28-0.91-0.67-1.1-3-1.1-5.26-1.14-1.7 0-4.24 0.04-4.99 0.76-0.3 0.33-0.46 0.8-0.56 1.29-0.11 0.58-0.09 1.18-0.09 1.46 0 0.52 0.05 2.5 1 3 0.89 0.6 3.57 0.66 4.6 0.66 1.09 0 4.12-0.12 4.56-0.63 0.79-0.28 0.98-1.26 1.14-2.02h-3.9c0 0.76-0.6 1.23-1.8 1.16-1.1 0.07-1.73-0.19-1.73-1.56l7.43 0.02c0-0.67 0.02-1.4-0.12-2.1Zm-3.77 0.67h-3.54c0-0.28 0.04-0.51 0.11-0.67 0.26-0.63 0.91-0.66 1.61-0.7 1.07 0 1.54 0.25 1.73 0.7 0.09 0.18 0.11 0.41 0.09 0.67Zm-20.8 4.5h3.86v-4.2c0.1-0.58 0.24-1.04 1.66-1.04 1.35-0.03 1.72 0.35 1.72 1.04v4.2h3.87v-4.2c0-1.37-0.03-2.12-0.91-2.51-0.8-0.51-1.93-0.44-3-0.44-1.12 0-2.38 0.14-3.34 0.6v-3.33H15.6v9.88Z" fill="#CC2229"/>
</svg>
