<svg xmlns="http://www.w3.org/2000/svg" viewBox="0 0 53 16">
  <path d="M7.95 0C3.55 0 0 3.58 0 8s3.56 8 7.95 8c4.39 0 7.95-3.58 7.95-8s-3.56-8-7.95-8Zm3.64 11.54c-0.03 0.05-0.08 0.1-0.13 0.14-0.05 0.04-0.11 0.07-0.17 0.08-0.07 0.02-0.13 0.02-0.2 0.01-0.06 0-0.12-0.03-0.18-0.07-1.86-1.14-4.21-1.4-6.98-0.77-0.13 0.03-0.26 0-0.37-0.06-0.12-0.07-0.2-0.18-0.22-0.31-0.02-0.07-0.02-0.13 0-0.2 0-0.06 0.03-0.12 0.06-0.18 0.03-0.05 0.08-0.1 0.13-0.14C3.6 10 3.65 9.97 3.71 9.96c3.03-0.7 5.62-0.4 7.72 0.9 0.23 0.14 0.3 0.44 0.16 0.68Zm0.98-2.18c-0.18 0.3-0.57 0.39-0.86 0.2-2.13-1.32-5.39-1.7-7.92-0.93-0.32 0.1-0.67-0.08-0.77-0.41-0.05-0.16-0.03-0.33 0.05-0.48 0.07-0.14 0.2-0.25 0.36-0.3 2.89-0.88 6.48-0.45 8.93 1.06 0.3 0.18 0.39 0.57 0.2 0.86Zm0.08-2.27c-2.56-1.53-6.79-1.67-9.23-0.92-0.4 0.12-0.81-0.1-0.93-0.5-0.06-0.2-0.04-0.4 0.05-0.57 0.1-0.18 0.26-0.3 0.44-0.37C5.8 3.88 10.46 4.04 13.41 5.8c0.08 0.05 0.16 0.12 0.21 0.2 0.06 0.08 0.1 0.17 0.13 0.26 0.02 0.1 0.03 0.2 0.01 0.3 0 0.1-0.04 0.19-0.1 0.27-0.2 0.36-0.66 0.47-1.01 0.26Zm8.97 0.3c-1.37-0.33-1.61-0.57-1.61-1.05 0-0.46 0.43-0.77 1.07-0.77 0.61 0 1.23 0.24 1.87 0.72l0.07 0.02 0.03-0.02 0.03-0.02 0.67-0.95c0.01-0.02 0.02-0.04 0.01-0.07L23.73 5.2c-0.77-0.61-1.63-0.91-2.63-0.91-1.49 0-2.52 0.89-2.52 2.17 0 1.37 0.9 1.86 2.43 2.24 1.32 0.3 1.54 0.56 1.54 1.01 0 0.5-0.45 0.82-1.17 0.82-0.8 0-1.45-0.27-2.19-0.9-0.01-0.02-0.04-0.03-0.06-0.03-0.03 0-0.05 0.01-0.06 0.03l-0.75 0.9c-0.04 0.04-0.03 0.1 0 0.13 0.85 0.76 1.9 1.17 3.03 1.17 1.6 0 2.63-0.88 2.63-2.24 0-1.15-0.68-1.78-2.35-2.2Zm5.97-1.37c-0.7 0-1.26 0.28-1.73 0.84V6.23c0-0.03 0-0.05-0.02-0.07l-0.07-0.02h-1.23c-0.05 0-0.09 0.04-0.09 0.09v7.03c0 0.05 0.04 0.09 0.1 0.09h1.22c0.05 0 0.1-0.04 0.1-0.1v-2.21c0.46 0.53 1.03 0.79 1.72 0.79 1.29 0 2.59-1 2.59-2.9 0-1.91-1.3-2.9-2.59-2.9Zm1.16 2.9c0 0.97-0.6 1.65-1.44 1.65s-1.48-0.7-1.48-1.65c0-0.93 0.64-1.64 1.48-1.64 0.83 0 1.44 0.69 1.44 1.64Zm4.76-2.9c-1.65 0-2.95 1.29-2.95 2.93 0 1.62 1.29 2.89 2.93 2.89 1.67 0 2.97-1.28 2.97-2.92 0-1.62-1.3-2.9-2.95-2.9Zm0 4.56c-0.88 0-1.54-0.71-1.54-1.66 0-0.94 0.64-1.63 1.52-1.63 0.9 0 1.56 0.71 1.56 1.65 0 0.95-0.65 1.64-1.54 1.64ZM40 6.14h-1.35v-1.4-0.03l-0.02-0.03-0.03-0.02h-0.04-1.23c-0.05 0-0.09 0.03-0.09 0.08v1.4h-0.59c-0.05 0-0.09 0.04-0.09 0.09v1.06c0 0.05 0.04 0.09 0.1 0.09h0.58v2.75c0 1.11 0.55 1.68 1.64 1.68 0.44 0 0.8-0.1 1.15-0.3 0.03 0 0.04-0.04 0.04-0.07v-1.01c0-0.03-0.01-0.06-0.04-0.08l-0.04-0.01h-0.05c-0.23 0.13-0.46 0.18-0.72 0.18-0.4 0-0.57-0.18-0.57-0.58V7.38H40c0.05 0 0.1-0.04 0.1-0.09V6.23l-0.01-0.04-0.02-0.03-0.03-0.02h-0.04Zm4.71 0V5.97c0-0.5 0.2-0.73 0.63-0.73 0.25 0 0.46 0.05 0.69 0.13 0.03 0.01 0.06 0 0.08-0.01l0.03-0.03V5.29 4.24L46.13 4.2c-0.01-0.02-0.03-0.03-0.05-0.03C45.83 4.08 45.52 4 45.05 4c-1.13 0-1.73 0.64-1.73 1.86v0.26h-0.6c-0.04 0-0.08 0.04-0.08 0.1v1.06c0 0.05 0.04 0.09 0.09 0.09h0.59v4.24c0 0.05 0.04 0.1 0.09 0.1h1.22c0.05 0 0.1-0.05 0.1-0.1V7.38h1.14l1.76 4.24c-0.2 0.45-0.4 0.54-0.66 0.54-0.22 0-0.45-0.07-0.68-0.2-0.02 0-0.05-0.01-0.07 0-0.03 0-0.05 0.02-0.06 0.04l-0.41 0.92c-0.02 0.05 0 0.1 0.04 0.12 0.43 0.24 0.82 0.34 1.3 0.34 0.92 0 1.42-0.43 1.86-1.57l2.13-5.54V6.22 6.18l-0.04-0.03H51h-1.28c-0.04 0-0.07 0.02-0.09 0.05l-1.3 3.77-1.44-3.77c0-0.02-0.02-0.03-0.03-0.04L46.8 6.14h-2.1Zm-2.73 0h-1.23c-0.05 0-0.09 0.04-0.09 0.09v5.4c0 0.04 0.05 0.08 0.1 0.08h1.22c0.05 0 0.1-0.04 0.1-0.09v-5.4L42.05 6.2l-0.02-0.03L42 6.14h-0.04Zm-0.6-2.46c-0.5 0-0.89 0.4-0.89 0.89s0.4 0.88 0.89 0.88c0.48 0 0.88-0.4 0.88-0.88 0-0.5-0.4-0.9-0.88-0.9Zm10.76 4.2c-0.49 0-0.86-0.4-0.86-0.88s0.38-0.87 0.87-0.87C52.62 6.13 53 6.52 53 7c0 0.47-0.38 0.87-0.87 0.87Zm0-1.67c-0.44 0-0.77 0.36-0.77 0.79 0 0.43 0.33 0.78 0.77 0.78S52.91 7.43 52.91 7c0-0.44-0.33-0.79-0.77-0.79Zm0.2 0.88l0.24 0.34h-0.2l-0.23-0.32h-0.18v0.32h-0.18V6.52h0.4c0.22 0 0.36 0.1 0.36 0.29 0 0.15-0.09 0.24-0.21 0.28Zm-0.15-0.42h-0.22v0.3h0.22c0.11 0 0.18-0.06 0.18-0.15 0-0.1-0.07-0.15-0.18-0.15Z" fill="#1ED760"/>
</svg>
