<svg xmlns="http://www.w3.org/2000/svg" viewBox="0 0 53 53">
  <path d="M28.1875 28.8257C28.3522 28.7939 28.5228 28.8335 28.6562 28.9351C28.7631 29.0165 28.8387 29.1319 28.8711 29.2603L28.8867 29.3589C29.0258 30.4515 29.5665 31.2205 30.1328 31.9429L30.6396 32.5884C31.1878 33.3073 31.6494 34.0626 31.6494 35.1294C31.6493 36.2613 31.0062 37.3499 30.2793 38.438L29.6172 39.4194C28.8902 40.5111 28.2462 41.6149 28.2461 42.7739C28.2461 43.5372 28.5401 44.3242 28.9277 45.1587L29.1982 45.7231L29.4834 46.3022L29.7695 46.8989C30.4293 48.3129 30.9946 49.8821 30.7139 51.6978C29.2027 51.971 27.6469 52.1147 26.0576 52.1147C24.7152 52.1147 23.3961 52.0127 22.1084 51.8169L21.3984 51.6987C21.1173 49.8827 21.6828 48.3131 22.3428 46.8989L22.6289 46.3022L23.0518 45.439C23.503 44.4995 23.8662 43.6221 23.8662 42.7739C23.8661 41.6149 23.2228 40.5111 22.4961 39.4194L21.834 38.438C21.1073 37.3499 20.4649 36.2613 20.4648 35.1294C20.4648 34.0624 20.9263 33.3074 21.4746 32.5884L22.1504 31.7251C22.5963 31.1375 23.0015 30.5018 23.1738 29.6772L23.2266 29.3589C23.2395 29.1917 23.3237 29.0378 23.457 28.936C23.5903 28.8344 23.7602 28.7941 23.9248 28.8257C24.0153 28.8421 24.1109 28.8663 24.2119 28.895L24.7109 29.0425C25.076 29.1454 25.5125 29.2426 26.0566 29.2427C26.6012 29.2427 27.0384 29.1455 27.4033 29.0425L27.9014 28.895C28.0021 28.8664 28.0973 28.8421 28.1875 28.8257ZM21.2842 14.8452C21.4496 14.7238 21.5837 14.8708 21.4678 15.0151C20.2337 16.5559 19.5752 18.1129 19.5752 20.4185C19.5752 21.6781 20.0256 22.8328 20.5264 23.9683L20.9053 24.8179C21.4061 25.9491 21.8574 27.0828 21.8574 28.3042C21.8573 29.744 21.2517 30.7269 20.5791 31.6079L19.9033 32.4683C19.3004 33.2499 18.792 34.0461 18.792 35.1294C18.7921 36.2853 19.4131 37.3405 20.1152 38.396L20.7549 39.3491C21.4572 40.4141 22.0791 41.5104 22.0791 42.7378C22.079 43.7074 21.6526 44.7167 21.1426 45.7563L20.5117 47.0181C19.8332 48.3999 19.2457 49.8285 19.5029 51.2837C13.7002 49.7803 8.68272 46.3276 5.19043 41.6665C5.59294 42.2013 6.01516 42.7207 6.45605 43.2241L6.83691 42.7856C7.2953 42.2596 7.87673 41.6521 8.64648 41.4497C8.82505 41.7983 9.01468 42.1405 9.21387 42.4771C8.63997 42.6324 8.18681 43.0715 7.81348 43.5151L7.54785 43.8442L7.30762 44.1499C7.79818 44.6588 8.31163 45.1479 8.8418 45.6157C9.17532 45.0998 9.69338 44.4414 10.2744 44.0894C10.4876 44.379 10.711 44.6614 10.9414 44.937C10.4482 45.272 10.0126 45.8713 9.72852 46.3618C10.3431 46.8576 10.98 47.3249 11.6387 47.7632C11.7561 46.8076 12.3014 45.9604 12.9053 45.1235L13.5098 44.2935L13.7646 43.9282C14.4681 42.8896 14.995 41.7963 14.668 40.4683L14.6016 40.2329L14.71 40.4165C14.9648 40.8612 15.2273 41.3888 15.2891 41.9976L15.3027 42.2642C15.3026 43.3174 14.7707 44.2676 14.1914 45.2104L13.8037 45.8384C13.2909 46.6781 12.8249 47.53 12.7451 48.4604C13.2371 48.753 13.7394 49.0301 14.251 49.2915C14.2849 48.32 14.7065 47.3118 15.2002 46.3247L15.5791 45.5894L15.9551 44.8667C16.4419 43.9145 16.8436 43.0111 16.8438 42.2134C16.8438 41.3037 16.3557 40.3918 15.7793 39.4526L15.1885 38.5034C14.5316 37.436 13.9287 36.3233 13.9287 35.1294C13.9287 33.9256 14.6348 32.8911 15.3994 31.9019L16.0254 31.1001C16.706 30.2147 17.2891 29.3381 17.2891 28.3774C17.2891 27.4552 17.0608 26.6893 16.7861 25.9136L16.4668 25.0278C16.1482 24.1203 15.8585 23.1207 15.8584 21.7915C15.8906 19.5924 16.8396 17.5056 18.4756 16.0356C18.7456 15.7931 19.0452 15.5859 19.3672 15.4185C17.8689 17.2151 17.001 18.8465 17.001 21.3188C17.001 22.4626 17.279 23.397 17.6055 24.2905L18.0342 25.4302C18.3607 26.3196 18.6377 27.2409 18.6377 28.3608C18.6375 29.6071 17.9455 30.5995 17.1953 31.5532L16.7842 32.0718C16.0339 33.0186 15.3408 33.966 15.3408 35.1284C15.341 36.1657 15.8543 37.1367 16.4609 38.1001L17.084 39.063C17.7754 40.1353 18.4091 41.2231 18.4092 42.4067C18.4092 43.4222 17.9117 44.4378 17.3408 45.4878L16.9541 46.1929C16.3063 47.3786 15.6827 48.6176 15.6631 49.9565C16.2555 50.2137 16.858 50.451 17.4717 50.6646C17.3068 49.3006 17.9224 47.9158 18.6074 46.5884L19.123 45.605C19.6857 44.5266 20.1728 43.5011 20.1729 42.5737C20.1729 41.4717 19.5709 40.4372 18.8906 39.395L18.2715 38.4526C17.5913 37.3995 16.9894 36.3163 16.9893 35.1284C16.9893 33.9898 17.5514 33.1044 18.207 32.2563L18.8105 31.4976C19.5473 30.5677 20.2266 29.6033 20.2266 28.3179C20.2265 27.1963 19.9089 26.2748 19.5273 25.3745L19.084 24.3608C18.6412 23.3374 18.2393 22.2552 18.2393 20.8608C18.2534 18.5373 19.3354 16.3492 21.1738 14.9282L21.2842 14.8452ZM30.6455 15.0171C30.5294 14.8725 30.6643 14.7247 30.8281 14.8462L30.9385 14.9302C32.7777 16.3507 33.8611 18.5389 33.875 20.8628C33.875 22.257 33.472 23.3384 33.0293 24.3618L32.5869 25.3755C32.2053 26.276 31.8867 27.1979 31.8867 28.3198C31.8868 29.6053 32.567 30.5689 33.3037 31.4985L33.707 32.0034C34.4438 32.9304 35.124 33.8764 35.124 35.1294C35.124 36.3179 34.5223 37.4014 33.8418 38.4546L33.2217 39.397C32.5413 40.4387 31.9396 41.4729 31.9395 42.5747C31.9395 43.4094 32.334 44.3241 32.8232 45.2847L33.5049 46.5894C34.1901 47.9167 34.8061 49.3016 34.6406 50.6655C34.7721 50.6198 34.9027 50.5718 35.0332 50.5239C34.2429 50.814 33.4354 51.0692 32.6113 51.2827C32.8482 49.9394 32.3661 48.6193 31.7568 47.3374L31.4443 46.6997L30.9717 45.7554C30.4616 44.7158 30.0353 43.7071 30.0352 42.7378C30.0352 41.5104 30.6563 40.414 31.3584 39.3491L31.9971 38.397C32.6992 37.3414 33.3203 36.2859 33.3203 35.1304C33.3203 34.0476 32.8119 33.2519 32.209 32.4702L31.7031 31.8286C30.9663 30.8896 30.2559 29.8653 30.2559 28.3052C30.2559 27.0837 30.7062 25.9501 31.207 24.8188L31.5859 23.9692C32.0867 22.8339 32.5371 21.679 32.5371 20.4194C32.5371 18.114 31.878 16.5578 30.6455 15.0171ZM32.7461 15.4185C33.0677 15.5859 33.3672 15.7932 33.6367 16.0356C35.2732 17.5052 36.2216 19.5923 36.2529 21.7915C36.2529 23.1207 35.9645 24.1204 35.6465 25.0278L35.3281 25.9136C35.054 26.6893 34.8252 27.4551 34.8252 28.3774C34.8252 29.3382 35.4092 30.2146 36.0898 31.1001L36.7148 31.9019C37.4796 32.8912 38.1855 33.9256 38.1855 35.1294C38.1855 36.2038 37.6983 37.2129 37.1221 38.1821L36.7285 38.8228C36.6624 38.9285 36.5968 39.0342 36.5312 39.1392L36.1475 39.7651C35.6572 40.5947 35.2725 41.4049 35.2725 42.2134C35.2725 43.0115 35.6733 43.9154 36.1602 44.8677L36.7275 45.9565C37.2977 47.0601 37.827 48.1987 37.8652 49.2915C36.9785 49.7433 36.061 50.1432 35.1191 50.4927C35.5681 50.3259 36.0116 50.1475 36.4492 49.9575C36.4316 48.7526 35.9242 47.6292 35.3506 46.5522L34.583 45.1401C34.0947 44.2135 33.7023 43.3111 33.7021 42.4087C33.7021 41.4073 34.156 40.474 34.7148 39.561L35.0283 39.064L35.4463 38.4214C36.1383 37.3518 36.7724 36.2814 36.7725 35.1294C36.7725 34.0733 36.2 33.1942 35.5322 32.3315L34.9189 31.5552C34.1687 30.601 33.4756 29.608 33.4756 28.3608C33.4756 27.2403 33.7535 26.3195 34.0801 25.4302L34.5088 24.2905C34.8354 23.3971 35.1133 22.4627 35.1133 21.3188C35.1133 18.8464 34.2446 17.2153 32.7461 15.4185ZM37.4365 40.5073C37.0945 41.9656 37.7822 43.1414 38.5918 44.2749L39.0439 44.896C39.6554 45.7318 40.2423 46.5688 40.4346 47.5054L40.4775 47.7632L40.459 47.7759C39.8441 48.1844 39.2106 48.5681 38.5605 48.9243L37.9053 49.271C38.402 49.0152 38.8902 48.7453 39.3691 48.4604C39.2893 47.5301 38.8231 46.6791 38.3105 45.8394L37.7324 44.896C37.2325 44.0554 36.8135 43.2004 36.8135 42.2642C36.8135 41.5417 37.1149 40.9248 37.4053 40.4165L37.5117 40.2329L37.4365 40.5073ZM43.4688 41.4497C44.1607 41.6318 44.7009 42.1418 45.1367 42.6255L45.6602 43.2241C45.3834 43.5401 45.0963 43.8467 44.8047 44.1489L44.4375 43.6812C44.0393 43.1854 43.546 42.6528 42.9004 42.478C43.0996 42.1414 43.2908 41.799 43.4688 41.4497ZM41.8398 44.0894C42.4205 44.4412 42.9393 45.099 43.2715 45.6147C42.874 45.965 42.4654 46.3026 42.0469 46.6284C42.1601 46.5402 42.274 46.4529 42.3857 46.3628C42.103 45.8729 41.6677 45.2721 41.1729 44.937C41.404 44.6615 41.6264 44.3791 41.8398 44.0894ZM16.8574 16.772C15.6352 18.3532 14.7227 20.2087 14.7227 22.3394C14.7227 23.5042 14.9762 24.4129 15.2461 25.2847L15.4766 26.0288C15.6996 26.7732 15.8847 27.5368 15.8848 28.4575C15.8848 29.3585 15.3694 30.2131 14.7412 31.061L14.3096 31.6255L13.8721 32.1909C13.1519 33.1362 12.5146 34.0974 12.5146 35.1294C12.5147 36.0651 12.813 36.9767 13.7988 38.769C12.2863 40.2802 10.3154 41.1049 9.04297 41.105C8.63142 41.105 8.40932 40.9798 8.26074 40.6548C8.1341 40.375 8.01296 40.0926 7.89844 39.8071C7.17348 39.8357 6.6571 40.1984 6.21875 40.6069L5.93652 40.8823L5.66895 41.1538C5.49366 41.3284 5.32215 41.4869 5.14355 41.604C4.4281 40.6429 3.7778 39.6308 3.19824 38.5747C3.55175 39.2135 3.92919 39.8368 4.33008 40.4438C4.52522 40.3395 4.71453 40.185 4.91016 40.0093L5.36621 39.5894C5.89758 39.1081 6.52886 38.6229 7.45508 38.5737C7.29399 38.0772 7.1527 37.5715 7.03125 37.0571C8.64449 37.025 10.189 36.397 11.3662 35.2935C11.1717 34.1852 11.8349 33.0677 12.626 32.0093L12.998 31.5249L13.5547 30.8179C14.2159 29.969 14.7674 29.1804 14.7676 28.4937C14.7676 27.7298 14.6173 27.098 14.4336 26.4556L14.1885 25.6118C13.9704 24.8368 13.7735 23.9673 13.7734 22.7896C13.7734 20.8216 14.7289 18.6879 16.1709 17.229C16.3721 17.0236 16.5911 16.8367 16.8252 16.6704L17.0615 16.5112L16.8574 16.772ZM35.0518 16.5112C35.3767 16.7143 35.6762 16.9553 35.9443 17.229C37.3835 18.6879 38.3398 20.8216 38.3398 22.7896C38.3398 23.9674 38.1432 24.8369 37.9248 25.6118L37.6787 26.4556C37.4948 27.0979 37.3447 27.7296 37.3447 28.4937C37.3448 29.1804 37.896 29.969 38.5576 30.8179L39.3018 31.7661C40.1709 32.8959 40.9569 34.0998 40.748 35.2935C41.9251 36.3972 43.4697 37.0251 45.083 37.0571C44.9608 37.5707 44.8194 38.0771 44.6582 38.5747C45.5838 38.6235 46.2139 39.108 46.7451 39.5894L47.2021 40.0093C47.3978 40.185 47.5868 40.3394 47.7822 40.4438C48.193 39.8277 48.5773 39.1936 48.9336 38.5405C48.4244 38.4883 48.044 38.216 47.6729 37.8979L47.2529 37.5298C46.7279 37.0783 46.1328 36.6625 45.1533 36.731C45.2577 36.2566 45.3422 35.7739 45.4102 35.2876C46.4878 35.2152 47.1663 35.6118 47.7432 36.0542L48.3467 36.5347C48.741 36.84 49.139 37.0882 49.6543 37.1167C49.8808 36.6364 50.0911 36.1481 50.2881 35.6528C49.4412 37.7896 48.32 39.787 46.9678 41.603C46.7899 41.486 46.6191 41.328 46.4443 41.1538L46.0381 40.7446C45.5685 40.2831 45.0198 39.8387 44.2148 39.8071C44.1007 40.0927 43.9807 40.3759 43.8535 40.6558C43.7061 40.9806 43.4839 41.105 43.0713 41.105C41.8003 41.105 39.8293 40.2803 38.3164 38.769C38.4257 38.57 38.5272 38.3822 38.6201 38.2036L38.875 37.6948C39.4181 36.5702 39.5986 35.8565 39.5986 35.1294C39.5986 34.0974 38.9621 33.137 38.2422 32.1919L37.5869 31.3442C36.867 30.4031 36.2305 29.4594 36.2305 28.4575C36.2305 27.536 36.4166 26.7723 36.6396 26.0278L36.8691 25.2847C37.1391 24.413 37.3926 23.5044 37.3926 22.3394C37.3925 20.0905 36.3748 18.1481 35.0518 16.5112ZM6.70215 35.2876C6.76997 35.7738 6.85566 36.2561 6.95898 36.731C5.98022 36.6625 5.38549 37.0784 4.86035 37.5298L4.43945 37.8979C4.06814 38.2159 3.68807 38.4881 3.17871 38.5405C2.89211 38.0165 2.62292 37.4813 2.37207 36.936L2.22754 36.6118C2.30267 36.781 2.3794 36.9494 2.45801 37.1167C2.90848 37.0918 3.26976 36.8985 3.61719 36.646L3.91309 36.4175L4.21387 36.1753C4.82602 35.6874 5.52729 35.2087 6.70215 35.2876ZM7.22949 27.3286C7.04734 27.9737 6.90069 28.6285 6.79004 29.2896C5.75141 29.2889 4.97102 29.6924 4.21387 30.1392L3.53223 30.5435C2.69125 31.0273 1.79254 31.4312 0.523438 31.2739C0.66895 31.9869 0.842633 32.6891 1.04492 33.3804C1.99803 33.4743 2.68251 33.1156 3.36035 32.6851L3.97656 32.2886C4.67383 31.8492 5.44265 31.4524 6.54492 31.478C6.52505 31.8398 6.51465 32.2043 6.51465 32.5718C6.51465 32.7766 6.51727 32.979 6.52441 33.1812C5.61379 33.1704 4.96168 33.5185 4.3584 33.9185L3.68848 34.3745C3.0923 34.7696 2.46568 35.1005 1.59863 35.061C0.928097 33.2401 0.453569 31.3237 0.204102 29.3374C1.45147 29.544 2.36061 29.1923 3.22266 28.728L3.68945 28.4663L4.1582 28.1987C4.94617 27.7556 5.78376 27.3524 6.88965 27.3247L7.22949 27.3286ZM45.5684 31.478C46.671 31.4522 47.4404 31.8491 48.1377 32.2886L48.7529 32.6851C49.4305 33.1156 50.1149 33.4742 51.0674 33.3804C51.1646 33.0514 51.2543 32.7199 51.3379 32.3862C51.1104 33.2978 50.8353 34.1903 50.5146 35.061C49.6478 35.0997 49.0212 34.7685 48.4248 34.3735L47.7549 33.9185C47.1514 33.5187 46.4994 33.1705 45.5889 33.1812C45.5945 32.979 45.5996 32.7758 45.5996 32.5718C45.5996 32.2042 45.5881 31.8398 45.5684 31.478ZM44.8848 27.3286C46.046 27.2781 46.917 27.6361 47.7168 28.0679L48.1895 28.3325L48.6562 28.5991C49.5898 29.1239 50.5476 29.5629 51.9082 29.3374C51.8261 29.9908 51.7203 30.6366 51.5908 31.2739C50.3209 31.4315 49.4222 31.0274 48.5811 30.5435L47.8994 30.1401C47.1421 29.6932 46.3613 29.2889 45.3223 29.2896C45.2107 28.6288 45.065 27.974 44.8848 27.3286ZM47.9551 11.9302C50.5863 16.0002 52.1142 20.8501 52.1143 26.0571C52.1143 27.1385 52.0469 28.2047 51.9189 29.2515C51.9898 28.6682 52.0418 28.0791 52.0742 27.4849C50.4915 27.6623 49.366 27.1575 48.3057 26.5962L47.5166 26.1743C46.5522 25.6699 45.56 25.2501 44.2393 25.396C43.946 24.6535 43.6043 23.9308 43.2168 23.2329C44.8359 22.9486 46.0125 23.3424 47.0938 23.8657L47.6289 24.1353L48.1562 24.4116C49.3004 25.0066 50.4687 25.5398 52.1016 25.3149C51.9612 20.3818 50.4568 15.801 47.9551 11.9302ZM26.0566 14.1997C28.4752 14.1997 30.5016 15.5678 31.0332 17.3354C31.0671 17.4519 31.0313 17.5328 30.9219 17.5093L30.8604 17.4888C30.3974 17.2894 29.8975 17.1908 29.3936 17.1997C28.4071 17.1997 27.5374 17.5631 27.0234 18.1919C26.7083 19.2324 26.7278 20.3986 27.1045 21.3091C27.3673 21.2829 27.4992 21.054 27.6113 20.8149L27.7207 20.5796C27.8139 20.3927 27.9199 20.2438 28.1035 20.2437C28.2358 20.2437 28.3449 20.2745 28.4561 20.3159L28.6895 20.4067C28.8573 20.4681 29.0603 20.5229 29.3594 20.5229C29.7727 20.5479 30.1801 20.4158 30.5 20.1528C31.0443 20.2239 31.1689 20.7412 31.1689 21.3462C31.1688 24.0405 28.6924 27.7491 26.0576 27.7495C23.4227 27.7495 20.9455 24.0407 20.9453 21.3462C20.9453 20.7413 21.0413 20.2057 21.5615 20.2056C22.0025 20.2056 22.0821 20.5229 22.7549 20.5229C23.0538 20.5229 23.2809 20.4681 23.4756 20.4067L23.748 20.3159C23.8773 20.2745 23.9999 20.2437 24.1318 20.2437C24.3012 20.2437 24.4249 20.3013 24.543 20.3745L24.7842 20.5288C24.8696 20.5787 24.9642 20.6231 25.0801 20.6489C25.3373 20.0298 25.3188 18.9426 25.0898 18.1919C24.5766 17.5629 23.7074 17.1997 22.7207 17.1997C22.2162 17.1911 21.7156 17.2897 21.252 17.4888C21.0951 17.5591 21.0401 17.4714 21.0811 17.3354C21.6127 15.5686 23.6381 14.1998 26.0566 14.1997ZM4.74902 23.9985C5.90556 23.4123 7.14062 22.9249 8.89453 23.2329C8.50783 23.9309 8.16656 24.6536 7.87402 25.396C6.55353 25.2501 5.5612 25.6698 4.59668 26.1743L3.80762 26.5962C2.74729 27.1574 1.62198 27.6622 0.0400391 27.4849L0.0322266 27.3687C0.0106731 26.9344 0 26.4968 0 26.0571L0.000976562 25.8423L0.0117188 25.3149C1.51824 25.5222 2.62875 25.0839 3.69043 24.5474L4.74902 23.9985ZM27.9482 24.1685C27.3256 24.2904 26.692 24.3465 26.0576 24.3364C25.55 24.3446 25.0424 24.3103 24.541 24.2339L24.166 24.1685C24.0867 24.1984 24.0235 24.2605 23.9922 24.3394C24.0947 24.4183 24.1913 24.5168 24.2881 24.6235L24.585 24.9604C24.9294 25.3433 25.3446 25.7163 26.0576 25.7163C26.7703 25.7161 27.1854 25.3432 27.5293 24.9604L27.8252 24.6235C27.9218 24.5168 28.0188 24.4184 28.1211 24.3394C28.0902 24.2607 28.0272 24.1987 27.9482 24.1685ZM46.2188 12.7544C46.2939 12.6883 46.4037 12.6777 46.4902 12.728C46.5593 12.7683 46.6017 12.8411 46.6055 12.9185L46.6006 12.9771C46.3005 16.8758 48.5796 20.264 51.3828 23.2388C50.2091 23.5912 49.1061 23.1869 47.959 22.6694L47.1562 22.3003L46.6094 22.0581C45.319 21.5098 43.9256 21.1177 42.2861 21.686C40.9394 19.682 39.2349 17.9431 37.2578 16.5571C39.1761 15.7727 41.4978 15.9542 43.4824 17.229C43.7734 15.4854 44.6824 13.9266 45.9854 12.9253L46.2188 12.7544ZM5.62402 12.728C5.69368 12.6881 5.77736 12.687 5.84668 12.7222L5.89551 12.7554C7.32343 13.7444 8.32388 15.3828 8.62988 17.229C10.6147 15.9538 12.9375 15.7725 14.8545 16.5571C12.8776 17.9435 11.1728 19.6825 9.8252 21.686C8.06934 21.0771 6.59588 21.5703 5.22852 22.1772L4.15332 22.6685C3.00626 23.186 1.90347 23.5904 0.729492 23.2378C3.44514 20.3552 5.66991 17.0864 5.53125 13.3403L5.51074 12.9761C5.49152 12.8776 5.53698 12.778 5.62402 12.728ZM26.6592 22.4399C26.4445 22.4388 26.3735 22.5591 26.0566 22.5591C25.7404 22.559 25.6697 22.4389 25.4551 22.4399C25.2488 22.4413 24.8481 22.6031 24.7617 22.7544C24.7669 22.8306 24.7982 22.903 24.8496 22.9595C24.9653 22.9771 25.0653 23.0065 25.1582 23.0405L25.4258 23.1499C25.6026 23.223 25.7889 23.2876 26.0566 23.2876C26.3244 23.2876 26.5107 23.223 26.6875 23.1499L26.9541 23.0405C27.0469 23.0065 27.1473 22.9772 27.2627 22.9595C27.3149 22.9035 27.3464 22.8308 27.3516 22.7544C27.2651 22.6032 26.8655 22.4413 26.6592 22.4399ZM22.2061 18.0669C23.194 18.0669 24.1815 18.6687 24.1338 19.2212C23.0938 18.8371 22.0885 18.7951 21.5498 19.2095L21.4482 19.2983C21.2493 19.1457 21.1326 18.9092 21.1318 18.6587C21.1321 18.3082 21.4881 18.0669 22.2061 18.0669ZM29.9072 18.0659C30.6252 18.0659 30.9804 18.3075 30.9805 18.6587C30.98 18.909 30.8634 19.1456 30.665 19.2983C30.2183 18.7984 29.29 18.812 28.2383 19.1724C28.1781 19.0292 28.1714 18.8688 28.2197 18.7212C28.6053 18.2925 29.195 18.1049 29.7314 18.0718L29.9072 18.0659ZM27.4336 4.76318L30.8857 5.00635L28.3076 7.28467L29.4697 10.3276C30.9525 8.80936 32.9865 7.91887 35.415 7.66162C34.4951 9.0276 33.753 10.5053 33.207 12.0591C34.6066 10.9336 36.324 10.2743 38.1172 10.1743C36.9589 11.6279 35.9801 13.2164 35.2031 14.9048C35.1697 14.9934 35.0986 15.0631 35.0088 15.0933C34.9414 15.1159 34.8685 15.1146 34.8027 15.0913L34.7393 15.0601C29.4046 12.4193 23.1659 12.3539 17.7861 14.8628L17.374 15.0601C17.2936 15.1106 17.1946 15.1234 17.1045 15.0933C17.0145 15.0631 16.943 14.9935 16.9092 14.9048C16.1316 13.2167 15.1529 11.6282 13.9951 10.1743C15.7889 10.2743 17.5071 10.9342 18.9072 12.0601C18.3601 10.5063 17.6174 9.02799 16.6973 7.66162C18.9921 7.90455 20.9326 8.71264 22.3916 10.0806L22.6445 10.3276L23.8047 7.28467L21.2275 5.00635L24.6797 4.76318L26.0566 1.5542L27.4336 4.76318ZM23.3555 11.0864C23.255 11.1614 23.3065 11.2887 23.4365 11.2661C25.1706 10.9647 26.9437 10.9647 28.6777 11.2661C28.8078 11.2887 28.8588 11.1614 28.7568 11.0864L26.0566 9.03271L23.3555 11.0864Z" fill="#006241"/>
</svg>
