<svg xmlns="http://www.w3.org/2000/svg" viewBox="0 0 53 15">
  <path d="M44.86 10.77c0.64 0 1.18 0.51 1.18 1.14 0 0.64-0.52 1.15-1.18 1.15h0.02l-0.45 0.01h-0.62l-7.64 0.02c-0.12 0-0.2-0.1-0.18-0.22l0.32-1.22H36l-0.76 1.38c-0.01 0.04-0.1 0.09-0.15 0.09l-11.26 0.01c-0.1 0-0.18-0.08-0.17-0.19l0.1-1.03c-1.14 0.97-2.72 1.2-3.65 1.2H15.5c-0.13 0-0.2-0.1-0.16-0.24l0.16-0.49c-0.76 0.56-1.77 0.97-3.14 0.97-1.6 0-2.56-0.58-2.96-1.5-0.98 0.95-2.48 1.49-3.99 1.49-0.46 0-0.92-0.04-1.35-0.15l-0.55 1.68c-0.06 0.16-0.22 0.17-0.31 0.03L0.03 9.84C-0.03 9.75 0 9.64 0.12 9.6l4.6-1.86-0.05-0.1C4.43 7.02 4.39 6 4.54 5.35c0.23-1 1.5-3.48 4.88-3.33 0.68 0.03 1.57 0.3 2.17 0.63l0.18-0.43c0.03-0.06 0.1-0.12 0.18-0.12l10.77-0.03c0.73 0 1.52 0.17 2.11 0.56l0.05-0.36c0-0.1 0.09-0.15 0.16-0.15h19.18c0.1 0 0.17 0.07 0.18 0.16l0.24 1.87c0.76-0.81 1.37-1.31 2.14-1.7 0.61-0.3 1.37-0.36 1.88-0.38h0.25l0.64-1.95c0.05-0.16 0.22-0.18 0.31-0.03l3.11 4.97c0.06 0.1 0.02 0.2-0.09 0.25l-5.4 2.14c-0.16 0.08-0.28-0.04-0.24-0.2l0.17-0.5c-0.37 0.36-0.76 0.8-1.15 1.3-0.52 0.68-1.17 2.03-1.35 2.55l-0.05 0.13" fill="#005543"/>
  <path d="M16.22 3.05L14.24 8.9c-0.1 0.24-0.18 0.55-0.34 0.81-0.15 0.25-0.38 0.44-0.75 0.44-0.34 0-0.43-0.19-0.43-0.45 0.02-0.25 0.14-0.56 0.22-0.81l1.98-5.84h-2.54L10.3 9.12c-0.37 1.12-0.9 3.37 2.05 3.37 2.95 0 3.96-2.25 4.35-3.37l2.05-6.07h-2.54Z" fill="#FFFFFF"/>
  <path d="M48.87 4.98L48.5 6.13l3.29-1.31-1.88-3-0.37 1.15s-1.53-0.15-2.36 0.26c-0.7 0.35-1.25 0.8-2.04 1.65-0.4 0.42-1.12 1.47-1.12 1.47l-0.45-3.38h-2.4l0.83 5.27-1.43 4.03h2.83l0.68-1.94c0.2-0.58 0.9-2.03 1.47-2.78 1.03-1.32 2.28-2.6 3.3-2.57Z" fill="#FFF200"/>
  <path d="M31.26 12.27l5.03-9.29h-2.47l-2.75 5.76 1.01-5.76H29.9s-2.53 5.11-2.82 5.8l1.11-5.8h-2.51l-1.05 9.29h2.48l2.72-5.8c-0.14 0.63-1.03 5.8-1.03 5.8h2.47Zm5.24-3.4h1.28l0.57-3.4-1.85 3.4Zm0.88-5.89h3.47l-1.12 9.3h-2.68l0.34-1.5H35.5l-0.81 1.47h-2.37l5.06-9.27Z" fill="#FFF200"/>
  <path d="M3.14 13.18l-1.94-3.1L4.61 8.7 4.24 9.86c0.42 0.26 0.9 0.34 1.37 0.3 0.4-0.02 0.88-0.2 1.02-0.54C6.73 9.4 6.6 8.9 6.28 8.58 5.9 8.2 5.64 7.7 5.48 7.32c-0.15-0.45-0.21-1.27-0.1-1.77 0.2-0.76 1.2-2.79 4-2.66 0.6 0.02 1.5 0.33 1.94 0.6l-1.04 1.96c-1.17-0.7-1.89-0.44-2.16 0.2-0.26 0.62 0.18 1.22 0.6 1.71 0.52 0.59 0.94 1.22 0.94 1.97 0 1.75-1.9 3.16-4.25 3.16-0.7 0-1.35-0.13-1.92-0.36l-0.35 1.05Zm13.33-0.88h3.65c1.28 0 3.36-0.43 4-2.34 0.37-1.1-0.3-2.15-0.98-2.5 0.73-0.26 1.44-1.16 1.65-1.86C25.37 3.58 24.15 3 22.72 3h-3.1l-3.15 9.29Zm3.9-3.7c0.9-0.05 1.43 0.29 1.28 0.89-0.13 0.59-0.63 0.8-1.16 0.8h-0.7l0.58-1.7Zm0.48-1.96l0.56-1.62h0.43c0.36 0 1.01 0.06 0.7 0.86-0.27 0.63-0.95 0.76-1.34 0.76h-0.35Z" fill="#FFFFFF"/>
  <path d="M44.76 11.87v-0.16h0.1c0.06 0 0.12 0.01 0.12 0.07 0 0.09-0.06 0.09-0.12 0.09h-0.1Zm0 0.07h0.09L45 12.16h0.09l-0.15-0.22c0.07-0.01 0.13-0.06 0.13-0.14 0-0.12-0.06-0.17-0.2-0.17h-0.19v0.53h0.08v-0.22Zm0.1 0.43c0.26 0 0.46-0.2 0.46-0.47 0-0.27-0.2-0.46-0.46-0.46s-0.47 0.2-0.47 0.46 0.2 0.47 0.47 0.47Zm-0.38-0.47c0-0.22 0.16-0.38 0.38-0.38 0.21 0 0.38 0.16 0.38 0.38s-0.17 0.4-0.38 0.4c-0.22 0-0.38-0.18-0.38-0.4Z" fill="#FFF200"/>
</svg>
