<svg xmlns="http://www.w3.org/2000/svg" viewBox="0 0 49 35">
  <path d="M10.28 25.32c-0.86 0.8-2.44 2.03-4 2.07-1.4 0.03-2.06-1.14-2.06-2.34 0.04-0.59 0.07-1.07 0.14-1.34 2.27-0.35 7.12-1.48 7.12-4.48 0-1.58-1.13-2.13-2.4-2.13-3.55 0-6.96 4.13-6.96 8.05 0 1.93 0.86 3.75 3 3.79 2.54 0.03 4.16-1.59 5.6-3.03l-0.44-0.59ZM3.7 11.5h5.88c0.07 0 0.07 0.04 0 0.07-0.65 0.31-1.62 1.27-1.62 1.27-0.65 0.66-1.17 1.07-2.3 1.07H0.03c-0.04 0-0.04-0.07 0-0.07 0.61-0.34 1.54-1.3 1.54-1.3 0.38-0.45 1.17-1.04 2.14-1.04Zm38.67 0h5.92c0.03 0 0.03 0.04 0 0.07-0.69 0.31-1.62 1.27-1.62 1.27-0.69 0.66-1.2 1.07-2.3 1.07h-5.65c-0.03 0-0.03-0.07 0-0.07 0.62-0.34 1.55-1.3 1.55-1.3 0.38-0.45 1.14-1.04 2.1-1.04Zm-29 0h5.88c0.07 0 0.07 0.04 0 0.07-0.66 0.31-1.62 1.27-1.62 1.27-0.65 0.66-1.17 1.07-2.3 1.07H9.73c-0.07 0-0.07-0.07-0.04-0.07 0.62-0.34 1.55-1.3 1.55-1.3 0.38-0.45 1.17-1.04 2.14-1.04Zm9.66 0h5.89c0.07 0 0.07 0.04 0 0.07-0.66 0.31-1.62 1.27-1.62 1.27-0.65 0.66-1.17 1.07-2.27 1.07H19.4c-0.04 0-0.04-0.07-0.04-0.07 0.66-0.34 1.55-1.3 1.55-1.3 0.38-0.45 1.17-1.04 2.13-1.04Zm9.67 0h5.92c0.03 0 0.03 0.04-0.03 0.07-0.66 0.31-1.62 1.27-1.62 1.27-0.66 0.66-1.17 1.07-2.27 1.07h-5.65c-0.03 0-0.03-0.07 0-0.07 0.62-0.34 1.55-1.3 1.55-1.3 0.35-0.45 1.14-1.04 2.1-1.04Z" fill="#28539C"/>
  <path d="M34.33 0c-3.72 0-6.2 1.93-6.2 4.85 0 2.69 2.28 4.47 5.65 4.47 1.1 0 2.06-0.13 3.2-0.44V6.64c-0.8 0.9-1.76 1.24-2.79 1.24-2 0-3.37-1.3-3.37-3.23 0-1.9 1.41-3.27 3.4-3.27 1.07 0 1.93 0.41 2.62 1.13V0.24C36.12 0.1 35.22 0 34.33 0ZM6.6 1.58c1.37 0 3.03 0.28 3.71 0.86V0.31H0.54v2.13c0.7-0.58 2.17-0.82 3.75-0.82v5.85c0 0.86-0.07 1.1-0.41 1.54h3.13C6.67 8.57 6.6 8.33 6.6 7.47V1.58Zm9.98 2.1c-0.55 0.2-1.59 0.24-2.1 0.24h-0.83v-2.3h1.1c1 0 2.69 0.2 3.34 0.79V0.3h-7.12C11.3 0.72 11.38 1 11.38 1.82v5.65c0 0.86-0.07 1.1-0.38 1.54h7.57V6.88c-1.03 0.8-3.03 0.8-3.82 0.8h-1.1V5.22h0.8c0.54 0 1.54 0.07 2.13 0.27V3.68Zm10.56-3.1C26 0.21 24.52 0 23.39 0c-2.07 0-4.06 0.65-4.06 2.86 0 3.78 6.2 1.78 6.2 4.12 0 0.76-1.11 1.07-2 1.07-1.59 0-2.69-0.27-4.06-1.17v1.93c1.03 0.34 2.44 0.55 3.95 0.55 2.14 0 4.13-0.62 4.13-2.86 0-3.99-6.16-2.2-6.16-4.13 0-0.79 1-1.06 1.86-1.06 1.45 0 3.03 0.44 3.89 1.3V0.58Zm-6.06 31.14h7.6c0.08 0 0.08 0.07 0 0.1-0.85 0.38-2.1 1.66-2.1 1.66-0.82 0.82-1.5 1.34-2.95 1.34h-7.26c-0.07 0-0.07-0.04-0.03-0.07 0.82-0.45 2-1.72 2-1.72 0.47-0.55 1.5-1.3 2.74-1.3Z" fill="#CC2131"/>
  <path d="M9.52 19c0 2.16-3.3 3.7-4.95 3.74 0.3-1.51 2.06-4.57 3.65-4.71 1-0.07 1.3 0.41 1.3 0.96Z" fill="#FFFFFF"/>
  <path d="M28.79 27.04c-0.1 0.31-0.34 1.31-0.34 1.41 0 0.18 0.17 0.35 0.82 0.35 0.55 0 0.8-0.04 0.97-0.28 0.06-0.17 0.24-0.96 0.48-1.61 0.93-2.58 2.3-5.1 3.23-5.1 0.28 0 0.45 0.1 0.8 0.1 0.61 0 0.89-0.82 0.89-1.4 0-0.52-0.28-0.76-0.76-0.76-1.45 0-2.89 3.23-3.61 4.37l-0.04-0.04c0.24-0.92 0.83-2.44 0.83-3.47 0-0.52-0.2-0.86-0.76-0.86-1.03 0-2.61 1.9-3.23 2.72l0.3 0.44c0.28-0.34 0.97-1.1 1.42-1.1 0.24 0 0.24 0.24 0.24 0.42 0 0.27-0.24 1.2-0.35 1.68l-0.89 3.13Zm-8.74-1.2c-0.2 0.3-0.69 1.41-1.41 1.41-0.45 0-0.76-0.93-0.83-1.2l-0.75-2.41c0.27-0.55 1.58-2.14 2.17-2.14 0.4 0 0.58 0.25 0.58 0.62l0.3 0.1c0.5-0.34 0.97-0.85 0.97-1.44 0-0.62-0.34-1.03-0.96-1.03-1.27 0-2.65 2.1-3.27 3.16-0.38-1.1-0.55-3.16-2-3.16-1.34 0-2.1 1.65-2.54 2.79l0.45 0.27c0.3-0.51 0.51-1.3 1.23-1.3 0.86 0 1.04 1.44 1.52 3.33l-0.62 0.83c-0.41 0.55-1.27 1.79-1.96 1.79-0.38 0-0.55-0.28-0.55-0.52 0-0.17 0.03-0.28 0.07-0.34l-0.38-0.18c-0.38 0.28-0.83 0.73-0.83 1.42 0 0.72 0.38 1.16 1.07 1.16 1.3 0 2.58-2.37 3.4-3.4 0.31 0.93 0.73 3.4 1.97 3.4 1.4 0 2.16-1.65 2.78-2.78l-0.4-0.38Zm1.96-4.82h1.86l-1.14 4.06c-0.2 0.8-0.61 2.14-0.61 2.82 0 0.49 0.2 1.1 1 1.1 1.3 0 2.92-2.13 3.64-2.92l-0.31-0.41c-0.52 0.44-1.2 1.4-1.82 1.4-0.28 0-0.38-0.16-0.38-0.34 0-0.3 0.17-0.96 0.27-1.27l1.24-4.44h2.14l0.2-0.96H26l0.76-2.75H24.9l-0.75 2.75h-1.9l-0.24 0.96Z" fill="#2A59A5"/>
  <path d="M43.03 0.14c-3.33 0-5.7 1.92-5.7 4.64 0 2.69 2.13 4.44 5.26 4.44 3.37 0 5.7-1.86 5.7-4.6 0-2.7-2.13-4.48-5.26-4.48ZM42.8 7.9c-1.79 0-2.92-1.44-2.92-3.23S41 1.45 42.79 1.45c1.76 0 2.93 1.44 2.93 3.23S44.55 7.9 42.79 7.9Z" fill="#CC2131"/>
  <path d="M42.55 21.26c0.2-0.69 0.48-1.44 0.48-1.55 0-0.17-0.1-0.27-1.06-0.27-0.28 0-0.35 0.07-0.38 0.2l-0.38 0.9c-0.34-0.55-0.62-0.76-1.17-0.76-2.24 0-6.43 3.96-6.43 7.6 0 0.76 0.34 1.62 1.37 1.62 1.72 0 3.82-2.44 4.61-3.81l0.04 0.03c-0.24 0.62-0.83 2.17-0.83 2.92 0 0.55 0.35 0.86 0.86 0.86 1.2 0 2.9-2 3.65-2.78L42.9 25.8c-0.55 0.7-1.17 1.28-1.62 1.28-0.24 0-0.34-0.14-0.34-0.31 0-0.1 0.1-0.52 0.27-1.07l1.34-4.44Zm-7.02 4.65c0-1.62 1.83-5.03 3.86-5.03 0.69 0 0.96 0.45 0.96 1.07 0 1.52-2.3 5.33-4 5.33-0.64 0-0.82-0.75-0.82-1.37Z" fill="#28539C"/>
</svg>
