<svg xmlns="http://www.w3.org/2000/svg" viewBox="0 0 53 22">
  <path d="M42.44 0l7.87 21.32h2.73v0.16h-8.63v-0.16h2.53l-2.57-7h-5.3l0.04 0.08c0.2 0.6 0.32 1.28 0.32 1.92v2.64c0 1.36 0.6 2.72 1.73 2.72 0.68 0 1.2-0.24 1.84-0.8l0.08 0.08C42.4 21.68 41.56 22 40.28 22c-0.97 0-1.77-0.24-2.42-0.68l-0.12-0.08c-0.84-0.64-1.4-1.72-1.64-3.16l-0.04-0.24-0.04-0.36V17.4l-1.45 3.92h2.05v0.16h-4.3v-0.16h2.09l1.6-4.32-0.03-0.76V14.4c0-2.32-1.73-3.64-4.74-3.64h-2.97v10.6h2.57v0.16h-10v-0.16h2.53l-2.57-7H13.6l-2.57 6.92h0.12c3.37-0.56 4.9-3.12 4.94-5.8h0.16v6.08H0L12.09 0.88H7.23c-4.02 0-5.86 3.08-5.9 6.16H1.2V0.72h14.66l-0.08 0.16-12 20.48h6.3 0.48c0.12 0 0.2 0 0.32-0.04h0.04L18.75 0h0.16l6.18 16.8V0.88h-2.52V0.72h8.75c4.21 0 7.15 2.16 7.15 5.24 0 2.24-2.01 4.12-4.98 4.64l-0.57 0.08 0.57 0.04c1.8 0.2 3.25 0.76 4.25 1.64L42.28 0h0.16Zm-3.45 14.16l5.26 0.04-3.54-9.56-2.89 7.88 0.16 0.16c0.45 0.4 0.77 0.92 1 1.48ZM28.27 10.6V0.88h2.25c3 0 4.61 1.76 4.61 5.12 0 3.56-0.92 4.64-3.9 4.64 0-0.04-2.96-0.04-2.96-0.04Zm-11.04-6l-3.54 9.56h7.07L17.22 4.6Z" fill="#000000"/>
</svg>
